<?xml version="1.0" encoding="UTF-8" standalone="no"?>
<!DOCTYPE svg PUBLIC "-//W3C//DTD SVG 1.1//EN"
 "http://www.w3.org/Graphics/SVG/1.1/DTD/svg11.dtd">
<!-- Generated by graphviz version 2.40.1 (20161225.0304)
 -->
<!-- Title: AngularMotionVector3.h Pages: 1 -->
<svg width="4643pt" height="263pt"
 viewBox="0.00 0.00 4642.50 263.00" xmlns="http://www.w3.org/2000/svg" xmlns:xlink="http://www.w3.org/1999/xlink">
<g id="graph0" class="graph" transform="scale(1 1) rotate(0) translate(4 259)">
<title>AngularMotionVector3.h</title>
<!-- Node24 -->
<g id="node1" class="node">
<title>Node24</title>
<polygon fill="#bfbfbf" stroke="#000000" points="3170,-235.5 3170,-254.5 3303,-254.5 3303,-235.5 3170,-235.5"/>
<text text-anchor="middle" x="3236.5" y="-242.5" font-family="FreeSans.ttf" font-size="10.00" fill="#000000">AngularMotionVector3.h</text>
</g>
<!-- Node25 -->
<g id="node2" class="node">
<title>Node25</title>
<g id="a_node2"><a xlink:href="SpatialMotionVector_8h.html" target="_top" xlink:title="SpatialMotionVector.h">
<polygon fill="none" stroke="#000000" points="2953.5,-179.5 2953.5,-198.5 3075.5,-198.5 3075.5,-179.5 2953.5,-179.5"/>
<text text-anchor="middle" x="3014.5" y="-186.5" font-family="FreeSans.ttf" font-size="10.00" fill="#000000">SpatialMotionVector.h</text>
</a>
</g>
</g>
<!-- Node24&#45;&gt;Node25 -->
<g id="edge1" class="edge">
<title>Node24&#45;&gt;Node25</title>
<path fill="none" stroke="#191970" d="M3188.8572,-232.982C3148.0097,-222.6781 3089.9525,-208.0331 3052.2546,-198.5237"/>
<polygon fill="#191970" stroke="#191970" points="3188.0367,-236.3846 3198.5891,-235.4369 3189.7489,-229.5972 3188.0367,-236.3846"/>
</g>
<!-- Node39 -->
<g id="node11" class="node">
<title>Node39</title>
<g id="a_node11"><a xlink:href="Rotation_8cpp.html" target="_top" xlink:title="Rotation.cpp">
<polygon fill="none" stroke="#000000" points="139,-62 139,-81 216,-81 216,-62 139,-62"/>
<text text-anchor="middle" x="177.5" y="-69" font-family="FreeSans.ttf" font-size="10.00" fill="#000000">Rotation.cpp</text>
</a>
</g>
</g>
<!-- Node24&#45;&gt;Node39 -->
<g id="edge64" class="edge">
<title>Node24&#45;&gt;Node39</title>
<path fill="none" stroke="#191970" d="M3159.7802,-243.5393C2734.2668,-235.265 673.2048,-192.8762 394.5,-143 320.8989,-129.8286 238.0341,-97.2883 199.4528,-81.0441"/>
<polygon fill="#191970" stroke="#191970" points="3159.7568,-247.0394 3169.8228,-243.7341 3159.8926,-240.0407 3159.7568,-247.0394"/>
</g>
<!-- Node177 -->
<g id="node37" class="node">
<title>Node177</title>
<g id="a_node37"><a xlink:href="GyroscopeSensor_8cpp.html" target="_top" xlink:title="GyroscopeSensor.cpp">
<polygon fill="none" stroke="#000000" points="0,-62 0,-81 121,-81 121,-62 0,-62"/>
<text text-anchor="middle" x="60.5" y="-69" font-family="FreeSans.ttf" font-size="10.00" fill="#000000">GyroscopeSensor.cpp</text>
</a>
</g>
</g>
<!-- Node24&#45;&gt;Node177 -->
<g id="edge65" class="edge">
<title>Node24&#45;&gt;Node177</title>
<path fill="none" stroke="#191970" d="M3159.7493,-244.2789C2808.4065,-240.8572 1351.1114,-225.3199 895.5,-199 635.6295,-183.9877 568.3085,-191.1666 312.5,-143 229.3737,-127.348 134.0112,-96.696 88.0751,-81.1034"/>
<polygon fill="#191970" stroke="#191970" points="3159.7858,-247.7794 3169.8193,-244.3766 3159.8538,-240.7797 3159.7858,-247.7794"/>
</g>
<!-- Node227 -->
<g id="node46" class="node">
<title>Node227</title>
<g id="a_node46"><a xlink:href="AngularMotionVector3_8cpp.html" target="_top" xlink:title="AngularMotionVector3.cpp">
<polygon fill="none" stroke="#000000" points="3093.5,-179.5 3093.5,-198.5 3237.5,-198.5 3237.5,-179.5 3093.5,-179.5"/>
<text text-anchor="middle" x="3165.5" y="-186.5" font-family="FreeSans.ttf" font-size="10.00" fill="#000000">AngularMotionVector3.cpp</text>
</a>
</g>
</g>
<!-- Node24&#45;&gt;Node227 -->
<g id="edge60" class="edge">
<title>Node24&#45;&gt;Node227</title>
<path fill="none" stroke="#191970" d="M3216.123,-228.928C3203.7129,-219.1397 3188.27,-206.9595 3177.7255,-198.6427"/>
<polygon fill="#191970" stroke="#191970" points="3214.1136,-231.8007 3224.1327,-235.2455 3218.4486,-226.3046 3214.1136,-231.8007"/>
</g>
<!-- Node228 -->
<g id="node47" class="node">
<title>Node228</title>
<g id="a_node47"><a xlink:href="GeomVector3_8cpp.html" target="_top" xlink:title="GeomVector3.cpp">
<polygon fill="none" stroke="#000000" points="3256,-179.5 3256,-198.5 3359,-198.5 3359,-179.5 3256,-179.5"/>
<text text-anchor="middle" x="3307.5" y="-186.5" font-family="FreeSans.ttf" font-size="10.00" fill="#000000">GeomVector3.cpp</text>
</a>
</g>
</g>
<!-- Node24&#45;&gt;Node228 -->
<g id="edge61" class="edge">
<title>Node24&#45;&gt;Node228</title>
<path fill="none" stroke="#191970" d="M3256.877,-228.928C3269.2871,-219.1397 3284.73,-206.9595 3295.2745,-198.6427"/>
<polygon fill="#191970" stroke="#191970" points="3254.5514,-226.3046 3248.8673,-235.2455 3258.8864,-231.8007 3254.5514,-226.3046"/>
</g>
<!-- Node229 -->
<g id="node48" class="node">
<title>Node229</title>
<g id="a_node48"><a xlink:href="LinearMotionVector3_8cpp.html" target="_top" xlink:title="LinearMotionVector3.cpp">
<polygon fill="none" stroke="#000000" points="3377,-179.5 3377,-198.5 3514,-198.5 3514,-179.5 3377,-179.5"/>
<text text-anchor="middle" x="3445.5" y="-186.5" font-family="FreeSans.ttf" font-size="10.00" fill="#000000">LinearMotionVector3.cpp</text>
</a>
</g>
</g>
<!-- Node24&#45;&gt;Node229 -->
<g id="edge62" class="edge">
<title>Node24&#45;&gt;Node229</title>
<path fill="none" stroke="#191970" d="M3282.3311,-232.7199C3320.7613,-222.4228 3374.852,-207.9296 3410.0405,-198.5011"/>
<polygon fill="#191970" stroke="#191970" points="3281.1818,-229.4043 3272.4284,-235.3733 3282.9935,-236.1658 3281.1818,-229.4043"/>
</g>
<!-- Node230 -->
<g id="node49" class="node">
<title>Node230</title>
<g id="a_node49"><a xlink:href="MotionVector3_8cpp.html" target="_top" xlink:title="MotionVector3.cpp">
<polygon fill="none" stroke="#000000" points="3532,-179.5 3532,-198.5 3639,-198.5 3639,-179.5 3532,-179.5"/>
<text text-anchor="middle" x="3585.5" y="-186.5" font-family="FreeSans.ttf" font-size="10.00" fill="#000000">MotionVector3.cpp</text>
</a>
</g>
</g>
<!-- Node24&#45;&gt;Node230 -->
<g id="edge63" class="edge">
<title>Node24&#45;&gt;Node230</title>
<path fill="none" stroke="#191970" d="M3306.3128,-233.8302C3364.4308,-224.5268 3449.3568,-210.9211 3523.5,-199 3526.1912,-198.5673 3528.948,-198.1237 3531.732,-197.6756"/>
<polygon fill="#191970" stroke="#191970" points="3305.4634,-230.4215 3296.1424,-235.4582 3306.5699,-237.3335 3305.4634,-230.4215"/>
</g>
<!-- Node175 -->
<g id="node50" class="node">
<title>Node175</title>
<g id="a_node50"><a xlink:href="Sensors_8cpp.html" target="_top" xlink:title="Sensors.cpp">
<polygon fill="none" stroke="#000000" points="3657,-179.5 3657,-198.5 3732,-198.5 3732,-179.5 3657,-179.5"/>
<text text-anchor="middle" x="3694.5" y="-186.5" font-family="FreeSans.ttf" font-size="10.00" fill="#000000">Sensors.cpp</text>
</a>
</g>
</g>
<!-- Node24&#45;&gt;Node175 -->
<g id="edge66" class="edge">
<title>Node24&#45;&gt;Node175</title>
<path fill="none" stroke="#191970" d="M3313.2523,-238.8085C3396.2402,-231.5606 3532.2549,-218.0728 3648.5,-199 3651.242,-198.5501 3654.0671,-198.0433 3656.9048,-197.5027"/>
<polygon fill="#191970" stroke="#191970" points="3312.8112,-235.3335 3303.1503,-239.6828 3313.4149,-242.3074 3312.8112,-235.3335"/>
</g>
<!-- Node26 -->
<g id="node3" class="node">
<title>Node26</title>
<g id="a_node3"><a xlink:href="EigenHelpers_8h.html" target="_top" xlink:title="EigenHelpers.h">
<polygon fill="none" stroke="#ff0000" points="2501.5,-123.5 2501.5,-142.5 2591.5,-142.5 2591.5,-123.5 2501.5,-123.5"/>
<text text-anchor="middle" x="2546.5" y="-130.5" font-family="FreeSans.ttf" font-size="10.00" fill="#000000">EigenHelpers.h</text>
</a>
</g>
</g>
<!-- Node25&#45;&gt;Node26 -->
<g id="edge2" class="edge">
<title>Node25&#45;&gt;Node26</title>
<path fill="none" stroke="#191970" d="M2943.2399,-180.4731C2845.602,-168.79 2673.0817,-148.1465 2591.5663,-138.3925"/>
<polygon fill="#191970" stroke="#191970" points="2942.9721,-183.966 2953.3172,-181.679 2943.8039,-177.0156 2942.9721,-183.966"/>
</g>
<!-- Node29 -->
<g id="node5" class="node">
<title>Node29</title>
<g id="a_node5"><a xlink:href="SpatialInertiaRaw_8cpp.html" target="_top" xlink:title="SpatialInertiaRaw.cpp">
<polygon fill="none" stroke="#000000" points="4512.5,-.5 4512.5,-19.5 4634.5,-19.5 4634.5,-.5 4512.5,-.5"/>
<text text-anchor="middle" x="4573.5" y="-7.5" font-family="FreeSans.ttf" font-size="10.00" fill="#000000">SpatialInertiaRaw.cpp</text>
</a>
</g>
</g>
<!-- Node25&#45;&gt;Node29 -->
<g id="edge50" class="edge">
<title>Node25&#45;&gt;Node29</title>
<path fill="none" stroke="#191970" d="M3085.7793,-179.115C3294.2423,-165.5427 4479.965,-209.0966 4590.5,-87 4607.6813,-68.0216 4590.6908,-35.6835 4580.2838,-19.6299"/>
<polygon fill="#191970" stroke="#191970" points="3085.2431,-175.6458 3075.5398,-179.8997 3085.778,-182.6253 3085.2431,-175.6458"/>
</g>
<!-- Node31 -->
<g id="node6" class="node">
<title>Node31</title>
<g id="a_node6"><a xlink:href="SpatialMotionVector_8cpp.html" target="_top" xlink:title="SpatialMotionVector.cpp">
<polygon fill="none" stroke="#000000" points="4305.5,-.5 4305.5,-19.5 4439.5,-19.5 4439.5,-.5 4305.5,-.5"/>
<text text-anchor="middle" x="4372.5" y="-7.5" font-family="FreeSans.ttf" font-size="10.00" fill="#000000">SpatialMotionVector.cpp</text>
</a>
</g>
</g>
<!-- Node25&#45;&gt;Node31 -->
<g id="edge51" class="edge">
<title>Node25&#45;&gt;Node31</title>
<path fill="none" stroke="#191970" d="M2959.0688,-176.8557C2919.3083,-165.7646 2876.6344,-147.3853 2900.5,-123 2965.4474,-56.6383 4506.5526,-153.3617 4571.5,-87 4615.5486,-41.9922 4513.3403,-22.805 4439.6981,-14.9929"/>
<polygon fill="#191970" stroke="#191970" points="2958.2415,-180.2573 2968.8055,-179.4498 2960.0436,-173.4932 2958.2415,-180.2573"/>
</g>
<!-- Node87 -->
<g id="node34" class="node">
<title>Node87</title>
<g id="a_node34"><a xlink:href="PredictSensorsMeasurements_8cpp.html" target="_top" xlink:title="PredictSensorsMeasurements.cpp">
<polygon fill="none" stroke="#000000" points="847,-62 847,-81 1028,-81 1028,-62 847,-62"/>
<text text-anchor="middle" x="937.5" y="-69" font-family="FreeSans.ttf" font-size="10.00" fill="#000000">PredictSensorsMeasurements.cpp</text>
</a>
</g>
</g>
<!-- Node25&#45;&gt;Node87 -->
<g id="edge59" class="edge">
<title>Node25&#45;&gt;Node87</title>
<path fill="none" stroke="#191970" d="M2942.8952,-187.9479C2685.0181,-183.598 1779.766,-163.4713 1037.5,-87 1022.7328,-85.4786 1006.8192,-83.2728 992.1247,-81.0002"/>
<polygon fill="#191970" stroke="#191970" points="2943.1867,-191.4532 2953.2435,-188.1198 2943.3031,-184.4541 2943.1867,-191.4532"/>
</g>
<!-- Node100 -->
<g id="node35" class="node">
<title>Node100</title>
<g id="a_node35"><a xlink:href="SpatialAcc_8h.html" target="_top" xlink:title="SpatialAcc.h">
<polygon fill="none" stroke="#ff0000" points="575,-123.5 575,-142.5 652,-142.5 652,-123.5 575,-123.5"/>
<text text-anchor="middle" x="613.5" y="-130.5" font-family="FreeSans.ttf" font-size="10.00" fill="#000000">SpatialAcc.h</text>
</a>
</g>
</g>
<!-- Node25&#45;&gt;Node100 -->
<g id="edge35" class="edge">
<title>Node25&#45;&gt;Node100</title>
<path fill="none" stroke="#191970" d="M2943.178,-187.3365C2578.2261,-178.8245 926.212,-140.2936 652.0953,-133.9002"/>
<polygon fill="#191970" stroke="#191970" points="2943.2647,-190.8394 2953.3437,-187.5736 2943.428,-183.8413 2943.2647,-190.8394"/>
</g>
<!-- Node220 -->
<g id="node36" class="node">
<title>Node220</title>
<g id="a_node36"><a xlink:href="Twist_8h.html" target="_top" xlink:title="Twist.h">
<polygon fill="none" stroke="#ff0000" points="403.5,-123.5 403.5,-142.5 453.5,-142.5 453.5,-123.5 403.5,-123.5"/>
<text text-anchor="middle" x="428.5" y="-130.5" font-family="FreeSans.ttf" font-size="10.00" fill="#000000">Twist.h</text>
</a>
</g>
</g>
<!-- Node25&#45;&gt;Node220 -->
<g id="edge42" class="edge">
<title>Node25&#45;&gt;Node220</title>
<path fill="none" stroke="#191970" d="M2943.387,-188.1846C2592.8529,-184.0857 1046.4913,-165.0555 565.5,-143 526.4303,-141.2085 481.1938,-137.6083 453.7259,-135.2521"/>
<polygon fill="#191970" stroke="#191970" points="2943.3666,-191.6845 2953.4067,-188.3015 2943.4483,-184.685 2943.3666,-191.6845"/>
</g>
<!-- Node222 -->
<g id="node38" class="node">
<title>Node222</title>
<g id="a_node38"><a xlink:href="PositionRaw_8cpp.html" target="_top" xlink:title="PositionRaw.cpp">
<polygon fill="none" stroke="#000000" points="2909.5,-123.5 2909.5,-142.5 3005.5,-142.5 3005.5,-123.5 2909.5,-123.5"/>
<text text-anchor="middle" x="2957.5" y="-130.5" font-family="FreeSans.ttf" font-size="10.00" fill="#000000">PositionRaw.cpp</text>
</a>
</g>
</g>
<!-- Node25&#45;&gt;Node222 -->
<g id="edge48" class="edge">
<title>Node25&#45;&gt;Node222</title>
<path fill="none" stroke="#191970" d="M2997.2729,-172.0751C2987.4659,-162.4402 2975.536,-150.7196 2967.3149,-142.6427"/>
<polygon fill="#191970" stroke="#191970" points="2994.9851,-174.734 3004.5714,-179.2455 2999.8909,-169.7406 2994.9851,-174.734"/>
</g>
<!-- Node223 -->
<g id="node39" class="node">
<title>Node223</title>
<g id="a_node39"><a xlink:href="RotationRaw_8cpp.html" target="_top" xlink:title="RotationRaw.cpp">
<polygon fill="none" stroke="#000000" points="3023.5,-123.5 3023.5,-142.5 3121.5,-142.5 3121.5,-123.5 3023.5,-123.5"/>
<text text-anchor="middle" x="3072.5" y="-130.5" font-family="FreeSans.ttf" font-size="10.00" fill="#000000">RotationRaw.cpp</text>
</a>
</g>
</g>
<!-- Node25&#45;&gt;Node223 -->
<g id="edge49" class="edge">
<title>Node25&#45;&gt;Node223</title>
<path fill="none" stroke="#191970" d="M3032.0293,-172.0751C3042.0083,-162.4402 3054.1476,-150.7196 3062.5129,-142.6427"/>
<polygon fill="#191970" stroke="#191970" points="3029.3658,-169.7817 3024.6028,-179.2455 3034.228,-174.8175 3029.3658,-169.7817"/>
</g>
<!-- Node102 -->
<g id="node40" class="node">
<title>Node102</title>
<g id="a_node40"><a xlink:href="TestUtils_8cpp.html" target="_top" xlink:title="TestUtils.cpp">
<polygon fill="none" stroke="#000000" points="3140,-123.5 3140,-142.5 3219,-142.5 3219,-123.5 3140,-123.5"/>
<text text-anchor="middle" x="3179.5" y="-130.5" font-family="FreeSans.ttf" font-size="10.00" fill="#000000">TestUtils.cpp</text>
</a>
</g>
</g>
<!-- Node25&#45;&gt;Node102 -->
<g id="edge52" class="edge">
<title>Node25&#45;&gt;Node102</title>
<path fill="none" stroke="#191970" d="M3052.6356,-176.057C3082.8325,-165.8084 3124.3163,-151.729 3151.5056,-142.5011"/>
<polygon fill="#191970" stroke="#191970" points="3051.2091,-172.845 3042.8645,-179.3733 3053.4589,-179.4736 3051.2091,-172.845"/>
</g>
<!-- Node103 -->
<g id="node41" class="node">
<title>Node103</title>
<g id="a_node41"><a xlink:href="DynamicsUtils_8h.html" target="_top" xlink:title="DynamicsUtils.h">
<polygon fill="none" stroke="#000000" points="3237,-123.5 3237,-142.5 3334,-142.5 3334,-123.5 3237,-123.5"/>
<text text-anchor="middle" x="3285.5" y="-130.5" font-family="FreeSans.ttf" font-size="10.00" fill="#000000">DynamicsUtils.h</text>
</a>
</g>
</g>
<!-- Node25&#45;&gt;Node103 -->
<g id="edge53" class="edge">
<title>Node25&#45;&gt;Node103</title>
<path fill="none" stroke="#191970" d="M3070.7712,-177.372C3120.7199,-167.0505 3192.8098,-152.1537 3239.4122,-142.5237"/>
<polygon fill="#191970" stroke="#191970" points="3069.8634,-173.9856 3060.7786,-179.4369 3071.2801,-180.8407 3069.8634,-173.9856"/>
</g>
<!-- Node224 -->
<g id="node42" class="node">
<title>Node224</title>
<g id="a_node42"><a xlink:href="PrismaticJoint_8h.html" target="_top" xlink:title="PrismaticJoint.h">
<polygon fill="none" stroke="#ff0000" points="3352,-123.5 3352,-142.5 3445,-142.5 3445,-123.5 3352,-123.5"/>
<text text-anchor="middle" x="3398.5" y="-130.5" font-family="FreeSans.ttf" font-size="10.00" fill="#000000">PrismaticJoint.h</text>
</a>
</g>
</g>
<!-- Node25&#45;&gt;Node224 -->
<g id="edge54" class="edge">
<title>Node25&#45;&gt;Node224</title>
<path fill="none" stroke="#191970" d="M3085.5442,-178.8619C3201.2397,-162.6938 3231.8856,-160.8957 3343.5,-143 3346.1832,-142.5698 3348.9374,-142.1141 3351.7149,-141.6435"/>
<polygon fill="#191970" stroke="#191970" points="3084.9979,-175.4042 3075.5814,-180.2602 3085.9709,-182.3362 3084.9979,-175.4042"/>
</g>
<!-- Node226 -->
<g id="node43" class="node">
<title>Node226</title>
<g id="a_node43"><a xlink:href="RevoluteJoint_8h.html" target="_top" xlink:title="RevoluteJoint.h">
<polygon fill="none" stroke="#ff0000" points="3929.5,-123.5 3929.5,-142.5 4019.5,-142.5 4019.5,-123.5 3929.5,-123.5"/>
<text text-anchor="middle" x="3974.5" y="-130.5" font-family="FreeSans.ttf" font-size="10.00" fill="#000000">RevoluteJoint.h</text>
</a>
</g>
</g>
<!-- Node25&#45;&gt;Node226 -->
<g id="edge55" class="edge">
<title>Node25&#45;&gt;Node226</title>
<path fill="none" stroke="#191970" d="M3085.6746,-178.9904C3270.42,-162.0177 3775.3943,-140.9894 3929.3788,-134.7917"/>
<polygon fill="#191970" stroke="#191970" points="3085.1703,-175.5224 3075.5444,-179.9486 3085.8295,-182.4913 3085.1703,-175.5224"/>
</g>
<!-- Node209 -->
<g id="node44" class="node">
<title>Node209</title>
<g id="a_node44"><a xlink:href="FixedJoint_8cpp.html" target="_top" xlink:title="FixedJoint.cpp">
<polygon fill="none" stroke="#000000" points="3463.5,-123.5 3463.5,-142.5 3547.5,-142.5 3547.5,-123.5 3463.5,-123.5"/>
<text text-anchor="middle" x="3505.5" y="-130.5" font-family="FreeSans.ttf" font-size="10.00" fill="#000000">FixedJoint.cpp</text>
</a>
</g>
</g>
<!-- Node25&#45;&gt;Node209 -->
<g id="edge57" class="edge">
<title>Node25&#45;&gt;Node209</title>
<path fill="none" stroke="#191970" d="M3085.5503,-178.9255C3250.2492,-159.5974 3294.2132,-166.4561 3454.5,-143 3457.3569,-142.5819 3460.2964,-142.1121 3463.2533,-141.6101"/>
<polygon fill="#191970" stroke="#191970" points="3085.0793,-175.4568 3075.5621,-180.1122 3085.9053,-182.4079 3085.0793,-175.4568"/>
</g>
<!-- Node118 -->
<g id="node45" class="node">
<title>Node118</title>
<g id="a_node45"><a xlink:href="JointState_8cpp.html" target="_top" xlink:title="JointState.cpp">
<polygon fill="none" stroke="#000000" points="3565.5,-123.5 3565.5,-142.5 3649.5,-142.5 3649.5,-123.5 3565.5,-123.5"/>
<text text-anchor="middle" x="3607.5" y="-130.5" font-family="FreeSans.ttf" font-size="10.00" fill="#000000">JointState.cpp</text>
</a>
</g>
</g>
<!-- Node25&#45;&gt;Node118 -->
<g id="edge58" class="edge">
<title>Node25&#45;&gt;Node118</title>
<path fill="none" stroke="#191970" d="M3085.6575,-178.9438C3295.3754,-156.5747 3351.281,-170.8475 3556.5,-143 3559.3611,-142.6118 3562.3037,-142.1643 3565.2629,-141.6786"/>
<polygon fill="#191970" stroke="#191970" points="3085.119,-175.4815 3075.5535,-180.037 3085.872,-182.4409 3085.119,-175.4815"/>
</g>
<!-- Node27 -->
<g id="node4" class="node">
<title>Node27</title>
<g id="a_node4"><a xlink:href="PrivateUtils_8h.html" target="_top" xlink:title="PrivateUtils.h">
<polygon fill="none" stroke="#ff0000" points="4331,-62 4331,-81 4414,-81 4414,-62 4331,-62"/>
<text text-anchor="middle" x="4372.5" y="-69" font-family="FreeSans.ttf" font-size="10.00" fill="#000000">PrivateUtils.h</text>
</a>
</g>
</g>
<!-- Node26&#45;&gt;Node27 -->
<g id="edge3" class="edge">
<title>Node26&#45;&gt;Node27</title>
<path fill="none" stroke="#191970" d="M2601.9463,-131.1651C2665.931,-129.0727 2774.3163,-125.605 2867.5,-123 3190.5839,-113.968 4002.4131,-138.4621 4321.5,-87 4329.631,-85.6886 4338.2726,-83.4157 4346.0869,-81.0082"/>
<polygon fill="#191970" stroke="#191970" points="2601.5633,-127.6757 2591.6833,-131.5014 2601.7926,-134.672 2601.5633,-127.6757"/>
</g>
<!-- Node26&#45;&gt;Node31 -->
<g id="edge13" class="edge">
<title>Node26&#45;&gt;Node31</title>
<path fill="none" stroke="#191970" d="M2601.6279,-130.9939C2785.5926,-124.1762 3368.9451,-101.5172 3406.5,-87 3426.8298,-79.1413 3424.1548,-63.8189 3444.5,-56 3524.115,-25.4028 4105.5943,-13.9649 4305.3436,-10.913"/>
<polygon fill="#191970" stroke="#191970" points="2601.4926,-127.4964 2591.6287,-131.3634 2601.7512,-134.4916 2601.4926,-127.4964"/>
</g>
<!-- Node35 -->
<g id="node7" class="node">
<title>Node35</title>
<g id="a_node7"><a xlink:href="ArticulatedBodyInertia_8cpp.html" target="_top" xlink:title="ArticulatedBodyInertia.cpp">
<polygon fill="none" stroke="#000000" points="682.5,-62 682.5,-81 828.5,-81 828.5,-62 682.5,-62"/>
<text text-anchor="middle" x="755.5" y="-69" font-family="FreeSans.ttf" font-size="10.00" fill="#000000">ArticulatedBodyInertia.cpp</text>
</a>
</g>
</g>
<!-- Node26&#45;&gt;Node35 -->
<g id="edge6" class="edge">
<title>Node26&#45;&gt;Node35</title>
<path fill="none" stroke="#191970" d="M2491.1768,-132.7015C2235.786,-131.1412 1169.1503,-122.5773 837.5,-87 824.8231,-85.6401 811.1721,-83.3836 798.7147,-81.0076"/>
<polygon fill="#191970" stroke="#191970" points="2491.3044,-136.2023 2501.3253,-132.7625 2491.3465,-129.2024 2491.3044,-136.2023"/>
</g>
<!-- Node36 -->
<g id="node8" class="node">
<title>Node36</title>
<g id="a_node8"><a xlink:href="CubicSpline_8cpp.html" target="_top" xlink:title="CubicSpline.cpp">
<polygon fill="none" stroke="#000000" points="3453.5,-62 3453.5,-81 3547.5,-81 3547.5,-62 3453.5,-62"/>
<text text-anchor="middle" x="3500.5" y="-69" font-family="FreeSans.ttf" font-size="10.00" fill="#000000">CubicSpline.cpp</text>
</a>
</g>
</g>
<!-- Node26&#45;&gt;Node36 -->
<g id="edge7" class="edge">
<title>Node26&#45;&gt;Node36</title>
<path fill="none" stroke="#191970" d="M2601.6521,-130.7938C2783.462,-123.4329 3357.0155,-99.4789 3439.5,-87 3448.7913,-85.5943 3458.7241,-83.3839 3467.8189,-81.0679"/>
<polygon fill="#191970" stroke="#191970" points="2601.3637,-127.3025 2591.5132,-131.2035 2601.6464,-134.2968 2601.3637,-127.3025"/>
</g>
<!-- Node37 -->
<g id="node9" class="node">
<title>Node37</title>
<g id="a_node9"><a xlink:href="Direction_8cpp.html" target="_top" xlink:title="Direction.cpp">
<polygon fill="none" stroke="#000000" points="3566,-62 3566,-81 3647,-81 3647,-62 3566,-62"/>
<text text-anchor="middle" x="3606.5" y="-69" font-family="FreeSans.ttf" font-size="10.00" fill="#000000">Direction.cpp</text>
</a>
</g>
</g>
<!-- Node26&#45;&gt;Node37 -->
<g id="edge8" class="edge">
<title>Node26&#45;&gt;Node37</title>
<path fill="none" stroke="#191970" d="M2601.8249,-131.3055C2799.2664,-125.1446 3462.4889,-103.4339 3556.5,-87 3564.2885,-85.6385 3572.558,-83.4122 3580.082,-81.0662"/>
<polygon fill="#191970" stroke="#191970" points="2601.5662,-127.8118 2591.6799,-131.6212 2601.7839,-134.8084 2601.5662,-127.8118"/>
</g>
<!-- Node38 -->
<g id="node10" class="node">
<title>Node38</title>
<g id="a_node10"><a xlink:href="InertiaNonLinearParametrization_8cpp.html" target="_top" xlink:title="InertiaNonLinearParametrization.cpp">
<polygon fill="none" stroke="#000000" points="3665,-62 3665,-81 3860,-81 3860,-62 3665,-62"/>
<text text-anchor="middle" x="3762.5" y="-69" font-family="FreeSans.ttf" font-size="10.00" fill="#000000">InertiaNonLinearParametrization.cpp</text>
</a>
</g>
</g>
<!-- Node26&#45;&gt;Node38 -->
<g id="edge9" class="edge">
<title>Node26&#45;&gt;Node38</title>
<path fill="none" stroke="#191970" d="M2601.9119,-131.0421C2811.7731,-123.5806 3551.218,-96.8522 3656.5,-87 3672.2399,-85.5271 3689.2135,-83.3235 3704.8663,-81.0368"/>
<polygon fill="#191970" stroke="#191970" points="2601.6112,-127.5505 2591.7418,-131.4034 2601.8598,-134.5461 2601.6112,-127.5505"/>
</g>
<!-- Node26&#45;&gt;Node39 -->
<g id="edge10" class="edge">
<title>Node26&#45;&gt;Node39</title>
<path fill="none" stroke="#191970" d="M2490.9506,-132.8704C2160.0254,-131.9691 455.0393,-125.4766 225.5,-87 217.8998,-85.726 209.8529,-83.4964 202.5644,-81.1186"/>
<polygon fill="#191970" stroke="#191970" points="2491.2319,-136.371 2501.2413,-132.8978 2491.2507,-129.3711 2491.2319,-136.371"/>
</g>
<!-- Node40 -->
<g id="node12" class="node">
<title>Node40</title>
<g id="a_node12"><a xlink:href="SpatialForceVector_8cpp.html" target="_top" xlink:title="SpatialForceVector.cpp">
<polygon fill="none" stroke="#000000" points="3878,-62 3878,-81 4005,-81 4005,-62 3878,-62"/>
<text text-anchor="middle" x="3941.5" y="-69" font-family="FreeSans.ttf" font-size="10.00" fill="#000000">SpatialForceVector.cpp</text>
</a>
</g>
</g>
<!-- Node26&#45;&gt;Node40 -->
<g id="edge11" class="edge">
<title>Node26&#45;&gt;Node40</title>
<path fill="none" stroke="#191970" d="M2601.7448,-131.2125C2848.3119,-123.2181 3837.5644,-90.9609 3869.5,-87 3880.5396,-85.6308 3892.3912,-83.402 3903.228,-81.0561"/>
<polygon fill="#191970" stroke="#191970" points="2601.4662,-127.7196 2591.5848,-131.5418 2601.693,-134.7159 2601.4662,-127.7196"/>
</g>
<!-- Node41 -->
<g id="node13" class="node">
<title>Node41</title>
<g id="a_node13"><a xlink:href="SpatialInertia_8cpp.html" target="_top" xlink:title="SpatialInertia.cpp">
<polygon fill="none" stroke="#000000" points="562.5,-62 562.5,-81 664.5,-81 664.5,-62 562.5,-62"/>
<text text-anchor="middle" x="613.5" y="-69" font-family="FreeSans.ttf" font-size="10.00" fill="#000000">SpatialInertia.cpp</text>
</a>
</g>
</g>
<!-- Node26&#45;&gt;Node41 -->
<g id="edge12" class="edge">
<title>Node26&#45;&gt;Node41</title>
<path fill="none" stroke="#191970" d="M2490.9892,-132.3918C2200.0233,-129.1025 857.1705,-112.6361 673.5,-87 664.1233,-85.6912 654.1032,-83.4507 644.9901,-81.0736"/>
<polygon fill="#191970" stroke="#191970" points="2491.2515,-135.8948 2501.2903,-132.5077 2491.3303,-128.8953 2491.2515,-135.8948"/>
</g>
<!-- Node42 -->
<g id="node14" class="node">
<title>Node42</title>
<g id="a_node14"><a xlink:href="TransformDerivative_8cpp.html" target="_top" xlink:title="TransformDerivative.cpp">
<polygon fill="none" stroke="#000000" points="4023,-62 4023,-81 4160,-81 4160,-62 4023,-62"/>
<text text-anchor="middle" x="4091.5" y="-69" font-family="FreeSans.ttf" font-size="10.00" fill="#000000">TransformDerivative.cpp</text>
</a>
</g>
</g>
<!-- Node26&#45;&gt;Node42 -->
<g id="edge14" class="edge">
<title>Node26&#45;&gt;Node42</title>
<path fill="none" stroke="#191970" d="M2601.7925,-131.2751C2868.8237,-122.9439 4012.2628,-87.2584 4014.5,-87 4026.2852,-85.6389 4038.9531,-83.4128 4050.5427,-81.0667"/>
<polygon fill="#191970" stroke="#191970" points="2601.4502,-127.784 2591.5642,-131.5942 2601.6685,-134.7806 2601.4502,-127.784"/>
</g>
<!-- Node43 -->
<g id="node15" class="node">
<title>Node43</title>
<g id="a_node15"><a xlink:href="AttitudeEstimatorUtils_8h.html" target="_top" xlink:title="AttitudeEstimatorUtils.h">
<polygon fill="none" stroke="#ff0000" points="4178.5,-62 4178.5,-81 4312.5,-81 4312.5,-62 4178.5,-62"/>
<text text-anchor="middle" x="4245.5" y="-69" font-family="FreeSans.ttf" font-size="10.00" fill="#000000">AttitudeEstimatorUtils.h</text>
</a>
</g>
</g>
<!-- Node26&#45;&gt;Node43 -->
<g id="edge15" class="edge">
<title>Node26&#45;&gt;Node43</title>
<path fill="none" stroke="#191970" d="M2601.9477,-131.2137C2665.9337,-129.1661 2774.3201,-125.7396 2867.5,-123 3156.8189,-114.4937 3881.9486,-120.0447 4169.5,-87 4181.2727,-85.6471 4193.9321,-83.3928 4205.4775,-81.0166"/>
<polygon fill="#191970" stroke="#191970" points="2601.5672,-127.724 2591.6845,-131.5425 2601.7915,-134.7204 2601.5672,-127.724"/>
</g>
<!-- Node47 -->
<g id="node16" class="node">
<title>Node47</title>
<g id="a_node16"><a xlink:href="GravityCompensationHelpers_8h.html" target="_top" xlink:title="GravityCompensationHelpers.h">
<polygon fill="none" stroke="#ff0000" points="1046.5,-62 1046.5,-81 1216.5,-81 1216.5,-62 1046.5,-62"/>
<text text-anchor="middle" x="1131.5" y="-69" font-family="FreeSans.ttf" font-size="10.00" fill="#000000">GravityCompensationHelpers.h</text>
</a>
</g>
</g>
<!-- Node26&#45;&gt;Node47 -->
<g id="edge16" class="edge">
<title>Node26&#45;&gt;Node47</title>
<path fill="none" stroke="#191970" d="M2491.1747,-132.0233C2273.674,-128.0363 1476.9939,-112.0089 1225.5,-87 1211.3456,-85.5925 1196.0929,-83.3814 1182.0772,-81.0655"/>
<polygon fill="#191970" stroke="#191970" points="2491.3278,-135.5266 2501.3899,-132.2095 2491.4554,-128.5277 2491.3278,-135.5266"/>
</g>
<!-- Node49 -->
<g id="node17" class="node">
<title>Node49</title>
<g id="a_node17"><a xlink:href="KalmanFilter_8h.html" target="_top" xlink:title="KalmanFilter.h">
<polygon fill="none" stroke="#ff0000" points="1234.5,-62 1234.5,-81 1320.5,-81 1320.5,-62 1234.5,-62"/>
<text text-anchor="middle" x="1277.5" y="-69" font-family="FreeSans.ttf" font-size="10.00" fill="#000000">KalmanFilter.h</text>
</a>
</g>
</g>
<!-- Node26&#45;&gt;Node49 -->
<g id="edge17" class="edge">
<title>Node26&#45;&gt;Node49</title>
<path fill="none" stroke="#191970" d="M2491.3492,-132.7569C2284.8736,-131.5609 1557.7232,-124.7059 1329.5,-87 1321.321,-85.6487 1312.6205,-83.3949 1304.7236,-81.0187"/>
<polygon fill="#191970" stroke="#191970" points="2491.3368,-136.2568 2501.3562,-132.8128 2491.3759,-129.2569 2491.3368,-136.2568"/>
</g>
<!-- Node51 -->
<g id="node18" class="node">
<title>Node51</title>
<g id="a_node18"><a xlink:href="BerdyHelper_8cpp.html" target="_top" xlink:title="BerdyHelper.cpp">
<polygon fill="none" stroke="#000000" points="1339,-62 1339,-81 1436,-81 1436,-62 1339,-62"/>
<text text-anchor="middle" x="1387.5" y="-69" font-family="FreeSans.ttf" font-size="10.00" fill="#000000">BerdyHelper.cpp</text>
</a>
</g>
</g>
<!-- Node26&#45;&gt;Node51 -->
<g id="edge18" class="edge">
<title>Node26&#45;&gt;Node51</title>
<path fill="none" stroke="#191970" d="M2491.2232,-132.3273C2297.4433,-129.7139 1649.5905,-118.7549 1444.5,-87 1435.683,-85.6348 1426.2757,-83.4074 1417.6976,-81.0614"/>
<polygon fill="#191970" stroke="#191970" points="2491.4068,-135.83 2501.4524,-132.4632 2491.4998,-128.8306 2491.4068,-135.83"/>
</g>
<!-- Node52 -->
<g id="node19" class="node">
<title>Node52</title>
<g id="a_node19"><a xlink:href="BerdySparseMAPSolver_8cpp.html" target="_top" xlink:title="BerdySparseMAPSolver.cpp">
<polygon fill="none" stroke="#000000" points="1454,-62 1454,-81 1603,-81 1603,-62 1454,-62"/>
<text text-anchor="middle" x="1528.5" y="-69" font-family="FreeSans.ttf" font-size="10.00" fill="#000000">BerdySparseMAPSolver.cpp</text>
</a>
</g>
</g>
<!-- Node26&#45;&gt;Node52 -->
<g id="edge19" class="edge">
<title>Node26&#45;&gt;Node52</title>
<path fill="none" stroke="#191970" d="M2491.1304,-131.2626C2317.2574,-125.6511 1783.5232,-107.1998 1611.5,-87 1599.125,-85.5469 1585.8175,-83.3499 1573.5609,-81.0633"/>
<polygon fill="#191970" stroke="#191970" points="2491.2223,-134.7673 2501.3296,-131.5903 2491.4472,-127.7709 2491.2223,-134.7673"/>
</g>
<!-- Node53 -->
<g id="node20" class="node">
<title>Node53</title>
<g id="a_node20"><a xlink:href="ExtendedKalmanFilter_8cpp.html" target="_top" xlink:title="ExtendedKalmanFilter.cpp">
<polygon fill="none" stroke="#000000" points="1621,-62 1621,-81 1764,-81 1764,-62 1621,-62"/>
<text text-anchor="middle" x="1692.5" y="-69" font-family="FreeSans.ttf" font-size="10.00" fill="#000000">ExtendedKalmanFilter.cpp</text>
</a>
</g>
</g>
<!-- Node26&#45;&gt;Node53 -->
<g id="edge20" class="edge">
<title>Node26&#45;&gt;Node53</title>
<path fill="none" stroke="#191970" d="M2491.1054,-132.2138C2363.7401,-129.8599 2040.4263,-120.7671 1772.5,-87 1760.7096,-85.514 1748.0434,-83.3344 1736.3456,-81.0763"/>
<polygon fill="#191970" stroke="#191970" points="2491.3161,-135.7181 2501.3769,-132.3968 2491.4409,-128.7192 2491.3161,-135.7181"/>
</g>
<!-- Node54 -->
<g id="node21" class="node">
<title>Node54</title>
<g id="a_node21"><a xlink:href="ExternalWrenchesEstimation_8cpp.html" target="_top" xlink:title="ExternalWrenchesEstimation.cpp">
<polygon fill="none" stroke="#000000" points="1782,-62 1782,-81 1959,-81 1959,-62 1782,-62"/>
<text text-anchor="middle" x="1870.5" y="-69" font-family="FreeSans.ttf" font-size="10.00" fill="#000000">ExternalWrenchesEstimation.cpp</text>
</a>
</g>
</g>
<!-- Node26&#45;&gt;Node54 -->
<g id="edge21" class="edge">
<title>Node26&#45;&gt;Node54</title>
<path fill="none" stroke="#191970" d="M2491.1512,-130.0655C2387.9357,-124.2686 2159.167,-109.8909 1967.5,-87 1953.7838,-85.3619 1939.0364,-83.2086 1925.2836,-81.0302"/>
<polygon fill="#191970" stroke="#191970" points="2491.1555,-133.5711 2501.3346,-130.6324 2491.5447,-126.5819 2491.1555,-133.5711"/>
</g>
<!-- Node55 -->
<g id="node22" class="node">
<title>Node55</title>
<g id="a_node22"><a xlink:href="ExtWrenchesAndJointTorquesEstimator_8cpp.html" target="_top" xlink:title="ExtWrenchesAndJointTorques\lEstimator.cpp">
<polygon fill="none" stroke="#000000" points="1976.5,-56.5 1976.5,-86.5 2134.5,-86.5 2134.5,-56.5 1976.5,-56.5"/>
<text text-anchor="start" x="1984.5" y="-74.5" font-family="FreeSans.ttf" font-size="10.00" fill="#000000">ExtWrenchesAndJointTorques</text>
<text text-anchor="middle" x="2055.5" y="-63.5" font-family="FreeSans.ttf" font-size="10.00" fill="#000000">Estimator.cpp</text>
</a>
</g>
</g>
<!-- Node26&#45;&gt;Node55 -->
<g id="edge22" class="edge">
<title>Node26&#45;&gt;Node55</title>
<path fill="none" stroke="#191970" d="M2491.3061,-127.771C2413.5462,-120.1608 2267.3882,-104.9642 2143.5,-87 2140.583,-86.577 2137.6143,-86.1315 2134.6176,-85.669"/>
<polygon fill="#191970" stroke="#191970" points="2491.0659,-131.2641 2501.358,-128.7498 2491.7443,-124.2971 2491.0659,-131.2641"/>
</g>
<!-- Node56 -->
<g id="node23" class="node">
<title>Node56</title>
<g id="a_node23"><a xlink:href="SimpleLeggedOdometry_8cpp.html" target="_top" xlink:title="SimpleLeggedOdometry.cpp">
<polygon fill="none" stroke="#000000" points="2153,-62 2153,-81 2306,-81 2306,-62 2153,-62"/>
<text text-anchor="middle" x="2229.5" y="-69" font-family="FreeSans.ttf" font-size="10.00" fill="#000000">SimpleLeggedOdometry.cpp</text>
</a>
</g>
</g>
<!-- Node26&#45;&gt;Node56 -->
<g id="edge23" class="edge">
<title>Node26&#45;&gt;Node56</title>
<path fill="none" stroke="#191970" d="M2491.3626,-122.303C2431.3106,-110.6525 2336.1552,-92.1918 2278.5932,-81.0244"/>
<polygon fill="#191970" stroke="#191970" points="2490.9347,-125.7852 2501.4183,-124.2539 2492.2679,-118.9133 2490.9347,-125.7852"/>
</g>
<!-- Node57 -->
<g id="node24" class="node">
<title>Node57</title>
<g id="a_node24"><a xlink:href="KinDynComputations_8cpp.html" target="_top" xlink:title="KinDynComputations.cpp">
<polygon fill="none" stroke="#000000" points="234.5,-62 234.5,-81 374.5,-81 374.5,-62 234.5,-62"/>
<text text-anchor="middle" x="304.5" y="-69" font-family="FreeSans.ttf" font-size="10.00" fill="#000000">KinDynComputations.cpp</text>
</a>
</g>
</g>
<!-- Node26&#45;&gt;Node57 -->
<g id="edge24" class="edge">
<title>Node26&#45;&gt;Node57</title>
<path fill="none" stroke="#191970" d="M2490.7948,-132.3906C2173.2395,-128.8398 598.2382,-110.1742 383.5,-87 371.2714,-85.6803 358.1151,-83.4364 346.1137,-81.0595"/>
<polygon fill="#191970" stroke="#191970" points="2491.0863,-135.894 2501.1247,-132.5057 2491.1644,-128.8944 2491.0863,-135.894"/>
</g>
<!-- Node58 -->
<g id="node25" class="node">
<title>Node58</title>
<g id="a_node25"><a xlink:href="BoundingBoxHelpers_8cpp.html" target="_top" xlink:title="BoundingBoxHelpers.cpp">
<polygon fill="none" stroke="#000000" points="2324,-62 2324,-81 2463,-81 2463,-62 2324,-62"/>
<text text-anchor="middle" x="2393.5" y="-69" font-family="FreeSans.ttf" font-size="10.00" fill="#000000">BoundingBoxHelpers.cpp</text>
</a>
</g>
</g>
<!-- Node26&#45;&gt;Node58 -->
<g id="edge25" class="edge">
<title>Node26&#45;&gt;Node58</title>
<path fill="none" stroke="#191970" d="M2513.2821,-119.6477C2484.3106,-108.0023 2442.9953,-91.3952 2417.2384,-81.0419"/>
<polygon fill="#191970" stroke="#191970" points="2512.0099,-122.9084 2522.5938,-123.3906 2514.6206,-116.4135 2512.0099,-122.9084"/>
</g>
<!-- Node59 -->
<g id="node26" class="node">
<title>Node59</title>
<g id="a_node26"><a xlink:href="ConvexHullHelpers_8cpp.html" target="_top" xlink:title="ConvexHullHelpers.cpp">
<polygon fill="none" stroke="#000000" points="2481,-62 2481,-81 2612,-81 2612,-62 2481,-62"/>
<text text-anchor="middle" x="2546.5" y="-69" font-family="FreeSans.ttf" font-size="10.00" fill="#000000">ConvexHullHelpers.cpp</text>
</a>
</g>
</g>
<!-- Node26&#45;&gt;Node59 -->
<g id="edge26" class="edge">
<title>Node26&#45;&gt;Node59</title>
<path fill="none" stroke="#191970" d="M2546.5,-113.2462C2546.5,-102.5519 2546.5,-89.814 2546.5,-81.2449"/>
<polygon fill="#191970" stroke="#191970" points="2543.0001,-113.3906 2546.5,-123.3906 2550.0001,-113.3907 2543.0001,-113.3906"/>
</g>
<!-- Node60 -->
<g id="node27" class="node">
<title>Node60</title>
<g id="a_node27"><a xlink:href="InverseKinematics_8cpp.html" target="_top" xlink:title="InverseKinematics.cpp">
<polygon fill="none" stroke="#000000" points="2630.5,-62 2630.5,-81 2758.5,-81 2758.5,-62 2630.5,-62"/>
<text text-anchor="middle" x="2694.5" y="-69" font-family="FreeSans.ttf" font-size="10.00" fill="#000000">InverseKinematics.cpp</text>
</a>
</g>
</g>
<!-- Node26&#45;&gt;Node60 -->
<g id="edge27" class="edge">
<title>Node26&#45;&gt;Node60</title>
<path fill="none" stroke="#191970" d="M2578.9985,-119.4955C2607.0044,-107.858 2646.7306,-91.3501 2671.5374,-81.0419"/>
<polygon fill="#191970" stroke="#191970" points="2577.5164,-116.3212 2569.625,-123.3906 2580.2025,-122.7853 2577.5164,-116.3212"/>
</g>
<!-- Node61 -->
<g id="node28" class="node">
<title>Node61</title>
<g id="a_node28"><a xlink:href="InverseKinematicsData_8cpp.html" target="_top" xlink:title="InverseKinematicsData.cpp">
<polygon fill="none" stroke="#000000" points="393,-62 393,-81 544,-81 544,-62 393,-62"/>
<text text-anchor="middle" x="468.5" y="-69" font-family="FreeSans.ttf" font-size="10.00" fill="#000000">InverseKinematicsData.cpp</text>
</a>
</g>
</g>
<!-- Node26&#45;&gt;Node61 -->
<g id="edge28" class="edge">
<title>Node26&#45;&gt;Node61</title>
<path fill="none" stroke="#191970" d="M2490.9103,-132.8993C2209.9676,-132.2099 944.4297,-126.9046 553.5,-87 540.368,-85.6595 526.2203,-83.4091 513.3069,-81.0327"/>
<polygon fill="#191970" stroke="#191970" points="2491.2473,-136.4 2501.2555,-132.9236 2491.2639,-129.4 2491.2473,-136.4"/>
</g>
<!-- Node62 -->
<g id="node29" class="node">
<title>Node62</title>
<g id="a_node29"><a xlink:href="InverseKinematicsNLP_8cpp.html" target="_top" xlink:title="InverseKinematicsNLP.cpp">
<polygon fill="none" stroke="#000000" points="2777,-62 2777,-81 2922,-81 2922,-62 2777,-62"/>
<text text-anchor="middle" x="2849.5" y="-69" font-family="FreeSans.ttf" font-size="10.00" fill="#000000">InverseKinematicsNLP.cpp</text>
</a>
</g>
</g>
<!-- Node26&#45;&gt;Node62 -->
<g id="edge29" class="edge">
<title>Node26&#45;&gt;Node62</title>
<path fill="none" stroke="#191970" d="M2601.5291,-121.8307C2658.998,-110.1663 2748.1788,-92.0652 2802.4709,-81.0455"/>
<polygon fill="#191970" stroke="#191970" points="2600.6389,-118.44 2591.535,-123.8592 2602.0314,-125.3001 2600.6389,-118.44"/>
</g>
<!-- Node63 -->
<g id="node30" class="node">
<title>Node63</title>
<g id="a_node30"><a xlink:href="DenavitHartenberg_8cpp.html" target="_top" xlink:title="DenavitHartenberg.cpp">
<polygon fill="none" stroke="#000000" points="4432.5,-62 4432.5,-81 4562.5,-81 4562.5,-62 4432.5,-62"/>
<text text-anchor="middle" x="4497.5" y="-69" font-family="FreeSans.ttf" font-size="10.00" fill="#000000">DenavitHartenberg.cpp</text>
</a>
</g>
</g>
<!-- Node26&#45;&gt;Node63 -->
<g id="edge30" class="edge">
<title>Node26&#45;&gt;Node63</title>
<path fill="none" stroke="#191970" d="M2601.9456,-131.1379C2665.9296,-129.0203 2774.3142,-125.5294 2867.5,-123 3213.243,-113.6151 4079.9064,-126.6199 4423.5,-87 4434.9749,-85.6768 4447.3049,-83.4318 4458.5463,-81.055"/>
<polygon fill="#191970" stroke="#191970" points="2601.5611,-127.6486 2591.6827,-131.4783 2601.7933,-134.6447 2601.5611,-127.6486"/>
</g>
<!-- Node64 -->
<g id="node31" class="node">
<title>Node64</title>
<g id="a_node31"><a xlink:href="Dynamics_8cpp.html" target="_top" xlink:title="Dynamics.cpp">
<polygon fill="none" stroke="#000000" points="2940.5,-62 2940.5,-81 3026.5,-81 3026.5,-62 2940.5,-62"/>
<text text-anchor="middle" x="2983.5" y="-69" font-family="FreeSans.ttf" font-size="10.00" fill="#000000">Dynamics.cpp</text>
</a>
</g>
</g>
<!-- Node26&#45;&gt;Node64 -->
<g id="edge31" class="edge">
<title>Node26&#45;&gt;Node64</title>
<path fill="none" stroke="#191970" d="M2601.6791,-129.27C2676.6843,-123.5469 2814.7452,-110.6902 2930.5,-87 2938.2015,-85.4238 2946.4071,-83.2671 2954.0036,-81.0634"/>
<polygon fill="#191970" stroke="#191970" points="2601.2336,-125.7935 2591.5229,-130.0306 2601.7564,-132.7739 2601.2336,-125.7935"/>
</g>
<!-- Node65 -->
<g id="node32" class="node">
<title>Node65</title>
<g id="a_node32"><a xlink:href="DynamicsLinearization_8cpp.html" target="_top" xlink:title="DynamicsLinearization.cpp">
<polygon fill="none" stroke="#000000" points="3045,-62 3045,-81 3194,-81 3194,-62 3045,-62"/>
<text text-anchor="middle" x="3119.5" y="-69" font-family="FreeSans.ttf" font-size="10.00" fill="#000000">DynamicsLinearization.cpp</text>
</a>
</g>
</g>
<!-- Node26&#45;&gt;Node65 -->
<g id="edge32" class="edge">
<title>Node26&#45;&gt;Node65</title>
<path fill="none" stroke="#191970" d="M2601.8964,-129.3964C2692.7436,-123.1264 2878.9509,-108.7631 3035.5,-87 3047.3975,-85.346 3060.1756,-83.187 3072.086,-81.008"/>
<polygon fill="#191970" stroke="#191970" points="2601.5627,-125.9109 2591.8248,-130.0852 2602.0404,-132.8946 2601.5627,-125.9109"/>
</g>
<!-- Node66 -->
<g id="node33" class="node">
<title>Node66</title>
<g id="a_node33"><a xlink:href="DynamicsLinearizationHelpers_8cpp.html" target="_top" xlink:title="DynamicsLinearizationHelpers.cpp">
<polygon fill="none" stroke="#000000" points="3211.5,-62 3211.5,-81 3397.5,-81 3397.5,-62 3211.5,-62"/>
<text text-anchor="middle" x="3304.5" y="-69" font-family="FreeSans.ttf" font-size="10.00" fill="#000000">DynamicsLinearizationHelpers.cpp</text>
</a>
</g>
</g>
<!-- Node26&#45;&gt;Node66 -->
<g id="edge33" class="edge">
<title>Node26&#45;&gt;Node66</title>
<path fill="none" stroke="#191970" d="M2601.7677,-130.6703C2714.9483,-125.5602 2981.1781,-111.7997 3203.5,-87 3217.9571,-85.3873 3233.5153,-83.2175 3247.9858,-81.0128"/>
<polygon fill="#191970" stroke="#191970" points="2601.455,-127.1807 2591.6212,-131.1237 2601.7675,-134.1737 2601.455,-127.1807"/>
</g>
<!-- Node26&#45;&gt;Node87 -->
<g id="edge34" class="edge">
<title>Node26&#45;&gt;Node87</title>
<path fill="none" stroke="#191970" d="M2491.2624,-132.2299C2254.9736,-128.7946 1328.0979,-113.8474 1037.5,-87 1022.2803,-85.5939 1005.8558,-83.3534 990.8033,-81.0079"/>
<polygon fill="#191970" stroke="#191970" points="2491.2888,-135.7305 2501.3383,-132.3754 2491.3899,-128.7312 2491.2888,-135.7305"/>
</g>
<!-- Node27&#45;&gt;Node29 -->
<g id="edge4" class="edge">
<title>Node27&#45;&gt;Node29</title>
<path fill="none" stroke="#191970" d="M4413.6803,-58.9001C4451.8303,-47.2273 4507.7412,-30.1202 4542.3143,-19.5419"/>
<polygon fill="#191970" stroke="#191970" points="4412.4446,-55.6179 4403.9063,-61.8906 4414.4927,-62.3116 4412.4446,-55.6179"/>
</g>
<!-- Node27&#45;&gt;Node31 -->
<g id="edge5" class="edge">
<title>Node27&#45;&gt;Node31</title>
<path fill="none" stroke="#191970" d="M4372.5,-51.7462C4372.5,-41.0519 4372.5,-28.314 4372.5,-19.7449"/>
<polygon fill="#191970" stroke="#191970" points="4369.0001,-51.8906 4372.5,-61.8906 4376.0001,-51.8907 4369.0001,-51.8906"/>
</g>
<!-- Node100&#45;&gt;Node35 -->
<g id="edge36" class="edge">
<title>Node100&#45;&gt;Node35</title>
<path fill="none" stroke="#191970" d="M645.0337,-119.3428C671.8841,-107.7139 709.7711,-91.3051 733.4683,-81.0419"/>
<polygon fill="#191970" stroke="#191970" points="643.4728,-116.2046 635.6875,-123.3906 646.2549,-122.628 643.4728,-116.2046"/>
</g>
<!-- Node100&#45;&gt;Node39 -->
<g id="edge37" class="edge">
<title>Node100&#45;&gt;Node39</title>
<path fill="none" stroke="#191970" d="M564.3992,-130.2457C490.2689,-125.4002 345.6661,-113.2635 225.5,-87 218.3993,-85.4481 210.8573,-83.2731 203.9065,-81.0423"/>
<polygon fill="#191970" stroke="#191970" points="564.6117,-133.7662 574.8138,-130.9085 565.0564,-126.7804 564.6117,-133.7662"/>
</g>
<!-- Node100&#45;&gt;Node41 -->
<g id="edge38" class="edge">
<title>Node100&#45;&gt;Node41</title>
<path fill="none" stroke="#191970" d="M613.5,-113.2462C613.5,-102.5519 613.5,-89.814 613.5,-81.2449"/>
<polygon fill="#191970" stroke="#191970" points="610.0001,-113.3906 613.5,-123.3906 617.0001,-113.3907 610.0001,-113.3906"/>
</g>
<!-- Node100&#45;&gt;Node57 -->
<g id="edge39" class="edge">
<title>Node100&#45;&gt;Node57</title>
<path fill="none" stroke="#191970" d="M564.9586,-123.3389C506.8599,-111.7755 410.1909,-92.5356 352.3847,-81.0304"/>
<polygon fill="#191970" stroke="#191970" points="564.4988,-126.8159 574.9897,-125.3353 565.8653,-119.9506 564.4988,-126.8159"/>
</g>
<!-- Node100&#45;&gt;Node61 -->
<g id="edge40" class="edge">
<title>Node100&#45;&gt;Node61</title>
<path fill="none" stroke="#191970" d="M581.3001,-119.3428C553.8824,-107.7139 515.195,-91.3051 490.9972,-81.0419"/>
<polygon fill="#191970" stroke="#191970" points="580.2709,-122.708 590.8438,-123.3906 583.0042,-116.2637 580.2709,-122.708"/>
</g>
<!-- Node100&#45;&gt;Node87 -->
<g id="edge41" class="edge">
<title>Node100&#45;&gt;Node87</title>
<path fill="none" stroke="#191970" d="M662.3486,-123.7278C723.0179,-112.2119 825.9824,-92.6677 887.2808,-81.0324"/>
<polygon fill="#191970" stroke="#191970" points="661.432,-120.3392 652.2601,-125.6427 662.7375,-127.2164 661.432,-120.3392"/>
</g>
<!-- Node220&#45;&gt;Node39 -->
<g id="edge43" class="edge">
<title>Node220&#45;&gt;Node39</title>
<path fill="none" stroke="#191970" d="M393.3671,-126.0356C352.7047,-117.7453 283.8487,-102.9973 225.5,-87 218.9971,-85.2171 212.0635,-83.1045 205.5467,-81.0217"/>
<polygon fill="#191970" stroke="#191970" points="392.8238,-129.4965 403.3195,-128.0504 394.2128,-122.6357 392.8238,-129.4965"/>
</g>
<!-- Node220&#45;&gt;Node41 -->
<g id="edge44" class="edge">
<title>Node220&#45;&gt;Node41</title>
<path fill="none" stroke="#191970" d="M463.6718,-121.3077C498.8125,-109.6258 552.1768,-91.8858 584.83,-81.0308"/>
<polygon fill="#191970" stroke="#191970" points="462.2208,-118.1017 453.8356,-124.5776 464.4291,-124.7443 462.2208,-118.1017"/>
</g>
<!-- Node220&#45;&gt;Node57 -->
<g id="edge45" class="edge">
<title>Node220&#45;&gt;Node57</title>
<path fill="none" stroke="#191970" d="M400.0331,-118.8813C376.6482,-107.2832 344.16,-91.1701 323.7389,-81.0419"/>
<polygon fill="#191970" stroke="#191970" points="398.6112,-122.0829 409.125,-123.3906 401.7215,-115.8118 398.6112,-122.0829"/>
</g>
<!-- Node220&#45;&gt;Node61 -->
<g id="edge46" class="edge">
<title>Node220&#45;&gt;Node61</title>
<path fill="none" stroke="#191970" d="M440.2614,-114.9169C447.424,-103.9043 456.2951,-90.265 462.1619,-81.2449"/>
<polygon fill="#191970" stroke="#191970" points="437.2683,-113.0994 434.75,-123.3906 443.1363,-116.916 437.2683,-113.0994"/>
</g>
<!-- Node220&#45;&gt;Node177 -->
<g id="edge47" class="edge">
<title>Node220&#45;&gt;Node177</title>
<path fill="none" stroke="#191970" d="M393.0751,-128.3484C336.9633,-120.8011 224.2824,-104.9151 129.5,-87 120.2107,-85.2442 110.267,-83.1423 100.9032,-81.0614"/>
<polygon fill="#191970" stroke="#191970" points="392.8237,-131.8459 403.1994,-129.7021 393.7514,-124.9076 392.8237,-131.8459"/>
</g>
<!-- Node226&#45;&gt;Node63 -->
<g id="edge56" class="edge">
<title>Node226&#45;&gt;Node63</title>
<path fill="none" stroke="#191970" d="M4029.8235,-129.2006C4114.8107,-122.9435 4282.4617,-108.9343 4423.5,-87 4434.0058,-85.3661 4445.2717,-83.2145 4455.765,-81.0362"/>
<polygon fill="#191970" stroke="#191970" points="4029.3479,-125.7259 4019.6286,-129.9431 4029.8564,-132.7074 4029.3479,-125.7259"/>
</g>
</g>
</svg>
