<?xml version="1.0" encoding="UTF-8" standalone="no"?>
<!DOCTYPE svg PUBLIC "-//W3C//DTD SVG 1.1//EN"
 "http://www.w3.org/Graphics/SVG/1.1/DTD/svg11.dtd">
<!-- Generated by graphviz version 2.40.1 (20161225.0304)
 -->
<!-- Title: LinearForceVector3.h Pages: 1 -->
<svg width="5159pt" height="263pt"
 viewBox="0.00 0.00 5158.79 263.00" xmlns="http://www.w3.org/2000/svg" xmlns:xlink="http://www.w3.org/1999/xlink">
<g id="graph0" class="graph" transform="scale(1 1) rotate(0) translate(4 259)">
<title>LinearForceVector3.h</title>
<!-- Node24 -->
<g id="node1" class="node">
<title>Node24</title>
<polygon fill="#bfbfbf" stroke="#000000" points="4705.7912,-235.5 4705.7912,-254.5 4824.7912,-254.5 4824.7912,-235.5 4705.7912,-235.5"/>
<text text-anchor="middle" x="4765.2912" y="-242.5" font-family="FreeSans.ttf" font-size="10.00" fill="#000000">LinearForceVector3.h</text>
</g>
<!-- Node25 -->
<g id="node2" class="node">
<title>Node25</title>
<g id="a_node2"><a xlink:href="SpatialForceVector_8h.html" target="_top" xlink:title="SpatialForceVector.h">
<polygon fill="none" stroke="#000000" points="4365.2912,-179.5 4365.2912,-198.5 4481.2912,-198.5 4481.2912,-179.5 4365.2912,-179.5"/>
<text text-anchor="middle" x="4423.2912" y="-186.5" font-family="FreeSans.ttf" font-size="10.00" fill="#000000">SpatialForceVector.h</text>
</a>
</g>
</g>
<!-- Node24&#45;&gt;Node25 -->
<g id="edge1" class="edge">
<title>Node24&#45;&gt;Node25</title>
<path fill="none" stroke="#191970" d="M4696.6328,-233.7577C4633.5267,-223.4245 4541.0022,-208.2743 4481.4537,-198.5237"/>
<polygon fill="#191970" stroke="#191970" points="4696.4538,-237.2749 4706.8879,-235.4369 4697.585,-230.3669 4696.4538,-237.2749"/>
</g>
<!-- Node223 -->
<g id="node46" class="node">
<title>Node223</title>
<g id="a_node46"><a xlink:href="AngularForceVector3_8cpp.html" target="_top" xlink:title="AngularForceVector3.cpp">
<polygon fill="none" stroke="#000000" points="4499.7912,-179.5 4499.7912,-198.5 4636.7912,-198.5 4636.7912,-179.5 4499.7912,-179.5"/>
<text text-anchor="middle" x="4568.2912" y="-186.5" font-family="FreeSans.ttf" font-size="10.00" fill="#000000">AngularForceVector3.cpp</text>
</a>
</g>
</g>
<!-- Node24&#45;&gt;Node223 -->
<g id="edge61" class="edge">
<title>Node24&#45;&gt;Node223</title>
<path fill="none" stroke="#191970" d="M4721.6284,-232.5882C4685.4343,-222.2996 4634.7418,-207.8895 4601.7148,-198.5011"/>
<polygon fill="#191970" stroke="#191970" points="4720.8498,-236.0055 4731.4257,-235.3733 4722.7638,-229.2723 4720.8498,-236.0055"/>
</g>
<!-- Node224 -->
<g id="node47" class="node">
<title>Node224</title>
<g id="a_node47"><a xlink:href="ForceVector3_8cpp.html" target="_top" xlink:title="ForceVector3.cpp">
<polygon fill="none" stroke="#000000" points="4655.2912,-179.5 4655.2912,-198.5 4755.2912,-198.5 4755.2912,-179.5 4655.2912,-179.5"/>
<text text-anchor="middle" x="4705.2912" y="-186.5" font-family="FreeSans.ttf" font-size="10.00" fill="#000000">ForceVector3.cpp</text>
</a>
</g>
</g>
<!-- Node24&#45;&gt;Node224 -->
<g id="edge62" class="edge">
<title>Node24&#45;&gt;Node224</title>
<path fill="none" stroke="#191970" d="M4747.4634,-228.3607C4737.0834,-218.6727 4724.3622,-206.7995 4715.6227,-198.6427"/>
<polygon fill="#191970" stroke="#191970" points="4745.1413,-230.981 4754.84,-235.2455 4749.9176,-225.8636 4745.1413,-230.981"/>
</g>
<!-- Node225 -->
<g id="node48" class="node">
<title>Node225</title>
<g id="a_node48"><a xlink:href="GeomVector3_8cpp.html" target="_top" xlink:title="GeomVector3.cpp">
<polygon fill="none" stroke="#000000" points="4773.7912,-179.5 4773.7912,-198.5 4876.7912,-198.5 4876.7912,-179.5 4773.7912,-179.5"/>
<text text-anchor="middle" x="4825.2912" y="-186.5" font-family="FreeSans.ttf" font-size="10.00" fill="#000000">GeomVector3.cpp</text>
</a>
</g>
</g>
<!-- Node24&#45;&gt;Node225 -->
<g id="edge63" class="edge">
<title>Node24&#45;&gt;Node225</title>
<path fill="none" stroke="#191970" d="M4783.119,-228.3607C4793.4991,-218.6727 4806.2203,-206.7995 4814.9598,-198.6427"/>
<polygon fill="#191970" stroke="#191970" points="4780.6649,-225.8636 4775.7424,-235.2455 4785.4411,-230.981 4780.6649,-225.8636"/>
</g>
<!-- Node226 -->
<g id="node49" class="node">
<title>Node226</title>
<g id="a_node49"><a xlink:href="LinearForceVector3_8cpp.html" target="_top" xlink:title="LinearForceVector3.cpp">
<polygon fill="none" stroke="#000000" points="4895.2912,-179.5 4895.2912,-198.5 5025.2912,-198.5 5025.2912,-179.5 4895.2912,-179.5"/>
<text text-anchor="middle" x="4960.2912" y="-186.5" font-family="FreeSans.ttf" font-size="10.00" fill="#000000">LinearForceVector3.cpp</text>
</a>
</g>
</g>
<!-- Node24&#45;&gt;Node226 -->
<g id="edge64" class="edge">
<title>Node24&#45;&gt;Node226</title>
<path fill="none" stroke="#191970" d="M4808.5109,-232.5882C4844.3375,-222.2996 4894.5153,-207.8895 4927.207,-198.5011"/>
<polygon fill="#191970" stroke="#191970" points="4807.4583,-229.2489 4798.8129,-235.3733 4809.3906,-235.977 4807.4583,-229.2489"/>
</g>
<!-- Node227 -->
<g id="node50" class="node">
<title>Node227</title>
<g id="a_node50"><a xlink:href="MotionVector3_8cpp.html" target="_top" xlink:title="MotionVector3.cpp">
<polygon fill="none" stroke="#000000" points="5043.7912,-179.5 5043.7912,-198.5 5150.7912,-198.5 5150.7912,-179.5 5043.7912,-179.5"/>
<text text-anchor="middle" x="5097.2912" y="-186.5" font-family="FreeSans.ttf" font-size="10.00" fill="#000000">MotionVector3.cpp</text>
</a>
</g>
</g>
<!-- Node24&#45;&gt;Node227 -->
<g id="edge65" class="edge">
<title>Node24&#45;&gt;Node227</title>
<path fill="none" stroke="#191970" d="M4832.0972,-233.7315C4894.3352,-223.2336 4985.9506,-207.7804 5043.5786,-198.06"/>
<polygon fill="#191970" stroke="#191970" points="4831.2654,-230.3223 4821.9868,-235.4369 4832.4297,-237.2248 4831.2654,-230.3223"/>
</g>
<!-- Node26 -->
<g id="node3" class="node">
<title>Node26</title>
<g id="a_node3"><a xlink:href="EigenHelpers_8h.html" target="_top" xlink:title="EigenHelpers.h">
<polygon fill="none" stroke="#ff0000" points="2398.2912,-123.5 2398.2912,-142.5 2488.2912,-142.5 2488.2912,-123.5 2398.2912,-123.5"/>
<text text-anchor="middle" x="2443.2912" y="-130.5" font-family="FreeSans.ttf" font-size="10.00" fill="#000000">EigenHelpers.h</text>
</a>
</g>
</g>
<!-- Node25&#45;&gt;Node26 -->
<g id="edge2" class="edge">
<title>Node25&#45;&gt;Node26</title>
<path fill="none" stroke="#191970" d="M4354.8046,-187.063C4041.2559,-178.195 2746.9168,-141.5874 2488.3568,-134.2746"/>
<polygon fill="#191970" stroke="#191970" points="4355.0109,-190.5701 4365.1059,-187.3544 4355.2089,-183.5729 4355.0109,-190.5701"/>
</g>
<!-- Node29 -->
<g id="node5" class="node">
<title>Node29</title>
<g id="a_node5"><a xlink:href="SpatialInertiaRaw_8cpp.html" target="_top" xlink:title="SpatialInertiaRaw.cpp">
<polygon fill="none" stroke="#000000" points="3893.2912,-.5 3893.2912,-19.5 4015.2912,-19.5 4015.2912,-.5 3893.2912,-.5"/>
<text text-anchor="middle" x="3954.2912" y="-7.5" font-family="FreeSans.ttf" font-size="10.00" fill="#000000">SpatialInertiaRaw.cpp</text>
</a>
</g>
</g>
<!-- Node25&#45;&gt;Node29 -->
<g id="edge53" class="edge">
<title>Node25&#45;&gt;Node29</title>
<path fill="none" stroke="#191970" d="M4491.7423,-179.3032C4570.6432,-173.8809 4882.0897,-175.8943 4912.2912,-143 4918.3029,-136.4523 4915.662,-131.225 4912.2912,-123 4896.4407,-84.3229 4884.4196,-73.1287 4846.2912,-56 4771.0138,-22.1825 4204.1436,-12.7991 4015.2932,-10.5973"/>
<polygon fill="#191970" stroke="#191970" points="4491.1546,-175.8412 4481.4992,-180.2028 4491.7671,-182.8144 4491.1546,-175.8412"/>
</g>
<!-- Node31 -->
<g id="node6" class="node">
<title>Node31</title>
<g id="a_node6"><a xlink:href="SpatialMotionVector_8cpp.html" target="_top" xlink:title="SpatialMotionVector.cpp">
<polygon fill="none" stroke="#000000" points="107.2912,-.5 107.2912,-19.5 241.2912,-19.5 241.2912,-.5 107.2912,-.5"/>
<text text-anchor="middle" x="174.2912" y="-7.5" font-family="FreeSans.ttf" font-size="10.00" fill="#000000">SpatialMotionVector.cpp</text>
</a>
</g>
</g>
<!-- Node25&#45;&gt;Node31 -->
<g id="edge54" class="edge">
<title>Node25&#45;&gt;Node31</title>
<path fill="none" stroke="#191970" d="M4354.9427,-188.6994C3918.1969,-186.6942 1513.0872,-174.3628 778.2912,-143 607.1057,-135.6934 125.9652,-212.4793 9.2912,-87 -25.096,-50.0175 47.6855,-29.2067 107.2747,-18.7857"/>
<polygon fill="#191970" stroke="#191970" points="4355.1772,-192.2005 4365.1931,-188.7463 4355.2092,-185.2005 4355.1772,-192.2005"/>
</g>
<!-- Node40 -->
<g id="node12" class="node">
<title>Node40</title>
<g id="a_node12"><a xlink:href="SpatialForceVector_8cpp.html" target="_top" xlink:title="SpatialForceVector.cpp">
<polygon fill="none" stroke="#000000" points="18.7912,-62 18.7912,-81 145.7912,-81 145.7912,-62 18.7912,-62"/>
<text text-anchor="middle" x="82.2912" y="-69" font-family="FreeSans.ttf" font-size="10.00" fill="#000000">SpatialForceVector.cpp</text>
</a>
</g>
</g>
<!-- Node25&#45;&gt;Node40 -->
<g id="edge52" class="edge">
<title>Node25&#45;&gt;Node40</title>
<path fill="none" stroke="#191970" d="M4354.836,-188.7455C3876.8739,-186.7601 1032.6575,-171.5014 172.2912,-87 158.4056,-85.6362 143.4316,-83.3785 129.7582,-81.0026"/>
<polygon fill="#191970" stroke="#191970" points="4355.0131,-192.2461 4365.0274,-188.7873 4355.0419,-185.2462 4355.0131,-192.2461"/>
</g>
<!-- Node100 -->
<g id="node39" class="node">
<title>Node100</title>
<g id="a_node39"><a xlink:href="SpatialMomentum_8h.html" target="_top" xlink:title="SpatialMomentum.h">
<polygon fill="none" stroke="#ff0000" points="4253.7912,-123.5 4253.7912,-142.5 4368.7912,-142.5 4368.7912,-123.5 4253.7912,-123.5"/>
<text text-anchor="middle" x="4311.2912" y="-130.5" font-family="FreeSans.ttf" font-size="10.00" fill="#000000">SpatialMomentum.h</text>
</a>
</g>
</g>
<!-- Node25&#45;&gt;Node100 -->
<g id="edge39" class="edge">
<title>Node25&#45;&gt;Node100</title>
<path fill="none" stroke="#191970" d="M4394.9649,-174.8368C4374.7191,-164.7139 4348.0271,-151.3679 4330.2935,-142.5011"/>
<polygon fill="#191970" stroke="#191970" points="4393.5282,-178.0316 4404.0378,-179.3733 4396.6587,-171.7706 4393.5282,-178.0316"/>
</g>
<!-- Node190 -->
<g id="node40" class="node">
<title>Node190</title>
<g id="a_node40"><a xlink:href="Wrench_8h.html" target="_top" xlink:title="Wrench.h">
<polygon fill="none" stroke="#ff0000" points="4172.2912,-123.5 4172.2912,-142.5 4234.2912,-142.5 4234.2912,-123.5 4172.2912,-123.5"/>
<text text-anchor="middle" x="4203.2912" y="-130.5" font-family="FreeSans.ttf" font-size="10.00" fill="#000000">Wrench.h</text>
</a>
</g>
</g>
<!-- Node25&#45;&gt;Node190 -->
<g id="edge45" class="edge">
<title>Node25&#45;&gt;Node190</title>
<path fill="none" stroke="#191970" d="M4375.5744,-176.8539C4332.8283,-165.9731 4271.3659,-150.3281 4234.5755,-140.9633"/>
<polygon fill="#191970" stroke="#191970" points="4374.9175,-180.2982 4385.4719,-179.3733 4376.6443,-173.5145 4374.9175,-180.2982"/>
</g>
<!-- Node220 -->
<g id="node41" class="node">
<title>Node220</title>
<g id="a_node41"><a xlink:href="PositionRaw_8cpp.html" target="_top" xlink:title="PositionRaw.cpp">
<polygon fill="none" stroke="#000000" points="4478.2912,-123.5 4478.2912,-142.5 4574.2912,-142.5 4574.2912,-123.5 4478.2912,-123.5"/>
<text text-anchor="middle" x="4526.2912" y="-130.5" font-family="FreeSans.ttf" font-size="10.00" fill="#000000">PositionRaw.cpp</text>
</a>
</g>
</g>
<!-- Node25&#45;&gt;Node220 -->
<g id="edge50" class="edge">
<title>Node25&#45;&gt;Node220</title>
<path fill="none" stroke="#191970" d="M4450.0345,-174.46C4468.4663,-164.4388 4492.4497,-151.3993 4508.5556,-142.6427"/>
<polygon fill="#191970" stroke="#191970" points="4448.3461,-171.394 4441.2325,-179.2455 4451.6898,-177.5438 4448.3461,-171.394"/>
</g>
<!-- Node221 -->
<g id="node42" class="node">
<title>Node221</title>
<g id="a_node42"><a xlink:href="RotationRaw_8cpp.html" target="_top" xlink:title="RotationRaw.cpp">
<polygon fill="none" stroke="#000000" points="4592.2912,-123.5 4592.2912,-142.5 4690.2912,-142.5 4690.2912,-123.5 4592.2912,-123.5"/>
<text text-anchor="middle" x="4641.2912" y="-130.5" font-family="FreeSans.ttf" font-size="10.00" fill="#000000">RotationRaw.cpp</text>
</a>
</g>
</g>
<!-- Node25&#45;&gt;Node221 -->
<g id="edge51" class="edge">
<title>Node25&#45;&gt;Node221</title>
<path fill="none" stroke="#191970" d="M4470.5851,-176.8511C4510.7005,-166.5462 4567.4448,-151.9697 4604.3047,-142.5011"/>
<polygon fill="#191970" stroke="#191970" points="4469.5815,-173.4952 4460.7668,-179.3733 4471.3232,-180.2751 4469.5815,-173.4952"/>
</g>
<!-- Node102 -->
<g id="node43" class="node">
<title>Node102</title>
<g id="a_node43"><a xlink:href="TestUtils_8cpp.html" target="_top" xlink:title="TestUtils.cpp">
<polygon fill="none" stroke="#000000" points="4708.7912,-123.5 4708.7912,-142.5 4787.7912,-142.5 4787.7912,-123.5 4708.7912,-123.5"/>
<text text-anchor="middle" x="4748.2912" y="-130.5" font-family="FreeSans.ttf" font-size="10.00" fill="#000000">TestUtils.cpp</text>
</a>
</g>
</g>
<!-- Node25&#45;&gt;Node102 -->
<g id="edge55" class="edge">
<title>Node25&#45;&gt;Node102</title>
<path fill="none" stroke="#191970" d="M4491.6921,-178.3052C4547.6169,-169.3917 4628.6951,-156.0823 4699.2912,-143 4702.3645,-142.4305 4705.5425,-141.8234 4708.7348,-141.2005"/>
<polygon fill="#191970" stroke="#191970" points="4490.8771,-174.8908 4481.5506,-179.9174 4491.9761,-181.804 4490.8771,-174.8908"/>
</g>
<!-- Node103 -->
<g id="node44" class="node">
<title>Node103</title>
<g id="a_node44"><a xlink:href="DynamicsUtils_8h.html" target="_top" xlink:title="DynamicsUtils.h">
<polygon fill="none" stroke="#000000" points="4805.7912,-123.5 4805.7912,-142.5 4902.7912,-142.5 4902.7912,-123.5 4805.7912,-123.5"/>
<text text-anchor="middle" x="4854.2912" y="-130.5" font-family="FreeSans.ttf" font-size="10.00" fill="#000000">DynamicsUtils.h</text>
</a>
</g>
</g>
<!-- Node25&#45;&gt;Node103 -->
<g id="edge56" class="edge">
<title>Node25&#45;&gt;Node103</title>
<path fill="none" stroke="#191970" d="M4491.5672,-179.0028C4628.7302,-161.1089 4664.9737,-162.3744 4797.2912,-143 4799.9753,-142.607 4802.7272,-142.1856 4805.5029,-141.7463"/>
<polygon fill="#191970" stroke="#191970" points="4490.9726,-175.5508 4481.5143,-180.3248 4491.8853,-182.491 4490.9726,-175.5508"/>
</g>
<!-- Node222 -->
<g id="node45" class="node">
<title>Node222</title>
<g id="a_node45"><a xlink:href="JointState_8h.html" target="_top" xlink:title="JointState.h">
<polygon fill="none" stroke="#ff0000" points="4386.7912,-123.5 4386.7912,-142.5 4459.7912,-142.5 4459.7912,-123.5 4386.7912,-123.5"/>
<text text-anchor="middle" x="4423.2912" y="-130.5" font-family="FreeSans.ttf" font-size="10.00" fill="#000000">JointState.h</text>
</a>
</g>
</g>
<!-- Node25&#45;&gt;Node222 -->
<g id="edge57" class="edge">
<title>Node25&#45;&gt;Node222</title>
<path fill="none" stroke="#191970" d="M4423.2912,-169.1575C4423.2912,-160.155 4423.2912,-149.9199 4423.2912,-142.6427"/>
<polygon fill="#191970" stroke="#191970" points="4419.7913,-169.2455 4423.2912,-179.2455 4426.7913,-169.2456 4419.7913,-169.2455"/>
</g>
<!-- Node27 -->
<g id="node4" class="node">
<title>Node27</title>
<g id="a_node4"><a xlink:href="PrivateUtils_8h.html" target="_top" xlink:title="PrivateUtils.h">
<polygon fill="none" stroke="#ff0000" points="2935.7912,-62 2935.7912,-81 3018.7912,-81 3018.7912,-62 2935.7912,-62"/>
<text text-anchor="middle" x="2977.2912" y="-69" font-family="FreeSans.ttf" font-size="10.00" fill="#000000">PrivateUtils.h</text>
</a>
</g>
</g>
<!-- Node26&#45;&gt;Node27 -->
<g id="edge3" class="edge">
<title>Node26&#45;&gt;Node27</title>
<path fill="none" stroke="#191970" d="M2498.4736,-131.4441C2588.8909,-128.0735 2773.8855,-117.7267 2927.2912,-87 2934.7766,-85.5007 2942.7329,-83.3165 2950.0453,-81.0583"/>
<polygon fill="#191970" stroke="#191970" points="2498.3165,-127.9474 2488.4484,-131.8035 2498.5674,-134.9429 2498.3165,-127.9474"/>
</g>
<!-- Node26&#45;&gt;Node31 -->
<g id="edge13" class="edge">
<title>Node26&#45;&gt;Node31</title>
<path fill="none" stroke="#191970" d="M2387.8559,-132.3245C2043.9179,-128.0786 215.4032,-104.6866 193.2912,-87 172.969,-70.745 172.2977,-36.5219 173.3383,-19.7218"/>
<polygon fill="#191970" stroke="#191970" points="2388.0216,-135.8267 2398.064,-132.4503 2388.1079,-128.8272 2388.0216,-135.8267"/>
</g>
<!-- Node35 -->
<g id="node7" class="node">
<title>Node35</title>
<g id="a_node7"><a xlink:href="ArticulatedBodyInertia_8cpp.html" target="_top" xlink:title="ArticulatedBodyInertia.cpp">
<polygon fill="none" stroke="#000000" points="4000.2912,-62 4000.2912,-81 4146.2912,-81 4146.2912,-62 4000.2912,-62"/>
<text text-anchor="middle" x="4073.2912" y="-69" font-family="FreeSans.ttf" font-size="10.00" fill="#000000">ArticulatedBodyInertia.cpp</text>
</a>
</g>
</g>
<!-- Node26&#45;&gt;Node35 -->
<g id="edge6" class="edge">
<title>Node26&#45;&gt;Node35</title>
<path fill="none" stroke="#191970" d="M2498.7801,-132.5205C2739.3212,-130.262 3693.1791,-119.4014 3991.2912,-87 4003.8222,-85.638 4017.3065,-83.4116 4029.6489,-81.0656"/>
<polygon fill="#191970" stroke="#191970" points="2498.4968,-129.0229 2488.5297,-132.6156 2498.5618,-136.0226 2498.4968,-129.0229"/>
</g>
<!-- Node36 -->
<g id="node8" class="node">
<title>Node36</title>
<g id="a_node8"><a xlink:href="CubicSpline_8cpp.html" target="_top" xlink:title="CubicSpline.cpp">
<polygon fill="none" stroke="#000000" points="1796.2912,-62 1796.2912,-81 1890.2912,-81 1890.2912,-62 1796.2912,-62"/>
<text text-anchor="middle" x="1843.2912" y="-69" font-family="FreeSans.ttf" font-size="10.00" fill="#000000">CubicSpline.cpp</text>
</a>
</g>
</g>
<!-- Node26&#45;&gt;Node36 -->
<g id="edge7" class="edge">
<title>Node26&#45;&gt;Node36</title>
<path fill="none" stroke="#191970" d="M2388.2099,-131.6221C2289.6416,-128.4281 2076.8751,-118.2236 1900.2912,-87 1891.8085,-85.5001 1882.7556,-83.3157 1874.42,-81.0574"/>
<polygon fill="#191970" stroke="#191970" points="2388.1344,-135.1214 2398.2389,-131.9355 2388.3531,-128.1248 2388.1344,-135.1214"/>
</g>
<!-- Node37 -->
<g id="node9" class="node">
<title>Node37</title>
<g id="a_node9"><a xlink:href="Direction_8cpp.html" target="_top" xlink:title="Direction.cpp">
<polygon fill="none" stroke="#000000" points="1908.7912,-62 1908.7912,-81 1989.7912,-81 1989.7912,-62 1908.7912,-62"/>
<text text-anchor="middle" x="1949.2912" y="-69" font-family="FreeSans.ttf" font-size="10.00" fill="#000000">Direction.cpp</text>
</a>
</g>
</g>
<!-- Node26&#45;&gt;Node37 -->
<g id="edge8" class="edge">
<title>Node26&#45;&gt;Node37</title>
<path fill="none" stroke="#191970" d="M2387.9565,-130.7757C2303.4272,-126.592 2137.4019,-115.2727 1999.2912,-87 1991.8123,-85.469 1983.8582,-83.2739 1976.5458,-81.0153"/>
<polygon fill="#191970" stroke="#191970" points="2387.9438,-134.2791 2398.1001,-131.2627 2388.2795,-127.2871 2387.9438,-134.2791"/>
</g>
<!-- Node38 -->
<g id="node10" class="node">
<title>Node38</title>
<g id="a_node10"><a xlink:href="InertiaNonLinearParametrization_8cpp.html" target="_top" xlink:title="InertiaNonLinearParametrization.cpp">
<polygon fill="none" stroke="#000000" points="2007.7912,-62 2007.7912,-81 2202.7912,-81 2202.7912,-62 2007.7912,-62"/>
<text text-anchor="middle" x="2105.2912" y="-69" font-family="FreeSans.ttf" font-size="10.00" fill="#000000">InertiaNonLinearParametrization.cpp</text>
</a>
</g>
</g>
<!-- Node26&#45;&gt;Node38 -->
<g id="edge9" class="edge">
<title>Node26&#45;&gt;Node38</title>
<path fill="none" stroke="#191970" d="M2388.19,-122.9742C2324.4657,-111.3794 2220.3267,-92.431 2157.747,-81.0445"/>
<polygon fill="#191970" stroke="#191970" points="2387.5927,-126.4229 2398.0578,-124.7697 2388.8459,-119.536 2387.5927,-126.4229"/>
</g>
<!-- Node39 -->
<g id="node11" class="node">
<title>Node39</title>
<g id="a_node11"><a xlink:href="Rotation_8cpp.html" target="_top" xlink:title="Rotation.cpp">
<polygon fill="none" stroke="#000000" points="4164.7912,-62 4164.7912,-81 4241.7912,-81 4241.7912,-62 4164.7912,-62"/>
<text text-anchor="middle" x="4203.2912" y="-69" font-family="FreeSans.ttf" font-size="10.00" fill="#000000">Rotation.cpp</text>
</a>
</g>
</g>
<!-- Node26&#45;&gt;Node39 -->
<g id="edge10" class="edge">
<title>Node26&#45;&gt;Node39</title>
<path fill="none" stroke="#191970" d="M2498.4242,-132.453C2773.3044,-129.6004 3989.1,-115.4602 4155.2912,-87 4162.8869,-85.6993 4170.9324,-83.4612 4178.2209,-81.084"/>
<polygon fill="#191970" stroke="#191970" points="2498.2548,-128.9545 2488.2914,-132.5575 2498.327,-135.9541 2498.2548,-128.9545"/>
</g>
<!-- Node26&#45;&gt;Node40 -->
<g id="edge11" class="edge">
<title>Node26&#45;&gt;Node40</title>
<path fill="none" stroke="#191970" d="M2387.654,-132.466C2059.9122,-129.2421 387.6427,-111.6854 160.2912,-87 148.2126,-85.6885 135.2212,-83.4471 123.3718,-81.0701"/>
<polygon fill="#191970" stroke="#191970" points="2387.8177,-135.9677 2397.8515,-132.5659 2387.8864,-128.968 2387.8177,-135.9677"/>
</g>
<!-- Node41 -->
<g id="node13" class="node">
<title>Node41</title>
<g id="a_node13"><a xlink:href="SpatialInertia_8cpp.html" target="_top" xlink:title="SpatialInertia.cpp">
<polygon fill="none" stroke="#000000" points="4260.2912,-62 4260.2912,-81 4362.2912,-81 4362.2912,-62 4260.2912,-62"/>
<text text-anchor="middle" x="4311.2912" y="-69" font-family="FreeSans.ttf" font-size="10.00" fill="#000000">SpatialInertia.cpp</text>
</a>
</g>
</g>
<!-- Node26&#45;&gt;Node41 -->
<g id="edge12" class="edge">
<title>Node26&#45;&gt;Node41</title>
<path fill="none" stroke="#191970" d="M2498.7149,-132.3403C2783.3547,-128.8513 4074.3858,-111.7714 4251.2912,-87 4260.6674,-85.6871 4270.6873,-83.4453 4279.8004,-81.0683"/>
<polygon fill="#191970" stroke="#191970" points="2498.5839,-128.8415 2488.6274,-132.4634 2498.6694,-135.841 2498.5839,-128.8415"/>
</g>
<!-- Node42 -->
<g id="node14" class="node">
<title>Node42</title>
<g id="a_node14"><a xlink:href="TransformDerivative_8cpp.html" target="_top" xlink:title="TransformDerivative.cpp">
<polygon fill="none" stroke="#000000" points="2220.7912,-62 2220.7912,-81 2357.7912,-81 2357.7912,-62 2220.7912,-62"/>
<text text-anchor="middle" x="2289.2912" y="-69" font-family="FreeSans.ttf" font-size="10.00" fill="#000000">TransformDerivative.cpp</text>
</a>
</g>
</g>
<!-- Node26&#45;&gt;Node42 -->
<g id="edge14" class="edge">
<title>Node26&#45;&gt;Node42</title>
<path fill="none" stroke="#191970" d="M2409.8563,-119.6477C2380.6953,-108.0023 2339.11,-91.3952 2313.1848,-81.0419"/>
<polygon fill="#191970" stroke="#191970" points="2408.6438,-122.9323 2419.2287,-123.3906 2411.24,-116.4315 2408.6438,-122.9323"/>
</g>
<!-- Node43 -->
<g id="node15" class="node">
<title>Node43</title>
<g id="a_node15"><a xlink:href="AttitudeEstimatorUtils_8h.html" target="_top" xlink:title="AttitudeEstimatorUtils.h">
<polygon fill="none" stroke="#ff0000" points="2376.2912,-62 2376.2912,-81 2510.2912,-81 2510.2912,-62 2376.2912,-62"/>
<text text-anchor="middle" x="2443.2912" y="-69" font-family="FreeSans.ttf" font-size="10.00" fill="#000000">AttitudeEstimatorUtils.h</text>
</a>
</g>
</g>
<!-- Node26&#45;&gt;Node43 -->
<g id="edge15" class="edge">
<title>Node26&#45;&gt;Node43</title>
<path fill="none" stroke="#191970" d="M2443.2912,-113.2462C2443.2912,-102.5519 2443.2912,-89.814 2443.2912,-81.2449"/>
<polygon fill="#191970" stroke="#191970" points="2439.7913,-113.3906 2443.2912,-123.3906 2446.7913,-113.3907 2439.7913,-113.3906"/>
</g>
<!-- Node47 -->
<g id="node16" class="node">
<title>Node47</title>
<g id="a_node16"><a xlink:href="GravityCompensationHelpers_8h.html" target="_top" xlink:title="GravityCompensationHelpers.h">
<polygon fill="none" stroke="#ff0000" points="2528.2912,-62 2528.2912,-81 2698.2912,-81 2698.2912,-62 2528.2912,-62"/>
<text text-anchor="middle" x="2613.2912" y="-69" font-family="FreeSans.ttf" font-size="10.00" fill="#000000">GravityCompensationHelpers.h</text>
</a>
</g>
</g>
<!-- Node26&#45;&gt;Node47 -->
<g id="edge16" class="edge">
<title>Node26&#45;&gt;Node47</title>
<path fill="none" stroke="#191970" d="M2479.3634,-119.9504C2511.591,-108.2916 2558.0476,-91.4852 2586.9153,-81.0419"/>
<polygon fill="#191970" stroke="#191970" points="2478.0666,-116.6974 2469.8537,-123.3906 2480.448,-123.2799 2478.0666,-116.6974"/>
</g>
<!-- Node49 -->
<g id="node17" class="node">
<title>Node49</title>
<g id="a_node17"><a xlink:href="KalmanFilter_8h.html" target="_top" xlink:title="KalmanFilter.h">
<polygon fill="none" stroke="#ff0000" points="2716.2912,-62 2716.2912,-81 2802.2912,-81 2802.2912,-62 2716.2912,-62"/>
<text text-anchor="middle" x="2759.2912" y="-69" font-family="FreeSans.ttf" font-size="10.00" fill="#000000">KalmanFilter.h</text>
</a>
</g>
</g>
<!-- Node26&#45;&gt;Node49 -->
<g id="edge17" class="edge">
<title>Node26&#45;&gt;Node49</title>
<path fill="none" stroke="#191970" d="M2498.4524,-125.3141C2552.1274,-117.3836 2635.8156,-103.8186 2707.2912,-87 2714.5354,-85.2954 2722.2606,-83.1668 2729.4799,-81.0382"/>
<polygon fill="#191970" stroke="#191970" points="2497.8475,-121.8653 2488.4598,-126.7766 2498.8613,-128.7915 2497.8475,-121.8653"/>
</g>
<!-- Node51 -->
<g id="node18" class="node">
<title>Node51</title>
<g id="a_node18"><a xlink:href="BerdyHelper_8cpp.html" target="_top" xlink:title="BerdyHelper.cpp">
<polygon fill="none" stroke="#000000" points="2820.7912,-62 2820.7912,-81 2917.7912,-81 2917.7912,-62 2820.7912,-62"/>
<text text-anchor="middle" x="2869.2912" y="-69" font-family="FreeSans.ttf" font-size="10.00" fill="#000000">BerdyHelper.cpp</text>
</a>
</g>
</g>
<!-- Node26&#45;&gt;Node51 -->
<g id="edge18" class="edge">
<title>Node26&#45;&gt;Node51</title>
<path fill="none" stroke="#191970" d="M2498.5971,-128.4641C2570.9251,-121.9904 2701.3686,-108.4536 2811.2912,-87 2819.5774,-85.3828 2828.4265,-83.2372 2836.6528,-81.0596"/>
<polygon fill="#191970" stroke="#191970" points="2498.0103,-125.0022 2488.3568,-129.3681 2498.6259,-131.9751 2498.0103,-125.0022"/>
</g>
<!-- Node52 -->
<g id="node19" class="node">
<title>Node52</title>
<g id="a_node19"><a xlink:href="BerdySparseMAPSolver_8cpp.html" target="_top" xlink:title="BerdySparseMAPSolver.cpp">
<polygon fill="none" stroke="#000000" points="3036.7912,-62 3036.7912,-81 3185.7912,-81 3185.7912,-62 3036.7912,-62"/>
<text text-anchor="middle" x="3111.2912" y="-69" font-family="FreeSans.ttf" font-size="10.00" fill="#000000">BerdySparseMAPSolver.cpp</text>
</a>
</g>
</g>
<!-- Node26&#45;&gt;Node52 -->
<g id="edge19" class="edge">
<title>Node26&#45;&gt;Node52</title>
<path fill="none" stroke="#191970" d="M2498.8801,-130.5974C2603.0766,-125.658 2834.7151,-112.612 3028.2912,-87 3040.2076,-85.4233 3053.0059,-83.2664 3064.8985,-81.0628"/>
<polygon fill="#191970" stroke="#191970" points="2498.428,-127.1147 2488.6024,-131.0779 2498.755,-134.107 2498.428,-127.1147"/>
</g>
<!-- Node53 -->
<g id="node20" class="node">
<title>Node53</title>
<g id="a_node20"><a xlink:href="ExtendedKalmanFilter_8cpp.html" target="_top" xlink:title="ExtendedKalmanFilter.cpp">
<polygon fill="none" stroke="#000000" points="3203.7912,-62 3203.7912,-81 3346.7912,-81 3346.7912,-62 3203.7912,-62"/>
<text text-anchor="middle" x="3275.2912" y="-69" font-family="FreeSans.ttf" font-size="10.00" fill="#000000">ExtendedKalmanFilter.cpp</text>
</a>
</g>
</g>
<!-- Node26&#45;&gt;Node53 -->
<g id="edge20" class="edge">
<title>Node26&#45;&gt;Node53</title>
<path fill="none" stroke="#191970" d="M2498.469,-132.0829C2623.1408,-129.4742 2935.9283,-119.9161 3195.2912,-87 3207.0803,-85.5038 3219.7461,-83.3207 3231.4439,-81.0625"/>
<polygon fill="#191970" stroke="#191970" points="2498.3329,-128.5849 2488.4059,-132.2868 2498.4747,-135.5834 2498.3329,-128.5849"/>
</g>
<!-- Node54 -->
<g id="node21" class="node">
<title>Node54</title>
<g id="a_node21"><a xlink:href="ExternalWrenchesEstimation_8cpp.html" target="_top" xlink:title="ExternalWrenchesEstimation.cpp">
<polygon fill="none" stroke="#000000" points="4484.7912,-62 4484.7912,-81 4661.7912,-81 4661.7912,-62 4484.7912,-62"/>
<text text-anchor="middle" x="4573.2912" y="-69" font-family="FreeSans.ttf" font-size="10.00" fill="#000000">ExternalWrenchesEstimation.cpp</text>
</a>
</g>
</g>
<!-- Node26&#45;&gt;Node54 -->
<g id="edge21" class="edge">
<title>Node26&#45;&gt;Node54</title>
<path fill="none" stroke="#191970" d="M2498.5998,-132.7531C2782.2226,-131.3337 4075.6258,-122.9662 4475.2912,-87 4490.3886,-85.6414 4506.6866,-83.3853 4521.5758,-81.0092"/>
<polygon fill="#191970" stroke="#191970" points="2498.5337,-129.2533 2488.5511,-132.8026 2498.5682,-136.2532 2498.5337,-129.2533"/>
</g>
<!-- Node55 -->
<g id="node22" class="node">
<title>Node55</title>
<g id="a_node22"><a xlink:href="ExtWrenchesAndJointTorquesEstimator_8cpp.html" target="_top" xlink:title="ExtWrenchesAndJointTorques\lEstimator.cpp">
<polygon fill="none" stroke="#000000" points="4679.2912,-56.5 4679.2912,-86.5 4837.2912,-86.5 4837.2912,-56.5 4679.2912,-56.5"/>
<text text-anchor="start" x="4687.2912" y="-74.5" font-family="FreeSans.ttf" font-size="10.00" fill="#000000">ExtWrenchesAndJointTorques</text>
<text text-anchor="middle" x="4758.2912" y="-63.5" font-family="FreeSans.ttf" font-size="10.00" fill="#000000">Estimator.cpp</text>
</a>
</g>
</g>
<!-- Node26&#45;&gt;Node55 -->
<g id="edge22" class="edge">
<title>Node26&#45;&gt;Node55</title>
<path fill="none" stroke="#191970" d="M2498.6144,-132.374C2820.8863,-128.6586 4449.43,-108.9192 4671.2912,-87 4673.8867,-86.7436 4676.5212,-86.4529 4679.1779,-86.1335"/>
<polygon fill="#191970" stroke="#191970" points="2498.5405,-128.8745 2488.5814,-132.4893 2498.621,-135.8741 2498.5405,-128.8745"/>
</g>
<!-- Node56 -->
<g id="node23" class="node">
<title>Node56</title>
<g id="a_node23"><a xlink:href="SimpleLeggedOdometry_8cpp.html" target="_top" xlink:title="SimpleLeggedOdometry.cpp">
<polygon fill="none" stroke="#000000" points="3364.7912,-62 3364.7912,-81 3517.7912,-81 3517.7912,-62 3364.7912,-62"/>
<text text-anchor="middle" x="3441.2912" y="-69" font-family="FreeSans.ttf" font-size="10.00" fill="#000000">SimpleLeggedOdometry.cpp</text>
</a>
</g>
</g>
<!-- Node26&#45;&gt;Node56 -->
<g id="edge23" class="edge">
<title>Node26&#45;&gt;Node56</title>
<path fill="none" stroke="#191970" d="M2498.5311,-131.1609C2669.5208,-125.3191 3188.6619,-106.4233 3356.2912,-87 3368.9568,-85.5324 3382.5824,-83.3306 3395.1342,-81.044"/>
<polygon fill="#191970" stroke="#191970" points="2498.3689,-127.6643 2488.4937,-131.5025 2498.607,-134.6603 2498.3689,-127.6643"/>
</g>
<!-- Node57 -->
<g id="node24" class="node">
<title>Node57</title>
<g id="a_node24"><a xlink:href="KinDynComputations_8cpp.html" target="_top" xlink:title="KinDynComputations.cpp">
<polygon fill="none" stroke="#000000" points="3842.2912,-62 3842.2912,-81 3982.2912,-81 3982.2912,-62 3842.2912,-62"/>
<text text-anchor="middle" x="3912.2912" y="-69" font-family="FreeSans.ttf" font-size="10.00" fill="#000000">KinDynComputations.cpp</text>
</a>
</g>
</g>
<!-- Node26&#45;&gt;Node57 -->
<g id="edge24" class="edge">
<title>Node26&#45;&gt;Node57</title>
<path fill="none" stroke="#191970" d="M2498.5396,-132.3578C2723.0828,-129.5644 3567.9155,-117.2264 3833.2912,-87 3845.3729,-85.6239 3858.3668,-83.393 3870.2576,-81.0471"/>
<polygon fill="#191970" stroke="#191970" points="2498.2769,-128.8607 2488.3208,-132.4837 2498.3631,-135.8602 2498.2769,-128.8607"/>
</g>
<!-- Node58 -->
<g id="node25" class="node">
<title>Node58</title>
<g id="a_node25"><a xlink:href="BoundingBoxHelpers_8cpp.html" target="_top" xlink:title="BoundingBoxHelpers.cpp">
<polygon fill="none" stroke="#000000" points="3535.7912,-62 3535.7912,-81 3674.7912,-81 3674.7912,-62 3535.7912,-62"/>
<text text-anchor="middle" x="3605.2912" y="-69" font-family="FreeSans.ttf" font-size="10.00" fill="#000000">BoundingBoxHelpers.cpp</text>
</a>
</g>
</g>
<!-- Node26&#45;&gt;Node58 -->
<g id="edge25" class="edge">
<title>Node26&#45;&gt;Node58</title>
<path fill="none" stroke="#191970" d="M2498.5717,-131.7791C2690.1475,-127.3721 3324.9359,-111.2534 3527.2912,-87 3539.0804,-85.587 3551.7513,-83.3741 3563.3812,-81.0583"/>
<polygon fill="#191970" stroke="#191970" points="2498.3703,-128.2827 2488.453,-132.0104 2498.5304,-135.2809 2498.3703,-128.2827"/>
</g>
<!-- Node59 -->
<g id="node26" class="node">
<title>Node59</title>
<g id="a_node26"><a xlink:href="ConvexHullHelpers_8cpp.html" target="_top" xlink:title="ConvexHullHelpers.cpp">
<polygon fill="none" stroke="#000000" points="3692.7912,-62 3692.7912,-81 3823.7912,-81 3823.7912,-62 3692.7912,-62"/>
<text text-anchor="middle" x="3758.2912" y="-69" font-family="FreeSans.ttf" font-size="10.00" fill="#000000">ConvexHullHelpers.cpp</text>
</a>
</g>
</g>
<!-- Node26&#45;&gt;Node59 -->
<g id="edge26" class="edge">
<title>Node26&#45;&gt;Node59</title>
<path fill="none" stroke="#191970" d="M2498.7342,-132.1943C2708.005,-128.9591 3449.9022,-115.6816 3684.2912,-87 3695.6263,-85.613 3707.8036,-83.3785 3718.9416,-81.0328"/>
<polygon fill="#191970" stroke="#191970" points="2498.5412,-128.6968 2488.596,-132.3496 2498.6484,-135.696 2498.5412,-128.6968"/>
</g>
<!-- Node60 -->
<g id="node27" class="node">
<title>Node60</title>
<g id="a_node27"><a xlink:href="InverseKinematics_8cpp.html" target="_top" xlink:title="InverseKinematics.cpp">
<polygon fill="none" stroke="#000000" points="202.2912,-62 202.2912,-81 330.2912,-81 330.2912,-62 202.2912,-62"/>
<text text-anchor="middle" x="266.2912" y="-69" font-family="FreeSans.ttf" font-size="10.00" fill="#000000">InverseKinematics.cpp</text>
</a>
</g>
</g>
<!-- Node26&#45;&gt;Node60 -->
<g id="edge27" class="edge">
<title>Node26&#45;&gt;Node60</title>
<path fill="none" stroke="#191970" d="M2388.0996,-132.412C2076.8828,-129.0139 547.7625,-111.1947 339.2912,-87 327.9659,-85.6856 315.8007,-83.4433 304.7114,-81.0664"/>
<polygon fill="#191970" stroke="#191970" points="2388.1914,-135.9131 2398.2289,-132.5222 2388.2676,-128.9135 2388.1914,-135.9131"/>
</g>
<!-- Node61 -->
<g id="node28" class="node">
<title>Node61</title>
<g id="a_node28"><a xlink:href="InverseKinematicsData_8cpp.html" target="_top" xlink:title="InverseKinematicsData.cpp">
<polygon fill="none" stroke="#000000" points="348.7912,-62 348.7912,-81 499.7912,-81 499.7912,-62 348.7912,-62"/>
<text text-anchor="middle" x="424.2912" y="-69" font-family="FreeSans.ttf" font-size="10.00" fill="#000000">InverseKinematicsData.cpp</text>
</a>
</g>
</g>
<!-- Node26&#45;&gt;Node61 -->
<g id="edge28" class="edge">
<title>Node26&#45;&gt;Node61</title>
<path fill="none" stroke="#191970" d="M2388.0058,-132.8548C2112.7174,-131.9532 888.0221,-125.7941 509.2912,-87 496.1597,-85.6549 482.0121,-83.403 469.0988,-81.0267"/>
<polygon fill="#191970" stroke="#191970" points="2388.1394,-136.3551 2398.1505,-132.887 2388.1617,-129.3552 2388.1394,-136.3551"/>
</g>
<!-- Node62 -->
<g id="node29" class="node">
<title>Node62</title>
<g id="a_node29"><a xlink:href="InverseKinematicsNLP_8cpp.html" target="_top" xlink:title="InverseKinematicsNLP.cpp">
<polygon fill="none" stroke="#000000" points="517.7912,-62 517.7912,-81 662.7912,-81 662.7912,-62 517.7912,-62"/>
<text text-anchor="middle" x="590.2912" y="-69" font-family="FreeSans.ttf" font-size="10.00" fill="#000000">InverseKinematicsNLP.cpp</text>
</a>
</g>
</g>
<!-- Node26&#45;&gt;Node62 -->
<g id="edge29" class="edge">
<title>Node26&#45;&gt;Node62</title>
<path fill="none" stroke="#191970" d="M2387.6913,-132.7606C2126.1614,-131.4502 1016.7362,-123.7858 672.2912,-87 659.6137,-85.6461 645.9625,-83.3914 633.5051,-81.0153"/>
<polygon fill="#191970" stroke="#191970" points="2388.0567,-136.2624 2398.0738,-132.8115 2388.0911,-129.2625 2388.0567,-136.2624"/>
</g>
<!-- Node63 -->
<g id="node30" class="node">
<title>Node63</title>
<g id="a_node30"><a xlink:href="DenavitHartenberg_8cpp.html" target="_top" xlink:title="DenavitHartenberg.cpp">
<polygon fill="none" stroke="#000000" points="681.2912,-62 681.2912,-81 811.2912,-81 811.2912,-62 681.2912,-62"/>
<text text-anchor="middle" x="746.2912" y="-69" font-family="FreeSans.ttf" font-size="10.00" fill="#000000">DenavitHartenberg.cpp</text>
</a>
</g>
</g>
<!-- Node26&#45;&gt;Node63 -->
<g id="edge30" class="edge">
<title>Node26&#45;&gt;Node63</title>
<path fill="none" stroke="#191970" d="M2387.9846,-132.7346C2140.6641,-131.3477 1134.5563,-123.5264 821.2912,-87 809.6695,-85.6449 797.1754,-83.3899 785.782,-81.0138"/>
<polygon fill="#191970" stroke="#191970" points="2388.1488,-136.2355 2398.1679,-132.7905 2388.1873,-129.2356 2388.1488,-136.2355"/>
</g>
<!-- Node64 -->
<g id="node31" class="node">
<title>Node64</title>
<g id="a_node31"><a xlink:href="Dynamics_8cpp.html" target="_top" xlink:title="Dynamics.cpp">
<polygon fill="none" stroke="#000000" points="4380.2912,-62 4380.2912,-81 4466.2912,-81 4466.2912,-62 4380.2912,-62"/>
<text text-anchor="middle" x="4423.2912" y="-69" font-family="FreeSans.ttf" font-size="10.00" fill="#000000">Dynamics.cpp</text>
</a>
</g>
</g>
<!-- Node26&#45;&gt;Node64 -->
<g id="edge31" class="edge">
<title>Node26&#45;&gt;Node64</title>
<path fill="none" stroke="#191970" d="M2498.5601,-132.5567C2794.1875,-130.0684 4182.3393,-116.8677 4371.2912,-87 4379.5725,-85.691 4388.3807,-83.4187 4396.3485,-81.0112"/>
<polygon fill="#191970" stroke="#191970" points="2498.4787,-129.0572 2488.5083,-132.6407 2498.5373,-136.0569 2498.4787,-129.0572"/>
</g>
<!-- Node65 -->
<g id="node32" class="node">
<title>Node65</title>
<g id="a_node32"><a xlink:href="DynamicsLinearization_8cpp.html" target="_top" xlink:title="DynamicsLinearization.cpp">
<polygon fill="none" stroke="#000000" points="829.7912,-62 829.7912,-81 978.7912,-81 978.7912,-62 829.7912,-62"/>
<text text-anchor="middle" x="904.2912" y="-69" font-family="FreeSans.ttf" font-size="10.00" fill="#000000">DynamicsLinearization.cpp</text>
</a>
</g>
</g>
<!-- Node26&#45;&gt;Node65 -->
<g id="edge32" class="edge">
<title>Node26&#45;&gt;Node65</title>
<path fill="none" stroke="#191970" d="M2388.1046,-132.3873C2157.0507,-129.6474 1266.4849,-117.2994 987.2912,-87 974.6125,-85.624 960.9654,-83.3932 948.4723,-81.0473"/>
<polygon fill="#191970" stroke="#191970" points="2388.2456,-135.8891 2398.2861,-132.5068 2388.3279,-128.8896 2388.2456,-135.8891"/>
</g>
<!-- Node66 -->
<g id="node33" class="node">
<title>Node66</title>
<g id="a_node33"><a xlink:href="DynamicsLinearizationHelpers_8cpp.html" target="_top" xlink:title="DynamicsLinearizationHelpers.cpp">
<polygon fill="none" stroke="#000000" points="996.2912,-62 996.2912,-81 1182.2912,-81 1182.2912,-62 996.2912,-62"/>
<text text-anchor="middle" x="1089.2912" y="-69" font-family="FreeSans.ttf" font-size="10.00" fill="#000000">DynamicsLinearizationHelpers.cpp</text>
</a>
</g>
</g>
<!-- Node26&#45;&gt;Node66 -->
<g id="edge33" class="edge">
<title>Node26&#45;&gt;Node66</title>
<path fill="none" stroke="#191970" d="M2387.8015,-131.7922C2177.494,-127.0851 1429.4318,-109.1321 1192.2912,-87 1176.8069,-85.5549 1160.1021,-83.3314 1144.7444,-81.0157"/>
<polygon fill="#191970" stroke="#191970" points="2387.9123,-135.2954 2397.9878,-132.0192 2388.0683,-128.2972 2387.9123,-135.2954"/>
</g>
<!-- Node67 -->
<g id="node34" class="node">
<title>Node67</title>
<g id="a_node34"><a xlink:href="Jacobians_8cpp.html" target="_top" xlink:title="Jacobians.cpp">
<polygon fill="none" stroke="#000000" points="1200.7912,-62 1200.7912,-81 1283.7912,-81 1283.7912,-62 1200.7912,-62"/>
<text text-anchor="middle" x="1242.2912" y="-69" font-family="FreeSans.ttf" font-size="10.00" fill="#000000">Jacobians.cpp</text>
</a>
</g>
</g>
<!-- Node26&#45;&gt;Node67 -->
<g id="edge34" class="edge">
<title>Node26&#45;&gt;Node67</title>
<path fill="none" stroke="#191970" d="M2387.9153,-132.6523C2188.5124,-131.1095 1507.6505,-123.248 1293.2912,-87 1285.2617,-85.6422 1276.7261,-83.3863 1268.9811,-81.0103"/>
<polygon fill="#191970" stroke="#191970" points="2388.1249,-136.1539 2398.151,-132.7292 2388.1776,-129.1541 2388.1249,-136.1539"/>
</g>
<!-- Node68 -->
<g id="node35" class="node">
<title>Node68</title>
<g id="a_node35"><a xlink:href="Model_8cpp.html" target="_top" xlink:title="Model.cpp">
<polygon fill="none" stroke="#000000" points="1302.2912,-62 1302.2912,-81 1368.2912,-81 1368.2912,-62 1302.2912,-62"/>
<text text-anchor="middle" x="1335.2912" y="-69" font-family="FreeSans.ttf" font-size="10.00" fill="#000000">Model.cpp</text>
</a>
</g>
</g>
<!-- Node26&#45;&gt;Node68 -->
<g id="edge35" class="edge">
<title>Node26&#45;&gt;Node68</title>
<path fill="none" stroke="#191970" d="M2388.1669,-132.8142C2198.6169,-131.8327 1574.5281,-125.6703 1378.2912,-87 1371.4398,-85.6499 1364.2177,-83.3964 1357.6893,-81.0202"/>
<polygon fill="#191970" stroke="#191970" points="2388.1657,-136.3141 2398.1827,-132.8633 2388.2,-129.3142 2388.1657,-136.3141"/>
</g>
<!-- Node69 -->
<g id="node36" class="node">
<title>Node69</title>
<g id="a_node36"><a xlink:href="URDFModelExport_8cpp.html" target="_top" xlink:title="URDFModelExport.cpp">
<polygon fill="none" stroke="#000000" points="1386.7912,-62 1386.7912,-81 1511.7912,-81 1511.7912,-62 1386.7912,-62"/>
<text text-anchor="middle" x="1449.2912" y="-69" font-family="FreeSans.ttf" font-size="10.00" fill="#000000">URDFModelExport.cpp</text>
</a>
</g>
</g>
<!-- Node26&#45;&gt;Node69 -->
<g id="edge36" class="edge">
<title>Node26&#45;&gt;Node69</title>
<path fill="none" stroke="#191970" d="M2388.0742,-131.4218C2215.9287,-126.3158 1690.4371,-109.2764 1521.2912,-87 1510.3891,-85.5642 1498.6864,-83.3438 1487.9512,-81.0281"/>
<polygon fill="#191970" stroke="#191970" points="2388.0769,-134.9233 2398.1757,-131.7197 2388.2833,-127.9263 2388.0769,-134.9233"/>
</g>
<!-- Node70 -->
<g id="node37" class="node">
<title>Node70</title>
<g id="a_node37"><a xlink:href="AlglibInterface_8cpp.html" target="_top" xlink:title="AlglibInterface.cpp">
<polygon fill="none" stroke="#000000" points="1530.2912,-62 1530.2912,-81 1638.2912,-81 1638.2912,-62 1530.2912,-62"/>
<text text-anchor="middle" x="1584.2912" y="-69" font-family="FreeSans.ttf" font-size="10.00" fill="#000000">AlglibInterface.cpp</text>
</a>
</g>
</g>
<!-- Node26&#45;&gt;Node70 -->
<g id="edge37" class="edge">
<title>Node26&#45;&gt;Node70</title>
<path fill="none" stroke="#191970" d="M2387.8239,-131.1212C2231.6928,-125.6215 1790.5482,-108.5754 1647.2912,-87 1637.7125,-85.5574 1627.4597,-83.3348 1618.0667,-81.0191"/>
<polygon fill="#191970" stroke="#191970" points="2388.0114,-134.6298 2398.1277,-131.4819 2388.2563,-127.6341 2388.0114,-134.6298"/>
</g>
<!-- Node71 -->
<g id="node38" class="node">
<title>Node71</title>
<g id="a_node38"><a xlink:href="ConstraintsGroup_8cpp.html" target="_top" xlink:title="ConstraintsGroup.cpp">
<polygon fill="none" stroke="#000000" points="1656.2912,-62 1656.2912,-81 1778.2912,-81 1778.2912,-62 1656.2912,-62"/>
<text text-anchor="middle" x="1717.2912" y="-69" font-family="FreeSans.ttf" font-size="10.00" fill="#000000">ConstraintsGroup.cpp</text>
</a>
</g>
</g>
<!-- Node26&#45;&gt;Node71 -->
<g id="edge38" class="edge">
<title>Node26&#45;&gt;Node71</title>
<path fill="none" stroke="#191970" d="M2387.9522,-131.8784C2274.6598,-128.9763 2008.3427,-119.0442 1787.2912,-87 1776.9438,-85.5 1765.8502,-83.3156 1755.6143,-81.0573"/>
<polygon fill="#191970" stroke="#191970" points="2388.0255,-135.3812 2398.1092,-132.1301 2388.199,-128.3834 2388.0255,-135.3812"/>
</g>
<!-- Node27&#45;&gt;Node29 -->
<g id="edge4" class="edge">
<title>Node27&#45;&gt;Node29</title>
<path fill="none" stroke="#191970" d="M3013.8977,-59.2056C3018.6963,-57.9398 3023.5818,-56.8198 3028.2912,-56 3195.2933,-26.93 3714.3238,-14.5564 3893.0695,-11.0833"/>
<polygon fill="#191970" stroke="#191970" points="3012.909,-55.8479 3004.254,-61.9588 3014.8307,-62.579 3012.909,-55.8479"/>
</g>
<!-- Node27&#45;&gt;Node31 -->
<g id="edge5" class="edge">
<title>Node27&#45;&gt;Node31</title>
<path fill="none" stroke="#191970" d="M2941.7625,-59.1422C2936.9483,-57.8647 2932.0334,-56.7588 2927.2912,-56 2790.7021,-34.1455 649.8737,-14.2003 241.3568,-10.5828"/>
<polygon fill="#191970" stroke="#191970" points="2940.8359,-62.5177 2951.4155,-61.9491 2942.7904,-55.796 2940.8359,-62.5177"/>
</g>
<!-- Node100&#45;&gt;Node39 -->
<g id="edge40" class="edge">
<title>Node100&#45;&gt;Node39</title>
<path fill="none" stroke="#191970" d="M4285.6786,-118.415C4265.3773,-106.8546 4237.5967,-91.035 4220.0477,-81.0419"/>
<polygon fill="#191970" stroke="#191970" points="4283.9944,-121.4836 4294.4162,-123.3906 4287.4583,-115.4007 4283.9944,-121.4836"/>
</g>
<!-- Node100&#45;&gt;Node41 -->
<g id="edge41" class="edge">
<title>Node100&#45;&gt;Node41</title>
<path fill="none" stroke="#191970" d="M4311.2912,-113.2462C4311.2912,-102.5519 4311.2912,-89.814 4311.2912,-81.2449"/>
<polygon fill="#191970" stroke="#191970" points="4307.7913,-113.3906 4311.2912,-123.3906 4314.7913,-113.3907 4307.7913,-113.3906"/>
</g>
<!-- Node100&#45;&gt;Node54 -->
<g id="edge42" class="edge">
<title>Node100&#45;&gt;Node54</title>
<path fill="none" stroke="#191970" d="M4361.8408,-121.1343C4411.5628,-109.463 4486.5177,-91.8686 4532.5458,-81.0643"/>
<polygon fill="#191970" stroke="#191970" points="4360.8768,-117.7654 4351.9413,-123.4581 4362.4765,-124.5802 4360.8768,-117.7654"/>
</g>
<!-- Node100&#45;&gt;Node55 -->
<g id="edge43" class="edge">
<title>Node100&#45;&gt;Node55</title>
<path fill="none" stroke="#191970" d="M4379.0353,-122.9325C4509.9765,-105.3608 4544.7165,-106.037 4671.2912,-87 4673.8704,-86.6121 4676.4906,-86.2074 4679.1351,-85.7897"/>
<polygon fill="#191970" stroke="#191970" points="4378.462,-119.4781 4369.0212,-124.2866 4379.4,-126.415 4378.462,-119.4781"/>
</g>
<!-- Node100&#45;&gt;Node64 -->
<g id="edge44" class="edge">
<title>Node100&#45;&gt;Node64</title>
<path fill="none" stroke="#191970" d="M4337.5685,-118.571C4358.6459,-106.9972 4387.6333,-91.0801 4405.9141,-81.0419"/>
<polygon fill="#191970" stroke="#191970" points="4335.8721,-115.5095 4328.7912,-123.3906 4339.2413,-121.6453 4335.8721,-115.5095"/>
</g>
<!-- Node190&#45;&gt;Node35 -->
<g id="edge46" class="edge">
<title>Node190&#45;&gt;Node35</title>
<path fill="none" stroke="#191970" d="M4173.7732,-119.0357C4149.2335,-107.4265 4114.9654,-91.2151 4093.4611,-81.0419"/>
<polygon fill="#191970" stroke="#191970" points="4172.4425,-122.278 4182.9787,-123.3906 4175.436,-115.9504 4172.4425,-122.278"/>
</g>
<!-- Node190&#45;&gt;Node39 -->
<g id="edge47" class="edge">
<title>Node190&#45;&gt;Node39</title>
<path fill="none" stroke="#191970" d="M4203.2912,-113.2462C4203.2912,-102.5519 4203.2912,-89.814 4203.2912,-81.2449"/>
<polygon fill="#191970" stroke="#191970" points="4199.7913,-113.3906 4203.2912,-123.3906 4206.7913,-113.3907 4199.7913,-113.3906"/>
</g>
<!-- Node190&#45;&gt;Node41 -->
<g id="edge48" class="edge">
<title>Node190&#45;&gt;Node41</title>
<path fill="none" stroke="#191970" d="M4228.9039,-118.415C4249.2052,-106.8546 4276.9858,-91.035 4294.5347,-81.0419"/>
<polygon fill="#191970" stroke="#191970" points="4227.1242,-115.4007 4220.1662,-123.3906 4230.5881,-121.4836 4227.1242,-115.4007"/>
</g>
<!-- Node190&#45;&gt;Node57 -->
<g id="edge49" class="edge">
<title>Node190&#45;&gt;Node57</title>
<path fill="none" stroke="#191970" d="M4162.2255,-124.3211C4108.1697,-112.897 4013.4587,-92.8808 3957.4407,-81.0419"/>
<polygon fill="#191970" stroke="#191970" points="4161.6415,-127.775 4172.1491,-126.4184 4163.089,-120.9263 4161.6415,-127.775"/>
</g>
<!-- Node222&#45;&gt;Node54 -->
<g id="edge58" class="edge">
<title>Node222&#45;&gt;Node54</title>
<path fill="none" stroke="#191970" d="M4456.2289,-119.4955C4484.6132,-107.858 4524.8763,-91.3501 4550.0183,-81.0419"/>
<polygon fill="#191970" stroke="#191970" points="4454.6535,-116.3586 4446.7287,-123.3906 4457.309,-122.8354 4454.6535,-116.3586"/>
</g>
<!-- Node222&#45;&gt;Node55 -->
<g id="edge59" class="edge">
<title>Node222&#45;&gt;Node55</title>
<path fill="none" stroke="#191970" d="M4470.0302,-123.0163C4503.1016,-116.9633 4605.502,-98.7189 4679.1721,-85.5945"/>
<polygon fill="#191970" stroke="#191970" points="4469.1099,-119.6276 4459.9236,-124.9061 4470.3966,-126.5084 4469.1099,-119.6276"/>
</g>
<!-- Node222&#45;&gt;Node64 -->
<g id="edge60" class="edge">
<title>Node222&#45;&gt;Node64</title>
<path fill="none" stroke="#191970" d="M4423.2912,-113.2462C4423.2912,-102.5519 4423.2912,-89.814 4423.2912,-81.2449"/>
<polygon fill="#191970" stroke="#191970" points="4419.7913,-113.3906 4423.2912,-123.3906 4426.7913,-113.3907 4419.7913,-113.3906"/>
</g>
</g>
</svg>
