<?xml version="1.0" encoding="UTF-8" standalone="no"?>
<!DOCTYPE svg PUBLIC "-//W3C//DTD SVG 1.1//EN"
 "http://www.w3.org/Graphics/SVG/1.1/DTD/svg11.dtd">
<!-- Generated by graphviz version 2.40.1 (20161225.0304)
 -->
<!-- Title: SpatialMotionVector.h Pages: 1 -->
<svg width="5961pt" height="207pt"
 viewBox="0.00 0.00 5960.79 207.00" xmlns="http://www.w3.org/2000/svg" xmlns:xlink="http://www.w3.org/1999/xlink">
<g id="graph0" class="graph" transform="scale(1 1) rotate(0) translate(4 203)">
<title>SpatialMotionVector.h</title>
<!-- Node32 -->
<g id="node1" class="node">
<title>Node32</title>
<polygon fill="#bfbfbf" stroke="#000000" points="5196.7907,-179.5 5196.7907,-198.5 5318.7907,-198.5 5318.7907,-179.5 5196.7907,-179.5"/>
<text text-anchor="middle" x="5257.7907" y="-186.5" font-family="FreeSans.ttf" font-size="10.00" fill="#000000">SpatialMotionVector.h</text>
</g>
<!-- Node33 -->
<g id="node2" class="node">
<title>Node33</title>
<g id="a_node2"><a xlink:href="EigenHelpers_8h.html" target="_top" xlink:title="EigenHelpers.h">
<polygon fill="none" stroke="#ff0000" points="2771.7907,-123.5 2771.7907,-142.5 2861.7907,-142.5 2861.7907,-123.5 2771.7907,-123.5"/>
<text text-anchor="middle" x="2816.7907" y="-130.5" font-family="FreeSans.ttf" font-size="10.00" fill="#000000">EigenHelpers.h</text>
</a>
</g>
</g>
<!-- Node32&#45;&gt;Node33 -->
<g id="edge1" class="edge">
<title>Node32&#45;&gt;Node33</title>
<path fill="none" stroke="#191970" d="M5186.3345,-187.3607C4820.0463,-178.9575 3158.6739,-140.8433 2862.1475,-134.0406"/>
<polygon fill="#191970" stroke="#191970" points="5186.4588,-190.8644 5196.5365,-187.5947 5186.6194,-183.8662 5186.4588,-190.8644"/>
</g>
<!-- Node36 -->
<g id="node4" class="node">
<title>Node36</title>
<g id="a_node4"><a xlink:href="SpatialInertiaRaw_8cpp.html" target="_top" xlink:title="SpatialInertiaRaw.cpp">
<polygon fill="none" stroke="#000000" points="414.7907,-.5 414.7907,-19.5 536.7907,-19.5 536.7907,-.5 414.7907,-.5"/>
<text text-anchor="middle" x="475.7907" y="-7.5" font-family="FreeSans.ttf" font-size="10.00" fill="#000000">SpatialInertiaRaw.cpp</text>
</a>
</g>
</g>
<!-- Node32&#45;&gt;Node36 -->
<g id="edge55" class="edge">
<title>Node32&#45;&gt;Node36</title>
<path fill="none" stroke="#191970" d="M5186.7086,-188.7081C4598.5054,-186.247 552.0151,-168.4292 297.7907,-143 166.7383,-129.8913 90.6613,-188.5495 6.7907,-87 -1.983,-76.3769 -2.464,-66.2068 6.7907,-56 33.6845,-26.3394 293.668,-15.143 414.5534,-11.5158"/>
<polygon fill="#191970" stroke="#191970" points="5186.7326,-192.2081 5196.7472,-188.75 5186.7619,-185.2082 5186.7326,-192.2081"/>
</g>
<!-- Node38 -->
<g id="node5" class="node">
<title>Node38</title>
<g id="a_node5"><a xlink:href="SpatialMotionVector_8cpp.html" target="_top" xlink:title="SpatialMotionVector.cpp">
<polygon fill="none" stroke="#000000" points="4932.7907,-.5 4932.7907,-19.5 5066.7907,-19.5 5066.7907,-.5 4932.7907,-.5"/>
<text text-anchor="middle" x="4999.7907" y="-7.5" font-family="FreeSans.ttf" font-size="10.00" fill="#000000">SpatialMotionVector.cpp</text>
</a>
</g>
</g>
<!-- Node32&#45;&gt;Node38 -->
<g id="edge56" class="edge">
<title>Node32&#45;&gt;Node38</title>
<path fill="none" stroke="#191970" d="M5274.7892,-171.9117C5299.8823,-144.6283 5340.7946,-90.7683 5310.7907,-56 5295.0784,-37.7928 5153.5872,-22.852 5066.9564,-15.3102"/>
<polygon fill="#191970" stroke="#191970" points="5272.2466,-169.5065 5267.904,-179.1705 5277.3253,-174.3238 5272.2466,-169.5065"/>
</g>
<!-- Node94 -->
<g id="node40" class="node">
<title>Node94</title>
<g id="a_node40"><a xlink:href="PredictSensorsMeasurements_8cpp.html" target="_top" xlink:title="PredictSensorsMeasurements.cpp">
<polygon fill="none" stroke="#000000" points="723.2907,-62 723.2907,-81 904.2907,-81 904.2907,-62 723.2907,-62"/>
<text text-anchor="middle" x="813.7907" y="-69" font-family="FreeSans.ttf" font-size="10.00" fill="#000000">PredictSensorsMeasurements.cpp</text>
</a>
</g>
</g>
<!-- Node32&#45;&gt;Node94 -->
<g id="edge66" class="edge">
<title>Node32&#45;&gt;Node94</title>
<path fill="none" stroke="#191970" d="M5186.3266,-187.9917C4889.1771,-183.7336 3722.1118,-166.3621 2762.7907,-143 1940.4357,-122.9734 1731.8513,-163.2137 912.7907,-87 897.7205,-85.5977 881.4595,-83.3584 866.5575,-81.0129"/>
<polygon fill="#191970" stroke="#191970" points="5186.4793,-191.4941 5196.5284,-188.1376 5186.5795,-184.4948 5186.4793,-191.4941"/>
</g>
<!-- Node107 -->
<g id="node41" class="node">
<title>Node107</title>
<g id="a_node41"><a xlink:href="SpatialAcc_8h.html" target="_top" xlink:title="SpatialAcc.h">
<polygon fill="none" stroke="#ff0000" points="432.2907,-123.5 432.2907,-142.5 509.2907,-142.5 509.2907,-123.5 432.2907,-123.5"/>
<text text-anchor="middle" x="470.7907" y="-130.5" font-family="FreeSans.ttf" font-size="10.00" fill="#000000">SpatialAcc.h</text>
</a>
</g>
</g>
<!-- Node32&#45;&gt;Node107 -->
<g id="edge41" class="edge">
<title>Node32&#45;&gt;Node107</title>
<path fill="none" stroke="#191970" d="M5185.9887,-188.16C4623.0142,-181.5742 928.6834,-138.3566 509.4919,-133.4527"/>
<polygon fill="#191970" stroke="#191970" points="5186.3526,-191.6644 5196.3929,-188.2817 5186.4346,-184.6649 5186.3526,-191.6644"/>
</g>
<!-- Node227 -->
<g id="node42" class="node">
<title>Node227</title>
<g id="a_node42"><a xlink:href="Twist_8h.html" target="_top" xlink:title="Twist.h">
<polygon fill="none" stroke="#ff0000" points="306.7907,-123.5 306.7907,-142.5 356.7907,-142.5 356.7907,-123.5 306.7907,-123.5"/>
<text text-anchor="middle" x="331.7907" y="-130.5" font-family="FreeSans.ttf" font-size="10.00" fill="#000000">Twist.h</text>
</a>
</g>
</g>
<!-- Node32&#45;&gt;Node227 -->
<g id="edge48" class="edge">
<title>Node32&#45;&gt;Node227</title>
<path fill="none" stroke="#191970" d="M5186.0081,-188.7517C4622.4571,-186.7452 918.0838,-172.496 422.7907,-143 400.4202,-141.6678 375.0864,-138.7695 356.8399,-136.4344"/>
<polygon fill="#191970" stroke="#191970" points="5186.4098,-192.253 5196.4222,-188.7886 5186.4347,-185.2531 5186.4098,-192.253"/>
</g>
<!-- Node229 -->
<g id="node43" class="node">
<title>Node229</title>
<g id="a_node43"><a xlink:href="PositionRaw_8cpp.html" target="_top" xlink:title="PositionRaw.cpp">
<polygon fill="none" stroke="#000000" points="5323.7907,-123.5 5323.7907,-142.5 5419.7907,-142.5 5419.7907,-123.5 5323.7907,-123.5"/>
<text text-anchor="middle" x="5371.7907" y="-130.5" font-family="FreeSans.ttf" font-size="10.00" fill="#000000">PositionRaw.cpp</text>
</a>
</g>
</g>
<!-- Node32&#45;&gt;Node229 -->
<g id="edge53" class="edge">
<title>Node32&#45;&gt;Node229</title>
<path fill="none" stroke="#191970" d="M5286.6228,-174.8368C5307.2302,-164.7139 5334.3989,-151.3679 5352.4491,-142.5011"/>
<polygon fill="#191970" stroke="#191970" points="5284.8204,-171.8227 5277.388,-179.3733 5287.9067,-178.1056 5284.8204,-171.8227"/>
</g>
<!-- Node230 -->
<g id="node44" class="node">
<title>Node230</title>
<g id="a_node44"><a xlink:href="RotationRaw_8cpp.html" target="_top" xlink:title="RotationRaw.cpp">
<polygon fill="none" stroke="#000000" points="5437.7907,-123.5 5437.7907,-142.5 5535.7907,-142.5 5535.7907,-123.5 5437.7907,-123.5"/>
<text text-anchor="middle" x="5486.7907" y="-130.5" font-family="FreeSans.ttf" font-size="10.00" fill="#000000">RotationRaw.cpp</text>
</a>
</g>
</g>
<!-- Node32&#45;&gt;Node230 -->
<g id="edge54" class="edge">
<title>Node32&#45;&gt;Node230</title>
<path fill="none" stroke="#191970" d="M5306.6687,-177.0473C5348.8179,-166.7401 5408.8769,-152.0532 5447.8457,-142.5237"/>
<polygon fill="#191970" stroke="#191970" points="5305.7793,-173.6616 5296.897,-179.4369 5307.4422,-180.4612 5305.7793,-173.6616"/>
</g>
<!-- Node109 -->
<g id="node45" class="node">
<title>Node109</title>
<g id="a_node45"><a xlink:href="TestUtils_8cpp.html" target="_top" xlink:title="TestUtils.cpp">
<polygon fill="none" stroke="#000000" points="5554.2907,-123.5 5554.2907,-142.5 5633.2907,-142.5 5633.2907,-123.5 5554.2907,-123.5"/>
<text text-anchor="middle" x="5593.7907" y="-130.5" font-family="FreeSans.ttf" font-size="10.00" fill="#000000">TestUtils.cpp</text>
</a>
</g>
</g>
<!-- Node32&#45;&gt;Node109 -->
<g id="edge57" class="edge">
<title>Node32&#45;&gt;Node109</title>
<path fill="none" stroke="#191970" d="M5329.1301,-178.4254C5387.2873,-169.5982 5471.4955,-156.3467 5544.7907,-143 5547.8657,-142.44 5551.0449,-141.8398 5554.2382,-141.2217"/>
<polygon fill="#191970" stroke="#191970" points="5328.3082,-175.0098 5318.9443,-179.9666 5329.3555,-181.931 5328.3082,-175.0098"/>
</g>
<!-- Node110 -->
<g id="node46" class="node">
<title>Node110</title>
<g id="a_node46"><a xlink:href="DynamicsUtils_8h.html" target="_top" xlink:title="DynamicsUtils.h">
<polygon fill="none" stroke="#000000" points="5651.2907,-123.5 5651.2907,-142.5 5748.2907,-142.5 5748.2907,-123.5 5651.2907,-123.5"/>
<text text-anchor="middle" x="5699.7907" y="-130.5" font-family="FreeSans.ttf" font-size="10.00" fill="#000000">DynamicsUtils.h</text>
</a>
</g>
</g>
<!-- Node32&#45;&gt;Node110 -->
<g id="edge58" class="edge">
<title>Node32&#45;&gt;Node110</title>
<path fill="none" stroke="#191970" d="M5329.0577,-181.6662C5406.454,-173.4263 5533.6444,-159.0823 5642.7907,-143 5645.4744,-142.6046 5648.2261,-142.1813 5651.0015,-141.7405"/>
<polygon fill="#191970" stroke="#191970" points="5328.5155,-178.204 5318.9402,-182.7387 5329.2535,-185.165 5328.5155,-178.204"/>
</g>
<!-- Node231 -->
<g id="node47" class="node">
<title>Node231</title>
<g id="a_node47"><a xlink:href="PrismaticJoint_8h.html" target="_top" xlink:title="PrismaticJoint.h">
<polygon fill="none" stroke="#ff0000" points="5174.2907,-123.5 5174.2907,-142.5 5267.2907,-142.5 5267.2907,-123.5 5174.2907,-123.5"/>
<text text-anchor="middle" x="5220.7907" y="-130.5" font-family="FreeSans.ttf" font-size="10.00" fill="#000000">PrismaticJoint.h</text>
</a>
</g>
</g>
<!-- Node32&#45;&gt;Node231 -->
<g id="edge59" class="edge">
<title>Node32&#45;&gt;Node231</title>
<path fill="none" stroke="#191970" d="M5245.6531,-170.6296C5239.4814,-161.2887 5232.2341,-150.3197 5227.1617,-142.6427"/>
<polygon fill="#191970" stroke="#191970" points="5242.913,-172.8316 5251.3458,-179.2455 5248.7533,-168.9728 5242.913,-172.8316"/>
</g>
<!-- Node233 -->
<g id="node48" class="node">
<title>Node233</title>
<g id="a_node48"><a xlink:href="RevoluteJoint_8h.html" target="_top" xlink:title="RevoluteJoint.h">
<polygon fill="none" stroke="#ff0000" points="5065.7907,-123.5 5065.7907,-142.5 5155.7907,-142.5 5155.7907,-123.5 5065.7907,-123.5"/>
<text text-anchor="middle" x="5110.7907" y="-130.5" font-family="FreeSans.ttf" font-size="10.00" fill="#000000">RevoluteJoint.h</text>
</a>
</g>
</g>
<!-- Node32&#45;&gt;Node233 -->
<g id="edge61" class="edge">
<title>Node32&#45;&gt;Node233</title>
<path fill="none" stroke="#191970" d="M5223.1113,-175.7888C5196.2709,-165.5639 5159.7437,-151.6488 5135.7311,-142.5011"/>
<polygon fill="#191970" stroke="#191970" points="5221.9296,-179.0839 5232.5205,-179.3733 5224.4216,-172.5425 5221.9296,-179.0839"/>
</g>
<!-- Node216 -->
<g id="node49" class="node">
<title>Node216</title>
<g id="a_node49"><a xlink:href="FixedJoint_8cpp.html" target="_top" xlink:title="FixedJoint.cpp">
<polygon fill="none" stroke="#000000" points="5766.7907,-123.5 5766.7907,-142.5 5850.7907,-142.5 5850.7907,-123.5 5766.7907,-123.5"/>
<text text-anchor="middle" x="5808.7907" y="-130.5" font-family="FreeSans.ttf" font-size="10.00" fill="#000000">FixedJoint.cpp</text>
</a>
</g>
</g>
<!-- Node32&#45;&gt;Node216 -->
<g id="edge64" class="edge">
<title>Node32&#45;&gt;Node216</title>
<path fill="none" stroke="#191970" d="M5328.8319,-184.7509C5426.0131,-178.4179 5605.7005,-164.849 5757.7907,-143 5760.6486,-142.5894 5763.589,-142.1253 5766.5464,-141.6273"/>
<polygon fill="#191970" stroke="#191970" points="5328.5831,-181.2596 5318.8292,-185.3961 5329.0338,-188.2451 5328.5831,-181.2596"/>
</g>
<!-- Node125 -->
<g id="node50" class="node">
<title>Node125</title>
<g id="a_node50"><a xlink:href="JointState_8cpp.html" target="_top" xlink:title="JointState.cpp">
<polygon fill="none" stroke="#000000" points="5868.7907,-123.5 5868.7907,-142.5 5952.7907,-142.5 5952.7907,-123.5 5868.7907,-123.5"/>
<text text-anchor="middle" x="5910.7907" y="-130.5" font-family="FreeSans.ttf" font-size="10.00" fill="#000000">JointState.cpp</text>
</a>
</g>
</g>
<!-- Node32&#45;&gt;Node125 -->
<g id="edge65" class="edge">
<title>Node32&#45;&gt;Node125</title>
<path fill="none" stroke="#191970" d="M5329.394,-186.2494C5442.4798,-181.2941 5669.1757,-168.8794 5859.7907,-143 5862.6517,-142.6116 5865.5944,-142.164 5868.5535,-141.6781"/>
<polygon fill="#191970" stroke="#191970" points="5328.9794,-182.764 5319.1396,-186.6919 5329.2812,-189.7574 5328.9794,-182.764"/>
</g>
<!-- Node34 -->
<g id="node3" class="node">
<title>Node34</title>
<g id="a_node3"><a xlink:href="PrivateUtils_8h.html" target="_top" xlink:title="PrivateUtils.h">
<polygon fill="none" stroke="#ff0000" points="922.2907,-62 922.2907,-81 1005.2907,-81 1005.2907,-62 922.2907,-62"/>
<text text-anchor="middle" x="963.7907" y="-69" font-family="FreeSans.ttf" font-size="10.00" fill="#000000">PrivateUtils.h</text>
</a>
</g>
</g>
<!-- Node33&#45;&gt;Node34 -->
<g id="edge2" class="edge">
<title>Node33&#45;&gt;Node34</title>
<path fill="none" stroke="#191970" d="M2761.5301,-132.4751C2477.731,-129.6609 1190.5475,-115.4151 1014.7907,-87 1006.6602,-85.6855 998.0188,-83.4116 990.2044,-81.0042"/>
<polygon fill="#191970" stroke="#191970" points="2761.5539,-135.9755 2771.5879,-132.5742 2761.6229,-128.9758 2761.5539,-135.9755"/>
</g>
<!-- Node33&#45;&gt;Node38 -->
<g id="edge12" class="edge">
<title>Node33&#45;&gt;Node38</title>
<path fill="none" stroke="#191970" d="M2872.4189,-132.7448C3206.9598,-131.0975 4938.3933,-120.9405 4980.7907,-87 5001.1063,-70.7367 5001.7808,-36.5176 5000.7423,-19.7201"/>
<polygon fill="#191970" stroke="#191970" points="2872.0016,-129.2467 2862.0188,-132.7955 2872.0358,-136.2466 2872.0016,-129.2467"/>
</g>
<!-- Node42 -->
<g id="node6" class="node">
<title>Node42</title>
<g id="a_node6"><a xlink:href="ArticulatedBodyInertia_8cpp.html" target="_top" xlink:title="ArticulatedBodyInertia.cpp">
<polygon fill="none" stroke="#000000" points="558.7907,-62 558.7907,-81 704.7907,-81 704.7907,-62 558.7907,-62"/>
<text text-anchor="middle" x="631.7907" y="-69" font-family="FreeSans.ttf" font-size="10.00" fill="#000000">ArticulatedBodyInertia.cpp</text>
</a>
</g>
</g>
<!-- Node33&#45;&gt;Node42 -->
<g id="edge5" class="edge">
<title>Node33&#45;&gt;Node42</title>
<path fill="none" stroke="#191970" d="M2761.6334,-132.3381C2450.6092,-128.5331 922.4206,-108.8489 713.7907,-87 701.1104,-85.6721 687.4584,-83.4255 675.001,-81.0489"/>
<polygon fill="#191970" stroke="#191970" points="2761.7145,-135.8393 2771.7565,-132.4616 2761.7999,-128.8398 2761.7145,-135.8393"/>
</g>
<!-- Node43 -->
<g id="node7" class="node">
<title>Node43</title>
<g id="a_node7"><a xlink:href="CubicSpline_8cpp.html" target="_top" xlink:title="CubicSpline.cpp">
<polygon fill="none" stroke="#000000" points="1023.7907,-62 1023.7907,-81 1117.7907,-81 1117.7907,-62 1023.7907,-62"/>
<text text-anchor="middle" x="1070.7907" y="-69" font-family="FreeSans.ttf" font-size="10.00" fill="#000000">CubicSpline.cpp</text>
</a>
</g>
</g>
<!-- Node33&#45;&gt;Node43 -->
<g id="edge6" class="edge">
<title>Node33&#45;&gt;Node43</title>
<path fill="none" stroke="#191970" d="M2761.4991,-132.2928C2488.535,-128.6941 1291.2222,-111.6192 1126.7907,-87 1118.0113,-85.6855 1108.6506,-83.4432 1100.1456,-81.0663"/>
<polygon fill="#191970" stroke="#191970" points="2761.5211,-135.7933 2771.5662,-132.4249 2761.613,-128.7939 2761.5211,-135.7933"/>
</g>
<!-- Node44 -->
<g id="node8" class="node">
<title>Node44</title>
<g id="a_node8"><a xlink:href="Direction_8cpp.html" target="_top" xlink:title="Direction.cpp">
<polygon fill="none" stroke="#000000" points="1136.2907,-62 1136.2907,-81 1217.2907,-81 1217.2907,-62 1136.2907,-62"/>
<text text-anchor="middle" x="1176.7907" y="-69" font-family="FreeSans.ttf" font-size="10.00" fill="#000000">Direction.cpp</text>
</a>
</g>
</g>
<!-- Node33&#45;&gt;Node44 -->
<g id="edge7" class="edge">
<title>Node33&#45;&gt;Node44</title>
<path fill="none" stroke="#191970" d="M2761.3514,-132.3086C2497.9675,-128.9011 1379.4639,-113.0052 1225.7907,-87 1218.049,-85.6899 1209.8397,-83.449 1202.3991,-81.072"/>
<polygon fill="#191970" stroke="#191970" points="2761.4011,-135.8095 2771.4453,-132.4385 2761.4912,-128.81 2761.4011,-135.8095"/>
</g>
<!-- Node45 -->
<g id="node9" class="node">
<title>Node45</title>
<g id="a_node9"><a xlink:href="InertiaNonLinearParametrization_8cpp.html" target="_top" xlink:title="InertiaNonLinearParametrization.cpp">
<polygon fill="none" stroke="#000000" points="1235.2907,-62 1235.2907,-81 1430.2907,-81 1430.2907,-62 1235.2907,-62"/>
<text text-anchor="middle" x="1332.7907" y="-69" font-family="FreeSans.ttf" font-size="10.00" fill="#000000">InertiaNonLinearParametrization.cpp</text>
</a>
</g>
</g>
<!-- Node33&#45;&gt;Node45 -->
<g id="edge8" class="edge">
<title>Node33&#45;&gt;Node45</title>
<path fill="none" stroke="#191970" d="M2761.3105,-131.9777C2537.7293,-127.7293 1702.231,-110.5835 1438.7907,-87 1422.7671,-85.5655 1405.4699,-83.3308 1389.5892,-81.0004"/>
<polygon fill="#191970" stroke="#191970" points="2761.4255,-135.4804 2771.49,-132.1702 2761.558,-128.4816 2761.4255,-135.4804"/>
</g>
<!-- Node46 -->
<g id="node10" class="node">
<title>Node46</title>
<g id="a_node10"><a xlink:href="Rotation_8cpp.html" target="_top" xlink:title="Rotation.cpp">
<polygon fill="none" stroke="#000000" points="185.2907,-62 185.2907,-81 262.2907,-81 262.2907,-62 185.2907,-62"/>
<text text-anchor="middle" x="223.7907" y="-69" font-family="FreeSans.ttf" font-size="10.00" fill="#000000">Rotation.cpp</text>
</a>
</g>
</g>
<!-- Node33&#45;&gt;Node46 -->
<g id="edge9" class="edge">
<title>Node33&#45;&gt;Node46</title>
<path fill="none" stroke="#191970" d="M2761.4211,-132.4604C2400.9621,-128.8897 398.6857,-108.1571 271.7907,-87 264.1894,-85.7326 256.1422,-83.5051 248.8537,-81.1271"/>
<polygon fill="#191970" stroke="#191970" points="2761.5691,-135.9619 2771.6032,-132.561 2761.6383,-128.9622 2761.5691,-135.9619"/>
</g>
<!-- Node47 -->
<g id="node11" class="node">
<title>Node47</title>
<g id="a_node11"><a xlink:href="SpatialForceVector_8cpp.html" target="_top" xlink:title="SpatialForceVector.cpp">
<polygon fill="none" stroke="#000000" points="1448.2907,-62 1448.2907,-81 1575.2907,-81 1575.2907,-62 1448.2907,-62"/>
<text text-anchor="middle" x="1511.7907" y="-69" font-family="FreeSans.ttf" font-size="10.00" fill="#000000">SpatialForceVector.cpp</text>
</a>
</g>
</g>
<!-- Node33&#45;&gt;Node47 -->
<g id="edge10" class="edge">
<title>Node33&#45;&gt;Node47</title>
<path fill="none" stroke="#191970" d="M2761.7,-132.225C2553.7598,-129.101 1816.5871,-116.1731 1583.7907,-87 1572.7529,-85.6168 1560.9018,-83.3836 1550.065,-81.0378"/>
<polygon fill="#191970" stroke="#191970" points="2761.7228,-135.7257 2771.7738,-132.3749 2761.827,-128.7264 2761.7228,-135.7257"/>
</g>
<!-- Node48 -->
<g id="node12" class="node">
<title>Node48</title>
<g id="a_node12"><a xlink:href="SpatialInertia_8cpp.html" target="_top" xlink:title="SpatialInertia.cpp">
<polygon fill="none" stroke="#000000" points="280.7907,-62 280.7907,-81 382.7907,-81 382.7907,-62 280.7907,-62"/>
<text text-anchor="middle" x="331.7907" y="-69" font-family="FreeSans.ttf" font-size="10.00" fill="#000000">SpatialInertia.cpp</text>
</a>
</g>
</g>
<!-- Node33&#45;&gt;Node48 -->
<g id="edge11" class="edge">
<title>Node33&#45;&gt;Node48</title>
<path fill="none" stroke="#191970" d="M2761.4865,-132.7261C2422.6112,-130.9452 633.3507,-120.0283 391.7907,-87 382.3038,-85.7029 372.1613,-83.4342 362.9658,-81.0264"/>
<polygon fill="#191970" stroke="#191970" points="2761.5304,-136.2263 2771.5485,-132.7786 2761.5669,-129.2264 2761.5304,-136.2263"/>
</g>
<!-- Node49 -->
<g id="node13" class="node">
<title>Node49</title>
<g id="a_node13"><a xlink:href="TransformDerivative_8cpp.html" target="_top" xlink:title="TransformDerivative.cpp">
<polygon fill="none" stroke="#000000" points="1593.2907,-62 1593.2907,-81 1730.2907,-81 1730.2907,-62 1593.2907,-62"/>
<text text-anchor="middle" x="1661.7907" y="-69" font-family="FreeSans.ttf" font-size="10.00" fill="#000000">TransformDerivative.cpp</text>
</a>
</g>
</g>
<!-- Node33&#45;&gt;Node49 -->
<g id="edge13" class="edge">
<title>Node33&#45;&gt;Node49</title>
<path fill="none" stroke="#191970" d="M2761.5428,-131.7623C2570.8129,-127.3139 1940.7243,-111.111 1739.7907,-87 1728.0017,-85.5854 1715.3308,-83.372 1703.701,-81.0561"/>
<polygon fill="#191970" stroke="#191970" points="2761.5404,-135.2631 2771.6188,-131.9959 2761.7027,-128.265 2761.5404,-135.2631"/>
</g>
<!-- Node50 -->
<g id="node14" class="node">
<title>Node50</title>
<g id="a_node14"><a xlink:href="AttitudeEstimatorUtils_8h.html" target="_top" xlink:title="AttitudeEstimatorUtils.h">
<polygon fill="none" stroke="#ff0000" points="1748.7907,-62 1748.7907,-81 1882.7907,-81 1882.7907,-62 1748.7907,-62"/>
<text text-anchor="middle" x="1815.7907" y="-69" font-family="FreeSans.ttf" font-size="10.00" fill="#000000">AttitudeEstimatorUtils.h</text>
</a>
</g>
</g>
<!-- Node33&#45;&gt;Node50 -->
<g id="edge14" class="edge">
<title>Node33&#45;&gt;Node50</title>
<path fill="none" stroke="#191970" d="M2761.4041,-131.3484C2588.7284,-126.0253 2061.6061,-108.4138 1891.7907,-87 1880.3009,-85.5511 1867.9539,-83.3265 1856.6223,-81.0108"/>
<polygon fill="#191970" stroke="#191970" points="2761.4341,-134.8509 2771.5368,-131.6592 2761.6488,-127.8542 2761.4341,-134.8509"/>
</g>
<!-- Node54 -->
<g id="node15" class="node">
<title>Node54</title>
<g id="a_node15"><a xlink:href="GravityCompensationHelpers_8h.html" target="_top" xlink:title="GravityCompensationHelpers.h">
<polygon fill="none" stroke="#ff0000" points="1900.7907,-62 1900.7907,-81 2070.7907,-81 2070.7907,-62 1900.7907,-62"/>
<text text-anchor="middle" x="1985.7907" y="-69" font-family="FreeSans.ttf" font-size="10.00" fill="#000000">GravityCompensationHelpers.h</text>
</a>
</g>
</g>
<!-- Node33&#45;&gt;Node54 -->
<g id="edge15" class="edge">
<title>Node33&#45;&gt;Node54</title>
<path fill="none" stroke="#191970" d="M2761.511,-131.4592C2638.6125,-127.6159 2333.5334,-115.7644 2079.7907,-87 2066.15,-85.4537 2051.4734,-83.2807 2037.8664,-81.05"/>
<polygon fill="#191970" stroke="#191970" points="2761.684,-134.9661 2771.7869,-131.7751 2761.8992,-127.9694 2761.684,-134.9661"/>
</g>
<!-- Node56 -->
<g id="node16" class="node">
<title>Node56</title>
<g id="a_node16"><a xlink:href="KalmanFilter_8h.html" target="_top" xlink:title="KalmanFilter.h">
<polygon fill="none" stroke="#ff0000" points="2088.7907,-62 2088.7907,-81 2174.7907,-81 2174.7907,-62 2088.7907,-62"/>
<text text-anchor="middle" x="2131.7907" y="-69" font-family="FreeSans.ttf" font-size="10.00" fill="#000000">KalmanFilter.h</text>
</a>
</g>
</g>
<!-- Node33&#45;&gt;Node56 -->
<g id="edge16" class="edge">
<title>Node33&#45;&gt;Node56</title>
<path fill="none" stroke="#191970" d="M2761.2595,-130.5144C2628.1797,-124.3076 2293.933,-107.1697 2183.7907,-87 2175.9144,-85.5577 2167.5357,-83.3643 2159.8566,-81.0777"/>
<polygon fill="#191970" stroke="#191970" points="2761.469,-134.0278 2771.6203,-130.9945 2761.7931,-127.0353 2761.469,-134.0278"/>
</g>
<!-- Node58 -->
<g id="node17" class="node">
<title>Node58</title>
<g id="a_node17"><a xlink:href="BerdyHelper_8cpp.html" target="_top" xlink:title="BerdyHelper.cpp">
<polygon fill="none" stroke="#000000" points="2193.2907,-62 2193.2907,-81 2290.2907,-81 2290.2907,-62 2193.2907,-62"/>
<text text-anchor="middle" x="2241.7907" y="-69" font-family="FreeSans.ttf" font-size="10.00" fill="#000000">BerdyHelper.cpp</text>
</a>
</g>
</g>
<!-- Node33&#45;&gt;Node58 -->
<g id="edge17" class="edge">
<title>Node33&#45;&gt;Node58</title>
<path fill="none" stroke="#191970" d="M2761.4925,-131.2982C2666.3002,-127.6559 2465.6174,-116.8475 2298.7907,-87 2290.311,-85.4829 2281.2591,-83.2925 2272.9236,-81.0341"/>
<polygon fill="#191970" stroke="#191970" points="2761.6231,-134.8054 2771.7459,-131.6783 2761.8824,-127.8102 2761.6231,-134.8054"/>
</g>
<!-- Node59 -->
<g id="node18" class="node">
<title>Node59</title>
<g id="a_node18"><a xlink:href="BerdySparseMAPSolver_8cpp.html" target="_top" xlink:title="BerdySparseMAPSolver.cpp">
<polygon fill="none" stroke="#000000" points="2308.2907,-62 2308.2907,-81 2457.2907,-81 2457.2907,-62 2308.2907,-62"/>
<text text-anchor="middle" x="2382.7907" y="-69" font-family="FreeSans.ttf" font-size="10.00" fill="#000000">BerdySparseMAPSolver.cpp</text>
</a>
</g>
</g>
<!-- Node33&#45;&gt;Node59 -->
<g id="edge18" class="edge">
<title>Node33&#45;&gt;Node59</title>
<path fill="none" stroke="#191970" d="M2761.273,-126.6684C2691.9654,-118.5471 2569.857,-103.5237 2465.7907,-87 2454.643,-85.23 2442.6924,-83.1224 2431.4304,-81.0406"/>
<polygon fill="#191970" stroke="#191970" points="2761.1814,-130.1814 2771.5196,-127.8638 2761.9926,-123.2285 2761.1814,-130.1814"/>
</g>
<!-- Node60 -->
<g id="node19" class="node">
<title>Node60</title>
<g id="a_node19"><a xlink:href="ExtendedKalmanFilter_8cpp.html" target="_top" xlink:title="ExtendedKalmanFilter.cpp">
<polygon fill="none" stroke="#000000" points="2475.2907,-62 2475.2907,-81 2618.2907,-81 2618.2907,-62 2475.2907,-62"/>
<text text-anchor="middle" x="2546.7907" y="-69" font-family="FreeSans.ttf" font-size="10.00" fill="#000000">ExtendedKalmanFilter.cpp</text>
</a>
</g>
</g>
<!-- Node33&#45;&gt;Node60 -->
<g id="edge19" class="edge">
<title>Node33&#45;&gt;Node60</title>
<path fill="none" stroke="#191970" d="M2765.0182,-121.2074C2713.78,-109.5365 2636.3128,-91.8912 2588.7802,-81.0643"/>
<polygon fill="#191970" stroke="#191970" points="2764.3718,-124.6497 2774.8994,-123.4581 2765.9265,-117.8245 2764.3718,-124.6497"/>
</g>
<!-- Node61 -->
<g id="node20" class="node">
<title>Node61</title>
<g id="a_node20"><a xlink:href="ExternalWrenchesEstimation_8cpp.html" target="_top" xlink:title="ExternalWrenchesEstimation.cpp">
<polygon fill="none" stroke="#000000" points="2636.2907,-62 2636.2907,-81 2813.2907,-81 2813.2907,-62 2636.2907,-62"/>
<text text-anchor="middle" x="2724.7907" y="-69" font-family="FreeSans.ttf" font-size="10.00" fill="#000000">ExternalWrenchesEstimation.cpp</text>
</a>
</g>
</g>
<!-- Node33&#45;&gt;Node61 -->
<g id="edge20" class="edge">
<title>Node33&#45;&gt;Node61</title>
<path fill="none" stroke="#191970" d="M2794.0316,-117.786C2776.8289,-106.2864 2753.7445,-90.855 2739.0647,-81.0419"/>
<polygon fill="#191970" stroke="#191970" points="2792.157,-120.7429 2802.4157,-123.3906 2796.0472,-114.9234 2792.157,-120.7429"/>
</g>
<!-- Node62 -->
<g id="node21" class="node">
<title>Node62</title>
<g id="a_node21"><a xlink:href="ExtWrenchesAndJointTorquesEstimator_8cpp.html" target="_top" xlink:title="ExtWrenchesAndJointTorques\lEstimator.cpp">
<polygon fill="none" stroke="#000000" points="2830.7907,-56.5 2830.7907,-86.5 2988.7907,-86.5 2988.7907,-56.5 2830.7907,-56.5"/>
<text text-anchor="start" x="2838.7907" y="-74.5" font-family="FreeSans.ttf" font-size="10.00" fill="#000000">ExtWrenchesAndJointTorques</text>
<text text-anchor="middle" x="2909.7907" y="-63.5" font-family="FreeSans.ttf" font-size="10.00" fill="#000000">Estimator.cpp</text>
</a>
</g>
</g>
<!-- Node33&#45;&gt;Node62 -->
<g id="edge21" class="edge">
<title>Node33&#45;&gt;Node62</title>
<path fill="none" stroke="#191970" d="M2839.6937,-117.8545C2854.1128,-108.3193 2872.6505,-96.0605 2887.0403,-86.5446"/>
<polygon fill="#191970" stroke="#191970" points="2837.7325,-114.9553 2831.3219,-123.3906 2841.5937,-120.7941 2837.7325,-114.9553"/>
</g>
<!-- Node63 -->
<g id="node22" class="node">
<title>Node63</title>
<g id="a_node22"><a xlink:href="SimpleLeggedOdometry_8cpp.html" target="_top" xlink:title="SimpleLeggedOdometry.cpp">
<polygon fill="none" stroke="#000000" points="3007.2907,-62 3007.2907,-81 3160.2907,-81 3160.2907,-62 3007.2907,-62"/>
<text text-anchor="middle" x="3083.7907" y="-69" font-family="FreeSans.ttf" font-size="10.00" fill="#000000">SimpleLeggedOdometry.cpp</text>
</a>
</g>
</g>
<!-- Node33&#45;&gt;Node63 -->
<g id="edge22" class="edge">
<title>Node33&#45;&gt;Node63</title>
<path fill="none" stroke="#191970" d="M2867.988,-121.2074C2918.6568,-109.5365 2995.2632,-91.8912 3042.2677,-81.0643"/>
<polygon fill="#191970" stroke="#191970" points="2867.1757,-117.8027 2858.2165,-123.4581 2868.747,-124.6241 2867.1757,-117.8027"/>
</g>
<!-- Node64 -->
<g id="node23" class="node">
<title>Node64</title>
<g id="a_node23"><a xlink:href="KinDynComputations_8cpp.html" target="_top" xlink:title="KinDynComputations.cpp">
<polygon fill="none" stroke="#000000" points="400.7907,-62 400.7907,-81 540.7907,-81 540.7907,-62 400.7907,-62"/>
<text text-anchor="middle" x="470.7907" y="-69" font-family="FreeSans.ttf" font-size="10.00" fill="#000000">KinDynComputations.cpp</text>
</a>
</g>
</g>
<!-- Node33&#45;&gt;Node64 -->
<g id="edge23" class="edge">
<title>Node33&#45;&gt;Node64</title>
<path fill="none" stroke="#191970" d="M2761.5442,-132.4534C2436.1041,-129.1572 775.5772,-111.2552 549.7907,-87 537.5615,-85.6863 524.4049,-83.4442 512.4036,-81.0672"/>
<polygon fill="#191970" stroke="#191970" points="2761.6353,-135.9544 2771.6701,-132.5556 2761.706,-128.9548 2761.6353,-135.9544"/>
</g>
<!-- Node65 -->
<g id="node24" class="node">
<title>Node65</title>
<g id="a_node24"><a xlink:href="BoundingBoxHelpers_8cpp.html" target="_top" xlink:title="BoundingBoxHelpers.cpp">
<polygon fill="none" stroke="#000000" points="3178.2907,-62 3178.2907,-81 3317.2907,-81 3317.2907,-62 3178.2907,-62"/>
<text text-anchor="middle" x="3247.7907" y="-69" font-family="FreeSans.ttf" font-size="10.00" fill="#000000">BoundingBoxHelpers.cpp</text>
</a>
</g>
</g>
<!-- Node33&#45;&gt;Node65 -->
<g id="edge24" class="edge">
<title>Node33&#45;&gt;Node65</title>
<path fill="none" stroke="#191970" d="M2872.2033,-126.8661C2941.6837,-118.9205 3064.3618,-104.0503 3168.7907,-87 3179.5501,-85.2433 3191.0869,-83.1181 3201.9286,-81.0122"/>
<polygon fill="#191970" stroke="#191970" points="2871.4736,-123.4264 2861.9333,-128.0343 2872.2648,-130.3816 2871.4736,-123.4264"/>
</g>
<!-- Node66 -->
<g id="node25" class="node">
<title>Node66</title>
<g id="a_node25"><a xlink:href="ConvexHullHelpers_8cpp.html" target="_top" xlink:title="ConvexHullHelpers.cpp">
<polygon fill="none" stroke="#000000" points="3335.2907,-62 3335.2907,-81 3466.2907,-81 3466.2907,-62 3335.2907,-62"/>
<text text-anchor="middle" x="3400.7907" y="-69" font-family="FreeSans.ttf" font-size="10.00" fill="#000000">ConvexHullHelpers.cpp</text>
</a>
</g>
</g>
<!-- Node33&#45;&gt;Node66 -->
<g id="edge25" class="edge">
<title>Node33&#45;&gt;Node66</title>
<path fill="none" stroke="#191970" d="M2872.033,-130.0705C2965.7386,-124.6409 3161.6661,-111.2954 3325.7907,-87 3336.5759,-85.4035 3348.1468,-83.2394 3358.8936,-81.0352"/>
<polygon fill="#191970" stroke="#191970" points="2871.7166,-126.5828 2861.9327,-130.6479 2872.1162,-133.5714 2871.7166,-126.5828"/>
</g>
<!-- Node67 -->
<g id="node26" class="node">
<title>Node67</title>
<g id="a_node26"><a xlink:href="InverseKinematics_8cpp.html" target="_top" xlink:title="InverseKinematics.cpp">
<polygon fill="none" stroke="#000000" points="3484.7907,-62 3484.7907,-81 3612.7907,-81 3612.7907,-62 3484.7907,-62"/>
<text text-anchor="middle" x="3548.7907" y="-69" font-family="FreeSans.ttf" font-size="10.00" fill="#000000">InverseKinematics.cpp</text>
</a>
</g>
</g>
<!-- Node33&#45;&gt;Node67 -->
<g id="edge26" class="edge">
<title>Node33&#45;&gt;Node67</title>
<path fill="none" stroke="#191970" d="M2872.2684,-131.6792C2985.8513,-128.4129 3252.8851,-117.8494 3474.7907,-87 3485.7115,-85.4818 3497.4328,-83.2911 3508.2535,-81.0327"/>
<polygon fill="#191970" stroke="#191970" points="2871.9836,-128.1857 2862.0854,-131.9641 2872.1795,-135.1829 2871.9836,-128.1857"/>
</g>
<!-- Node68 -->
<g id="node27" class="node">
<title>Node68</title>
<g id="a_node27"><a xlink:href="InverseKinematicsData_8cpp.html" target="_top" xlink:title="InverseKinematicsData.cpp">
<polygon fill="none" stroke="#000000" points="16.2907,-62 16.2907,-81 167.2907,-81 167.2907,-62 16.2907,-62"/>
<text text-anchor="middle" x="91.7907" y="-69" font-family="FreeSans.ttf" font-size="10.00" fill="#000000">InverseKinematicsData.cpp</text>
</a>
</g>
</g>
<!-- Node33&#45;&gt;Node68 -->
<g id="edge27" class="edge">
<title>Node33&#45;&gt;Node68</title>
<path fill="none" stroke="#191970" d="M2761.4763,-132.5857C2405.2838,-129.845 441.1715,-113.6118 175.7907,-87 162.6583,-85.6831 148.5043,-83.4085 135.6264,-81.0012"/>
<polygon fill="#191970" stroke="#191970" points="2761.5156,-136.086 2771.5422,-132.6628 2761.5693,-129.0862 2761.5156,-136.086"/>
</g>
<!-- Node69 -->
<g id="node28" class="node">
<title>Node69</title>
<g id="a_node28"><a xlink:href="InverseKinematicsNLP_8cpp.html" target="_top" xlink:title="InverseKinematicsNLP.cpp">
<polygon fill="none" stroke="#000000" points="3631.2907,-62 3631.2907,-81 3776.2907,-81 3776.2907,-62 3631.2907,-62"/>
<text text-anchor="middle" x="3703.7907" y="-69" font-family="FreeSans.ttf" font-size="10.00" fill="#000000">InverseKinematicsNLP.cpp</text>
</a>
</g>
</g>
<!-- Node33&#45;&gt;Node69 -->
<g id="edge28" class="edge">
<title>Node33&#45;&gt;Node69</title>
<path fill="none" stroke="#191970" d="M2872.0862,-132.3079C3002.8946,-130.1337 3341.4194,-121.3619 3621.7907,-87 3634.0142,-85.5019 3647.1606,-83.2898 3659.2695,-81.0031"/>
<polygon fill="#191970" stroke="#191970" points="2871.8639,-128.811 2861.9211,-132.4704 2871.9758,-135.8101 2871.8639,-128.811"/>
</g>
<!-- Node70 -->
<g id="node29" class="node">
<title>Node70</title>
<g id="a_node29"><a xlink:href="DenavitHartenberg_8cpp.html" target="_top" xlink:title="DenavitHartenberg.cpp">
<polygon fill="none" stroke="#000000" points="5027.7907,-62 5027.7907,-81 5157.7907,-81 5157.7907,-62 5027.7907,-62"/>
<text text-anchor="middle" x="5092.7907" y="-69" font-family="FreeSans.ttf" font-size="10.00" fill="#000000">DenavitHartenberg.cpp</text>
</a>
</g>
</g>
<!-- Node33&#45;&gt;Node70 -->
<g id="edge29" class="edge">
<title>Node33&#45;&gt;Node70</title>
<path fill="none" stroke="#191970" d="M2872.3359,-132.4119C3192.4779,-128.946 4795.4403,-110.5277 5013.7907,-87 5026.0195,-85.6823 5039.1759,-83.439 5051.1773,-81.0621"/>
<polygon fill="#191970" stroke="#191970" points="2871.8894,-128.9165 2861.9278,-132.5242 2871.965,-135.9161 2871.8894,-128.9165"/>
</g>
<!-- Node71 -->
<g id="node30" class="node">
<title>Node71</title>
<g id="a_node30"><a xlink:href="Dynamics_8cpp.html" target="_top" xlink:title="Dynamics.cpp">
<polygon fill="none" stroke="#000000" points="3794.7907,-62 3794.7907,-81 3880.7907,-81 3880.7907,-62 3794.7907,-62"/>
<text text-anchor="middle" x="3837.7907" y="-69" font-family="FreeSans.ttf" font-size="10.00" fill="#000000">Dynamics.cpp</text>
</a>
</g>
</g>
<!-- Node33&#45;&gt;Node71 -->
<g id="edge30" class="edge">
<title>Node33&#45;&gt;Node71</title>
<path fill="none" stroke="#191970" d="M2872.1017,-132.0933C3050.1688,-128.9037 3607.2536,-116.7452 3784.7907,-87 3793.0166,-85.6218 3801.7726,-83.3902 3809.7484,-81.0444"/>
<polygon fill="#191970" stroke="#191970" points="2871.854,-128.597 2861.9174,-132.2733 2871.9777,-135.5959 2871.854,-128.597"/>
</g>
<!-- Node72 -->
<g id="node31" class="node">
<title>Node72</title>
<g id="a_node31"><a xlink:href="DynamicsLinearization_8cpp.html" target="_top" xlink:title="DynamicsLinearization.cpp">
<polygon fill="none" stroke="#000000" points="3899.2907,-62 3899.2907,-81 4048.2907,-81 4048.2907,-62 3899.2907,-62"/>
<text text-anchor="middle" x="3973.7907" y="-69" font-family="FreeSans.ttf" font-size="10.00" fill="#000000">DynamicsLinearization.cpp</text>
</a>
</g>
</g>
<!-- Node33&#45;&gt;Node72 -->
<g id="edge31" class="edge">
<title>Node33&#45;&gt;Node72</title>
<path fill="none" stroke="#191970" d="M2872.1458,-131.6498C3062.5177,-126.846 3689.5577,-109.6537 3889.7907,-87 3902.4632,-85.5663 3916.1012,-83.3466 3928.6257,-81.0308"/>
<polygon fill="#191970" stroke="#191970" points="2871.9957,-128.1523 2862.0867,-131.9023 2872.1715,-135.1501 2871.9957,-128.1523"/>
</g>
<!-- Node73 -->
<g id="node32" class="node">
<title>Node73</title>
<g id="a_node32"><a xlink:href="DynamicsLinearizationHelpers_8cpp.html" target="_top" xlink:title="DynamicsLinearizationHelpers.cpp">
<polygon fill="none" stroke="#000000" points="4065.7907,-62 4065.7907,-81 4251.7907,-81 4251.7907,-62 4065.7907,-62"/>
<text text-anchor="middle" x="4158.7907" y="-69" font-family="FreeSans.ttf" font-size="10.00" fill="#000000">DynamicsLinearizationHelpers.cpp</text>
</a>
</g>
</g>
<!-- Node33&#45;&gt;Node73 -->
<g id="edge32" class="edge">
<title>Node33&#45;&gt;Node73</title>
<path fill="none" stroke="#191970" d="M2872.1448,-131.7851C3081.0871,-127.0689 3821.8838,-109.1331 4056.7907,-87 4072.1268,-85.555 4088.67,-83.3317 4103.8787,-81.0159"/>
<polygon fill="#191970" stroke="#191970" points="2871.9413,-128.2887 2862.0225,-132.0126 2872.0987,-135.2869 2871.9413,-128.2887"/>
</g>
<!-- Node74 -->
<g id="node33" class="node">
<title>Node74</title>
<g id="a_node33"><a xlink:href="Jacobians_8cpp.html" target="_top" xlink:title="Jacobians.cpp">
<polygon fill="none" stroke="#000000" points="4270.2907,-62 4270.2907,-81 4353.2907,-81 4353.2907,-62 4270.2907,-62"/>
<text text-anchor="middle" x="4311.7907" y="-69" font-family="FreeSans.ttf" font-size="10.00" fill="#000000">Jacobians.cpp</text>
</a>
</g>
</g>
<!-- Node33&#45;&gt;Node74 -->
<g id="edge33" class="edge">
<title>Node33&#45;&gt;Node74</title>
<path fill="none" stroke="#191970" d="M2872.2346,-132.0966C3120.294,-127.9379 4122.1828,-109.8591 4260.7907,-87 4268.8257,-85.6749 4277.363,-83.4292 4285.1079,-81.0525"/>
<polygon fill="#191970" stroke="#191970" points="2871.957,-128.6006 2862.0169,-132.2672 2872.0739,-135.5997 2871.957,-128.6006"/>
</g>
<!-- Node75 -->
<g id="node34" class="node">
<title>Node75</title>
<g id="a_node34"><a xlink:href="Model_8cpp.html" target="_top" xlink:title="Model.cpp">
<polygon fill="none" stroke="#000000" points="4371.7907,-62 4371.7907,-81 4437.7907,-81 4437.7907,-62 4371.7907,-62"/>
<text text-anchor="middle" x="4404.7907" y="-69" font-family="FreeSans.ttf" font-size="10.00" fill="#000000">Model.cpp</text>
</a>
</g>
</g>
<!-- Node33&#45;&gt;Node75 -->
<g id="edge34" class="edge">
<title>Node33&#45;&gt;Node75</title>
<path fill="none" stroke="#191970" d="M2872.2995,-132.3851C3131.1573,-129.3777 4213.4155,-115.2073 4361.7907,-87 4368.651,-85.6958 4375.8759,-83.4567 4382.4041,-81.0795"/>
<polygon fill="#191970" stroke="#191970" points="2871.9733,-128.8886 2862.0144,-132.5038 2872.0541,-135.8881 2871.9733,-128.8886"/>
</g>
<!-- Node76 -->
<g id="node35" class="node">
<title>Node76</title>
<g id="a_node35"><a xlink:href="URDFModelExport_8cpp.html" target="_top" xlink:title="URDFModelExport.cpp">
<polygon fill="none" stroke="#000000" points="5176.2907,-62 5176.2907,-81 5301.2907,-81 5301.2907,-62 5176.2907,-62"/>
<text text-anchor="middle" x="5238.7907" y="-69" font-family="FreeSans.ttf" font-size="10.00" fill="#000000">URDFModelExport.cpp</text>
</a>
</g>
</g>
<!-- Node33&#45;&gt;Node76 -->
<g id="edge35" class="edge">
<title>Node33&#45;&gt;Node76</title>
<path fill="none" stroke="#191970" d="M2872.4501,-132.5528C3205.9219,-129.7881 4932.5951,-114.2433 5166.7907,-87 5178.0943,-85.6851 5190.2407,-83.411 5201.2776,-81.0037"/>
<polygon fill="#191970" stroke="#191970" points="2872.054,-129.0559 2862.0833,-132.6384 2872.1118,-136.0556 2872.054,-129.0559"/>
</g>
<!-- Node77 -->
<g id="node36" class="node">
<title>Node77</title>
<g id="a_node36"><a xlink:href="AlglibInterface_8cpp.html" target="_top" xlink:title="AlglibInterface.cpp">
<polygon fill="none" stroke="#000000" points="4455.7907,-62 4455.7907,-81 4563.7907,-81 4563.7907,-62 4455.7907,-62"/>
<text text-anchor="middle" x="4509.7907" y="-69" font-family="FreeSans.ttf" font-size="10.00" fill="#000000">AlglibInterface.cpp</text>
</a>
</g>
</g>
<!-- Node33&#45;&gt;Node77 -->
<g id="edge36" class="edge">
<title>Node33&#45;&gt;Node77</title>
<path fill="none" stroke="#191970" d="M2872.2357,-132.137C3139.4822,-127.8826 4288.3027,-108.4827 4446.7907,-87 4456.6129,-85.6686 4467.1267,-83.421 4476.6959,-81.0444"/>
<polygon fill="#191970" stroke="#191970" points="2871.9444,-128.6411 2862.0012,-132.2993 2872.0555,-135.6402 2871.9444,-128.6411"/>
</g>
<!-- Node78 -->
<g id="node37" class="node">
<title>Node78</title>
<g id="a_node37"><a xlink:href="ConstraintsGroup_8cpp.html" target="_top" xlink:title="ConstraintsGroup.cpp">
<polygon fill="none" stroke="#000000" points="4581.7907,-62 4581.7907,-81 4703.7907,-81 4703.7907,-62 4581.7907,-62"/>
<text text-anchor="middle" x="4642.7907" y="-69" font-family="FreeSans.ttf" font-size="10.00" fill="#000000">ConstraintsGroup.cpp</text>
</a>
</g>
</g>
<!-- Node33&#45;&gt;Node78 -->
<g id="edge37" class="edge">
<title>Node33&#45;&gt;Node78</title>
<path fill="none" stroke="#191970" d="M2872.378,-132.1785C3152.3008,-127.9563 4400.9495,-108.0782 4572.7907,-87 4583.6627,-85.6664 4595.3317,-83.4181 4605.965,-81.0416"/>
<polygon fill="#191970" stroke="#191970" points="2872.0108,-128.6835 2862.0646,-132.3336 2872.1161,-135.6827 2872.0108,-128.6835"/>
</g>
<!-- Node79 -->
<g id="node38" class="node">
<title>Node79</title>
<g id="a_node38"><a xlink:href="FixedStepIntegrator_8cpp.html" target="_top" xlink:title="FixedStepIntegrator.cpp">
<polygon fill="none" stroke="#000000" points="4722.2907,-62 4722.2907,-81 4853.2907,-81 4853.2907,-62 4722.2907,-62"/>
<text text-anchor="middle" x="4787.7907" y="-69" font-family="FreeSans.ttf" font-size="10.00" fill="#000000">FixedStepIntegrator.cpp</text>
</a>
</g>
</g>
<!-- Node33&#45;&gt;Node79 -->
<g id="edge38" class="edge">
<title>Node33&#45;&gt;Node79</title>
<path fill="none" stroke="#191970" d="M2872.485,-132.2455C3165.9232,-128.1903 4526.1819,-108.3712 4712.7907,-87 4724.4152,-85.6687 4736.9101,-83.4211 4748.3035,-81.0445"/>
<polygon fill="#191970" stroke="#191970" points="2872.05,-128.7511 2862.0992,-132.3886 2872.1465,-135.7504 2872.05,-128.7511"/>
</g>
<!-- Node80 -->
<g id="node39" class="node">
<title>Node80</title>
<g id="a_node39"><a xlink:href="ForwardEuler_8cpp.html" target="_top" xlink:title="ForwardEuler.cpp">
<polygon fill="none" stroke="#000000" points="4871.7907,-62 4871.7907,-81 4971.7907,-81 4971.7907,-62 4871.7907,-62"/>
<text text-anchor="middle" x="4921.7907" y="-69" font-family="FreeSans.ttf" font-size="10.00" fill="#000000">ForwardEuler.cpp</text>
</a>
</g>
</g>
<!-- Node33&#45;&gt;Node80 -->
<g id="edge39" class="edge">
<title>Node33&#45;&gt;Node80</title>
<path fill="none" stroke="#191970" d="M2872.3808,-132.5141C3179.2991,-129.7294 4660.1576,-114.9311 4861.7907,-87 4871.2753,-85.6862 4881.417,-83.4124 4890.6126,-81.0051"/>
<polygon fill="#191970" stroke="#191970" points="2871.93,-129.0179 2861.962,-132.6081 2871.9932,-136.0177 2871.93,-129.0179"/>
</g>
<!-- Node33&#45;&gt;Node94 -->
<g id="edge40" class="edge">
<title>Node33&#45;&gt;Node94</title>
<path fill="none" stroke="#191970" d="M2761.4922,-132.6441C2488.8232,-130.7394 1285.6867,-120.55 912.7907,-87 897.6297,-85.6359 881.2669,-83.3936 866.2952,-81.0326"/>
<polygon fill="#191970" stroke="#191970" points="2761.5213,-136.1443 2771.5453,-132.7135 2761.5697,-129.1444 2761.5213,-136.1443"/>
</g>
<!-- Node34&#45;&gt;Node36 -->
<g id="edge3" class="edge">
<title>Node34&#45;&gt;Node36</title>
<path fill="none" stroke="#191970" d="M925.753,-59.0797C921.4113,-57.9189 917.0251,-56.8582 912.7907,-56 780.4529,-29.1788 622.2089,-17.4563 537.1451,-12.7756"/>
<polygon fill="#191970" stroke="#191970" points="925.1342,-62.5428 935.7109,-61.9217 927.0554,-55.8116 925.1342,-62.5428"/>
</g>
<!-- Node34&#45;&gt;Node38 -->
<g id="edge4" class="edge">
<title>Node34&#45;&gt;Node38</title>
<path fill="none" stroke="#191970" d="M1000.0379,-59.1195C1004.9471,-57.8456 1009.9578,-56.7467 1014.7907,-56 1216.2899,-24.8666 4426.1634,-12.0641 4932.7146,-10.2335"/>
<polygon fill="#191970" stroke="#191970" points="998.8519,-55.818 990.193,-61.9232 1000.7692,-62.5503 998.8519,-55.818"/>
</g>
<!-- Node107&#45;&gt;Node42 -->
<g id="edge42" class="edge">
<title>Node107&#45;&gt;Node42</title>
<path fill="none" stroke="#191970" d="M505.3485,-119.7993C535.8535,-108.1468 579.5896,-91.4402 606.8111,-81.0419"/>
<polygon fill="#191970" stroke="#191970" points="504.0396,-116.5526 495.9469,-123.3906 506.5376,-123.0917 504.0396,-116.5526"/>
</g>
<!-- Node107&#45;&gt;Node46 -->
<g id="edge43" class="edge">
<title>Node107&#45;&gt;Node46</title>
<path fill="none" stroke="#191970" d="M422.1508,-122.9684C381.6805,-114.3323 322.6747,-101.0692 271.7907,-87 265.2916,-85.203 258.3596,-83.0848 251.8431,-81.0011"/>
<polygon fill="#191970" stroke="#191970" points="421.5157,-126.4115 432.0243,-125.062 422.9678,-119.5637 421.5157,-126.4115"/>
</g>
<!-- Node107&#45;&gt;Node48 -->
<g id="edge44" class="edge">
<title>Node107&#45;&gt;Node48</title>
<path fill="none" stroke="#191970" d="M439.9232,-119.3428C413.6401,-107.7139 376.5535,-91.3051 353.3569,-81.0419"/>
<polygon fill="#191970" stroke="#191970" points="438.5109,-122.5452 449.0719,-123.3906 441.3432,-116.1437 438.5109,-122.5452"/>
</g>
<!-- Node107&#45;&gt;Node64 -->
<g id="edge45" class="edge">
<title>Node107&#45;&gt;Node64</title>
<path fill="none" stroke="#191970" d="M470.7907,-113.2462C470.7907,-102.5519 470.7907,-89.814 470.7907,-81.2449"/>
<polygon fill="#191970" stroke="#191970" points="467.2908,-113.3906 470.7907,-123.3906 474.2908,-113.3907 467.2908,-113.3906"/>
</g>
<!-- Node107&#45;&gt;Node68 -->
<g id="edge46" class="edge">
<title>Node107&#45;&gt;Node68</title>
<path fill="none" stroke="#191970" d="M422.0035,-125.8168C363.4477,-117.0973 262.3188,-101.7266 175.7907,-87 164.9724,-85.1588 153.3896,-83.0869 142.3883,-81.0715"/>
<polygon fill="#191970" stroke="#191970" points="421.6721,-129.3059 432.078,-127.3139 422.7011,-122.382 421.6721,-129.3059"/>
</g>
<!-- Node107&#45;&gt;Node94 -->
<g id="edge47" class="edge">
<title>Node107&#45;&gt;Node94</title>
<path fill="none" stroke="#191970" d="M519.673,-124.2354C583.5028,-112.7907 694.8341,-92.829 760.6834,-81.0222"/>
<polygon fill="#191970" stroke="#191970" points="518.6957,-120.8547 509.4704,-126.0647 519.9312,-127.7448 518.6957,-120.8547"/>
</g>
<!-- Node227&#45;&gt;Node46 -->
<g id="edge49" class="edge">
<title>Node227&#45;&gt;Node46</title>
<path fill="none" stroke="#191970" d="M306.178,-118.415C285.8768,-106.8546 258.0961,-91.035 240.5472,-81.0419"/>
<polygon fill="#191970" stroke="#191970" points="304.4939,-121.4836 314.9157,-123.3906 307.9578,-115.4007 304.4939,-121.4836"/>
</g>
<!-- Node227&#45;&gt;Node48 -->
<g id="edge50" class="edge">
<title>Node227&#45;&gt;Node48</title>
<path fill="none" stroke="#191970" d="M331.7907,-113.2462C331.7907,-102.5519 331.7907,-89.814 331.7907,-81.2449"/>
<polygon fill="#191970" stroke="#191970" points="328.2908,-113.3906 331.7907,-123.3906 335.2908,-113.3907 328.2908,-113.3906"/>
</g>
<!-- Node227&#45;&gt;Node64 -->
<g id="edge51" class="edge">
<title>Node227&#45;&gt;Node64</title>
<path fill="none" stroke="#191970" d="M362.6582,-119.3428C388.9413,-107.7139 426.0279,-91.3051 449.2245,-81.0419"/>
<polygon fill="#191970" stroke="#191970" points="361.2382,-116.1437 353.5094,-123.3906 364.0705,-122.5452 361.2382,-116.1437"/>
</g>
<!-- Node227&#45;&gt;Node68 -->
<g id="edge52" class="edge">
<title>Node227&#45;&gt;Node68</title>
<path fill="none" stroke="#191970" d="M296.7281,-124.0152C252.0107,-112.5564 175.0026,-92.8231 129.1919,-81.0841"/>
<polygon fill="#191970" stroke="#191970" points="296.0043,-127.4427 306.5601,-126.5347 297.7419,-120.6618 296.0043,-127.4427"/>
</g>
<!-- Node231&#45;&gt;Node76 -->
<g id="edge60" class="edge">
<title>Node231&#45;&gt;Node76</title>
<path fill="none" stroke="#191970" d="M5226.4736,-113.5832C5229.6237,-102.8205 5233.4041,-89.9042 5235.9385,-81.2449"/>
<polygon fill="#191970" stroke="#191970" points="5223.0532,-112.8101 5223.6032,-123.3906 5229.7713,-114.7764 5223.0532,-112.8101"/>
</g>
<!-- Node233&#45;&gt;Node70 -->
<g id="edge62" class="edge">
<title>Node233&#45;&gt;Node70</title>
<path fill="none" stroke="#191970" d="M5105.1077,-113.5832C5101.9577,-102.8205 5098.1773,-89.9042 5095.6428,-81.2449"/>
<polygon fill="#191970" stroke="#191970" points="5101.8101,-114.7764 5107.9782,-123.3906 5108.5282,-112.8101 5101.8101,-114.7764"/>
</g>
<!-- Node233&#45;&gt;Node76 -->
<g id="edge63" class="edge">
<title>Node233&#45;&gt;Node76</title>
<path fill="none" stroke="#191970" d="M5139.8546,-119.0357C5164.0168,-107.4265 5197.7576,-91.2151 5218.9311,-81.0419"/>
<polygon fill="#191970" stroke="#191970" points="5138.2885,-115.9051 5130.7907,-123.3906 5141.3201,-122.2146 5138.2885,-115.9051"/>
</g>
</g>
</svg>
