<?xml version="1.0" encoding="UTF-8" standalone="no"?>
<!DOCTYPE svg PUBLIC "-//W3C//DTD SVG 1.1//EN"
 "http://www.w3.org/Graphics/SVG/1.1/DTD/svg11.dtd">
<!-- Generated by graphviz version 2.40.1 (20161225.0304)
 -->
<!-- Title: SpatialForceVector.h Pages: 1 -->
<svg width="5616pt" height="207pt"
 viewBox="0.00 0.00 5616.04 207.00" xmlns="http://www.w3.org/2000/svg" xmlns:xlink="http://www.w3.org/1999/xlink">
<g id="graph0" class="graph" transform="scale(1 1) rotate(0) translate(4 203)">
<title>SpatialForceVector.h</title>
<!-- Node32 -->
<g id="node1" class="node">
<title>Node32</title>
<polygon fill="#bfbfbf" stroke="#000000" points="2786.838,-179.5 2786.838,-198.5 2902.838,-198.5 2902.838,-179.5 2786.838,-179.5"/>
<text text-anchor="middle" x="2844.838" y="-186.5" font-family="FreeSans.ttf" font-size="10.00" fill="#000000">SpatialForceVector.h</text>
</g>
<!-- Node33 -->
<g id="node2" class="node">
<title>Node33</title>
<g id="a_node2"><a xlink:href="EigenHelpers_8h.html" target="_top" xlink:title="EigenHelpers.h">
<polygon fill="none" stroke="#ff0000" points="2799.838,-123.5 2799.838,-142.5 2889.838,-142.5 2889.838,-123.5 2799.838,-123.5"/>
<text text-anchor="middle" x="2844.838" y="-130.5" font-family="FreeSans.ttf" font-size="10.00" fill="#000000">EigenHelpers.h</text>
</a>
</g>
</g>
<!-- Node32&#45;&gt;Node33 -->
<g id="edge1" class="edge">
<title>Node32&#45;&gt;Node33</title>
<path fill="none" stroke="#191970" d="M2844.838,-169.1575C2844.838,-160.155 2844.838,-149.9199 2844.838,-142.6427"/>
<polygon fill="#191970" stroke="#191970" points="2841.3381,-169.2455 2844.838,-179.2455 2848.3381,-169.2456 2841.3381,-169.2455"/>
</g>
<!-- Node36 -->
<g id="node4" class="node">
<title>Node36</title>
<g id="a_node4"><a xlink:href="SpatialInertiaRaw_8cpp.html" target="_top" xlink:title="SpatialInertiaRaw.cpp">
<polygon fill="none" stroke="#000000" points="651.838,-.5 651.838,-19.5 773.838,-19.5 773.838,-.5 651.838,-.5"/>
<text text-anchor="middle" x="712.838" y="-7.5" font-family="FreeSans.ttf" font-size="10.00" fill="#000000">SpatialInertiaRaw.cpp</text>
</a>
</g>
</g>
<!-- Node32&#45;&gt;Node36 -->
<g id="edge58" class="edge">
<title>Node32&#45;&gt;Node36</title>
<path fill="none" stroke="#191970" d="M2776.6022,-188.5427C2394.6968,-185.8811 530.2889,-171.5089 275.838,-143 154.4786,-129.4028 83.8886,-181.7428 6.838,-87 -1.8551,-76.3109 -2.5823,-66.0541 6.838,-56 28.7522,-32.6115 484.3648,-16.7798 651.8035,-11.7324"/>
<polygon fill="#191970" stroke="#191970" points="2776.65,-192.043 2786.6741,-188.6126 2776.6986,-185.0432 2776.65,-192.043"/>
</g>
<!-- Node38 -->
<g id="node5" class="node">
<title>Node38</title>
<g id="a_node5"><a xlink:href="SpatialMotionVector_8cpp.html" target="_top" xlink:title="SpatialMotionVector.cpp">
<polygon fill="none" stroke="#000000" points="4594.838,-.5 4594.838,-19.5 4728.838,-19.5 4728.838,-.5 4594.838,-.5"/>
<text text-anchor="middle" x="4661.838" y="-7.5" font-family="FreeSans.ttf" font-size="10.00" fill="#000000">SpatialMotionVector.cpp</text>
</a>
</g>
</g>
<!-- Node32&#45;&gt;Node38 -->
<g id="edge59" class="edge">
<title>Node32&#45;&gt;Node38</title>
<path fill="none" stroke="#191970" d="M2864.5218,-172.7103C2886.5434,-154.8875 2921.1781,-128.1532 2936.838,-123 3007.1364,-99.867 5548.8621,-139.683 5600.838,-87 5610.5143,-77.192 5610.339,-65.9779 5600.838,-56 5570.8357,-24.492 4939.2437,-13.5573 4729.1385,-10.784"/>
<polygon fill="#191970" stroke="#191970" points="2862.0255,-170.2299 2856.4928,-179.2654 2866.4525,-175.6523 2862.0255,-170.2299"/>
</g>
<!-- Node47 -->
<g id="node11" class="node">
<title>Node47</title>
<g id="a_node11"><a xlink:href="SpatialForceVector_8cpp.html" target="_top" xlink:title="SpatialForceVector.cpp">
<polygon fill="none" stroke="#000000" points="1029.338,-62 1029.338,-81 1156.338,-81 1156.338,-62 1029.338,-62"/>
<text text-anchor="middle" x="1092.838" y="-69" font-family="FreeSans.ttf" font-size="10.00" fill="#000000">SpatialForceVector.cpp</text>
</a>
</g>
</g>
<!-- Node32&#45;&gt;Node47 -->
<g id="edge57" class="edge">
<title>Node32&#45;&gt;Node47</title>
<path fill="none" stroke="#191970" d="M2776.3519,-188.4788C2547.2612,-185.9614 1787.1275,-171.3549 1165.838,-87 1154.9254,-85.5184 1143.2116,-83.3118 1132.4316,-81.0251"/>
<polygon fill="#191970" stroke="#191970" points="2776.4996,-191.9805 2786.5361,-188.5865 2776.5737,-184.9809 2776.4996,-191.9805"/>
</g>
<!-- Node107 -->
<g id="node44" class="node">
<title>Node107</title>
<g id="a_node44"><a xlink:href="SpatialMomentum_8h.html" target="_top" xlink:title="SpatialMomentum.h">
<polygon fill="none" stroke="#ff0000" points="440.338,-123.5 440.338,-142.5 555.338,-142.5 555.338,-123.5 440.338,-123.5"/>
<text text-anchor="middle" x="497.838" y="-130.5" font-family="FreeSans.ttf" font-size="10.00" fill="#000000">SpatialMomentum.h</text>
</a>
</g>
</g>
<!-- Node32&#45;&gt;Node107 -->
<g id="edge44" class="edge">
<title>Node32&#45;&gt;Node107</title>
<path fill="none" stroke="#191970" d="M2776.3871,-188.0039C2512.8914,-184.0638 1538.8215,-168.5256 736.838,-143 674.9905,-141.0315 604.1737,-137.9669 555.7798,-135.7489"/>
<polygon fill="#191970" stroke="#191970" points="2776.5141,-191.5061 2786.5652,-188.1556 2776.6185,-184.5068 2776.5141,-191.5061"/>
</g>
<!-- Node197 -->
<g id="node45" class="node">
<title>Node197</title>
<g id="a_node45"><a xlink:href="Wrench_8h.html" target="_top" xlink:title="Wrench.h">
<polygon fill="none" stroke="#ff0000" points="745.838,-123.5 745.838,-142.5 807.838,-142.5 807.838,-123.5 745.838,-123.5"/>
<text text-anchor="middle" x="776.838" y="-130.5" font-family="FreeSans.ttf" font-size="10.00" fill="#000000">Wrench.h</text>
</a>
</g>
</g>
<!-- Node32&#45;&gt;Node197 -->
<g id="edge50" class="edge">
<title>Node32&#45;&gt;Node197</title>
<path fill="none" stroke="#191970" d="M2776.5017,-187.1495C2447.7559,-178.2473 1035.5235,-140.005 807.8732,-133.8404"/>
<polygon fill="#191970" stroke="#191970" points="2776.7338,-190.657 2786.8249,-187.429 2776.9233,-183.6595 2776.7338,-190.657"/>
</g>
<!-- Node227 -->
<g id="node46" class="node">
<title>Node227</title>
<g id="a_node46"><a xlink:href="PositionRaw_8cpp.html" target="_top" xlink:title="PositionRaw.cpp">
<polygon fill="none" stroke="#000000" points="2945.838,-123.5 2945.838,-142.5 3041.838,-142.5 3041.838,-123.5 2945.838,-123.5"/>
<text text-anchor="middle" x="2993.838" y="-130.5" font-family="FreeSans.ttf" font-size="10.00" fill="#000000">PositionRaw.cpp</text>
</a>
</g>
</g>
<!-- Node32&#45;&gt;Node227 -->
<g id="edge55" class="edge">
<title>Node32&#45;&gt;Node227</title>
<path fill="none" stroke="#191970" d="M2879.9892,-175.7888C2907.1948,-165.5639 2944.2189,-151.6488 2968.5582,-142.5011"/>
<polygon fill="#191970" stroke="#191970" points="2878.5813,-172.5788 2870.452,-179.3733 2881.0441,-179.1313 2878.5813,-172.5788"/>
</g>
<!-- Node228 -->
<g id="node47" class="node">
<title>Node228</title>
<g id="a_node47"><a xlink:href="RotationRaw_8cpp.html" target="_top" xlink:title="RotationRaw.cpp">
<polygon fill="none" stroke="#000000" points="3059.838,-123.5 3059.838,-142.5 3157.838,-142.5 3157.838,-123.5 3059.838,-123.5"/>
<text text-anchor="middle" x="3108.838" y="-130.5" font-family="FreeSans.ttf" font-size="10.00" fill="#000000">RotationRaw.cpp</text>
</a>
</g>
</g>
<!-- Node32&#45;&gt;Node228 -->
<g id="edge56" class="edge">
<title>Node32&#45;&gt;Node228</title>
<path fill="none" stroke="#191970" d="M2899.9607,-177.3073C2948.6073,-166.9883 3018.6368,-152.1336 3063.9407,-142.5237"/>
<polygon fill="#191970" stroke="#191970" points="2898.9773,-173.9379 2889.9212,-179.4369 2900.4299,-180.7856 2898.9773,-173.9379"/>
</g>
<!-- Node109 -->
<g id="node48" class="node">
<title>Node109</title>
<g id="a_node48"><a xlink:href="TestUtils_8cpp.html" target="_top" xlink:title="TestUtils.cpp">
<polygon fill="none" stroke="#000000" points="3176.338,-123.5 3176.338,-142.5 3255.338,-142.5 3255.338,-123.5 3176.338,-123.5"/>
<text text-anchor="middle" x="3215.838" y="-130.5" font-family="FreeSans.ttf" font-size="10.00" fill="#000000">TestUtils.cpp</text>
</a>
</g>
</g>
<!-- Node32&#45;&gt;Node109 -->
<g id="edge60" class="edge">
<title>Node32&#45;&gt;Node109</title>
<path fill="none" stroke="#191970" d="M2913.0434,-180.4523C2978.3475,-171.9859 3079.5606,-158.1262 3166.838,-143 3169.9177,-142.4662 3173.1002,-141.8849 3176.2958,-141.2798"/>
<polygon fill="#191970" stroke="#191970" points="2912.3481,-177.0129 2902.8784,-181.7642 2913.2442,-183.9553 2912.3481,-177.0129"/>
</g>
<!-- Node110 -->
<g id="node49" class="node">
<title>Node110</title>
<g id="a_node49"><a xlink:href="DynamicsUtils_8h.html" target="_top" xlink:title="DynamicsUtils.h">
<polygon fill="none" stroke="#000000" points="3273.338,-123.5 3273.338,-142.5 3370.338,-142.5 3370.338,-123.5 3273.338,-123.5"/>
<text text-anchor="middle" x="3321.838" y="-130.5" font-family="FreeSans.ttf" font-size="10.00" fill="#000000">DynamicsUtils.h</text>
</a>
</g>
</g>
<!-- Node32&#45;&gt;Node110 -->
<g id="edge61" class="edge">
<title>Node32&#45;&gt;Node110</title>
<path fill="none" stroke="#191970" d="M2913.1659,-182.884C2996.4196,-175.1169 3141.2714,-160.5872 3264.838,-143 3267.5236,-142.6178 3270.2768,-142.2049 3273.0534,-141.7722"/>
<polygon fill="#191970" stroke="#191970" points="2912.7099,-179.4112 2903.0761,-183.8203 2913.3567,-186.3813 2912.7099,-179.4112"/>
</g>
<!-- Node229 -->
<g id="node50" class="node">
<title>Node229</title>
<g id="a_node50"><a xlink:href="JointState_8h.html" target="_top" xlink:title="JointState.h">
<polygon fill="none" stroke="#ff0000" points="285.338,-123.5 285.338,-142.5 358.338,-142.5 358.338,-123.5 285.338,-123.5"/>
<text text-anchor="middle" x="321.838" y="-130.5" font-family="FreeSans.ttf" font-size="10.00" fill="#000000">JointState.h</text>
</a>
</g>
</g>
<!-- Node32&#45;&gt;Node229 -->
<g id="edge62" class="edge">
<title>Node32&#45;&gt;Node229</title>
<path fill="none" stroke="#191970" d="M2776.4765,-188.3676C2434.3274,-185.1003 905.533,-169.2632 430.838,-143 406.7409,-141.6668 379.7268,-139.1953 358.6203,-137.043"/>
<polygon fill="#191970" stroke="#191970" points="2776.6932,-191.8698 2786.7261,-188.4651 2776.7598,-184.8701 2776.6932,-191.8698"/>
</g>
<!-- Node34 -->
<g id="node3" class="node">
<title>Node34</title>
<g id="a_node3"><a xlink:href="PrivateUtils_8h.html" target="_top" xlink:title="PrivateUtils.h">
<polygon fill="none" stroke="#ff0000" points="1394.338,-62 1394.338,-81 1477.338,-81 1477.338,-62 1394.338,-62"/>
<text text-anchor="middle" x="1435.838" y="-69" font-family="FreeSans.ttf" font-size="10.00" fill="#000000">PrivateUtils.h</text>
</a>
</g>
</g>
<!-- Node33&#45;&gt;Node34 -->
<g id="edge2" class="edge">
<title>Node33&#45;&gt;Node34</title>
<path fill="none" stroke="#191970" d="M2789.6155,-131.9808C2551.2367,-127.4659 1616.6116,-108.5365 1486.838,-87 1478.8043,-85.6668 1470.2674,-83.4186 1462.5225,-81.042"/>
<polygon fill="#191970" stroke="#191970" points="2789.716,-135.4833 2799.7803,-132.1726 2789.8481,-128.4845 2789.716,-135.4833"/>
</g>
<!-- Node33&#45;&gt;Node38 -->
<g id="edge12" class="edge">
<title>Node33&#45;&gt;Node38</title>
<path fill="none" stroke="#191970" d="M2899.9601,-123.3967C2901.264,-123.2538 2902.558,-123.1211 2903.838,-123 2951.9392,-118.4507 4605.111,-117.1845 4642.838,-87 4663.1581,-70.7423 4663.8304,-36.5206 4662.7905,-19.7212"/>
<polygon fill="#191970" stroke="#191970" points="2899.3299,-119.9484 2889.8454,-124.6702 2900.2043,-126.8935 2899.3299,-119.9484"/>
</g>
<!-- Node42 -->
<g id="node6" class="node">
<title>Node42</title>
<g id="a_node6"><a xlink:href="ArticulatedBodyInertia_8cpp.html" target="_top" xlink:title="ArticulatedBodyInertia.cpp">
<polygon fill="none" stroke="#000000" points="864.838,-62 864.838,-81 1010.838,-81 1010.838,-62 864.838,-62"/>
<text text-anchor="middle" x="937.838" y="-69" font-family="FreeSans.ttf" font-size="10.00" fill="#000000">ArticulatedBodyInertia.cpp</text>
</a>
</g>
</g>
<!-- Node33&#45;&gt;Node42 -->
<g id="edge5" class="edge">
<title>Node33&#45;&gt;Node42</title>
<path fill="none" stroke="#191970" d="M2789.2918,-132.7932C2523.1183,-131.6194 1376.3982,-124.4419 1020.838,-87 1008.0091,-85.6491 994.1925,-83.3954 981.5831,-81.0192"/>
<polygon fill="#191970" stroke="#191970" points="2789.4693,-136.2939 2799.4843,-132.8371 2789.4995,-129.2939 2789.4693,-136.2939"/>
</g>
<!-- Node43 -->
<g id="node7" class="node">
<title>Node43</title>
<g id="a_node7"><a xlink:href="CubicSpline_8cpp.html" target="_top" xlink:title="CubicSpline.cpp">
<polygon fill="none" stroke="#000000" points="4689.838,-62 4689.838,-81 4783.838,-81 4783.838,-62 4689.838,-62"/>
<text text-anchor="middle" x="4736.838" y="-69" font-family="FreeSans.ttf" font-size="10.00" fill="#000000">CubicSpline.cpp</text>
</a>
</g>
</g>
<!-- Node33&#45;&gt;Node43 -->
<g id="edge6" class="edge">
<title>Node33&#45;&gt;Node43</title>
<path fill="none" stroke="#191970" d="M2899.9601,-123.3961C2901.2639,-123.2533 2902.558,-123.1208 2903.838,-123 3295.9544,-85.9907 4285.5399,-139.8428 4675.838,-87 4685.4749,-85.6952 4695.7839,-83.4243 4705.1329,-81.0167"/>
<polygon fill="#191970" stroke="#191970" points="2899.3302,-119.9476 2889.8452,-124.6684 2900.2039,-126.8929 2899.3302,-119.9476"/>
</g>
<!-- Node44 -->
<g id="node8" class="node">
<title>Node44</title>
<g id="a_node8"><a xlink:href="Direction_8cpp.html" target="_top" xlink:title="Direction.cpp">
<polygon fill="none" stroke="#000000" points="4802.338,-62 4802.338,-81 4883.338,-81 4883.338,-62 4802.338,-62"/>
<text text-anchor="middle" x="4842.838" y="-69" font-family="FreeSans.ttf" font-size="10.00" fill="#000000">Direction.cpp</text>
</a>
</g>
</g>
<!-- Node33&#45;&gt;Node44 -->
<g id="edge7" class="edge">
<title>Node33&#45;&gt;Node44</title>
<path fill="none" stroke="#191970" d="M2899.9599,-123.3939C2901.2638,-123.2518 2902.5579,-123.12 2903.838,-123 3321.859,-83.811 4378.3353,-153.8201 4792.838,-87 4800.8233,-85.7127 4809.2995,-83.4471 4816.9603,-81.039"/>
<polygon fill="#191970" stroke="#191970" points="2899.3314,-119.9452 2889.8447,-124.6625 2900.2025,-126.8908 2899.3314,-119.9452"/>
</g>
<!-- Node45 -->
<g id="node9" class="node">
<title>Node45</title>
<g id="a_node9"><a xlink:href="InertiaNonLinearParametrization_8cpp.html" target="_top" xlink:title="InertiaNonLinearParametrization.cpp">
<polygon fill="none" stroke="#000000" points="4901.338,-62 4901.338,-81 5096.338,-81 5096.338,-62 4901.338,-62"/>
<text text-anchor="middle" x="4998.838" y="-69" font-family="FreeSans.ttf" font-size="10.00" fill="#000000">InertiaNonLinearParametrization.cpp</text>
</a>
</g>
</g>
<!-- Node33&#45;&gt;Node45 -->
<g id="edge8" class="edge">
<title>Node33&#45;&gt;Node45</title>
<path fill="none" stroke="#191970" d="M2899.9597,-123.3922C2901.2637,-123.2506 2902.5579,-123.1194 2903.838,-123 3784.1623,-40.8959 4011.6385,-159.108 4892.838,-87 4909.1501,-85.6652 4926.7731,-83.4165 4942.8781,-81.04"/>
<polygon fill="#191970" stroke="#191970" points="2899.3323,-119.9433 2889.8443,-124.658 2900.2015,-126.8892 2899.3323,-119.9433"/>
</g>
<!-- Node46 -->
<g id="node10" class="node">
<title>Node46</title>
<g id="a_node10"><a xlink:href="Rotation_8cpp.html" target="_top" xlink:title="Rotation.cpp">
<polygon fill="none" stroke="#000000" points="491.338,-62 491.338,-81 568.338,-81 568.338,-62 491.338,-62"/>
<text text-anchor="middle" x="529.838" y="-69" font-family="FreeSans.ttf" font-size="10.00" fill="#000000">Rotation.cpp</text>
</a>
</g>
</g>
<!-- Node33&#45;&gt;Node46 -->
<g id="edge9" class="edge">
<title>Node33&#45;&gt;Node46</title>
<path fill="none" stroke="#191970" d="M2789.538,-132.8429C2463.7894,-131.7892 801.79,-124.5944 577.838,-87 570.2381,-85.7242 562.1913,-83.494 554.9028,-81.1163"/>
<polygon fill="#191970" stroke="#191970" points="2789.6624,-136.3432 2799.6735,-132.8751 2789.6847,-129.3433 2789.6624,-136.3432"/>
</g>
<!-- Node33&#45;&gt;Node47 -->
<g id="edge10" class="edge">
<title>Node33&#45;&gt;Node47</title>
<path fill="none" stroke="#191970" d="M2789.6383,-132.837C2537.1774,-131.8845 1490.8924,-125.6363 1165.838,-87 1154.5163,-85.6543 1142.3522,-83.4022 1131.2628,-81.0259"/>
<polygon fill="#191970" stroke="#191970" points="2789.6624,-136.337 2799.6751,-132.8736 2789.688,-129.337 2789.6624,-136.337"/>
</g>
<!-- Node48 -->
<g id="node12" class="node">
<title>Node48</title>
<g id="a_node12"><a xlink:href="SpatialInertia_8cpp.html" target="_top" xlink:title="SpatialInertia.cpp">
<polygon fill="none" stroke="#000000" points="586.838,-62 586.838,-81 688.838,-81 688.838,-62 586.838,-62"/>
<text text-anchor="middle" x="637.838" y="-69" font-family="FreeSans.ttf" font-size="10.00" fill="#000000">SpatialInertia.cpp</text>
</a>
</g>
</g>
<!-- Node33&#45;&gt;Node48 -->
<g id="edge11" class="edge">
<title>Node33&#45;&gt;Node48</title>
<path fill="none" stroke="#191970" d="M2789.5209,-132.5801C2474.1815,-130.0842 910.214,-116.3036 697.838,-87 688.3527,-85.6912 678.2107,-83.419 669.0151,-81.0115"/>
<polygon fill="#191970" stroke="#191970" points="2789.7515,-136.0819 2799.7788,-132.6608 2789.8067,-129.0821 2789.7515,-136.0819"/>
</g>
<!-- Node49 -->
<g id="node13" class="node">
<title>Node49</title>
<g id="a_node13"><a xlink:href="TransformDerivative_8cpp.html" target="_top" xlink:title="TransformDerivative.cpp">
<polygon fill="none" stroke="#000000" points="5114.338,-62 5114.338,-81 5251.338,-81 5251.338,-62 5114.338,-62"/>
<text text-anchor="middle" x="5182.838" y="-69" font-family="FreeSans.ttf" font-size="10.00" fill="#000000">TransformDerivative.cpp</text>
</a>
</g>
</g>
<!-- Node33&#45;&gt;Node49 -->
<g id="edge13" class="edge">
<title>Node33&#45;&gt;Node49</title>
<path fill="none" stroke="#191970" d="M2899.9594,-123.3892C2901.2635,-123.2485 2902.5578,-123.1183 2903.838,-123 3391.1616,-77.9795 4619.2641,-139.507 5105.838,-87 5117.9041,-85.6979 5130.8872,-83.4278 5142.6911,-81.0201"/>
<polygon fill="#191970" stroke="#191970" points="2899.3339,-119.94 2889.8435,-124.6498 2900.1996,-126.8862 2899.3339,-119.94"/>
</g>
<!-- Node50 -->
<g id="node14" class="node">
<title>Node50</title>
<g id="a_node14"><a xlink:href="AttitudeEstimatorUtils_8h.html" target="_top" xlink:title="AttitudeEstimatorUtils.h">
<polygon fill="none" stroke="#ff0000" points="5269.838,-62 5269.838,-81 5403.838,-81 5403.838,-62 5269.838,-62"/>
<text text-anchor="middle" x="5336.838" y="-69" font-family="FreeSans.ttf" font-size="10.00" fill="#000000">AttitudeEstimatorUtils.h</text>
</a>
</g>
</g>
<!-- Node33&#45;&gt;Node50 -->
<g id="edge14" class="edge">
<title>Node33&#45;&gt;Node50</title>
<path fill="none" stroke="#191970" d="M2899.9592,-123.3873C2901.2633,-123.2472 2902.5577,-123.1176 2903.838,-123 3425.4815,-75.0917 4740.0642,-143.5846 5260.838,-87 5272.7526,-85.7054 5285.5686,-83.4376 5297.2192,-81.0296"/>
<polygon fill="#191970" stroke="#191970" points="2899.3349,-119.9379 2889.843,-124.6448 2900.1984,-126.8844 2899.3349,-119.9379"/>
</g>
<!-- Node54 -->
<g id="node15" class="node">
<title>Node54</title>
<g id="a_node15"><a xlink:href="GravityCompensationHelpers_8h.html" target="_top" xlink:title="GravityCompensationHelpers.h">
<polygon fill="none" stroke="#ff0000" points="5421.838,-62 5421.838,-81 5591.838,-81 5591.838,-62 5421.838,-62"/>
<text text-anchor="middle" x="5506.838" y="-69" font-family="FreeSans.ttf" font-size="10.00" fill="#000000">GravityCompensationHelpers.h</text>
</a>
</g>
</g>
<!-- Node33&#45;&gt;Node54 -->
<g id="edge15" class="edge">
<title>Node33&#45;&gt;Node54</title>
<path fill="none" stroke="#191970" d="M2899.9591,-123.3857C2901.2632,-123.246 2902.5577,-123.117 2903.838,-123 4014.4371,-21.5194 4302.0146,-185.9966 5412.838,-87 5427.5003,-85.6933 5443.329,-83.4218 5457.741,-81.0142"/>
<polygon fill="#191970" stroke="#191970" points="2899.3358,-119.9361 2889.8427,-124.6405 2900.1975,-126.8829 2899.3358,-119.9361"/>
</g>
<!-- Node56 -->
<g id="node16" class="node">
<title>Node56</title>
<g id="a_node16"><a xlink:href="KalmanFilter_8h.html" target="_top" xlink:title="KalmanFilter.h">
<polygon fill="none" stroke="#ff0000" points="1174.838,-62 1174.838,-81 1260.838,-81 1260.838,-62 1174.838,-62"/>
<text text-anchor="middle" x="1217.838" y="-69" font-family="FreeSans.ttf" font-size="10.00" fill="#000000">KalmanFilter.h</text>
</a>
</g>
</g>
<!-- Node33&#45;&gt;Node56 -->
<g id="edge16" class="edge">
<title>Node33&#45;&gt;Node56</title>
<path fill="none" stroke="#191970" d="M2789.5743,-132.2214C2528.2759,-128.4272 1423.0555,-111.0758 1270.838,-87 1262.5052,-85.682 1253.6385,-83.4386 1245.5896,-81.0617"/>
<polygon fill="#191970" stroke="#191970" points="2789.5412,-135.7212 2799.5908,-132.3662 2789.6425,-128.7219 2789.5412,-135.7212"/>
</g>
<!-- Node58 -->
<g id="node17" class="node">
<title>Node58</title>
<g id="a_node17"><a xlink:href="BerdyHelper_8cpp.html" target="_top" xlink:title="BerdyHelper.cpp">
<polygon fill="none" stroke="#000000" points="1279.338,-62 1279.338,-81 1376.338,-81 1376.338,-62 1279.338,-62"/>
<text text-anchor="middle" x="1327.838" y="-69" font-family="FreeSans.ttf" font-size="10.00" fill="#000000">BerdyHelper.cpp</text>
</a>
</g>
</g>
<!-- Node33&#45;&gt;Node58 -->
<g id="edge17" class="edge">
<title>Node33&#45;&gt;Node58</title>
<path fill="none" stroke="#191970" d="M2789.2484,-132.003C2539.3887,-127.4192 1526.3364,-107.7069 1385.838,-87 1376.7639,-85.6626 1367.0748,-83.4132 1358.2656,-81.0367"/>
<polygon fill="#191970" stroke="#191970" points="2789.4755,-135.5076 2799.5378,-132.1911 2789.6035,-128.5088 2789.4755,-135.5076"/>
</g>
<!-- Node59 -->
<g id="node18" class="node">
<title>Node59</title>
<g id="a_node18"><a xlink:href="BerdySparseMAPSolver_8cpp.html" target="_top" xlink:title="BerdySparseMAPSolver.cpp">
<polygon fill="none" stroke="#000000" points="1495.338,-62 1495.338,-81 1644.338,-81 1644.338,-62 1495.338,-62"/>
<text text-anchor="middle" x="1569.838" y="-69" font-family="FreeSans.ttf" font-size="10.00" fill="#000000">BerdySparseMAPSolver.cpp</text>
</a>
</g>
</g>
<!-- Node33&#45;&gt;Node59 -->
<g id="edge18" class="edge">
<title>Node33&#45;&gt;Node59</title>
<path fill="none" stroke="#191970" d="M2789.6432,-131.9237C2586.1846,-127.7916 1878.3479,-111.9184 1653.838,-87 1641.1624,-85.5931 1627.5235,-83.3823 1614.999,-81.0664"/>
<polygon fill="#191970" stroke="#191970" points="2789.7245,-135.4259 2799.7932,-132.1285 2789.8659,-128.4273 2789.7245,-135.4259"/>
</g>
<!-- Node60 -->
<g id="node19" class="node">
<title>Node60</title>
<g id="a_node19"><a xlink:href="ExtendedKalmanFilter_8cpp.html" target="_top" xlink:title="ExtendedKalmanFilter.cpp">
<polygon fill="none" stroke="#000000" points="1662.338,-62 1662.338,-81 1805.338,-81 1805.338,-62 1662.338,-62"/>
<text text-anchor="middle" x="1733.838" y="-69" font-family="FreeSans.ttf" font-size="10.00" fill="#000000">ExtendedKalmanFilter.cpp</text>
</a>
</g>
</g>
<!-- Node33&#45;&gt;Node60 -->
<g id="edge19" class="edge">
<title>Node33&#45;&gt;Node60</title>
<path fill="none" stroke="#191970" d="M2789.5367,-131.5854C2604.2417,-126.68 2006.219,-109.4655 1814.838,-87 1802.6088,-85.5645 1789.4549,-83.3442 1777.3777,-81.0284"/>
<polygon fill="#191970" stroke="#191970" points="2789.5091,-135.0858 2799.5979,-131.8504 2789.6935,-128.0882 2789.5091,-135.0858"/>
</g>
<!-- Node61 -->
<g id="node20" class="node">
<title>Node61</title>
<g id="a_node20"><a xlink:href="ExternalWrenchesEstimation_8cpp.html" target="_top" xlink:title="ExternalWrenchesEstimation.cpp">
<polygon fill="none" stroke="#000000" points="16.338,-62 16.338,-81 193.338,-81 193.338,-62 16.338,-62"/>
<text text-anchor="middle" x="104.838" y="-69" font-family="FreeSans.ttf" font-size="10.00" fill="#000000">ExternalWrenchesEstimation.cpp</text>
</a>
</g>
</g>
<!-- Node33&#45;&gt;Node61 -->
<g id="edge20" class="edge">
<title>Node33&#45;&gt;Node61</title>
<path fill="none" stroke="#191970" d="M2789.7733,-132.509C2434.1201,-129.2761 467.7912,-110.4453 201.838,-87 186.8036,-85.6746 170.5715,-83.4132 155.7666,-81.0213"/>
<polygon fill="#191970" stroke="#191970" points="2789.7911,-136.0093 2799.8224,-132.6001 2789.8546,-129.0095 2789.7911,-136.0093"/>
</g>
<!-- Node62 -->
<g id="node21" class="node">
<title>Node62</title>
<g id="a_node21"><a xlink:href="ExtWrenchesAndJointTorquesEstimator_8cpp.html" target="_top" xlink:title="ExtWrenchesAndJointTorques\lEstimator.cpp">
<polygon fill="none" stroke="#000000" points="210.838,-56.5 210.838,-86.5 368.838,-86.5 368.838,-56.5 210.838,-56.5"/>
<text text-anchor="start" x="218.838" y="-74.5" font-family="FreeSans.ttf" font-size="10.00" fill="#000000">ExtWrenchesAndJointTorques</text>
<text text-anchor="middle" x="289.838" y="-63.5" font-family="FreeSans.ttf" font-size="10.00" fill="#000000">Estimator.cpp</text>
</a>
</g>
</g>
<!-- Node33&#45;&gt;Node62 -->
<g id="edge21" class="edge">
<title>Node33&#45;&gt;Node62</title>
<path fill="none" stroke="#191970" d="M2789.4322,-132.4851C2446.9637,-129.2339 624.9106,-110.9158 377.838,-87 374.9042,-86.716 371.9212,-86.3888 368.9124,-86.0264"/>
<polygon fill="#191970" stroke="#191970" points="2789.5637,-135.9864 2799.5964,-132.5813 2789.63,-128.9867 2789.5637,-135.9864"/>
</g>
<!-- Node63 -->
<g id="node22" class="node">
<title>Node63</title>
<g id="a_node22"><a xlink:href="SimpleLeggedOdometry_8cpp.html" target="_top" xlink:title="SimpleLeggedOdometry.cpp">
<polygon fill="none" stroke="#000000" points="1823.338,-62 1823.338,-81 1976.338,-81 1976.338,-62 1823.338,-62"/>
<text text-anchor="middle" x="1899.838" y="-69" font-family="FreeSans.ttf" font-size="10.00" fill="#000000">SimpleLeggedOdometry.cpp</text>
</a>
</g>
</g>
<!-- Node33&#45;&gt;Node63 -->
<g id="edge22" class="edge">
<title>Node33&#45;&gt;Node63</title>
<path fill="none" stroke="#191970" d="M2789.2616,-132.4228C2652.2781,-130.4795 2287.6424,-122.1393 1985.838,-87 1973.0291,-85.5086 1959.245,-83.2989 1946.5455,-81.0121"/>
<polygon fill="#191970" stroke="#191970" points="2789.4523,-135.9257 2799.499,-132.5621 2789.5476,-128.9263 2789.4523,-135.9257"/>
</g>
<!-- Node64 -->
<g id="node23" class="node">
<title>Node64</title>
<g id="a_node23"><a xlink:href="KinDynComputations_8cpp.html" target="_top" xlink:title="KinDynComputations.cpp">
<polygon fill="none" stroke="#000000" points="706.838,-62 706.838,-81 846.838,-81 846.838,-62 706.838,-62"/>
<text text-anchor="middle" x="776.838" y="-69" font-family="FreeSans.ttf" font-size="10.00" fill="#000000">KinDynComputations.cpp</text>
</a>
</g>
</g>
<!-- Node33&#45;&gt;Node64 -->
<g id="edge23" class="edge">
<title>Node33&#45;&gt;Node64</title>
<path fill="none" stroke="#191970" d="M2789.3376,-132.2824C2487.7541,-128.3071 1052.3442,-108.3915 855.838,-87 843.6106,-85.6689 830.4546,-83.4214 818.4533,-81.0448"/>
<polygon fill="#191970" stroke="#191970" points="2789.5385,-135.7852 2799.5836,-132.417 2789.6305,-128.7858 2789.5385,-135.7852"/>
</g>
<!-- Node65 -->
<g id="node24" class="node">
<title>Node65</title>
<g id="a_node24"><a xlink:href="BoundingBoxHelpers_8cpp.html" target="_top" xlink:title="BoundingBoxHelpers.cpp">
<polygon fill="none" stroke="#000000" points="1994.338,-62 1994.338,-81 2133.338,-81 2133.338,-62 1994.338,-62"/>
<text text-anchor="middle" x="2063.838" y="-69" font-family="FreeSans.ttf" font-size="10.00" fill="#000000">BoundingBoxHelpers.cpp</text>
</a>
</g>
</g>
<!-- Node33&#45;&gt;Node65 -->
<g id="edge24" class="edge">
<title>Node33&#45;&gt;Node65</title>
<path fill="none" stroke="#191970" d="M2789.1588,-131.7767C2670.0915,-128.6291 2382.0809,-118.1776 2142.838,-87 2131.1959,-85.4828 2118.6884,-83.2925 2107.1367,-81.0341"/>
<polygon fill="#191970" stroke="#191970" points="2789.3851,-135.2836 2799.4719,-132.0421 2789.5653,-128.2859 2789.3851,-135.2836"/>
</g>
<!-- Node66 -->
<g id="node25" class="node">
<title>Node66</title>
<g id="a_node25"><a xlink:href="ConvexHullHelpers_8cpp.html" target="_top" xlink:title="ConvexHullHelpers.cpp">
<polygon fill="none" stroke="#000000" points="2151.338,-62 2151.338,-81 2282.338,-81 2282.338,-62 2151.338,-62"/>
<text text-anchor="middle" x="2216.838" y="-69" font-family="FreeSans.ttf" font-size="10.00" fill="#000000">ConvexHullHelpers.cpp</text>
</a>
</g>
</g>
<!-- Node33&#45;&gt;Node66 -->
<g id="edge25" class="edge">
<title>Node33&#45;&gt;Node66</title>
<path fill="none" stroke="#191970" d="M2789.6854,-130.6218C2689.9241,-125.8296 2473.0265,-113.161 2291.838,-87 2280.9156,-85.423 2269.1918,-83.2392 2258.3345,-81.0079"/>
<polygon fill="#191970" stroke="#191970" points="2789.6759,-134.1252 2799.83,-131.1012 2790.0064,-127.133 2789.6759,-134.1252"/>
</g>
<!-- Node67 -->
<g id="node26" class="node">
<title>Node67</title>
<g id="a_node26"><a xlink:href="InverseKinematics_8cpp.html" target="_top" xlink:title="InverseKinematics.cpp">
<polygon fill="none" stroke="#000000" points="2300.838,-62 2300.838,-81 2428.838,-81 2428.838,-62 2300.838,-62"/>
<text text-anchor="middle" x="2364.838" y="-69" font-family="FreeSans.ttf" font-size="10.00" fill="#000000">InverseKinematics.cpp</text>
</a>
</g>
</g>
<!-- Node33&#45;&gt;Node67 -->
<g id="edge26" class="edge">
<title>Node33&#45;&gt;Node67</title>
<path fill="none" stroke="#191970" d="M2789.4626,-128.3824C2711.1016,-121.4722 2563.5058,-107.0737 2438.838,-87 2428.4707,-85.3307 2417.3564,-83.191 2406.9744,-81.038"/>
<polygon fill="#191970" stroke="#191970" points="2789.3235,-131.8835 2799.5903,-129.2677 2789.9331,-124.91 2789.3235,-131.8835"/>
</g>
<!-- Node68 -->
<g id="node27" class="node">
<title>Node68</title>
<g id="a_node27"><a xlink:href="InverseKinematicsData_8cpp.html" target="_top" xlink:title="InverseKinematicsData.cpp">
<polygon fill="none" stroke="#000000" points="2447.338,-62 2447.338,-81 2598.338,-81 2598.338,-62 2447.338,-62"/>
<text text-anchor="middle" x="2522.838" y="-69" font-family="FreeSans.ttf" font-size="10.00" fill="#000000">InverseKinematicsData.cpp</text>
</a>
</g>
</g>
<!-- Node33&#45;&gt;Node68 -->
<g id="edge27" class="edge">
<title>Node33&#45;&gt;Node68</title>
<path fill="none" stroke="#191970" d="M2789.9,-122.5072C2728.9526,-110.8666 2631.4745,-92.2489 2572.666,-81.0168"/>
<polygon fill="#191970" stroke="#191970" points="2789.2471,-125.9457 2799.7262,-124.3839 2790.5604,-119.07 2789.2471,-125.9457"/>
</g>
<!-- Node69 -->
<g id="node28" class="node">
<title>Node69</title>
<g id="a_node28"><a xlink:href="InverseKinematicsNLP_8cpp.html" target="_top" xlink:title="InverseKinematicsNLP.cpp">
<polygon fill="none" stroke="#000000" points="2616.338,-62 2616.338,-81 2761.338,-81 2761.338,-62 2616.338,-62"/>
<text text-anchor="middle" x="2688.838" y="-69" font-family="FreeSans.ttf" font-size="10.00" fill="#000000">InverseKinematicsNLP.cpp</text>
</a>
</g>
</g>
<!-- Node33&#45;&gt;Node69 -->
<g id="edge28" class="edge">
<title>Node33&#45;&gt;Node69</title>
<path fill="none" stroke="#191970" d="M2810.9688,-119.6477C2781.4291,-108.0023 2739.3037,-91.3952 2713.0418,-81.0419"/>
<polygon fill="#191970" stroke="#191970" points="2809.8761,-122.9791 2820.463,-123.3906 2812.4435,-116.4669 2809.8761,-122.9791"/>
</g>
<!-- Node70 -->
<g id="node29" class="node">
<title>Node70</title>
<g id="a_node29"><a xlink:href="DenavitHartenberg_8cpp.html" target="_top" xlink:title="DenavitHartenberg.cpp">
<polygon fill="none" stroke="#000000" points="2779.838,-62 2779.838,-81 2909.838,-81 2909.838,-62 2779.838,-62"/>
<text text-anchor="middle" x="2844.838" y="-69" font-family="FreeSans.ttf" font-size="10.00" fill="#000000">DenavitHartenberg.cpp</text>
</a>
</g>
</g>
<!-- Node33&#45;&gt;Node70 -->
<g id="edge29" class="edge">
<title>Node33&#45;&gt;Node70</title>
<path fill="none" stroke="#191970" d="M2844.838,-113.2462C2844.838,-102.5519 2844.838,-89.814 2844.838,-81.2449"/>
<polygon fill="#191970" stroke="#191970" points="2841.3381,-113.3906 2844.838,-123.3906 2848.3381,-113.3907 2841.3381,-113.3906"/>
</g>
<!-- Node71 -->
<g id="node30" class="node">
<title>Node71</title>
<g id="a_node30"><a xlink:href="Dynamics_8cpp.html" target="_top" xlink:title="Dynamics.cpp">
<polygon fill="none" stroke="#000000" points="386.838,-62 386.838,-81 472.838,-81 472.838,-62 386.838,-62"/>
<text text-anchor="middle" x="429.838" y="-69" font-family="FreeSans.ttf" font-size="10.00" fill="#000000">Dynamics.cpp</text>
</a>
</g>
</g>
<!-- Node33&#45;&gt;Node71 -->
<g id="edge30" class="edge">
<title>Node33&#45;&gt;Node71</title>
<path fill="none" stroke="#191970" d="M2789.3729,-132.8172C2455.1726,-131.5967 716.2151,-123.5209 481.838,-87 473.5539,-85.7092 464.7448,-83.4425 456.7771,-81.0344"/>
<polygon fill="#191970" stroke="#191970" points="2789.7468,-136.3185 2799.7593,-132.8546 2789.772,-129.3185 2789.7468,-136.3185"/>
</g>
<!-- Node72 -->
<g id="node31" class="node">
<title>Node72</title>
<g id="a_node31"><a xlink:href="DynamicsLinearization_8cpp.html" target="_top" xlink:title="DynamicsLinearization.cpp">
<polygon fill="none" stroke="#000000" points="2928.338,-62 2928.338,-81 3077.338,-81 3077.338,-62 2928.338,-62"/>
<text text-anchor="middle" x="3002.838" y="-69" font-family="FreeSans.ttf" font-size="10.00" fill="#000000">DynamicsLinearization.cpp</text>
</a>
</g>
</g>
<!-- Node33&#45;&gt;Node72 -->
<g id="edge31" class="edge">
<title>Node33&#45;&gt;Node72</title>
<path fill="none" stroke="#191970" d="M2879.1414,-119.6477C2909.0598,-108.0023 2951.7252,-91.3952 2978.3238,-81.0419"/>
<polygon fill="#191970" stroke="#191970" points="2877.5748,-116.5016 2869.5255,-123.3906 2880.114,-123.0249 2877.5748,-116.5016"/>
</g>
<!-- Node73 -->
<g id="node32" class="node">
<title>Node73</title>
<g id="a_node32"><a xlink:href="DynamicsLinearizationHelpers_8cpp.html" target="_top" xlink:title="DynamicsLinearizationHelpers.cpp">
<polygon fill="none" stroke="#000000" points="3094.838,-62 3094.838,-81 3280.838,-81 3280.838,-62 3094.838,-62"/>
<text text-anchor="middle" x="3187.838" y="-69" font-family="FreeSans.ttf" font-size="10.00" fill="#000000">DynamicsLinearizationHelpers.cpp</text>
</a>
</g>
</g>
<!-- Node33&#45;&gt;Node73 -->
<g id="edge32" class="edge">
<title>Node33&#45;&gt;Node73</title>
<path fill="none" stroke="#191970" d="M2900.0319,-123.1037C2964.6477,-111.5181 3070.9164,-92.4641 3134.6536,-81.036"/>
<polygon fill="#191970" stroke="#191970" points="2899.2572,-119.6867 2890.0319,-124.8967 2900.4927,-126.5768 2899.2572,-119.6867"/>
</g>
<!-- Node74 -->
<g id="node33" class="node">
<title>Node74</title>
<g id="a_node33"><a xlink:href="Jacobians_8cpp.html" target="_top" xlink:title="Jacobians.cpp">
<polygon fill="none" stroke="#000000" points="3299.338,-62 3299.338,-81 3382.338,-81 3382.338,-62 3299.338,-62"/>
<text text-anchor="middle" x="3340.838" y="-69" font-family="FreeSans.ttf" font-size="10.00" fill="#000000">Jacobians.cpp</text>
</a>
</g>
</g>
<!-- Node33&#45;&gt;Node74 -->
<g id="edge33" class="edge">
<title>Node33&#45;&gt;Node74</title>
<path fill="none" stroke="#191970" d="M2899.9743,-123.5222C2901.2739,-123.3417 2902.5632,-123.1672 2903.838,-123 3074.6742,-100.5879 3120.7709,-120.2208 3289.838,-87 3297.4655,-85.5012 3305.5785,-83.3172 3313.037,-81.059"/>
<polygon fill="#191970" stroke="#191970" points="2899.267,-120.0885 2889.8835,-125.008 2900.2867,-127.0139 2899.267,-120.0885"/>
</g>
<!-- Node75 -->
<g id="node34" class="node">
<title>Node75</title>
<g id="a_node34"><a xlink:href="Model_8cpp.html" target="_top" xlink:title="Model.cpp">
<polygon fill="none" stroke="#000000" points="3400.838,-62 3400.838,-81 3466.838,-81 3466.838,-62 3400.838,-62"/>
<text text-anchor="middle" x="3433.838" y="-69" font-family="FreeSans.ttf" font-size="10.00" fill="#000000">Model.cpp</text>
</a>
</g>
</g>
<!-- Node33&#45;&gt;Node75 -->
<g id="edge34" class="edge">
<title>Node33&#45;&gt;Node75</title>
<path fill="none" stroke="#191970" d="M2899.9701,-123.4887C2901.2709,-123.3182 2902.5617,-123.1549 2903.838,-123 3119.7322,-96.7997 3179.3016,-133.0987 3391.838,-87 3398.3703,-85.5831 3405.2536,-83.369 3411.5149,-81.0532"/>
<polygon fill="#191970" stroke="#191970" points="2899.283,-120.0509 2889.8721,-124.9177 2900.2639,-126.9819 2899.283,-120.0509"/>
</g>
<!-- Node76 -->
<g id="node35" class="node">
<title>Node76</title>
<g id="a_node35"><a xlink:href="URDFModelExport_8cpp.html" target="_top" xlink:title="URDFModelExport.cpp">
<polygon fill="none" stroke="#000000" points="3485.338,-62 3485.338,-81 3610.338,-81 3610.338,-62 3485.338,-62"/>
<text text-anchor="middle" x="3547.838" y="-69" font-family="FreeSans.ttf" font-size="10.00" fill="#000000">URDFModelExport.cpp</text>
</a>
</g>
</g>
<!-- Node33&#45;&gt;Node76 -->
<g id="edge35" class="edge">
<title>Node33&#45;&gt;Node76</title>
<path fill="none" stroke="#191970" d="M2899.9678,-123.47C2901.2694,-123.3051 2902.5609,-123.148 2903.838,-123 3156.8697,-93.6762 3223.5151,-121.9013 3475.838,-87 3486.6039,-85.5109 3498.1582,-83.3018 3508.7904,-81.0151"/>
<polygon fill="#191970" stroke="#191970" points="2899.2922,-120.03 2889.8662,-124.8673 2900.2515,-126.964 2899.2922,-120.03"/>
</g>
<!-- Node77 -->
<g id="node36" class="node">
<title>Node77</title>
<g id="a_node36"><a xlink:href="AlglibInterface_8cpp.html" target="_top" xlink:title="AlglibInterface.cpp">
<polygon fill="none" stroke="#000000" points="3628.838,-62 3628.838,-81 3736.838,-81 3736.838,-62 3628.838,-62"/>
<text text-anchor="middle" x="3682.838" y="-69" font-family="FreeSans.ttf" font-size="10.00" fill="#000000">AlglibInterface.cpp</text>
</a>
</g>
</g>
<!-- Node33&#45;&gt;Node77 -->
<g id="edge36" class="edge">
<title>Node33&#45;&gt;Node77</title>
<path fill="none" stroke="#191970" d="M2899.9654,-123.4481C2901.2676,-123.2897 2902.56,-123.1399 2903.838,-123 3220.569,-88.3176 3304.5915,-133.2717 3619.838,-87 3629.422,-85.5933 3639.6766,-83.3824 3649.0696,-81.0665"/>
<polygon fill="#191970" stroke="#191970" points="2899.3032,-120.0055 2889.8595,-124.8084 2900.2371,-126.943 2899.3032,-120.0055"/>
</g>
<!-- Node78 -->
<g id="node37" class="node">
<title>Node78</title>
<g id="a_node37"><a xlink:href="ConstraintsGroup_8cpp.html" target="_top" xlink:title="ConstraintsGroup.cpp">
<polygon fill="none" stroke="#000000" points="3754.838,-62 3754.838,-81 3876.838,-81 3876.838,-62 3754.838,-62"/>
<text text-anchor="middle" x="3815.838" y="-69" font-family="FreeSans.ttf" font-size="10.00" fill="#000000">ConstraintsGroup.cpp</text>
</a>
</g>
</g>
<!-- Node33&#45;&gt;Node78 -->
<g id="edge37" class="edge">
<title>Node33&#45;&gt;Node78</title>
<path fill="none" stroke="#191970" d="M2899.964,-123.435C2901.2666,-123.2806 2902.5594,-123.1351 2903.838,-123 3276.3269,-83.6265 3374.4501,-135.6755 3745.838,-87 3756.5752,-85.5927 3768.099,-83.3518 3778.6347,-81.0064"/>
<polygon fill="#191970" stroke="#191970" points="2899.3098,-119.991 2889.8557,-124.7733 2900.2286,-126.9304 2899.3098,-119.991"/>
</g>
<!-- Node79 -->
<g id="node38" class="node">
<title>Node79</title>
<g id="a_node38"><a xlink:href="FixedStepIntegrator_8cpp.html" target="_top" xlink:title="FixedStepIntegrator.cpp">
<polygon fill="none" stroke="#000000" points="3895.338,-62 3895.338,-81 4026.338,-81 4026.338,-62 3895.338,-62"/>
<text text-anchor="middle" x="3960.838" y="-69" font-family="FreeSans.ttf" font-size="10.00" fill="#000000">FixedStepIntegrator.cpp</text>
</a>
</g>
</g>
<!-- Node33&#45;&gt;Node79 -->
<g id="edge38" class="edge">
<title>Node33&#45;&gt;Node79</title>
<path fill="none" stroke="#191970" d="M2899.9629,-123.4245C2901.2659,-123.2732 2902.559,-123.1313 2903.838,-123 3338.2936,-78.4128 3452.2526,-139.3784 3885.838,-87 3897.322,-85.6127 3909.6625,-83.3782 3920.951,-81.0325"/>
<polygon fill="#191970" stroke="#191970" points="2899.3153,-119.9792 2889.8528,-124.7448 2900.2218,-126.9203 2899.3153,-119.9792"/>
</g>
<!-- Node80 -->
<g id="node39" class="node">
<title>Node80</title>
<g id="a_node39"><a xlink:href="ForwardEuler_8cpp.html" target="_top" xlink:title="ForwardEuler.cpp">
<polygon fill="none" stroke="#000000" points="4044.838,-62 4044.838,-81 4144.838,-81 4144.838,-62 4044.838,-62"/>
<text text-anchor="middle" x="4094.838" y="-69" font-family="FreeSans.ttf" font-size="10.00" fill="#000000">ForwardEuler.cpp</text>
</a>
</g>
</g>
<!-- Node33&#45;&gt;Node80 -->
<g id="edge39" class="edge">
<title>Node33&#45;&gt;Node80</title>
<path fill="none" stroke="#191970" d="M2899.962,-123.416C2901.2653,-123.2673 2902.5587,-123.1282 2903.838,-123 3404.6966,-72.8256 3537.7076,-159.4082 4035.838,-87 4045.0608,-85.6594 4054.9146,-83.4089 4063.8758,-81.0325"/>
<polygon fill="#191970" stroke="#191970" points="2899.3197,-119.9698 2889.8505,-124.7221 2900.2165,-126.9122 2899.3197,-119.9698"/>
</g>
<!-- Node81 -->
<g id="node40" class="node">
<title>Node81</title>
<g id="a_node40"><a xlink:href="ImplicitTrapezoidal_8cpp.html" target="_top" xlink:title="ImplicitTrapezoidal.cpp">
<polygon fill="none" stroke="#000000" points="4163.338,-62 4163.338,-81 4292.338,-81 4292.338,-62 4163.338,-62"/>
<text text-anchor="middle" x="4227.838" y="-69" font-family="FreeSans.ttf" font-size="10.00" fill="#000000">ImplicitTrapezoidal.cpp</text>
</a>
</g>
</g>
<!-- Node33&#45;&gt;Node81 -->
<g id="edge40" class="edge">
<title>Node33&#45;&gt;Node81</title>
<path fill="none" stroke="#191970" d="M2899.9615,-123.4108C2901.2649,-123.2636 2902.5585,-123.1262 2903.838,-123 3456.9384,-68.4299 3601.893,-152.2282 4153.838,-87 4165.309,-85.6444 4177.6379,-83.3892 4188.8793,-81.0131"/>
<polygon fill="#191970" stroke="#191970" points="2899.3224,-119.964 2889.8491,-124.7081 2900.2132,-126.9071 2899.3224,-119.964"/>
</g>
<!-- Node82 -->
<g id="node41" class="node">
<title>Node82</title>
<g id="a_node41"><a xlink:href="Integrator_8cpp.html" target="_top" xlink:title="Integrator.cpp">
<polygon fill="none" stroke="#000000" points="4310.838,-62 4310.838,-81 4394.838,-81 4394.838,-62 4310.838,-62"/>
<text text-anchor="middle" x="4352.838" y="-69" font-family="FreeSans.ttf" font-size="10.00" fill="#000000">Integrator.cpp</text>
</a>
</g>
</g>
<!-- Node33&#45;&gt;Node82 -->
<g id="edge41" class="edge">
<title>Node33&#45;&gt;Node82</title>
<path fill="none" stroke="#191970" d="M2899.961,-123.4055C2901.2646,-123.2599 2902.5583,-123.1243 2903.838,-123 3213.1522,-92.9581 3995.0574,-136.6334 4301.838,-87 4309.9684,-85.6846 4318.6097,-83.4104 4326.424,-81.0031"/>
<polygon fill="#191970" stroke="#191970" points="2899.3252,-119.9581 2889.8477,-124.6938 2900.2098,-126.902 2899.3252,-119.9581"/>
</g>
<!-- Node83 -->
<g id="node42" class="node">
<title>Node83</title>
<g id="a_node42"><a xlink:href="IpoptInterface_8cpp.html" target="_top" xlink:title="IpoptInterface.cpp">
<polygon fill="none" stroke="#000000" points="4413.338,-62 4413.338,-81 4518.338,-81 4518.338,-62 4413.338,-62"/>
<text text-anchor="middle" x="4465.838" y="-69" font-family="FreeSans.ttf" font-size="10.00" fill="#000000">IpoptInterface.cpp</text>
</a>
</g>
</g>
<!-- Node33&#45;&gt;Node83 -->
<g id="edge42" class="edge">
<title>Node33&#45;&gt;Node83</title>
<path fill="none" stroke="#191970" d="M2899.9607,-123.4025C2901.2643,-123.2578 2902.5582,-123.1232 2903.838,-123 3567.6296,-59.1159 3743.0009,-176.4137 4403.838,-87 4413.5136,-85.6909 4423.8633,-83.4502 4433.2805,-81.0732"/>
<polygon fill="#191970" stroke="#191970" points="2899.3268,-119.9547 2889.8469,-124.6856 2900.2079,-126.8991 2899.3268,-119.9547"/>
</g>
<!-- Node84 -->
<g id="node43" class="node">
<title>Node84</title>
<g id="a_node43"><a xlink:href="L2NormCost_8cpp.html" target="_top" xlink:title="L2NormCost.cpp">
<polygon fill="none" stroke="#000000" points="4536.338,-62 4536.338,-81 4633.338,-81 4633.338,-62 4536.338,-62"/>
<text text-anchor="middle" x="4584.838" y="-69" font-family="FreeSans.ttf" font-size="10.00" fill="#000000">L2NormCost.cpp</text>
</a>
</g>
</g>
<!-- Node33&#45;&gt;Node84 -->
<g id="edge43" class="edge">
<title>Node33&#45;&gt;Node84</title>
<path fill="none" stroke="#191970" d="M2899.9604,-123.3993C2901.2641,-123.2556 2902.5581,-123.122 2903.838,-123 3263.1868,-88.748 4170.5881,-138.743 4527.838,-87 4536.8708,-85.6917 4546.5123,-83.4197 4555.2475,-81.0121"/>
<polygon fill="#191970" stroke="#191970" points="2899.3285,-119.9512 2889.8461,-124.6771 2900.2059,-126.896 2899.3285,-119.9512"/>
</g>
<!-- Node34&#45;&gt;Node36 -->
<g id="edge3" class="edge">
<title>Node34&#45;&gt;Node36</title>
<path fill="none" stroke="#191970" d="M1399.4155,-59.1409C1394.8823,-57.92 1390.2798,-56.8286 1385.838,-56 1269.4159,-34.2821 916.889,-18.1687 773.9875,-12.3598"/>
<polygon fill="#191970" stroke="#191970" points="1398.5597,-62.5369 1409.1393,-61.9686 1400.5144,-55.8154 1398.5597,-62.5369"/>
</g>
<!-- Node34&#45;&gt;Node38 -->
<g id="edge4" class="edge">
<title>Node34&#45;&gt;Node38</title>
<path fill="none" stroke="#191970" d="M1472.0872,-59.1329C1476.9961,-57.8569 1482.0062,-56.7538 1486.838,-56 1645.6474,-31.2231 4150.8314,-13.4088 4594.8345,-10.4383"/>
<polygon fill="#191970" stroke="#191970" points="1470.9004,-55.8317 1462.2426,-61.9385 1472.819,-62.5637 1470.9004,-55.8317"/>
</g>
<!-- Node107&#45;&gt;Node46 -->
<g id="edge45" class="edge">
<title>Node107&#45;&gt;Node46</title>
<path fill="none" stroke="#191970" d="M507.5925,-114.253C513.2601,-103.3606 520.1679,-90.0846 524.7675,-81.2449"/>
<polygon fill="#191970" stroke="#191970" points="504.349,-112.9041 502.838,-123.3906 510.5587,-116.1352 504.349,-112.9041"/>
</g>
<!-- Node107&#45;&gt;Node48 -->
<g id="edge46" class="edge">
<title>Node107&#45;&gt;Node48</title>
<path fill="none" stroke="#191970" d="M528.9275,-119.3428C555.3997,-107.7139 592.7531,-91.3051 616.1166,-81.0419"/>
<polygon fill="#191970" stroke="#191970" points="527.4609,-116.1642 519.713,-123.3906 530.2762,-122.5731 527.4609,-116.1642"/>
</g>
<!-- Node107&#45;&gt;Node61 -->
<g id="edge47" class="edge">
<title>Node107&#45;&gt;Node61</title>
<path fill="none" stroke="#191970" d="M430.1468,-122.5648C370.1432,-113.2945 280.1447,-99.341 201.838,-87 189.6246,-85.0752 176.5492,-82.9974 164.0796,-81.0078"/>
<polygon fill="#191970" stroke="#191970" points="429.8344,-126.0579 440.2515,-124.1254 430.9029,-119.14 429.8344,-126.0579"/>
</g>
<!-- Node107&#45;&gt;Node62 -->
<g id="edge48" class="edge">
<title>Node107&#45;&gt;Node62</title>
<path fill="none" stroke="#191970" d="M455.4797,-120.4758C422.2703,-110.6567 375.9405,-96.9582 340.7205,-86.5446"/>
<polygon fill="#191970" stroke="#191970" points="454.756,-123.9115 465.338,-123.3906 456.7408,-117.1988 454.756,-123.9115"/>
</g>
<!-- Node107&#45;&gt;Node71 -->
<g id="edge49" class="edge">
<title>Node107&#45;&gt;Node71</title>
<path fill="none" stroke="#191970" d="M479.6473,-116.5482C467.188,-105.2798 451.085,-90.716 440.6128,-81.2449"/>
<polygon fill="#191970" stroke="#191970" points="477.4486,-119.2787 487.213,-123.3906 482.144,-114.0871 477.4486,-119.2787"/>
</g>
<!-- Node197&#45;&gt;Node42 -->
<g id="edge51" class="edge">
<title>Node197&#45;&gt;Node42</title>
<path fill="none" stroke="#191970" d="M811.3958,-119.7993C841.9008,-108.1468 885.6369,-91.4402 912.8584,-81.0419"/>
<polygon fill="#191970" stroke="#191970" points="810.0869,-116.5526 801.9942,-123.3906 812.5848,-123.0917 810.0869,-116.5526"/>
</g>
<!-- Node197&#45;&gt;Node46 -->
<g id="edge52" class="edge">
<title>Node197&#45;&gt;Node46</title>
<path fill="none" stroke="#191970" d="M735.5921,-124.5387C695.166,-115.9939 631.9155,-101.9522 577.838,-87 571.3389,-85.203 564.4069,-83.0848 557.8904,-81.0011"/>
<polygon fill="#191970" stroke="#191970" points="735.1034,-128.0124 745.6093,-126.6422 736.542,-121.1618 735.1034,-128.0124"/>
</g>
<!-- Node197&#45;&gt;Node48 -->
<g id="edge53" class="edge">
<title>Node197&#45;&gt;Node48</title>
<path fill="none" stroke="#191970" d="M745.9705,-119.3428C719.6874,-107.7139 682.6008,-91.3051 659.4042,-81.0419"/>
<polygon fill="#191970" stroke="#191970" points="744.5582,-122.5452 755.1192,-123.3906 747.3905,-116.1437 744.5582,-122.5452"/>
</g>
<!-- Node197&#45;&gt;Node64 -->
<g id="edge54" class="edge">
<title>Node197&#45;&gt;Node64</title>
<path fill="none" stroke="#191970" d="M776.838,-113.2462C776.838,-102.5519 776.838,-89.814 776.838,-81.2449"/>
<polygon fill="#191970" stroke="#191970" points="773.3381,-113.3906 776.838,-123.3906 780.3381,-113.3907 773.3381,-113.3906"/>
</g>
<!-- Node229&#45;&gt;Node61 -->
<g id="edge63" class="edge">
<title>Node229&#45;&gt;Node61</title>
<path fill="none" stroke="#191970" d="M278.166,-120.6229C236.9643,-108.9459 176.0695,-91.6877 138.5061,-81.0419"/>
<polygon fill="#191970" stroke="#191970" points="277.3563,-124.0312 287.9317,-123.3906 279.265,-117.2965 277.3563,-124.0312"/>
</g>
<!-- Node229&#45;&gt;Node62 -->
<g id="edge64" class="edge">
<title>Node229&#45;&gt;Node62</title>
<path fill="none" stroke="#191970" d="M312.222,-114.5193C307.5701,-105.5789 302.0569,-94.9832 297.6661,-86.5446"/>
<polygon fill="#191970" stroke="#191970" points="309.1173,-116.1352 316.838,-123.3906 315.327,-112.9041 309.1173,-116.1352"/>
</g>
<!-- Node229&#45;&gt;Node71 -->
<g id="edge65" class="edge">
<title>Node229&#45;&gt;Node71</title>
<path fill="none" stroke="#191970" d="M347.4506,-118.415C367.7519,-106.8546 395.5325,-91.035 413.0815,-81.0419"/>
<polygon fill="#191970" stroke="#191970" points="345.6709,-115.4007 338.713,-123.3906 349.1348,-121.4836 345.6709,-115.4007"/>
</g>
</g>
</svg>
