<?xml version="1.0" encoding="UTF-8" standalone="no"?>
<!DOCTYPE svg PUBLIC "-//W3C//DTD SVG 1.1//EN"
 "http://www.w3.org/Graphics/SVG/1.1/DTD/svg11.dtd">
<!-- Generated by graphviz version 2.40.1 (20161225.0304)
 -->
<!-- Title: AngularForceVector3.h Pages: 1 -->
<svg width="5022pt" height="263pt"
 viewBox="0.00 0.00 5021.90 263.00" xmlns="http://www.w3.org/2000/svg" xmlns:xlink="http://www.w3.org/1999/xlink">
<g id="graph0" class="graph" transform="scale(1 1) rotate(0) translate(4 259)">
<title>AngularForceVector3.h</title>
<!-- Node24 -->
<g id="node1" class="node">
<title>Node24</title>
<polygon fill="#bfbfbf" stroke="#000000" points="2740.8984,-235.5 2740.8984,-254.5 2866.8984,-254.5 2866.8984,-235.5 2740.8984,-235.5"/>
<text text-anchor="middle" x="2803.8984" y="-242.5" font-family="FreeSans.ttf" font-size="10.00" fill="#000000">AngularForceVector3.h</text>
</g>
<!-- Node25 -->
<g id="node2" class="node">
<title>Node25</title>
<g id="a_node2"><a xlink:href="SpatialForceVector_8h.html" target="_top" xlink:title="SpatialForceVector.h">
<polygon fill="none" stroke="#000000" points="2463.8984,-179.5 2463.8984,-198.5 2579.8984,-198.5 2579.8984,-179.5 2463.8984,-179.5"/>
<text text-anchor="middle" x="2521.8984" y="-186.5" font-family="FreeSans.ttf" font-size="10.00" fill="#000000">SpatialForceVector.h</text>
</a>
</g>
</g>
<!-- Node24&#45;&gt;Node25 -->
<g id="edge1" class="edge">
<title>Node24&#45;&gt;Node25</title>
<path fill="none" stroke="#191970" d="M2745.6684,-233.4366C2693.6803,-223.1127 2618.4522,-208.1738 2569.8569,-198.5237"/>
<polygon fill="#191970" stroke="#191970" points="2745.2511,-236.922 2755.7413,-235.4369 2746.6146,-230.0561 2745.2511,-236.922"/>
</g>
<!-- Node222 -->
<g id="node47" class="node">
<title>Node222</title>
<g id="a_node47"><a xlink:href="AngularForceVector3_8cpp.html" target="_top" xlink:title="AngularForceVector3.cpp">
<polygon fill="none" stroke="#000000" points="2598.3984,-179.5 2598.3984,-198.5 2735.3984,-198.5 2735.3984,-179.5 2598.3984,-179.5"/>
<text text-anchor="middle" x="2666.8984" y="-186.5" font-family="FreeSans.ttf" font-size="10.00" fill="#000000">AngularForceVector3.cpp</text>
</a>
</g>
</g>
<!-- Node24&#45;&gt;Node222 -->
<g id="edge62" class="edge">
<title>Node24&#45;&gt;Node222</title>
<path fill="none" stroke="#191970" d="M2770.9178,-231.5189C2745.9673,-221.3201 2712.325,-207.5685 2690.1423,-198.5011"/>
<polygon fill="#191970" stroke="#191970" points="2769.7664,-234.8293 2780.3473,-235.3733 2772.4151,-228.3497 2769.7664,-234.8293"/>
</g>
<!-- Node223 -->
<g id="node48" class="node">
<title>Node223</title>
<g id="a_node48"><a xlink:href="ForceVector3_8cpp.html" target="_top" xlink:title="ForceVector3.cpp">
<polygon fill="none" stroke="#000000" points="2753.8984,-179.5 2753.8984,-198.5 2853.8984,-198.5 2853.8984,-179.5 2753.8984,-179.5"/>
<text text-anchor="middle" x="2803.8984" y="-186.5" font-family="FreeSans.ttf" font-size="10.00" fill="#000000">ForceVector3.cpp</text>
</a>
</g>
</g>
<!-- Node24&#45;&gt;Node223 -->
<g id="edge63" class="edge">
<title>Node24&#45;&gt;Node223</title>
<path fill="none" stroke="#191970" d="M2803.8984,-225.1575C2803.8984,-216.155 2803.8984,-205.9199 2803.8984,-198.6427"/>
<polygon fill="#191970" stroke="#191970" points="2800.3985,-225.2455 2803.8984,-235.2455 2807.3985,-225.2456 2800.3985,-225.2455"/>
</g>
<!-- Node224 -->
<g id="node49" class="node">
<title>Node224</title>
<g id="a_node49"><a xlink:href="GeomVector3_8cpp.html" target="_top" xlink:title="GeomVector3.cpp">
<polygon fill="none" stroke="#000000" points="2872.3984,-179.5 2872.3984,-198.5 2975.3984,-198.5 2975.3984,-179.5 2872.3984,-179.5"/>
<text text-anchor="middle" x="2923.8984" y="-186.5" font-family="FreeSans.ttf" font-size="10.00" fill="#000000">GeomVector3.cpp</text>
</a>
</g>
</g>
<!-- Node24&#45;&gt;Node224 -->
<g id="edge64" class="edge">
<title>Node24&#45;&gt;Node224</title>
<path fill="none" stroke="#191970" d="M2833.6609,-231.1109C2855.4216,-220.9559 2884.3667,-207.4482 2903.5389,-198.5011"/>
<polygon fill="#191970" stroke="#191970" points="2832.1089,-227.9727 2824.5272,-235.3733 2835.0691,-234.316 2832.1089,-227.9727"/>
</g>
<!-- Node225 -->
<g id="node50" class="node">
<title>Node225</title>
<g id="a_node50"><a xlink:href="MotionVector3_8cpp.html" target="_top" xlink:title="MotionVector3.cpp">
<polygon fill="none" stroke="#000000" points="2993.3984,-179.5 2993.3984,-198.5 3100.3984,-198.5 3100.3984,-179.5 2993.3984,-179.5"/>
<text text-anchor="middle" x="3046.8984" y="-186.5" font-family="FreeSans.ttf" font-size="10.00" fill="#000000">MotionVector3.cpp</text>
</a>
</g>
</g>
<!-- Node24&#45;&gt;Node225 -->
<g id="edge65" class="edge">
<title>Node24&#45;&gt;Node225</title>
<path fill="none" stroke="#191970" d="M2855.1995,-233.1775C2899.9524,-222.8641 2964.0468,-208.0934 3005.5725,-198.5237"/>
<polygon fill="#191970" stroke="#191970" points="2854.3541,-229.7805 2845.3955,-235.4369 2855.9261,-236.6017 2854.3541,-229.7805"/>
</g>
<!-- Node26 -->
<g id="node3" class="node">
<title>Node26</title>
<g id="a_node3"><a xlink:href="EigenHelpers_8h.html" target="_top" xlink:title="EigenHelpers.h">
<polygon fill="none" stroke="#ff0000" points="2476.8984,-123.5 2476.8984,-142.5 2566.8984,-142.5 2566.8984,-123.5 2476.8984,-123.5"/>
<text text-anchor="middle" x="2521.8984" y="-130.5" font-family="FreeSans.ttf" font-size="10.00" fill="#000000">EigenHelpers.h</text>
</a>
</g>
</g>
<!-- Node25&#45;&gt;Node26 -->
<g id="edge2" class="edge">
<title>Node25&#45;&gt;Node26</title>
<path fill="none" stroke="#191970" d="M2521.8984,-169.1575C2521.8984,-160.155 2521.8984,-149.9199 2521.8984,-142.6427"/>
<polygon fill="#191970" stroke="#191970" points="2518.3985,-169.2455 2521.8984,-179.2455 2525.3985,-169.2456 2518.3985,-169.2455"/>
</g>
<!-- Node29 -->
<g id="node5" class="node">
<title>Node29</title>
<g id="a_node5"><a xlink:href="SpatialInertiaRaw_8cpp.html" target="_top" xlink:title="SpatialInertiaRaw.cpp">
<polygon fill="none" stroke="#000000" points="1017.8984,-.5 1017.8984,-19.5 1139.8984,-19.5 1139.8984,-.5 1017.8984,-.5"/>
<text text-anchor="middle" x="1078.8984" y="-7.5" font-family="FreeSans.ttf" font-size="10.00" fill="#000000">SpatialInertiaRaw.cpp</text>
</a>
</g>
</g>
<!-- Node25&#45;&gt;Node29 -->
<g id="edge54" class="edge">
<title>Node25&#45;&gt;Node29</title>
<path fill="none" stroke="#191970" d="M2453.6958,-188.3187C2102.4534,-184.7129 505.5379,-167.1087 285.8984,-143 160.1804,-129.2006 87.0473,-184.8346 6.8984,-87 -1.8328,-76.3421 -2.6328,-65.949 6.8984,-56 42.0349,-19.3235 795.5571,-11.7519 1017.7541,-10.3143"/>
<polygon fill="#191970" stroke="#191970" points="2453.6863,-191.8187 2463.7216,-188.4213 2453.758,-184.819 2453.6863,-191.8187"/>
</g>
<!-- Node31 -->
<g id="node6" class="node">
<title>Node31</title>
<g id="a_node6"><a xlink:href="SpatialMotionVector_8cpp.html" target="_top" xlink:title="SpatialMotionVector.cpp">
<polygon fill="none" stroke="#000000" points="4879.8984,-.5 4879.8984,-19.5 5013.8984,-19.5 5013.8984,-.5 4879.8984,-.5"/>
<text text-anchor="middle" x="4946.8984" y="-7.5" font-family="FreeSans.ttf" font-size="10.00" fill="#000000">SpatialMotionVector.cpp</text>
</a>
</g>
</g>
<!-- Node25&#45;&gt;Node31 -->
<g id="edge55" class="edge">
<title>Node25&#45;&gt;Node31</title>
<path fill="none" stroke="#191970" d="M2541.584,-172.7156C2563.6073,-154.8978 2598.2435,-128.168 2613.8984,-123 2675.5239,-102.6562 4904.3645,-133.241 4949.8984,-87 4967.5453,-69.0791 4957.6554,-35.9529 4951.1563,-19.6191"/>
<polygon fill="#191970" stroke="#191970" points="2539.0888,-170.2343 2533.5544,-179.2687 2543.5148,-175.6575 2539.0888,-170.2343"/>
</g>
<!-- Node40 -->
<g id="node12" class="node">
<title>Node40</title>
<g id="a_node12"><a xlink:href="SpatialForceVector_8cpp.html" target="_top" xlink:title="SpatialForceVector.cpp">
<polygon fill="none" stroke="#000000" points="1029.3984,-62 1029.3984,-81 1156.3984,-81 1156.3984,-62 1029.3984,-62"/>
<text text-anchor="middle" x="1092.8984" y="-69" font-family="FreeSans.ttf" font-size="10.00" fill="#000000">SpatialForceVector.cpp</text>
</a>
</g>
</g>
<!-- Node25&#45;&gt;Node40 -->
<g id="edge53" class="edge">
<title>Node25&#45;&gt;Node40</title>
<path fill="none" stroke="#191970" d="M2453.7507,-187.1046C2254.5917,-180.8728 1656.6092,-157.2286 1165.8984,-87 1155.1251,-85.4582 1143.5621,-83.2593 1132.8876,-81.0007"/>
<polygon fill="#191970" stroke="#191970" points="2453.6714,-190.6037 2463.7746,-187.414 2453.8874,-183.6071 2453.6714,-190.6037"/>
</g>
<!-- Node99 -->
<g id="node40" class="node">
<title>Node99</title>
<g id="a_node40"><a xlink:href="SpatialMomentum_8h.html" target="_top" xlink:title="SpatialMomentum.h">
<polygon fill="none" stroke="#ff0000" points="398.3984,-123.5 398.3984,-142.5 513.3984,-142.5 513.3984,-123.5 398.3984,-123.5"/>
<text text-anchor="middle" x="455.8984" y="-130.5" font-family="FreeSans.ttf" font-size="10.00" fill="#000000">SpatialMomentum.h</text>
</a>
</g>
</g>
<!-- Node25&#45;&gt;Node99 -->
<g id="edge40" class="edge">
<title>Node25&#45;&gt;Node99</title>
<path fill="none" stroke="#191970" d="M2453.5198,-187.4794C2216.179,-182.1497 1405.9179,-163.5242 736.8984,-143 659.5621,-140.6275 570.2727,-137.3595 513.4773,-135.2143"/>
<polygon fill="#191970" stroke="#191970" points="2453.6467,-190.983 2463.7227,-187.7082 2453.8037,-183.9848 2453.6467,-190.983"/>
</g>
<!-- Node189 -->
<g id="node41" class="node">
<title>Node189</title>
<g id="a_node41"><a xlink:href="Wrench_8h.html" target="_top" xlink:title="Wrench.h">
<polygon fill="none" stroke="#ff0000" points="745.8984,-123.5 745.8984,-142.5 807.8984,-142.5 807.8984,-123.5 745.8984,-123.5"/>
<text text-anchor="middle" x="776.8984" y="-130.5" font-family="FreeSans.ttf" font-size="10.00" fill="#000000">Wrench.h</text>
</a>
</g>
</g>
<!-- Node25&#45;&gt;Node189 -->
<g id="edge46" class="edge">
<title>Node25&#45;&gt;Node189</title>
<path fill="none" stroke="#191970" d="M2453.7735,-186.8138C2160.5893,-177.405 1011.9518,-140.5433 807.9617,-133.9969"/>
<polygon fill="#191970" stroke="#191970" points="2453.732,-190.3141 2463.8392,-187.1368 2453.9566,-183.3177 2453.732,-190.3141"/>
</g>
<!-- Node219 -->
<g id="node42" class="node">
<title>Node219</title>
<g id="a_node42"><a xlink:href="PositionRaw_8cpp.html" target="_top" xlink:title="PositionRaw.cpp">
<polygon fill="none" stroke="#000000" points="2622.8984,-123.5 2622.8984,-142.5 2718.8984,-142.5 2718.8984,-123.5 2622.8984,-123.5"/>
<text text-anchor="middle" x="2670.8984" y="-130.5" font-family="FreeSans.ttf" font-size="10.00" fill="#000000">PositionRaw.cpp</text>
</a>
</g>
</g>
<!-- Node25&#45;&gt;Node219 -->
<g id="edge51" class="edge">
<title>Node25&#45;&gt;Node219</title>
<path fill="none" stroke="#191970" d="M2557.0497,-175.7888C2584.2553,-165.5639 2621.2794,-151.6488 2645.6187,-142.5011"/>
<polygon fill="#191970" stroke="#191970" points="2555.6418,-172.5788 2547.5125,-179.3733 2558.1045,-179.1313 2555.6418,-172.5788"/>
</g>
<!-- Node220 -->
<g id="node43" class="node">
<title>Node220</title>
<g id="a_node43"><a xlink:href="RotationRaw_8cpp.html" target="_top" xlink:title="RotationRaw.cpp">
<polygon fill="none" stroke="#000000" points="2736.8984,-123.5 2736.8984,-142.5 2834.8984,-142.5 2834.8984,-123.5 2736.8984,-123.5"/>
<text text-anchor="middle" x="2785.8984" y="-130.5" font-family="FreeSans.ttf" font-size="10.00" fill="#000000">RotationRaw.cpp</text>
</a>
</g>
</g>
<!-- Node25&#45;&gt;Node220 -->
<g id="edge52" class="edge">
<title>Node25&#45;&gt;Node220</title>
<path fill="none" stroke="#191970" d="M2577.0212,-177.3073C2625.6678,-166.9883 2695.6973,-152.1336 2741.0011,-142.5237"/>
<polygon fill="#191970" stroke="#191970" points="2576.0377,-173.9379 2566.9817,-179.4369 2577.4903,-180.7856 2576.0377,-173.9379"/>
</g>
<!-- Node101 -->
<g id="node44" class="node">
<title>Node101</title>
<g id="a_node44"><a xlink:href="TestUtils_8cpp.html" target="_top" xlink:title="TestUtils.cpp">
<polygon fill="none" stroke="#000000" points="2853.3984,-123.5 2853.3984,-142.5 2932.3984,-142.5 2932.3984,-123.5 2853.3984,-123.5"/>
<text text-anchor="middle" x="2892.8984" y="-130.5" font-family="FreeSans.ttf" font-size="10.00" fill="#000000">TestUtils.cpp</text>
</a>
</g>
</g>
<!-- Node25&#45;&gt;Node101 -->
<g id="edge56" class="edge">
<title>Node25&#45;&gt;Node101</title>
<path fill="none" stroke="#191970" d="M2590.3295,-178.952C2704.4435,-162.6734 2734.7272,-161.8587 2843.8984,-143 2846.9785,-142.4679 2850.1612,-141.8878 2853.3569,-141.2836"/>
<polygon fill="#191970" stroke="#191970" points="2589.5352,-175.53 2580.1341,-180.4155 2590.53,-182.459 2589.5352,-175.53"/>
</g>
<!-- Node102 -->
<g id="node45" class="node">
<title>Node102</title>
<g id="a_node45"><a xlink:href="DynamicsUtils_8h.html" target="_top" xlink:title="DynamicsUtils.h">
<polygon fill="none" stroke="#000000" points="2950.3984,-123.5 2950.3984,-142.5 3047.3984,-142.5 3047.3984,-123.5 2950.3984,-123.5"/>
<text text-anchor="middle" x="2998.8984" y="-130.5" font-family="FreeSans.ttf" font-size="10.00" fill="#000000">DynamicsUtils.h</text>
</a>
</g>
</g>
<!-- Node25&#45;&gt;Node102 -->
<g id="edge57" class="edge">
<title>Node25&#45;&gt;Node102</title>
<path fill="none" stroke="#191970" d="M2590.1605,-179.0244C2747.6486,-159.7508 2789.3231,-164.1582 2941.8984,-143 2944.5854,-142.6274 2947.3396,-142.2221 2950.1171,-141.7953"/>
<polygon fill="#191970" stroke="#191970" points="2589.609,-175.5658 2580.114,-180.2665 2590.468,-182.5129 2589.609,-175.5658"/>
</g>
<!-- Node221 -->
<g id="node46" class="node">
<title>Node221</title>
<g id="a_node46"><a xlink:href="JointState_8h.html" target="_top" xlink:title="JointState.h">
<polygon fill="none" stroke="#ff0000" points="295.3984,-123.5 295.3984,-142.5 368.3984,-142.5 368.3984,-123.5 295.3984,-123.5"/>
<text text-anchor="middle" x="331.8984" y="-130.5" font-family="FreeSans.ttf" font-size="10.00" fill="#000000">JointState.h</text>
</a>
</g>
</g>
<!-- Node25&#45;&gt;Node221 -->
<g id="edge58" class="edge">
<title>Node25&#45;&gt;Node221</title>
<path fill="none" stroke="#191970" d="M2453.5836,-188.1457C2112.0654,-183.7919 598.0061,-163.4775 388.8984,-143 382.299,-142.3537 375.3138,-141.376 368.5803,-140.2807"/>
<polygon fill="#191970" stroke="#191970" points="2453.7741,-191.6483 2463.8178,-188.2759 2453.8632,-184.6489 2453.7741,-191.6483"/>
</g>
<!-- Node27 -->
<g id="node4" class="node">
<title>Node27</title>
<g id="a_node4"><a xlink:href="PrivateUtils_8h.html" target="_top" xlink:title="PrivateUtils.h">
<polygon fill="none" stroke="#ff0000" points="2128.3984,-62 2128.3984,-81 2211.3984,-81 2211.3984,-62 2128.3984,-62"/>
<text text-anchor="middle" x="2169.8984" y="-69" font-family="FreeSans.ttf" font-size="10.00" fill="#000000">PrivateUtils.h</text>
</a>
</g>
</g>
<!-- Node26&#45;&gt;Node27 -->
<g id="edge3" class="edge">
<title>Node26&#45;&gt;Node27</title>
<path fill="none" stroke="#191970" d="M2466.5103,-126.9512C2405.7836,-119.7602 2305.6911,-106.2598 2220.8984,-87 2213.6791,-85.3602 2205.9914,-83.2316 2198.833,-81.0798"/>
<polygon fill="#191970" stroke="#191970" points="2466.305,-130.451 2476.6438,-128.1358 2467.1178,-123.4983 2466.305,-130.451"/>
</g>
<!-- Node26&#45;&gt;Node31 -->
<g id="edge13" class="edge">
<title>Node26&#45;&gt;Node31</title>
<path fill="none" stroke="#191970" d="M2577.0197,-123.3874C2578.3238,-123.2472 2579.6182,-123.1176 2580.8984,-123 2645.8271,-117.0347 4876.877,-127.5972 4927.8984,-87 4948.2621,-70.7969 4948.9137,-36.5491 4947.8599,-19.7324"/>
<polygon fill="#191970" stroke="#191970" points="2576.3953,-119.938 2566.9035,-124.6451 2577.259,-126.8845 2576.3953,-119.938"/>
</g>
<!-- Node35 -->
<g id="node7" class="node">
<title>Node35</title>
<g id="a_node7"><a xlink:href="ArticulatedBodyInertia_8cpp.html" target="_top" xlink:title="ArticulatedBodyInertia.cpp">
<polygon fill="none" stroke="#000000" points="864.8984,-62 864.8984,-81 1010.8984,-81 1010.8984,-62 864.8984,-62"/>
<text text-anchor="middle" x="937.8984" y="-69" font-family="FreeSans.ttf" font-size="10.00" fill="#000000">ArticulatedBodyInertia.cpp</text>
</a>
</g>
</g>
<!-- Node26&#45;&gt;Node35 -->
<g id="edge6" class="edge">
<title>Node26&#45;&gt;Node35</title>
<path fill="none" stroke="#191970" d="M2466.5402,-132.4459C2230.7812,-129.9099 1309.3488,-118.1659 1020.8984,-87 1008.2191,-85.63 994.5717,-83.4011 982.0787,-81.0552"/>
<polygon fill="#191970" stroke="#191970" points="2466.559,-135.9462 2476.5958,-132.5529 2466.6336,-128.9466 2466.559,-135.9462"/>
</g>
<!-- Node36 -->
<g id="node8" class="node">
<title>Node36</title>
<g id="a_node8"><a xlink:href="CubicSpline_8cpp.html" target="_top" xlink:title="CubicSpline.cpp">
<polygon fill="none" stroke="#000000" points="3297.8984,-62 3297.8984,-81 3391.8984,-81 3391.8984,-62 3297.8984,-62"/>
<text text-anchor="middle" x="3344.8984" y="-69" font-family="FreeSans.ttf" font-size="10.00" fill="#000000">CubicSpline.cpp</text>
</a>
</g>
</g>
<!-- Node26&#45;&gt;Node36 -->
<g id="edge7" class="edge">
<title>Node26&#45;&gt;Node36</title>
<path fill="none" stroke="#191970" d="M2577.0259,-123.4491C2578.3282,-123.2904 2579.6205,-123.1403 2580.8984,-123 2894.0898,-88.6154 2977.8704,-137.3259 3288.8984,-87 3297.5621,-85.5982 3306.8049,-83.359 3315.2325,-81.0135"/>
<polygon fill="#191970" stroke="#191970" points="2576.3632,-120.0066 2566.9203,-124.811 2577.2982,-126.9439 2576.3632,-120.0066"/>
</g>
<!-- Node37 -->
<g id="node9" class="node">
<title>Node37</title>
<g id="a_node9"><a xlink:href="Direction_8cpp.html" target="_top" xlink:title="Direction.cpp">
<polygon fill="none" stroke="#000000" points="3410.3984,-62 3410.3984,-81 3491.3984,-81 3491.3984,-62 3410.3984,-62"/>
<text text-anchor="middle" x="3450.8984" y="-69" font-family="FreeSans.ttf" font-size="10.00" fill="#000000">Direction.cpp</text>
</a>
</g>
</g>
<!-- Node26&#45;&gt;Node37 -->
<g id="edge8" class="edge">
<title>Node26&#45;&gt;Node37</title>
<path fill="none" stroke="#191970" d="M2577.0246,-123.437C2578.3273,-123.282 2579.62,-123.1359 2580.8984,-123 2943.6509,-84.4457 3041.5007,-149.5222 3400.8984,-87 3408.6881,-85.6449 3416.9579,-83.4207 3424.4819,-81.0746"/>
<polygon fill="#191970" stroke="#191970" points="2576.3693,-119.9932 2566.9168,-124.7786 2577.2904,-126.9324 2576.3693,-119.9932"/>
</g>
<!-- Node38 -->
<g id="node10" class="node">
<title>Node38</title>
<g id="a_node10"><a xlink:href="InertiaNonLinearParametrization_8cpp.html" target="_top" xlink:title="InertiaNonLinearParametrization.cpp">
<polygon fill="none" stroke="#000000" points="3509.3984,-62 3509.3984,-81 3704.3984,-81 3704.3984,-62 3509.3984,-62"/>
<text text-anchor="middle" x="3606.8984" y="-69" font-family="FreeSans.ttf" font-size="10.00" fill="#000000">InertiaNonLinearParametrization.cpp</text>
</a>
</g>
</g>
<!-- Node26&#45;&gt;Node38 -->
<g id="edge9" class="edge">
<title>Node26&#45;&gt;Node38</title>
<path fill="none" stroke="#191970" d="M2577.0238,-123.4287C2578.3267,-123.2762 2579.6197,-123.1328 2580.8984,-123 2987.9103,-80.7219 3093.4329,-124.6562 3500.8984,-87 3516.7327,-85.5367 3533.814,-83.3218 3549.5431,-81.0207"/>
<polygon fill="#191970" stroke="#191970" points="2576.3735,-119.984 2566.9144,-124.7564 2577.2851,-126.9244 2576.3735,-119.984"/>
</g>
<!-- Node39 -->
<g id="node11" class="node">
<title>Node39</title>
<g id="a_node11"><a xlink:href="Rotation_8cpp.html" target="_top" xlink:title="Rotation.cpp">
<polygon fill="none" stroke="#000000" points="491.3984,-62 491.3984,-81 568.3984,-81 568.3984,-62 491.3984,-62"/>
<text text-anchor="middle" x="529.8984" y="-69" font-family="FreeSans.ttf" font-size="10.00" fill="#000000">Rotation.cpp</text>
</a>
</g>
</g>
<!-- Node26&#45;&gt;Node39 -->
<g id="edge10" class="edge">
<title>Node26&#45;&gt;Node39</title>
<path fill="none" stroke="#191970" d="M2466.6413,-132.6424C2169.5287,-130.5923 768.1702,-119.2703 577.8984,-87 570.3007,-85.7114 562.2546,-83.4772 554.9661,-81.0997"/>
<polygon fill="#191970" stroke="#191970" points="2466.7172,-136.1429 2476.7409,-132.7114 2466.7651,-129.143 2466.7172,-136.1429"/>
</g>
<!-- Node26&#45;&gt;Node40 -->
<g id="edge11" class="edge">
<title>Node26&#45;&gt;Node40</title>
<path fill="none" stroke="#191970" d="M2466.5168,-132.4169C2245.22,-129.8864 1423.9658,-118.5277 1165.8984,-87 1154.7098,-85.6331 1142.6949,-83.4051 1131.7075,-81.0592"/>
<polygon fill="#191970" stroke="#191970" points="2466.5576,-135.9175 2476.5966,-132.5308 2466.6368,-128.9179 2466.5576,-135.9175"/>
</g>
<!-- Node41 -->
<g id="node13" class="node">
<title>Node41</title>
<g id="a_node13"><a xlink:href="SpatialInertia_8cpp.html" target="_top" xlink:title="SpatialInertia.cpp">
<polygon fill="none" stroke="#000000" points="586.8984,-62 586.8984,-81 688.8984,-81 688.8984,-62 586.8984,-62"/>
<text text-anchor="middle" x="637.8984" y="-69" font-family="FreeSans.ttf" font-size="10.00" fill="#000000">SpatialInertia.cpp</text>
</a>
</g>
</g>
<!-- Node26&#45;&gt;Node41 -->
<g id="edge12" class="edge">
<title>Node26&#45;&gt;Node41</title>
<path fill="none" stroke="#191970" d="M2466.4509,-132.3532C2180.2397,-128.914 876.4681,-111.9841 697.8984,-87 688.5222,-85.6881 678.5022,-83.4466 669.3891,-81.0696"/>
<polygon fill="#191970" stroke="#191970" points="2466.5503,-135.8546 2476.5915,-132.4746 2466.6341,-128.8551 2466.5503,-135.8546"/>
</g>
<!-- Node42 -->
<g id="node14" class="node">
<title>Node42</title>
<g id="a_node14"><a xlink:href="TransformDerivative_8cpp.html" target="_top" xlink:title="TransformDerivative.cpp">
<polygon fill="none" stroke="#000000" points="3722.3984,-62 3722.3984,-81 3859.3984,-81 3859.3984,-62 3722.3984,-62"/>
<text text-anchor="middle" x="3790.8984" y="-69" font-family="FreeSans.ttf" font-size="10.00" fill="#000000">TransformDerivative.cpp</text>
</a>
</g>
</g>
<!-- Node26&#45;&gt;Node42 -->
<g id="edge14" class="edge">
<title>Node26&#45;&gt;Node42</title>
<path fill="none" stroke="#191970" d="M2577.0225,-123.416C2578.3257,-123.2672 2579.6192,-123.1281 2580.8984,-123 3082.1997,-72.7884 3213.4283,-144.9124 3713.8984,-87 3725.6833,-85.6363 3738.3512,-83.4093 3749.9408,-81.0634"/>
<polygon fill="#191970" stroke="#191970" points="2576.3802,-119.9698 2566.9109,-124.722 2577.2769,-126.9121 2576.3802,-119.9698"/>
</g>
<!-- Node43 -->
<g id="node15" class="node">
<title>Node43</title>
<g id="a_node15"><a xlink:href="AttitudeEstimatorUtils_8h.html" target="_top" xlink:title="AttitudeEstimatorUtils.h">
<polygon fill="none" stroke="#ff0000" points="3877.8984,-62 3877.8984,-81 4011.8984,-81 4011.8984,-62 3877.8984,-62"/>
<text text-anchor="middle" x="3944.8984" y="-69" font-family="FreeSans.ttf" font-size="10.00" fill="#000000">AttitudeEstimatorUtils.h</text>
</a>
</g>
</g>
<!-- Node26&#45;&gt;Node43 -->
<g id="edge15" class="edge">
<title>Node26&#45;&gt;Node43</title>
<path fill="none" stroke="#191970" d="M2577.0218,-123.4093C2578.3253,-123.2626 2579.6189,-123.1257 2580.8984,-123 3150.8232,-67.0142 3299.9845,-152.4646 3868.8984,-87 3880.6709,-85.6454 3893.3303,-83.3905 3904.8757,-81.0144"/>
<polygon fill="#191970" stroke="#191970" points="2576.3837,-119.9624 2566.9092,-124.7041 2577.2727,-126.9057 2576.3837,-119.9624"/>
</g>
<!-- Node47 -->
<g id="node16" class="node">
<title>Node47</title>
<g id="a_node16"><a xlink:href="GravityCompensationHelpers_8h.html" target="_top" xlink:title="GravityCompensationHelpers.h">
<polygon fill="none" stroke="#ff0000" points="4029.8984,-62 4029.8984,-81 4199.8984,-81 4199.8984,-62 4029.8984,-62"/>
<text text-anchor="middle" x="4114.8984" y="-69" font-family="FreeSans.ttf" font-size="10.00" fill="#000000">GravityCompensationHelpers.h</text>
</a>
</g>
</g>
<!-- Node26&#45;&gt;Node47 -->
<g id="edge16" class="edge">
<title>Node26&#45;&gt;Node47</title>
<path fill="none" stroke="#191970" d="M2577.0213,-123.4042C2578.3249,-123.259 2579.6188,-123.1238 2580.8984,-123 3218.1232,-61.3514 3383.5374,-147.2234 4020.8984,-87 4035.2243,-85.6464 4050.6694,-83.4226 4064.8186,-81.0765"/>
<polygon fill="#191970" stroke="#191970" points="2576.3864,-119.9567 2566.9078,-124.6903 2577.2695,-126.9008 2576.3864,-119.9567"/>
</g>
<!-- Node49 -->
<g id="node17" class="node">
<title>Node49</title>
<g id="a_node17"><a xlink:href="KalmanFilter_8h.html" target="_top" xlink:title="KalmanFilter.h">
<polygon fill="none" stroke="#ff0000" points="4217.8984,-62 4217.8984,-81 4303.8984,-81 4303.8984,-62 4217.8984,-62"/>
<text text-anchor="middle" x="4260.8984" y="-69" font-family="FreeSans.ttf" font-size="10.00" fill="#000000">KalmanFilter.h</text>
</a>
</g>
</g>
<!-- Node26&#45;&gt;Node49 -->
<g id="edge17" class="edge">
<title>Node26&#45;&gt;Node49</title>
<path fill="none" stroke="#191970" d="M2577.0208,-123.3992C2578.3246,-123.2555 2579.6186,-123.122 2580.8984,-123 2941.1329,-88.6734 3851.4209,-143.1869 4208.8984,-87 4217.1808,-85.6982 4225.9893,-83.4282 4233.9571,-81.0204"/>
<polygon fill="#191970" stroke="#191970" points="2576.389,-119.9511 2566.9065,-124.6768 2577.2663,-126.8959 2576.389,-119.9511"/>
</g>
<!-- Node51 -->
<g id="node18" class="node">
<title>Node51</title>
<g id="a_node18"><a xlink:href="BerdyHelper_8cpp.html" target="_top" xlink:title="BerdyHelper.cpp">
<polygon fill="none" stroke="#000000" points="4322.3984,-62 4322.3984,-81 4419.3984,-81 4419.3984,-62 4322.3984,-62"/>
<text text-anchor="middle" x="4370.8984" y="-69" font-family="FreeSans.ttf" font-size="10.00" fill="#000000">BerdyHelper.cpp</text>
</a>
</g>
</g>
<!-- Node26&#45;&gt;Node51 -->
<g id="edge18" class="edge">
<title>Node26&#45;&gt;Node51</title>
<path fill="none" stroke="#191970" d="M2577.0206,-123.3969C2578.3244,-123.2539 2579.6185,-123.1211 2580.8984,-123 2964.1586,-86.7359 3931.7448,-141.0863 4312.8984,-87 4322.0827,-85.6967 4331.8912,-83.4262 4340.7799,-81.0186"/>
<polygon fill="#191970" stroke="#191970" points="2576.3902,-119.9485 2566.9059,-124.6706 2577.2649,-126.8937 2576.3902,-119.9485"/>
</g>
<!-- Node52 -->
<g id="node19" class="node">
<title>Node52</title>
<g id="a_node19"><a xlink:href="BerdySparseMAPSolver_8cpp.html" target="_top" xlink:title="BerdySparseMAPSolver.cpp">
<polygon fill="none" stroke="#000000" points="4437.3984,-62 4437.3984,-81 4586.3984,-81 4586.3984,-62 4437.3984,-62"/>
<text text-anchor="middle" x="4511.8984" y="-69" font-family="FreeSans.ttf" font-size="10.00" fill="#000000">BerdySparseMAPSolver.cpp</text>
</a>
</g>
</g>
<!-- Node26&#45;&gt;Node52 -->
<g id="edge19" class="edge">
<title>Node26&#45;&gt;Node52</title>
<path fill="none" stroke="#191970" d="M2577.0204,-123.3946C2578.3243,-123.2523 2579.6184,-123.1203 2580.8984,-123 3398.785,-46.1497 3611.6831,-170.6869 4428.8984,-87 4441.7311,-85.6859 4455.5489,-83.4437 4468.1583,-81.0667"/>
<polygon fill="#191970" stroke="#191970" points="2576.3915,-119.946 2566.9053,-124.6645 2577.2635,-126.8915 2576.3915,-119.946"/>
</g>
<!-- Node53 -->
<g id="node20" class="node">
<title>Node53</title>
<g id="a_node20"><a xlink:href="ExtendedKalmanFilter_8cpp.html" target="_top" xlink:title="ExtendedKalmanFilter.cpp">
<polygon fill="none" stroke="#000000" points="4604.3984,-62 4604.3984,-81 4747.3984,-81 4747.3984,-62 4604.3984,-62"/>
<text text-anchor="middle" x="4675.8984" y="-69" font-family="FreeSans.ttf" font-size="10.00" fill="#000000">ExtendedKalmanFilter.cpp</text>
</a>
</g>
</g>
<!-- Node26&#45;&gt;Node53 -->
<g id="edge20" class="edge">
<title>Node26&#45;&gt;Node53</title>
<path fill="none" stroke="#191970" d="M2577.0201,-123.3918C2578.3241,-123.2503 2579.6183,-123.1192 2580.8984,-123 3472.7362,-39.9271 3705.0975,-180.5384 4595.8984,-87 4608.4206,-85.6851 4621.9051,-83.4111 4634.1694,-81.0037"/>
<polygon fill="#191970" stroke="#191970" points="2576.393,-119.9429 2566.9046,-124.6569 2577.2617,-126.8888 2576.393,-119.9429"/>
</g>
<!-- Node54 -->
<g id="node21" class="node">
<title>Node54</title>
<g id="a_node21"><a xlink:href="ExternalWrenchesEstimation_8cpp.html" target="_top" xlink:title="ExternalWrenchesEstimation.cpp">
<polygon fill="none" stroke="#000000" points="120.3984,-62 120.3984,-81 297.3984,-81 297.3984,-62 120.3984,-62"/>
<text text-anchor="middle" x="208.8984" y="-69" font-family="FreeSans.ttf" font-size="10.00" fill="#000000">ExternalWrenchesEstimation.cpp</text>
</a>
</g>
</g>
<!-- Node26&#45;&gt;Node54 -->
<g id="edge21" class="edge">
<title>Node26&#45;&gt;Node54</title>
<path fill="none" stroke="#191970" d="M2466.4799,-132.8852C2167.487,-132.1084 744.088,-126.3693 305.8984,-87 290.9512,-85.6571 274.8183,-83.4058 260.081,-81.0295"/>
<polygon fill="#191970" stroke="#191970" points="2466.6294,-136.3855 2476.6382,-132.9108 2466.6471,-129.3855 2466.6294,-136.3855"/>
</g>
<!-- Node55 -->
<g id="node22" class="node">
<title>Node55</title>
<g id="a_node22"><a xlink:href="ExtWrenchesAndJointTorquesEstimator_8cpp.html" target="_top" xlink:title="ExtWrenchesAndJointTorques\lEstimator.cpp">
<polygon fill="none" stroke="#000000" points="314.8984,-56.5 314.8984,-86.5 472.8984,-86.5 472.8984,-56.5 314.8984,-56.5"/>
<text text-anchor="start" x="322.8984" y="-74.5" font-family="FreeSans.ttf" font-size="10.00" fill="#000000">ExtWrenchesAndJointTorques</text>
<text text-anchor="middle" x="393.8984" y="-63.5" font-family="FreeSans.ttf" font-size="10.00" fill="#000000">Estimator.cpp</text>
</a>
</g>
</g>
<!-- Node26&#45;&gt;Node55 -->
<g id="edge22" class="edge">
<title>Node26&#45;&gt;Node55</title>
<path fill="none" stroke="#191970" d="M2466.8228,-132.8898C2182.9695,-132.1497 883.025,-126.6176 481.8984,-87 478.9653,-86.7103 475.9827,-86.3782 472.9743,-86.0117"/>
<polygon fill="#191970" stroke="#191970" points="2466.8683,-136.3899 2476.8771,-132.9151 2466.886,-129.3899 2466.8683,-136.3899"/>
</g>
<!-- Node56 -->
<g id="node23" class="node">
<title>Node56</title>
<g id="a_node23"><a xlink:href="SimpleLeggedOdometry_8cpp.html" target="_top" xlink:title="SimpleLeggedOdometry.cpp">
<polygon fill="none" stroke="#000000" points="4765.3984,-62 4765.3984,-81 4918.3984,-81 4918.3984,-62 4765.3984,-62"/>
<text text-anchor="middle" x="4841.8984" y="-69" font-family="FreeSans.ttf" font-size="10.00" fill="#000000">SimpleLeggedOdometry.cpp</text>
</a>
</g>
</g>
<!-- Node26&#45;&gt;Node56 -->
<g id="edge23" class="edge">
<title>Node26&#45;&gt;Node56</title>
<path fill="none" stroke="#191970" d="M2577.0199,-123.3895C2578.324,-123.2487 2579.6183,-123.1184 2580.8984,-123 3544.0319,-33.9279 3794.3393,-182.078 4756.8984,-87 4770.184,-85.6877 4784.5055,-83.4145 4797.5368,-81.007"/>
<polygon fill="#191970" stroke="#191970" points="2576.3942,-119.9403 2566.9041,-124.6507 2577.2603,-126.8866 2576.3942,-119.9403"/>
</g>
<!-- Node57 -->
<g id="node24" class="node">
<title>Node57</title>
<g id="a_node24"><a xlink:href="KinDynComputations_8cpp.html" target="_top" xlink:title="KinDynComputations.cpp">
<polygon fill="none" stroke="#000000" points="706.8984,-62 706.8984,-81 846.8984,-81 846.8984,-62 706.8984,-62"/>
<text text-anchor="middle" x="776.8984" y="-69" font-family="FreeSans.ttf" font-size="10.00" fill="#000000">KinDynComputations.cpp</text>
</a>
</g>
</g>
<!-- Node26&#45;&gt;Node57 -->
<g id="edge24" class="edge">
<title>Node26&#45;&gt;Node57</title>
<path fill="none" stroke="#191970" d="M2466.3522,-132.7069C2214.5238,-131.1876 1178.3842,-122.8368 855.8984,-87 843.6741,-85.6416 830.5191,-83.3855 818.5176,-81.0095"/>
<polygon fill="#191970" stroke="#191970" points="2466.6932,-136.2089 2476.7138,-132.7682 2466.7347,-129.209 2466.6932,-136.2089"/>
</g>
<!-- Node58 -->
<g id="node25" class="node">
<title>Node58</title>
<g id="a_node25"><a xlink:href="BoundingBoxHelpers_8cpp.html" target="_top" xlink:title="BoundingBoxHelpers.cpp">
<polygon fill="none" stroke="#000000" points="1174.3984,-62 1174.3984,-81 1313.3984,-81 1313.3984,-62 1174.3984,-62"/>
<text text-anchor="middle" x="1243.8984" y="-69" font-family="FreeSans.ttf" font-size="10.00" fill="#000000">BoundingBoxHelpers.cpp</text>
</a>
</g>
</g>
<!-- Node26&#45;&gt;Node58 -->
<g id="edge25" class="edge">
<title>Node26&#45;&gt;Node58</title>
<path fill="none" stroke="#191970" d="M2466.6689,-132.0217C2262.2677,-128.2237 1548.8997,-113.3445 1322.8984,-87 1310.8204,-85.5921 1297.8277,-83.351 1285.9369,-81.0056"/>
<polygon fill="#191970" stroke="#191970" points="2466.801,-135.5247 2476.8639,-132.2098 2466.9302,-128.5259 2466.801,-135.5247"/>
</g>
<!-- Node59 -->
<g id="node26" class="node">
<title>Node59</title>
<g id="a_node26"><a xlink:href="ConvexHullHelpers_8cpp.html" target="_top" xlink:title="ConvexHullHelpers.cpp">
<polygon fill="none" stroke="#000000" points="1331.3984,-62 1331.3984,-81 1462.3984,-81 1462.3984,-62 1331.3984,-62"/>
<text text-anchor="middle" x="1396.8984" y="-69" font-family="FreeSans.ttf" font-size="10.00" fill="#000000">ConvexHullHelpers.cpp</text>
</a>
</g>
</g>
<!-- Node26&#45;&gt;Node59 -->
<g id="edge26" class="edge">
<title>Node26&#45;&gt;Node59</title>
<path fill="none" stroke="#191970" d="M2466.4756,-131.7438C2278.6619,-127.3033 1667.1579,-111.2953 1471.8984,-87 1460.5514,-85.5881 1448.3641,-83.3756 1437.1816,-81.0597"/>
<polygon fill="#191970" stroke="#191970" points="2466.5882,-135.2473 2476.6677,-131.9832 2466.7527,-128.2493 2466.5882,-135.2473"/>
</g>
<!-- Node60 -->
<g id="node27" class="node">
<title>Node60</title>
<g id="a_node27"><a xlink:href="InverseKinematicsData_8cpp.html" target="_top" xlink:title="InverseKinematicsData.cpp">
<polygon fill="none" stroke="#000000" points="1480.3984,-62 1480.3984,-81 1631.3984,-81 1631.3984,-62 1480.3984,-62"/>
<text text-anchor="middle" x="1555.8984" y="-69" font-family="FreeSans.ttf" font-size="10.00" fill="#000000">InverseKinematicsData.cpp</text>
</a>
</g>
</g>
<!-- Node26&#45;&gt;Node60 -->
<g id="edge27" class="edge">
<title>Node26&#45;&gt;Node60</title>
<path fill="none" stroke="#191970" d="M2466.3996,-132.568C2327.0808,-130.9489 1951.5096,-123.2779 1640.8984,-87 1628.2343,-85.5209 1614.6091,-83.3152 1602.0573,-81.0285"/>
<polygon fill="#191970" stroke="#191970" points="2466.7639,-136.0721 2476.8019,-132.6826 2466.8411,-129.0725 2466.7639,-136.0721"/>
</g>
<!-- Node61 -->
<g id="node28" class="node">
<title>Node61</title>
<g id="a_node28"><a xlink:href="InverseKinematicsNLP_8cpp.html" target="_top" xlink:title="InverseKinematicsNLP.cpp">
<polygon fill="none" stroke="#000000" points="1649.3984,-62 1649.3984,-81 1794.3984,-81 1794.3984,-62 1649.3984,-62"/>
<text text-anchor="middle" x="1721.8984" y="-69" font-family="FreeSans.ttf" font-size="10.00" fill="#000000">InverseKinematicsNLP.cpp</text>
</a>
</g>
</g>
<!-- Node26&#45;&gt;Node61 -->
<g id="edge28" class="edge">
<title>Node26&#45;&gt;Node61</title>
<path fill="none" stroke="#191970" d="M2466.6707,-131.7722C2345.9854,-128.5835 2049.8519,-118.0052 1803.8984,-87 1791.8239,-85.4779 1778.8447,-83.2858 1766.8545,-81.0274"/>
<polygon fill="#191970" stroke="#191970" points="2466.6834,-135.2736 2476.7703,-132.0325 2466.8639,-128.2759 2466.6834,-135.2736"/>
</g>
<!-- Node62 -->
<g id="node29" class="node">
<title>Node62</title>
<g id="a_node29"><a xlink:href="DenavitHartenberg_8cpp.html" target="_top" xlink:title="DenavitHartenberg.cpp">
<polygon fill="none" stroke="#000000" points="1812.8984,-62 1812.8984,-81 1942.8984,-81 1942.8984,-62 1812.8984,-62"/>
<text text-anchor="middle" x="1877.8984" y="-69" font-family="FreeSans.ttf" font-size="10.00" fill="#000000">DenavitHartenberg.cpp</text>
</a>
</g>
</g>
<!-- Node26&#45;&gt;Node62 -->
<g id="edge29" class="edge">
<title>Node26&#45;&gt;Node62</title>
<path fill="none" stroke="#191970" d="M2466.6273,-130.7948C2364.6556,-126.2249 2140.2248,-113.8251 1952.8984,-87 1941.9742,-85.4357 1930.2498,-83.2564 1919.3925,-81.0253"/>
<polygon fill="#191970" stroke="#191970" points="2466.5493,-134.2947 2476.6937,-131.2382 2466.8574,-127.3015 2466.5493,-134.2947"/>
</g>
<!-- Node63 -->
<g id="node30" class="node">
<title>Node63</title>
<g id="a_node30"><a xlink:href="Dynamics_8cpp.html" target="_top" xlink:title="Dynamics.cpp">
<polygon fill="none" stroke="#000000" points="15.8984,-62 15.8984,-81 101.8984,-81 101.8984,-62 15.8984,-62"/>
<text text-anchor="middle" x="58.8984" y="-69" font-family="FreeSans.ttf" font-size="10.00" fill="#000000">Dynamics.cpp</text>
</a>
</g>
</g>
<!-- Node26&#45;&gt;Node63 -->
<g id="edge30" class="edge">
<title>Node26&#45;&gt;Node63</title>
<path fill="none" stroke="#191970" d="M2466.6255,-132.841C2128.9207,-131.7506 350.3519,-124.2644 110.8984,-87 102.6141,-85.7108 93.805,-83.4445 85.8373,-81.0365"/>
<polygon fill="#191970" stroke="#191970" points="2466.6431,-136.341 2476.6542,-132.8728 2466.6654,-129.341 2466.6431,-136.341"/>
</g>
<!-- Node64 -->
<g id="node31" class="node">
<title>Node64</title>
<g id="a_node31"><a xlink:href="DynamicsLinearization_8cpp.html" target="_top" xlink:title="DynamicsLinearization.cpp">
<polygon fill="none" stroke="#000000" points="1961.3984,-62 1961.3984,-81 2110.3984,-81 2110.3984,-62 1961.3984,-62"/>
<text text-anchor="middle" x="2035.8984" y="-69" font-family="FreeSans.ttf" font-size="10.00" fill="#000000">DynamicsLinearization.cpp</text>
</a>
</g>
</g>
<!-- Node26&#45;&gt;Node64 -->
<g id="edge31" class="edge">
<title>Node26&#45;&gt;Node64</title>
<path fill="none" stroke="#191970" d="M2466.8212,-127.9041C2389.2303,-120.4512 2243.4068,-105.4394 2119.8984,-87 2108.3115,-85.2701 2095.8766,-83.1318 2084.2204,-81.0019"/>
<polygon fill="#191970" stroke="#191970" points="2466.5639,-131.3954 2476.8514,-128.8619 2467.2294,-124.4271 2466.5639,-131.3954"/>
</g>
<!-- Node65 -->
<g id="node32" class="node">
<title>Node65</title>
<g id="a_node32"><a xlink:href="DynamicsLinearizationHelpers_8cpp.html" target="_top" xlink:title="DynamicsLinearizationHelpers.cpp">
<polygon fill="none" stroke="#000000" points="2229.8984,-62 2229.8984,-81 2415.8984,-81 2415.8984,-62 2229.8984,-62"/>
<text text-anchor="middle" x="2322.8984" y="-69" font-family="FreeSans.ttf" font-size="10.00" fill="#000000">DynamicsLinearizationHelpers.cpp</text>
</a>
</g>
</g>
<!-- Node26&#45;&gt;Node65 -->
<g id="edge32" class="edge">
<title>Node26&#45;&gt;Node65</title>
<path fill="none" stroke="#191970" d="M2481.1279,-120.4001C2443.3575,-108.7273 2388.0029,-91.6202 2353.7739,-81.0419"/>
<polygon fill="#191970" stroke="#191970" points="2480.2171,-123.7818 2490.8047,-123.3906 2482.284,-117.0939 2480.2171,-123.7818"/>
</g>
<!-- Node66 -->
<g id="node33" class="node">
<title>Node66</title>
<g id="a_node33"><a xlink:href="Jacobians_8cpp.html" target="_top" xlink:title="Jacobians.cpp">
<polygon fill="none" stroke="#000000" points="2434.3984,-62 2434.3984,-81 2517.3984,-81 2517.3984,-62 2434.3984,-62"/>
<text text-anchor="middle" x="2475.8984" y="-69" font-family="FreeSans.ttf" font-size="10.00" fill="#000000">Jacobians.cpp</text>
</a>
</g>
</g>
<!-- Node26&#45;&gt;Node66 -->
<g id="edge33" class="edge">
<title>Node26&#45;&gt;Node66</title>
<path fill="none" stroke="#191970" d="M2508.6194,-115.2465C2500.3402,-104.1775 2490.0015,-90.3552 2483.1873,-81.2449"/>
<polygon fill="#191970" stroke="#191970" points="2505.9186,-117.4792 2514.7109,-123.3906 2511.5241,-113.2864 2505.9186,-117.4792"/>
</g>
<!-- Node67 -->
<g id="node34" class="node">
<title>Node67</title>
<g id="a_node34"><a xlink:href="Model_8cpp.html" target="_top" xlink:title="Model.cpp">
<polygon fill="none" stroke="#000000" points="2535.8984,-62 2535.8984,-81 2601.8984,-81 2601.8984,-62 2535.8984,-62"/>
<text text-anchor="middle" x="2568.8984" y="-69" font-family="FreeSans.ttf" font-size="10.00" fill="#000000">Model.cpp</text>
</a>
</g>
</g>
<!-- Node26&#45;&gt;Node67 -->
<g id="edge34" class="edge">
<title>Node26&#45;&gt;Node67</title>
<path fill="none" stroke="#191970" d="M2535.4662,-115.2465C2543.9254,-104.1775 2554.4888,-90.3552 2561.4512,-81.2449"/>
<polygon fill="#191970" stroke="#191970" points="2532.5334,-113.3199 2529.2422,-123.3906 2538.0952,-117.5704 2532.5334,-113.3199"/>
</g>
<!-- Node68 -->
<g id="node35" class="node">
<title>Node68</title>
<g id="a_node35"><a xlink:href="URDFModelExport_8cpp.html" target="_top" xlink:title="URDFModelExport.cpp">
<polygon fill="none" stroke="#000000" points="2620.3984,-62 2620.3984,-81 2745.3984,-81 2745.3984,-62 2620.3984,-62"/>
<text text-anchor="middle" x="2682.8984" y="-69" font-family="FreeSans.ttf" font-size="10.00" fill="#000000">URDFModelExport.cpp</text>
</a>
</g>
</g>
<!-- Node26&#45;&gt;Node68 -->
<g id="edge35" class="edge">
<title>Node26&#45;&gt;Node68</title>
<path fill="none" stroke="#191970" d="M2556.4563,-119.7993C2586.9613,-108.1468 2630.6974,-91.4402 2657.9188,-81.0419"/>
<polygon fill="#191970" stroke="#191970" points="2555.1474,-116.5526 2547.0547,-123.3906 2557.6453,-123.0917 2555.1474,-116.5526"/>
</g>
<!-- Node69 -->
<g id="node36" class="node">
<title>Node69</title>
<g id="a_node36"><a xlink:href="AlglibInterface_8cpp.html" target="_top" xlink:title="AlglibInterface.cpp">
<polygon fill="none" stroke="#000000" points="2763.8984,-62 2763.8984,-81 2871.8984,-81 2871.8984,-62 2763.8984,-62"/>
<text text-anchor="middle" x="2817.8984" y="-69" font-family="FreeSans.ttf" font-size="10.00" fill="#000000">AlglibInterface.cpp</text>
</a>
</g>
</g>
<!-- Node26&#45;&gt;Node69 -->
<g id="edge36" class="edge">
<title>Node26&#45;&gt;Node69</title>
<path fill="none" stroke="#191970" d="M2577.1668,-122.8354C2624.4722,-113.9569 2694.3299,-100.4222 2754.8984,-87 2763.1461,-85.1723 2771.9685,-83.0851 2780.3209,-81.0474"/>
<polygon fill="#191970" stroke="#191970" points="2576.3165,-119.4336 2567.1305,-124.7127 2577.6035,-126.3143 2576.3165,-119.4336"/>
</g>
<!-- Node70 -->
<g id="node37" class="node">
<title>Node70</title>
<g id="a_node37"><a xlink:href="ConstraintsGroup_8cpp.html" target="_top" xlink:title="ConstraintsGroup.cpp">
<polygon fill="none" stroke="#000000" points="2889.8984,-62 2889.8984,-81 3011.8984,-81 3011.8984,-62 2889.8984,-62"/>
<text text-anchor="middle" x="2950.8984" y="-69" font-family="FreeSans.ttf" font-size="10.00" fill="#000000">ConstraintsGroup.cpp</text>
</a>
</g>
</g>
<!-- Node26&#45;&gt;Node70 -->
<g id="edge37" class="edge">
<title>Node26&#45;&gt;Node70</title>
<path fill="none" stroke="#191970" d="M2577.0411,-123.5679C2578.3388,-123.3737 2579.626,-123.1841 2580.8984,-123 2713.8049,-103.7739 2748.5143,-109.5435 2880.8984,-87 2890.7148,-85.3284 2901.2319,-83.1878 2911.0531,-81.0347"/>
<polygon fill="#191970" stroke="#191970" points="2576.3065,-120.1399 2566.961,-125.1311 2577.3793,-127.0573 2576.3065,-120.1399"/>
</g>
<!-- Node71 -->
<g id="node38" class="node">
<title>Node71</title>
<g id="a_node38"><a xlink:href="FixedStepIntegrator_8cpp.html" target="_top" xlink:title="FixedStepIntegrator.cpp">
<polygon fill="none" stroke="#000000" points="3030.3984,-62 3030.3984,-81 3161.3984,-81 3161.3984,-62 3030.3984,-62"/>
<text text-anchor="middle" x="3095.8984" y="-69" font-family="FreeSans.ttf" font-size="10.00" fill="#000000">FixedStepIntegrator.cpp</text>
</a>
</g>
</g>
<!-- Node26&#45;&gt;Node71 -->
<g id="edge38" class="edge">
<title>Node26&#45;&gt;Node71</title>
<path fill="none" stroke="#191970" d="M2577.0322,-123.5025C2578.3326,-123.3279 2579.6228,-123.16 2580.8984,-123 2775.5823,-98.5832 2826.6843,-114.9074 3020.8984,-87 3031.8219,-85.4304 3043.546,-83.2492 3054.4034,-81.0181"/>
<polygon fill="#191970" stroke="#191970" points="2576.3368,-120.0665 2566.9372,-124.955 2577.3338,-126.9951 2576.3368,-120.0665"/>
</g>
<!-- Node72 -->
<g id="node39" class="node">
<title>Node72</title>
<g id="a_node39"><a xlink:href="ForwardEuler_8cpp.html" target="_top" xlink:title="ForwardEuler.cpp">
<polygon fill="none" stroke="#000000" points="3179.8984,-62 3179.8984,-81 3279.8984,-81 3279.8984,-62 3179.8984,-62"/>
<text text-anchor="middle" x="3229.8984" y="-69" font-family="FreeSans.ttf" font-size="10.00" fill="#000000">ForwardEuler.cpp</text>
</a>
</g>
</g>
<!-- Node26&#45;&gt;Node72 -->
<g id="edge39" class="edge">
<title>Node26&#45;&gt;Node72</title>
<path fill="none" stroke="#191970" d="M2577.0279,-123.4666C2578.3296,-123.3027 2579.6212,-123.1468 2580.8984,-123 2841.8906,-93.0066 2911.4992,-128.5754 3170.8984,-87 3179.8916,-85.5586 3189.5009,-83.3364 3198.2974,-81.0207"/>
<polygon fill="#191970" stroke="#191970" points="2576.3543,-120.0263 2566.9256,-124.8584 2577.3097,-126.9608 2576.3543,-120.0263"/>
</g>
<!-- Node27&#45;&gt;Node29 -->
<g id="edge4" class="edge">
<title>Node27&#45;&gt;Node29</title>
<path fill="none" stroke="#191970" d="M2133.653,-59.0786C2129.0655,-57.8584 2124.4017,-56.7841 2119.8984,-56 1929.7554,-22.8941 1333.3802,-13.0185 1140.0541,-10.6477"/>
<polygon fill="#191970" stroke="#191970" points="2132.9026,-62.5051 2143.4816,-61.9269 2134.851,-55.7817 2132.9026,-62.5051"/>
</g>
<!-- Node27&#45;&gt;Node31 -->
<g id="edge5" class="edge">
<title>Node27&#45;&gt;Node31</title>
<path fill="none" stroke="#191970" d="M2206.1494,-59.1438C2211.0581,-57.866 2216.0676,-56.7596 2220.8984,-56 2356.1332,-34.7359 4473.7028,-14.3331 4879.8355,-10.6047"/>
<polygon fill="#191970" stroke="#191970" points="2204.9619,-55.8428 2196.305,-61.9509 2206.8815,-62.5745 2204.9619,-55.8428"/>
</g>
<!-- Node99&#45;&gt;Node39 -->
<g id="edge41" class="edge">
<title>Node99&#45;&gt;Node39</title>
<path fill="none" stroke="#191970" d="M475.3078,-116.8692C488.9185,-105.5576 506.6682,-90.8062 518.1729,-81.2449"/>
<polygon fill="#191970" stroke="#191970" points="472.9146,-114.3072 467.4609,-123.3906 477.3888,-119.6907 472.9146,-114.3072"/>
</g>
<!-- Node99&#45;&gt;Node41 -->
<g id="edge42" class="edge">
<title>Node99&#45;&gt;Node41</title>
<path fill="none" stroke="#191970" d="M494.0715,-120.1009C528.5902,-108.4366 578.6221,-91.5302 609.6606,-81.0419"/>
<polygon fill="#191970" stroke="#191970" points="492.6892,-116.8735 484.3359,-123.3906 494.9302,-123.5051 492.6892,-116.8735"/>
</g>
<!-- Node99&#45;&gt;Node54 -->
<g id="edge43" class="edge">
<title>Node99&#45;&gt;Node54</title>
<path fill="none" stroke="#191970" d="M407.6545,-120.9878C360.778,-109.3162 290.5229,-91.8235 247.3111,-81.0643"/>
<polygon fill="#191970" stroke="#191970" points="407.0263,-124.4382 417.5757,-123.4581 408.7176,-117.6456 407.0263,-124.4382"/>
</g>
<!-- Node99&#45;&gt;Node55 -->
<g id="edge44" class="edge">
<title>Node99&#45;&gt;Node55</title>
<path fill="none" stroke="#191970" d="M438.972,-116.2101C429.6269,-106.9403 418.1156,-95.5218 409.0654,-86.5446"/>
<polygon fill="#191970" stroke="#191970" points="436.6464,-118.8331 446.2109,-123.3906 441.5761,-113.8633 436.6464,-118.8331"/>
</g>
<!-- Node99&#45;&gt;Node63 -->
<g id="edge45" class="edge">
<title>Node99&#45;&gt;Node63</title>
<path fill="none" stroke="#191970" d="M388.3887,-124.2755C291.8086,-111.754 124.2908,-89.8702 110.8984,-87 103.3453,-85.3812 95.2957,-83.2092 87.8426,-81.0044"/>
<polygon fill="#191970" stroke="#191970" points="387.999,-127.7542 398.3659,-125.5684 388.8987,-120.8122 387.999,-127.7542"/>
</g>
<!-- Node189&#45;&gt;Node35 -->
<g id="edge47" class="edge">
<title>Node189&#45;&gt;Node35</title>
<path fill="none" stroke="#191970" d="M811.4563,-119.7993C841.9613,-108.1468 885.6974,-91.4402 912.9188,-81.0419"/>
<polygon fill="#191970" stroke="#191970" points="810.1474,-116.5526 802.0547,-123.3906 812.6453,-123.0917 810.1474,-116.5526"/>
</g>
<!-- Node189&#45;&gt;Node39 -->
<g id="edge48" class="edge">
<title>Node189&#45;&gt;Node39</title>
<path fill="none" stroke="#191970" d="M735.6526,-124.5387C695.2265,-115.9939 631.9759,-101.9522 577.8984,-87 571.3994,-85.203 564.4674,-83.0848 557.9508,-81.0011"/>
<polygon fill="#191970" stroke="#191970" points="735.1639,-128.0124 745.6697,-126.6422 736.6025,-121.1618 735.1639,-128.0124"/>
</g>
<!-- Node189&#45;&gt;Node41 -->
<g id="edge49" class="edge">
<title>Node189&#45;&gt;Node41</title>
<path fill="none" stroke="#191970" d="M746.031,-119.3428C719.7478,-107.7139 682.6612,-91.3051 659.4647,-81.0419"/>
<polygon fill="#191970" stroke="#191970" points="744.6186,-122.5452 755.1797,-123.3906 747.451,-116.1437 744.6186,-122.5452"/>
</g>
<!-- Node189&#45;&gt;Node57 -->
<g id="edge50" class="edge">
<title>Node189&#45;&gt;Node57</title>
<path fill="none" stroke="#191970" d="M776.8984,-113.2462C776.8984,-102.5519 776.8984,-89.814 776.8984,-81.2449"/>
<polygon fill="#191970" stroke="#191970" points="773.3985,-113.3906 776.8984,-123.3906 780.3985,-113.3907 773.3985,-113.3906"/>
</g>
<!-- Node221&#45;&gt;Node54 -->
<g id="edge59" class="edge">
<title>Node221&#45;&gt;Node54</title>
<path fill="none" stroke="#191970" d="M303.6611,-118.8813C280.4648,-107.2832 248.2386,-91.1701 227.9822,-81.0419"/>
<polygon fill="#191970" stroke="#191970" points="302.1701,-122.0489 312.6797,-123.3906 305.3007,-115.7879 302.1701,-122.0489"/>
</g>
<!-- Node221&#45;&gt;Node55 -->
<g id="edge60" class="edge">
<title>Node221&#45;&gt;Node55</title>
<path fill="none" stroke="#191970" d="M348.8249,-116.2101C358.17,-106.9403 369.6813,-95.5218 378.7315,-86.5446"/>
<polygon fill="#191970" stroke="#191970" points="346.2208,-113.8633 341.5859,-123.3906 351.1505,-118.8331 346.2208,-113.8633"/>
</g>
<!-- Node221&#45;&gt;Node63 -->
<g id="edge61" class="edge">
<title>Node221&#45;&gt;Node63</title>
<path fill="none" stroke="#191970" d="M285.2882,-124.4848C240.3813,-116.0018 170.6485,-102.0947 110.8984,-87 103.8658,-85.2233 96.3593,-83.1132 89.3002,-81.0308"/>
<polygon fill="#191970" stroke="#191970" points="284.8398,-127.9617 295.3138,-126.3664 286.1311,-121.0818 284.8398,-127.9617"/>
</g>
</g>
</svg>
