<?xml version="1.0" encoding="UTF-8" standalone="no"?>
<!DOCTYPE svg PUBLIC "-//W3C//DTD SVG 1.1//EN"
 "http://www.w3.org/Graphics/SVG/1.1/DTD/svg11.dtd">
<!-- Generated by graphviz version 2.40.1 (20161225.0304)
 -->
<!-- Title: AngularMotionVector3.h Pages: 1 -->
<svg width="4598pt" height="263pt"
 viewBox="0.00 0.00 4597.50 263.00" xmlns="http://www.w3.org/2000/svg" xmlns:xlink="http://www.w3.org/1999/xlink">
<g id="graph0" class="graph" transform="scale(1 1) rotate(0) translate(4 259)">
<title>AngularMotionVector3.h</title>
<!-- Node24 -->
<g id="node1" class="node">
<title>Node24</title>
<polygon fill="#bfbfbf" stroke="#000000" points="3159,-235.5 3159,-254.5 3292,-254.5 3292,-235.5 3159,-235.5"/>
<text text-anchor="middle" x="3225.5" y="-242.5" font-family="FreeSans.ttf" font-size="10.00" fill="#000000">AngularMotionVector3.h</text>
</g>
<!-- Node25 -->
<g id="node2" class="node">
<title>Node25</title>
<g id="a_node2"><a xlink:href="SpatialMotionVector_8h.html" target="_top" xlink:title="SpatialMotionVector.h">
<polygon fill="none" stroke="#000000" points="2942.5,-179.5 2942.5,-198.5 3064.5,-198.5 3064.5,-179.5 2942.5,-179.5"/>
<text text-anchor="middle" x="3003.5" y="-186.5" font-family="FreeSans.ttf" font-size="10.00" fill="#000000">SpatialMotionVector.h</text>
</a>
</g>
</g>
<!-- Node24&#45;&gt;Node25 -->
<g id="edge1" class="edge">
<title>Node24&#45;&gt;Node25</title>
<path fill="none" stroke="#191970" d="M3177.8572,-232.982C3137.0097,-222.6781 3078.9525,-208.0331 3041.2546,-198.5237"/>
<polygon fill="#191970" stroke="#191970" points="3177.0367,-236.3846 3187.5891,-235.4369 3178.7489,-229.5972 3177.0367,-236.3846"/>
</g>
<!-- Node39 -->
<g id="node11" class="node">
<title>Node39</title>
<g id="a_node11"><a xlink:href="Rotation_8cpp.html" target="_top" xlink:title="Rotation.cpp">
<polygon fill="none" stroke="#000000" points="139,-62 139,-81 216,-81 216,-62 139,-62"/>
<text text-anchor="middle" x="177.5" y="-69" font-family="FreeSans.ttf" font-size="10.00" fill="#000000">Rotation.cpp</text>
</a>
</g>
</g>
<!-- Node24&#45;&gt;Node39 -->
<g id="edge64" class="edge">
<title>Node24&#45;&gt;Node39</title>
<path fill="none" stroke="#191970" d="M3148.733,-243.5269C2724.1006,-235.206 672.049,-192.6893 394.5,-143 320.8999,-129.8234 238.0346,-97.2856 199.453,-81.0431"/>
<polygon fill="#191970" stroke="#191970" points="3148.6893,-247.0266 3158.7558,-243.7229 3148.8262,-240.028 3148.6893,-247.0266"/>
</g>
<!-- Node176 -->
<g id="node37" class="node">
<title>Node176</title>
<g id="a_node37"><a xlink:href="GyroscopeSensor_8cpp.html" target="_top" xlink:title="GyroscopeSensor.cpp">
<polygon fill="none" stroke="#000000" points="0,-62 0,-81 121,-81 121,-62 0,-62"/>
<text text-anchor="middle" x="60.5" y="-69" font-family="FreeSans.ttf" font-size="10.00" fill="#000000">GyroscopeSensor.cpp</text>
</a>
</g>
</g>
<!-- Node24&#45;&gt;Node176 -->
<g id="edge65" class="edge">
<title>Node24&#45;&gt;Node176</title>
<path fill="none" stroke="#191970" d="M3148.7545,-244.2757C2798.251,-240.8463 1347.2301,-225.303 893.5,-199 634.5159,-183.9865 567.4311,-191.0447 312.5,-143 229.3762,-127.3344 134.0126,-96.6885 88.0757,-81.1003"/>
<polygon fill="#191970" stroke="#191970" points="3148.7676,-247.7759 3158.8013,-244.3736 3148.8359,-240.7762 3148.7676,-247.7759"/>
</g>
<!-- Node226 -->
<g id="node46" class="node">
<title>Node226</title>
<g id="a_node46"><a xlink:href="AngularMotionVector3_8cpp.html" target="_top" xlink:title="AngularMotionVector3.cpp">
<polygon fill="none" stroke="#000000" points="3082.5,-179.5 3082.5,-198.5 3226.5,-198.5 3226.5,-179.5 3082.5,-179.5"/>
<text text-anchor="middle" x="3154.5" y="-186.5" font-family="FreeSans.ttf" font-size="10.00" fill="#000000">AngularMotionVector3.cpp</text>
</a>
</g>
</g>
<!-- Node24&#45;&gt;Node226 -->
<g id="edge60" class="edge">
<title>Node24&#45;&gt;Node226</title>
<path fill="none" stroke="#191970" d="M3205.123,-228.928C3192.7129,-219.1397 3177.27,-206.9595 3166.7255,-198.6427"/>
<polygon fill="#191970" stroke="#191970" points="3203.1136,-231.8007 3213.1327,-235.2455 3207.4486,-226.3046 3203.1136,-231.8007"/>
</g>
<!-- Node227 -->
<g id="node47" class="node">
<title>Node227</title>
<g id="a_node47"><a xlink:href="GeomVector3_8cpp.html" target="_top" xlink:title="GeomVector3.cpp">
<polygon fill="none" stroke="#000000" points="3245,-179.5 3245,-198.5 3348,-198.5 3348,-179.5 3245,-179.5"/>
<text text-anchor="middle" x="3296.5" y="-186.5" font-family="FreeSans.ttf" font-size="10.00" fill="#000000">GeomVector3.cpp</text>
</a>
</g>
</g>
<!-- Node24&#45;&gt;Node227 -->
<g id="edge61" class="edge">
<title>Node24&#45;&gt;Node227</title>
<path fill="none" stroke="#191970" d="M3245.877,-228.928C3258.2871,-219.1397 3273.73,-206.9595 3284.2745,-198.6427"/>
<polygon fill="#191970" stroke="#191970" points="3243.5514,-226.3046 3237.8673,-235.2455 3247.8864,-231.8007 3243.5514,-226.3046"/>
</g>
<!-- Node228 -->
<g id="node48" class="node">
<title>Node228</title>
<g id="a_node48"><a xlink:href="LinearMotionVector3_8cpp.html" target="_top" xlink:title="LinearMotionVector3.cpp">
<polygon fill="none" stroke="#000000" points="3366,-179.5 3366,-198.5 3503,-198.5 3503,-179.5 3366,-179.5"/>
<text text-anchor="middle" x="3434.5" y="-186.5" font-family="FreeSans.ttf" font-size="10.00" fill="#000000">LinearMotionVector3.cpp</text>
</a>
</g>
</g>
<!-- Node24&#45;&gt;Node228 -->
<g id="edge62" class="edge">
<title>Node24&#45;&gt;Node228</title>
<path fill="none" stroke="#191970" d="M3271.3311,-232.7199C3309.7613,-222.4228 3363.852,-207.9296 3399.0405,-198.5011"/>
<polygon fill="#191970" stroke="#191970" points="3270.1818,-229.4043 3261.4284,-235.3733 3271.9935,-236.1658 3270.1818,-229.4043"/>
</g>
<!-- Node229 -->
<g id="node49" class="node">
<title>Node229</title>
<g id="a_node49"><a xlink:href="MotionVector3_8cpp.html" target="_top" xlink:title="MotionVector3.cpp">
<polygon fill="none" stroke="#000000" points="3521,-179.5 3521,-198.5 3628,-198.5 3628,-179.5 3521,-179.5"/>
<text text-anchor="middle" x="3574.5" y="-186.5" font-family="FreeSans.ttf" font-size="10.00" fill="#000000">MotionVector3.cpp</text>
</a>
</g>
</g>
<!-- Node24&#45;&gt;Node229 -->
<g id="edge63" class="edge">
<title>Node24&#45;&gt;Node229</title>
<path fill="none" stroke="#191970" d="M3295.3128,-233.8302C3353.4308,-224.5268 3438.3568,-210.9211 3512.5,-199 3515.1912,-198.5673 3517.948,-198.1237 3520.732,-197.6756"/>
<polygon fill="#191970" stroke="#191970" points="3294.4634,-230.4215 3285.1424,-235.4582 3295.5699,-237.3335 3294.4634,-230.4215"/>
</g>
<!-- Node174 -->
<g id="node50" class="node">
<title>Node174</title>
<g id="a_node50"><a xlink:href="Sensors_8cpp.html" target="_top" xlink:title="Sensors.cpp">
<polygon fill="none" stroke="#000000" points="3646,-179.5 3646,-198.5 3721,-198.5 3721,-179.5 3646,-179.5"/>
<text text-anchor="middle" x="3683.5" y="-186.5" font-family="FreeSans.ttf" font-size="10.00" fill="#000000">Sensors.cpp</text>
</a>
</g>
</g>
<!-- Node24&#45;&gt;Node174 -->
<g id="edge66" class="edge">
<title>Node24&#45;&gt;Node174</title>
<path fill="none" stroke="#191970" d="M3302.2523,-238.8085C3385.2402,-231.5606 3521.2549,-218.0728 3637.5,-199 3640.242,-198.5501 3643.0671,-198.0433 3645.9048,-197.5027"/>
<polygon fill="#191970" stroke="#191970" points="3301.8112,-235.3335 3292.1503,-239.6828 3302.4149,-242.3074 3301.8112,-235.3335"/>
</g>
<!-- Node26 -->
<g id="node3" class="node">
<title>Node26</title>
<g id="a_node3"><a xlink:href="EigenHelpers_8h.html" target="_top" xlink:title="EigenHelpers.h">
<polygon fill="none" stroke="#ff0000" points="2501.5,-123.5 2501.5,-142.5 2591.5,-142.5 2591.5,-123.5 2501.5,-123.5"/>
<text text-anchor="middle" x="2546.5" y="-130.5" font-family="FreeSans.ttf" font-size="10.00" fill="#000000">EigenHelpers.h</text>
</a>
</g>
</g>
<!-- Node25&#45;&gt;Node26 -->
<g id="edge2" class="edge">
<title>Node25&#45;&gt;Node26</title>
<path fill="none" stroke="#191970" d="M2932.2331,-180.2671C2837.1225,-168.6124 2671.4537,-148.3116 2591.8053,-138.5516"/>
<polygon fill="#191970" stroke="#191970" points="2931.9897,-183.7633 2942.3411,-181.5057 2932.8411,-176.8153 2931.9897,-183.7633"/>
</g>
<!-- Node29 -->
<g id="node5" class="node">
<title>Node29</title>
<g id="a_node5"><a xlink:href="SpatialInertiaRaw_8cpp.html" target="_top" xlink:title="SpatialInertiaRaw.cpp">
<polygon fill="none" stroke="#000000" points="4467.5,-.5 4467.5,-19.5 4589.5,-19.5 4589.5,-.5 4467.5,-.5"/>
<text text-anchor="middle" x="4528.5" y="-7.5" font-family="FreeSans.ttf" font-size="10.00" fill="#000000">SpatialInertiaRaw.cpp</text>
</a>
</g>
</g>
<!-- Node25&#45;&gt;Node29 -->
<g id="edge50" class="edge">
<title>Node25&#45;&gt;Node29</title>
<path fill="none" stroke="#191970" d="M3074.5595,-179.1296C3278.5254,-165.7423 4437.6911,-206.5673 4545.5,-87 4562.6431,-67.9872 4545.6703,-35.6649 4535.2754,-19.6224"/>
<polygon fill="#191970" stroke="#191970" points="3074.2415,-175.6436 3064.54,-179.9015 3074.7793,-182.6229 3074.2415,-175.6436"/>
</g>
<!-- Node31 -->
<g id="node6" class="node">
<title>Node31</title>
<g id="a_node6"><a xlink:href="SpatialMotionVector_8cpp.html" target="_top" xlink:title="SpatialMotionVector.cpp">
<polygon fill="none" stroke="#000000" points="4260.5,-.5 4260.5,-19.5 4394.5,-19.5 4394.5,-.5 4260.5,-.5"/>
<text text-anchor="middle" x="4327.5" y="-7.5" font-family="FreeSans.ttf" font-size="10.00" fill="#000000">SpatialMotionVector.cpp</text>
</a>
</g>
</g>
<!-- Node25&#45;&gt;Node31 -->
<g id="edge51" class="edge">
<title>Node25&#45;&gt;Node31</title>
<path fill="none" stroke="#191970" d="M2948.0716,-176.8585C2908.3129,-165.769 2865.6398,-147.3907 2889.5,-123 2953.1119,-57.9738 4462.8881,-152.0262 4526.5,-87 4570.5385,-41.9824 4468.3336,-22.7984 4394.6947,-14.9896"/>
<polygon fill="#191970" stroke="#191970" points="2947.2439,-180.26 2957.8079,-179.4522 2949.0459,-173.4959 2947.2439,-180.26"/>
</g>
<!-- Node86 -->
<g id="node34" class="node">
<title>Node86</title>
<g id="a_node34"><a xlink:href="PredictSensorsMeasurements_8cpp.html" target="_top" xlink:title="PredictSensorsMeasurements.cpp">
<polygon fill="none" stroke="#000000" points="847,-62 847,-81 1028,-81 1028,-62 847,-62"/>
<text text-anchor="middle" x="937.5" y="-69" font-family="FreeSans.ttf" font-size="10.00" fill="#000000">PredictSensorsMeasurements.cpp</text>
</a>
</g>
</g>
<!-- Node25&#45;&gt;Node86 -->
<g id="edge59" class="edge">
<title>Node25&#45;&gt;Node86</title>
<path fill="none" stroke="#191970" d="M2931.8562,-187.9184C2674.829,-183.4783 1775.2169,-163.11 1037.5,-87 1022.8204,-85.4855 1007.0077,-83.2961 992.386,-81.0377"/>
<polygon fill="#191970" stroke="#191970" points="2932.1137,-191.4232 2942.1719,-188.0939 2932.2329,-184.4242 2932.1137,-191.4232"/>
</g>
<!-- Node99 -->
<g id="node35" class="node">
<title>Node99</title>
<g id="a_node35"><a xlink:href="SpatialAcc_8h.html" target="_top" xlink:title="SpatialAcc.h">
<polygon fill="none" stroke="#ff0000" points="575,-123.5 575,-142.5 652,-142.5 652,-123.5 575,-123.5"/>
<text text-anchor="middle" x="613.5" y="-130.5" font-family="FreeSans.ttf" font-size="10.00" fill="#000000">SpatialAcc.h</text>
</a>
</g>
</g>
<!-- Node25&#45;&gt;Node99 -->
<g id="edge35" class="edge">
<title>Node25&#45;&gt;Node99</title>
<path fill="none" stroke="#191970" d="M2932.1891,-187.3291C2568.46,-178.8066 926.3862,-140.3312 652.3393,-133.91"/>
<polygon fill="#191970" stroke="#191970" points="2932.2426,-190.8312 2942.3219,-187.5665 2932.4067,-183.8332 2932.2426,-190.8312"/>
</g>
<!-- Node219 -->
<g id="node36" class="node">
<title>Node219</title>
<g id="a_node36"><a xlink:href="Twist_8h.html" target="_top" xlink:title="Twist.h">
<polygon fill="none" stroke="#ff0000" points="403.5,-123.5 403.5,-142.5 453.5,-142.5 453.5,-123.5 403.5,-123.5"/>
<text text-anchor="middle" x="428.5" y="-130.5" font-family="FreeSans.ttf" font-size="10.00" fill="#000000">Twist.h</text>
</a>
</g>
</g>
<!-- Node25&#45;&gt;Node219 -->
<g id="edge42" class="edge">
<title>Node25&#45;&gt;Node219</title>
<path fill="none" stroke="#191970" d="M2932.1613,-188.175C2582.1467,-184.0477 1044.0818,-164.9654 565.5,-143 526.4304,-141.2068 481.1939,-137.6072 453.726,-135.2515"/>
<polygon fill="#191970" stroke="#191970" points="2932.371,-191.6776 2942.4116,-188.2956 2932.4535,-184.6781 2932.371,-191.6776"/>
</g>
<!-- Node221 -->
<g id="node38" class="node">
<title>Node221</title>
<g id="a_node38"><a xlink:href="PositionRaw_8cpp.html" target="_top" xlink:title="PositionRaw.cpp">
<polygon fill="none" stroke="#000000" points="2898.5,-123.5 2898.5,-142.5 2994.5,-142.5 2994.5,-123.5 2898.5,-123.5"/>
<text text-anchor="middle" x="2946.5" y="-130.5" font-family="FreeSans.ttf" font-size="10.00" fill="#000000">PositionRaw.cpp</text>
</a>
</g>
</g>
<!-- Node25&#45;&gt;Node221 -->
<g id="edge48" class="edge">
<title>Node25&#45;&gt;Node221</title>
<path fill="none" stroke="#191970" d="M2986.2729,-172.0751C2976.4659,-162.4402 2964.536,-150.7196 2956.3149,-142.6427"/>
<polygon fill="#191970" stroke="#191970" points="2983.9851,-174.734 2993.5714,-179.2455 2988.8909,-169.7406 2983.9851,-174.734"/>
</g>
<!-- Node222 -->
<g id="node39" class="node">
<title>Node222</title>
<g id="a_node39"><a xlink:href="RotationRaw_8cpp.html" target="_top" xlink:title="RotationRaw.cpp">
<polygon fill="none" stroke="#000000" points="3012.5,-123.5 3012.5,-142.5 3110.5,-142.5 3110.5,-123.5 3012.5,-123.5"/>
<text text-anchor="middle" x="3061.5" y="-130.5" font-family="FreeSans.ttf" font-size="10.00" fill="#000000">RotationRaw.cpp</text>
</a>
</g>
</g>
<!-- Node25&#45;&gt;Node222 -->
<g id="edge49" class="edge">
<title>Node25&#45;&gt;Node222</title>
<path fill="none" stroke="#191970" d="M3021.0293,-172.0751C3031.0083,-162.4402 3043.1476,-150.7196 3051.5129,-142.6427"/>
<polygon fill="#191970" stroke="#191970" points="3018.3658,-169.7817 3013.6028,-179.2455 3023.228,-174.8175 3018.3658,-169.7817"/>
</g>
<!-- Node101 -->
<g id="node40" class="node">
<title>Node101</title>
<g id="a_node40"><a xlink:href="TestUtils_8cpp.html" target="_top" xlink:title="TestUtils.cpp">
<polygon fill="none" stroke="#000000" points="3129,-123.5 3129,-142.5 3208,-142.5 3208,-123.5 3129,-123.5"/>
<text text-anchor="middle" x="3168.5" y="-130.5" font-family="FreeSans.ttf" font-size="10.00" fill="#000000">TestUtils.cpp</text>
</a>
</g>
</g>
<!-- Node25&#45;&gt;Node101 -->
<g id="edge52" class="edge">
<title>Node25&#45;&gt;Node101</title>
<path fill="none" stroke="#191970" d="M3041.6356,-176.057C3071.8325,-165.8084 3113.3163,-151.729 3140.5056,-142.5011"/>
<polygon fill="#191970" stroke="#191970" points="3040.2091,-172.845 3031.8645,-179.3733 3042.4589,-179.4736 3040.2091,-172.845"/>
</g>
<!-- Node102 -->
<g id="node41" class="node">
<title>Node102</title>
<g id="a_node41"><a xlink:href="DynamicsUtils_8h.html" target="_top" xlink:title="DynamicsUtils.h">
<polygon fill="none" stroke="#000000" points="3226,-123.5 3226,-142.5 3323,-142.5 3323,-123.5 3226,-123.5"/>
<text text-anchor="middle" x="3274.5" y="-130.5" font-family="FreeSans.ttf" font-size="10.00" fill="#000000">DynamicsUtils.h</text>
</a>
</g>
</g>
<!-- Node25&#45;&gt;Node102 -->
<g id="edge53" class="edge">
<title>Node25&#45;&gt;Node102</title>
<path fill="none" stroke="#191970" d="M3059.7712,-177.372C3109.7199,-167.0505 3181.8098,-152.1537 3228.4122,-142.5237"/>
<polygon fill="#191970" stroke="#191970" points="3058.8634,-173.9856 3049.7786,-179.4369 3060.2801,-180.8407 3058.8634,-173.9856"/>
</g>
<!-- Node223 -->
<g id="node42" class="node">
<title>Node223</title>
<g id="a_node42"><a xlink:href="PrismaticJoint_8h.html" target="_top" xlink:title="PrismaticJoint.h">
<polygon fill="none" stroke="#ff0000" points="3341,-123.5 3341,-142.5 3434,-142.5 3434,-123.5 3341,-123.5"/>
<text text-anchor="middle" x="3387.5" y="-130.5" font-family="FreeSans.ttf" font-size="10.00" fill="#000000">PrismaticJoint.h</text>
</a>
</g>
</g>
<!-- Node25&#45;&gt;Node223 -->
<g id="edge54" class="edge">
<title>Node25&#45;&gt;Node223</title>
<path fill="none" stroke="#191970" d="M3074.5442,-178.8619C3190.2397,-162.6938 3220.8856,-160.8957 3332.5,-143 3335.1832,-142.5698 3337.9374,-142.1141 3340.7149,-141.6435"/>
<polygon fill="#191970" stroke="#191970" points="3073.9979,-175.4042 3064.5814,-180.2602 3074.9709,-182.3362 3073.9979,-175.4042"/>
</g>
<!-- Node225 -->
<g id="node43" class="node">
<title>Node225</title>
<g id="a_node43"><a xlink:href="RevoluteJoint_8h.html" target="_top" xlink:title="RevoluteJoint.h">
<polygon fill="none" stroke="#ff0000" points="3906.5,-123.5 3906.5,-142.5 3996.5,-142.5 3996.5,-123.5 3906.5,-123.5"/>
<text text-anchor="middle" x="3951.5" y="-130.5" font-family="FreeSans.ttf" font-size="10.00" fill="#000000">RevoluteJoint.h</text>
</a>
</g>
</g>
<!-- Node25&#45;&gt;Node225 -->
<g id="edge55" class="edge">
<title>Node25&#45;&gt;Node225</title>
<path fill="none" stroke="#191970" d="M3074.5335,-179.0025C3256.6872,-162.193 3753.9039,-141.0878 3906.4496,-134.8252"/>
<polygon fill="#191970" stroke="#191970" points="3074.1689,-175.5212 3064.5446,-179.9511 3074.8308,-182.4899 3074.1689,-175.5212"/>
</g>
<!-- Node208 -->
<g id="node44" class="node">
<title>Node208</title>
<g id="a_node44"><a xlink:href="FixedJoint_8cpp.html" target="_top" xlink:title="FixedJoint.cpp">
<polygon fill="none" stroke="#000000" points="3452.5,-123.5 3452.5,-142.5 3536.5,-142.5 3536.5,-123.5 3452.5,-123.5"/>
<text text-anchor="middle" x="3494.5" y="-130.5" font-family="FreeSans.ttf" font-size="10.00" fill="#000000">FixedJoint.cpp</text>
</a>
</g>
</g>
<!-- Node25&#45;&gt;Node208 -->
<g id="edge57" class="edge">
<title>Node25&#45;&gt;Node208</title>
<path fill="none" stroke="#191970" d="M3074.5503,-178.9255C3239.2492,-159.5974 3283.2132,-166.4561 3443.5,-143 3446.3569,-142.5819 3449.2964,-142.1121 3452.2533,-141.6101"/>
<polygon fill="#191970" stroke="#191970" points="3074.0793,-175.4568 3064.5621,-180.1122 3074.9053,-182.4079 3074.0793,-175.4568"/>
</g>
<!-- Node117 -->
<g id="node45" class="node">
<title>Node117</title>
<g id="a_node45"><a xlink:href="JointState_8cpp.html" target="_top" xlink:title="JointState.cpp">
<polygon fill="none" stroke="#000000" points="3554.5,-123.5 3554.5,-142.5 3638.5,-142.5 3638.5,-123.5 3554.5,-123.5"/>
<text text-anchor="middle" x="3596.5" y="-130.5" font-family="FreeSans.ttf" font-size="10.00" fill="#000000">JointState.cpp</text>
</a>
</g>
</g>
<!-- Node25&#45;&gt;Node117 -->
<g id="edge58" class="edge">
<title>Node25&#45;&gt;Node117</title>
<path fill="none" stroke="#191970" d="M3074.6575,-178.9438C3284.3754,-156.5747 3340.281,-170.8475 3545.5,-143 3548.3611,-142.6118 3551.3037,-142.1643 3554.2629,-141.6786"/>
<polygon fill="#191970" stroke="#191970" points="3074.119,-175.4815 3064.5535,-180.037 3074.872,-182.4409 3074.119,-175.4815"/>
</g>
<!-- Node27 -->
<g id="node4" class="node">
<title>Node27</title>
<g id="a_node4"><a xlink:href="PrivateUtils_8h.html" target="_top" xlink:title="PrivateUtils.h">
<polygon fill="none" stroke="#ff0000" points="4286,-62 4286,-81 4369,-81 4369,-62 4286,-62"/>
<text text-anchor="middle" x="4327.5" y="-69" font-family="FreeSans.ttf" font-size="10.00" fill="#000000">PrivateUtils.h</text>
</a>
</g>
</g>
<!-- Node26&#45;&gt;Node27 -->
<g id="edge3" class="edge">
<title>Node26&#45;&gt;Node27</title>
<path fill="none" stroke="#191970" d="M2602.0146,-131.0937C2664.0431,-128.9907 2767.4573,-125.5649 2856.5,-123 3172.0261,-113.9114 3964.8848,-137.3518 4276.5,-87 4284.6307,-85.6862 4293.2721,-83.4125 4301.0864,-81.0051"/>
<polygon fill="#191970" stroke="#191970" points="2601.5509,-127.6074 2591.6756,-131.445 2601.7887,-134.6033 2601.5509,-127.6074"/>
</g>
<!-- Node26&#45;&gt;Node31 -->
<g id="edge13" class="edge">
<title>Node26&#45;&gt;Node31</title>
<path fill="none" stroke="#191970" d="M2601.68,-130.823C2779.203,-123.6963 3326.1221,-100.7356 3361.5,-87 3381.8183,-79.1114 3379.1548,-63.8189 3399.5,-56 3479.115,-25.4028 4060.5943,-13.9649 4260.3436,-10.913"/>
<polygon fill="#191970" stroke="#191970" points="2601.3698,-127.3325 2591.5178,-131.2298 2601.6499,-134.3269 2601.3698,-127.3325"/>
</g>
<!-- Node35 -->
<g id="node7" class="node">
<title>Node35</title>
<g id="a_node7"><a xlink:href="ArticulatedBodyInertia_8cpp.html" target="_top" xlink:title="ArticulatedBodyInertia.cpp">
<polygon fill="none" stroke="#000000" points="682.5,-62 682.5,-81 828.5,-81 828.5,-62 682.5,-62"/>
<text text-anchor="middle" x="755.5" y="-69" font-family="FreeSans.ttf" font-size="10.00" fill="#000000">ArticulatedBodyInertia.cpp</text>
</a>
</g>
</g>
<!-- Node26&#45;&gt;Node35 -->
<g id="edge6" class="edge">
<title>Node26&#45;&gt;Node35</title>
<path fill="none" stroke="#191970" d="M2491.1768,-132.7015C2235.786,-131.1412 1169.1503,-122.5773 837.5,-87 824.8231,-85.6401 811.1721,-83.3836 798.7147,-81.0076"/>
<polygon fill="#191970" stroke="#191970" points="2491.3044,-136.2023 2501.3253,-132.7625 2491.3465,-129.2024 2491.3044,-136.2023"/>
</g>
<!-- Node36 -->
<g id="node8" class="node">
<title>Node36</title>
<g id="a_node8"><a xlink:href="CubicSpline_8cpp.html" target="_top" xlink:title="CubicSpline.cpp">
<polygon fill="none" stroke="#000000" points="3408.5,-62 3408.5,-81 3502.5,-81 3502.5,-62 3408.5,-62"/>
<text text-anchor="middle" x="3455.5" y="-69" font-family="FreeSans.ttf" font-size="10.00" fill="#000000">CubicSpline.cpp</text>
</a>
</g>
</g>
<!-- Node26&#45;&gt;Node36 -->
<g id="edge7" class="edge">
<title>Node26&#45;&gt;Node36</title>
<path fill="none" stroke="#191970" d="M2601.9426,-131.4028C2764.9507,-126.4835 3240.8288,-110.4629 3394.5,-87 3403.7894,-85.5817 3413.7216,-83.367 3422.8163,-81.0512"/>
<polygon fill="#191970" stroke="#191970" points="2601.5554,-127.9128 2591.6647,-131.7108 2601.7651,-134.9096 2601.5554,-127.9128"/>
</g>
<!-- Node37 -->
<g id="node9" class="node">
<title>Node37</title>
<g id="a_node9"><a xlink:href="Direction_8cpp.html" target="_top" xlink:title="Direction.cpp">
<polygon fill="none" stroke="#000000" points="3521,-62 3521,-81 3602,-81 3602,-62 3521,-62"/>
<text text-anchor="middle" x="3561.5" y="-69" font-family="FreeSans.ttf" font-size="10.00" fill="#000000">Direction.cpp</text>
</a>
</g>
</g>
<!-- Node26&#45;&gt;Node37 -->
<g id="edge8" class="edge">
<title>Node26&#45;&gt;Node37</title>
<path fill="none" stroke="#191970" d="M2601.9038,-131.1772C2793.6329,-124.7564 3422.0848,-102.7282 3511.5,-87 3519.2871,-85.6302 3527.5561,-83.4013 3535.0801,-81.0554"/>
<polygon fill="#191970" stroke="#191970" points="2601.6482,-127.6837 2591.7707,-131.5157 2601.8819,-134.6798 2601.6482,-127.6837"/>
</g>
<!-- Node38 -->
<g id="node10" class="node">
<title>Node38</title>
<g id="a_node10"><a xlink:href="InertiaNonLinearParametrization_8cpp.html" target="_top" xlink:title="InertiaNonLinearParametrization.cpp">
<polygon fill="none" stroke="#000000" points="3620,-62 3620,-81 3815,-81 3815,-62 3620,-62"/>
<text text-anchor="middle" x="3717.5" y="-69" font-family="FreeSans.ttf" font-size="10.00" fill="#000000">InertiaNonLinearParametrization.cpp</text>
</a>
</g>
</g>
<!-- Node26&#45;&gt;Node38 -->
<g id="edge9" class="edge">
<title>Node26&#45;&gt;Node38</title>
<path fill="none" stroke="#191970" d="M2602.0187,-130.935C2806.4843,-123.2839 3510.8767,-96.505 3611.5,-87 3627.2386,-85.5133 3644.2118,-83.3051 3659.8646,-81.0184"/>
<polygon fill="#191970" stroke="#191970" points="2601.675,-127.4453 2591.8128,-131.3165 2601.9366,-134.4404 2601.675,-127.4453"/>
</g>
<!-- Node26&#45;&gt;Node39 -->
<g id="edge10" class="edge">
<title>Node26&#45;&gt;Node39</title>
<path fill="none" stroke="#191970" d="M2490.9506,-132.8704C2160.0254,-131.9691 455.0393,-125.4766 225.5,-87 217.8998,-85.726 209.8529,-83.4964 202.5644,-81.1186"/>
<polygon fill="#191970" stroke="#191970" points="2491.2319,-136.371 2501.2413,-132.8978 2491.2507,-129.3711 2491.2319,-136.371"/>
</g>
<!-- Node40 -->
<g id="node12" class="node">
<title>Node40</title>
<g id="a_node12"><a xlink:href="SpatialForceVector_8cpp.html" target="_top" xlink:title="SpatialForceVector.cpp">
<polygon fill="none" stroke="#000000" points="3833,-62 3833,-81 3960,-81 3960,-62 3833,-62"/>
<text text-anchor="middle" x="3896.5" y="-69" font-family="FreeSans.ttf" font-size="10.00" fill="#000000">SpatialForceVector.cpp</text>
</a>
</g>
</g>
<!-- Node26&#45;&gt;Node40 -->
<g id="edge11" class="edge">
<title>Node26&#45;&gt;Node40</title>
<path fill="none" stroke="#191970" d="M2601.8067,-131.1418C2843.1893,-123.0151 3793.7348,-90.8349 3824.5,-87 3835.5387,-85.624 3847.3901,-83.3931 3858.2269,-81.0473"/>
<polygon fill="#191970" stroke="#191970" points="2601.3935,-127.6536 2591.5169,-131.4881 2601.629,-134.6496 2601.3935,-127.6536"/>
</g>
<!-- Node41 -->
<g id="node13" class="node">
<title>Node41</title>
<g id="a_node13"><a xlink:href="SpatialInertia_8cpp.html" target="_top" xlink:title="SpatialInertia.cpp">
<polygon fill="none" stroke="#000000" points="562.5,-62 562.5,-81 664.5,-81 664.5,-62 562.5,-62"/>
<text text-anchor="middle" x="613.5" y="-69" font-family="FreeSans.ttf" font-size="10.00" fill="#000000">SpatialInertia.cpp</text>
</a>
</g>
</g>
<!-- Node26&#45;&gt;Node41 -->
<g id="edge12" class="edge">
<title>Node26&#45;&gt;Node41</title>
<path fill="none" stroke="#191970" d="M2490.9892,-132.3918C2200.0233,-129.1025 857.1705,-112.6361 673.5,-87 664.1233,-85.6912 654.1032,-83.4507 644.9901,-81.0736"/>
<polygon fill="#191970" stroke="#191970" points="2491.2515,-135.8948 2501.2903,-132.5077 2491.3303,-128.8953 2491.2515,-135.8948"/>
</g>
<!-- Node42 -->
<g id="node14" class="node">
<title>Node42</title>
<g id="a_node14"><a xlink:href="TransformDerivative_8cpp.html" target="_top" xlink:title="TransformDerivative.cpp">
<polygon fill="none" stroke="#000000" points="3978,-62 3978,-81 4115,-81 4115,-62 3978,-62"/>
<text text-anchor="middle" x="4046.5" y="-69" font-family="FreeSans.ttf" font-size="10.00" fill="#000000">TransformDerivative.cpp</text>
</a>
</g>
</g>
<!-- Node26&#45;&gt;Node42 -->
<g id="edge14" class="edge">
<title>Node26&#45;&gt;Node42</title>
<path fill="none" stroke="#191970" d="M2601.85,-131.2146C2864.0323,-122.7569 3968.4181,-87.1255 3969.5,-87 3981.2845,-85.6331 3993.9522,-83.405 4005.5418,-81.0591"/>
<polygon fill="#191970" stroke="#191970" points="2601.6795,-127.7182 2591.7975,-131.5389 2601.9052,-134.7145 2601.6795,-127.7182"/>
</g>
<!-- Node43 -->
<g id="node15" class="node">
<title>Node43</title>
<g id="a_node15"><a xlink:href="AttitudeEstimatorUtils_8h.html" target="_top" xlink:title="AttitudeEstimatorUtils.h">
<polygon fill="none" stroke="#ff0000" points="4133.5,-62 4133.5,-81 4267.5,-81 4267.5,-62 4133.5,-62"/>
<text text-anchor="middle" x="4200.5" y="-69" font-family="FreeSans.ttf" font-size="10.00" fill="#000000">AttitudeEstimatorUtils.h</text>
</a>
</g>
</g>
<!-- Node26&#45;&gt;Node43 -->
<g id="edge15" class="edge">
<title>Node26&#45;&gt;Node43</title>
<path fill="none" stroke="#191970" d="M2602.0161,-131.1445C2664.046,-129.0864 2767.4613,-125.7001 2856.5,-123 3420.0236,-105.9114 3564.4274,-151.5723 4124.5,-87 4136.2721,-85.6428 4148.9314,-83.3871 4160.4769,-81.011"/>
<polygon fill="#191970" stroke="#191970" points="2601.5551,-127.6578 2591.6769,-131.488 2601.7876,-134.6539 2601.5551,-127.6578"/>
</g>
<!-- Node47 -->
<g id="node16" class="node">
<title>Node47</title>
<g id="a_node16"><a xlink:href="GravityCompensationHelpers_8h.html" target="_top" xlink:title="GravityCompensationHelpers.h">
<polygon fill="none" stroke="#ff0000" points="1046.5,-62 1046.5,-81 1216.5,-81 1216.5,-62 1046.5,-62"/>
<text text-anchor="middle" x="1131.5" y="-69" font-family="FreeSans.ttf" font-size="10.00" fill="#000000">GravityCompensationHelpers.h</text>
</a>
</g>
</g>
<!-- Node26&#45;&gt;Node47 -->
<g id="edge16" class="edge">
<title>Node26&#45;&gt;Node47</title>
<path fill="none" stroke="#191970" d="M2491.1747,-132.0233C2273.674,-128.0363 1476.9939,-112.0089 1225.5,-87 1211.3456,-85.5925 1196.0929,-83.3814 1182.0772,-81.0655"/>
<polygon fill="#191970" stroke="#191970" points="2491.3278,-135.5266 2501.3899,-132.2095 2491.4554,-128.5277 2491.3278,-135.5266"/>
</g>
<!-- Node49 -->
<g id="node17" class="node">
<title>Node49</title>
<g id="a_node17"><a xlink:href="KalmanFilter_8h.html" target="_top" xlink:title="KalmanFilter.h">
<polygon fill="none" stroke="#ff0000" points="1234.5,-62 1234.5,-81 1320.5,-81 1320.5,-62 1234.5,-62"/>
<text text-anchor="middle" x="1277.5" y="-69" font-family="FreeSans.ttf" font-size="10.00" fill="#000000">KalmanFilter.h</text>
</a>
</g>
</g>
<!-- Node26&#45;&gt;Node49 -->
<g id="edge17" class="edge">
<title>Node26&#45;&gt;Node49</title>
<path fill="none" stroke="#191970" d="M2491.3492,-132.7569C2284.8736,-131.5609 1557.7232,-124.7059 1329.5,-87 1321.321,-85.6487 1312.6205,-83.3949 1304.7236,-81.0187"/>
<polygon fill="#191970" stroke="#191970" points="2491.3368,-136.2568 2501.3562,-132.8128 2491.3759,-129.2569 2491.3368,-136.2568"/>
</g>
<!-- Node51 -->
<g id="node18" class="node">
<title>Node51</title>
<g id="a_node18"><a xlink:href="BerdyHelper_8cpp.html" target="_top" xlink:title="BerdyHelper.cpp">
<polygon fill="none" stroke="#000000" points="1339,-62 1339,-81 1436,-81 1436,-62 1339,-62"/>
<text text-anchor="middle" x="1387.5" y="-69" font-family="FreeSans.ttf" font-size="10.00" fill="#000000">BerdyHelper.cpp</text>
</a>
</g>
</g>
<!-- Node26&#45;&gt;Node51 -->
<g id="edge18" class="edge">
<title>Node26&#45;&gt;Node51</title>
<path fill="none" stroke="#191970" d="M2491.2232,-132.3273C2297.4433,-129.7139 1649.5905,-118.7549 1444.5,-87 1435.683,-85.6348 1426.2757,-83.4074 1417.6976,-81.0614"/>
<polygon fill="#191970" stroke="#191970" points="2491.4068,-135.83 2501.4524,-132.4632 2491.4998,-128.8306 2491.4068,-135.83"/>
</g>
<!-- Node52 -->
<g id="node19" class="node">
<title>Node52</title>
<g id="a_node19"><a xlink:href="BerdySparseMAPSolver_8cpp.html" target="_top" xlink:title="BerdySparseMAPSolver.cpp">
<polygon fill="none" stroke="#000000" points="1454,-62 1454,-81 1603,-81 1603,-62 1454,-62"/>
<text text-anchor="middle" x="1528.5" y="-69" font-family="FreeSans.ttf" font-size="10.00" fill="#000000">BerdySparseMAPSolver.cpp</text>
</a>
</g>
</g>
<!-- Node26&#45;&gt;Node52 -->
<g id="edge19" class="edge">
<title>Node26&#45;&gt;Node52</title>
<path fill="none" stroke="#191970" d="M2491.1304,-131.2626C2317.2574,-125.6511 1783.5232,-107.1998 1611.5,-87 1599.125,-85.5469 1585.8175,-83.3499 1573.5609,-81.0633"/>
<polygon fill="#191970" stroke="#191970" points="2491.2223,-134.7673 2501.3296,-131.5903 2491.4472,-127.7709 2491.2223,-134.7673"/>
</g>
<!-- Node53 -->
<g id="node20" class="node">
<title>Node53</title>
<g id="a_node20"><a xlink:href="ExtendedKalmanFilter_8cpp.html" target="_top" xlink:title="ExtendedKalmanFilter.cpp">
<polygon fill="none" stroke="#000000" points="1621,-62 1621,-81 1764,-81 1764,-62 1621,-62"/>
<text text-anchor="middle" x="1692.5" y="-69" font-family="FreeSans.ttf" font-size="10.00" fill="#000000">ExtendedKalmanFilter.cpp</text>
</a>
</g>
</g>
<!-- Node26&#45;&gt;Node53 -->
<g id="edge20" class="edge">
<title>Node26&#45;&gt;Node53</title>
<path fill="none" stroke="#191970" d="M2491.1054,-132.2138C2363.7401,-129.8599 2040.4263,-120.7671 1772.5,-87 1760.7096,-85.514 1748.0434,-83.3344 1736.3456,-81.0763"/>
<polygon fill="#191970" stroke="#191970" points="2491.3161,-135.7181 2501.3769,-132.3968 2491.4409,-128.7192 2491.3161,-135.7181"/>
</g>
<!-- Node54 -->
<g id="node21" class="node">
<title>Node54</title>
<g id="a_node21"><a xlink:href="ExternalWrenchesEstimation_8cpp.html" target="_top" xlink:title="ExternalWrenchesEstimation.cpp">
<polygon fill="none" stroke="#000000" points="1782,-62 1782,-81 1959,-81 1959,-62 1782,-62"/>
<text text-anchor="middle" x="1870.5" y="-69" font-family="FreeSans.ttf" font-size="10.00" fill="#000000">ExternalWrenchesEstimation.cpp</text>
</a>
</g>
</g>
<!-- Node26&#45;&gt;Node54 -->
<g id="edge21" class="edge">
<title>Node26&#45;&gt;Node54</title>
<path fill="none" stroke="#191970" d="M2491.1512,-130.0655C2387.9357,-124.2686 2159.167,-109.8909 1967.5,-87 1953.7838,-85.3619 1939.0364,-83.2086 1925.2836,-81.0302"/>
<polygon fill="#191970" stroke="#191970" points="2491.1555,-133.5711 2501.3346,-130.6324 2491.5447,-126.5819 2491.1555,-133.5711"/>
</g>
<!-- Node55 -->
<g id="node22" class="node">
<title>Node55</title>
<g id="a_node22"><a xlink:href="ExtWrenchesAndJointTorquesEstimator_8cpp.html" target="_top" xlink:title="ExtWrenchesAndJointTorques\lEstimator.cpp">
<polygon fill="none" stroke="#000000" points="1976.5,-56.5 1976.5,-86.5 2134.5,-86.5 2134.5,-56.5 1976.5,-56.5"/>
<text text-anchor="start" x="1984.5" y="-74.5" font-family="FreeSans.ttf" font-size="10.00" fill="#000000">ExtWrenchesAndJointTorques</text>
<text text-anchor="middle" x="2055.5" y="-63.5" font-family="FreeSans.ttf" font-size="10.00" fill="#000000">Estimator.cpp</text>
</a>
</g>
</g>
<!-- Node26&#45;&gt;Node55 -->
<g id="edge22" class="edge">
<title>Node26&#45;&gt;Node55</title>
<path fill="none" stroke="#191970" d="M2491.3061,-127.771C2413.5462,-120.1608 2267.3882,-104.9642 2143.5,-87 2140.583,-86.577 2137.6143,-86.1315 2134.6176,-85.669"/>
<polygon fill="#191970" stroke="#191970" points="2491.0659,-131.2641 2501.358,-128.7498 2491.7443,-124.2971 2491.0659,-131.2641"/>
</g>
<!-- Node56 -->
<g id="node23" class="node">
<title>Node56</title>
<g id="a_node23"><a xlink:href="SimpleLeggedOdometry_8cpp.html" target="_top" xlink:title="SimpleLeggedOdometry.cpp">
<polygon fill="none" stroke="#000000" points="2153,-62 2153,-81 2306,-81 2306,-62 2153,-62"/>
<text text-anchor="middle" x="2229.5" y="-69" font-family="FreeSans.ttf" font-size="10.00" fill="#000000">SimpleLeggedOdometry.cpp</text>
</a>
</g>
</g>
<!-- Node26&#45;&gt;Node56 -->
<g id="edge23" class="edge">
<title>Node26&#45;&gt;Node56</title>
<path fill="none" stroke="#191970" d="M2491.3626,-122.303C2431.3106,-110.6525 2336.1552,-92.1918 2278.5932,-81.0244"/>
<polygon fill="#191970" stroke="#191970" points="2490.9347,-125.7852 2501.4183,-124.2539 2492.2679,-118.9133 2490.9347,-125.7852"/>
</g>
<!-- Node57 -->
<g id="node24" class="node">
<title>Node57</title>
<g id="a_node24"><a xlink:href="KinDynComputations_8cpp.html" target="_top" xlink:title="KinDynComputations.cpp">
<polygon fill="none" stroke="#000000" points="234.5,-62 234.5,-81 374.5,-81 374.5,-62 234.5,-62"/>
<text text-anchor="middle" x="304.5" y="-69" font-family="FreeSans.ttf" font-size="10.00" fill="#000000">KinDynComputations.cpp</text>
</a>
</g>
</g>
<!-- Node26&#45;&gt;Node57 -->
<g id="edge24" class="edge">
<title>Node26&#45;&gt;Node57</title>
<path fill="none" stroke="#191970" d="M2490.7948,-132.3906C2173.2395,-128.8398 598.2382,-110.1742 383.5,-87 371.2714,-85.6803 358.1151,-83.4364 346.1137,-81.0595"/>
<polygon fill="#191970" stroke="#191970" points="2491.0863,-135.894 2501.1247,-132.5057 2491.1644,-128.8944 2491.0863,-135.894"/>
</g>
<!-- Node58 -->
<g id="node25" class="node">
<title>Node58</title>
<g id="a_node25"><a xlink:href="BoundingBoxHelpers_8cpp.html" target="_top" xlink:title="BoundingBoxHelpers.cpp">
<polygon fill="none" stroke="#000000" points="2324,-62 2324,-81 2463,-81 2463,-62 2324,-62"/>
<text text-anchor="middle" x="2393.5" y="-69" font-family="FreeSans.ttf" font-size="10.00" fill="#000000">BoundingBoxHelpers.cpp</text>
</a>
</g>
</g>
<!-- Node26&#45;&gt;Node58 -->
<g id="edge25" class="edge">
<title>Node26&#45;&gt;Node58</title>
<path fill="none" stroke="#191970" d="M2513.2821,-119.6477C2484.3106,-108.0023 2442.9953,-91.3952 2417.2384,-81.0419"/>
<polygon fill="#191970" stroke="#191970" points="2512.0099,-122.9084 2522.5938,-123.3906 2514.6206,-116.4135 2512.0099,-122.9084"/>
</g>
<!-- Node59 -->
<g id="node26" class="node">
<title>Node59</title>
<g id="a_node26"><a xlink:href="ConvexHullHelpers_8cpp.html" target="_top" xlink:title="ConvexHullHelpers.cpp">
<polygon fill="none" stroke="#000000" points="2481,-62 2481,-81 2612,-81 2612,-62 2481,-62"/>
<text text-anchor="middle" x="2546.5" y="-69" font-family="FreeSans.ttf" font-size="10.00" fill="#000000">ConvexHullHelpers.cpp</text>
</a>
</g>
</g>
<!-- Node26&#45;&gt;Node59 -->
<g id="edge26" class="edge">
<title>Node26&#45;&gt;Node59</title>
<path fill="none" stroke="#191970" d="M2546.5,-113.2462C2546.5,-102.5519 2546.5,-89.814 2546.5,-81.2449"/>
<polygon fill="#191970" stroke="#191970" points="2543.0001,-113.3906 2546.5,-123.3906 2550.0001,-113.3907 2543.0001,-113.3906"/>
</g>
<!-- Node60 -->
<g id="node27" class="node">
<title>Node60</title>
<g id="a_node27"><a xlink:href="InverseKinematicsData_8cpp.html" target="_top" xlink:title="InverseKinematicsData.cpp">
<polygon fill="none" stroke="#000000" points="393,-62 393,-81 544,-81 544,-62 393,-62"/>
<text text-anchor="middle" x="468.5" y="-69" font-family="FreeSans.ttf" font-size="10.00" fill="#000000">InverseKinematicsData.cpp</text>
</a>
</g>
</g>
<!-- Node26&#45;&gt;Node60 -->
<g id="edge27" class="edge">
<title>Node26&#45;&gt;Node60</title>
<path fill="none" stroke="#191970" d="M2490.9103,-132.8993C2209.9676,-132.2099 944.4297,-126.9046 553.5,-87 540.368,-85.6595 526.2203,-83.4091 513.3069,-81.0327"/>
<polygon fill="#191970" stroke="#191970" points="2491.2473,-136.4 2501.2555,-132.9236 2491.2639,-129.4 2491.2473,-136.4"/>
</g>
<!-- Node61 -->
<g id="node28" class="node">
<title>Node61</title>
<g id="a_node28"><a xlink:href="InverseKinematicsNLP_8cpp.html" target="_top" xlink:title="InverseKinematicsNLP.cpp">
<polygon fill="none" stroke="#000000" points="2630,-62 2630,-81 2775,-81 2775,-62 2630,-62"/>
<text text-anchor="middle" x="2702.5" y="-69" font-family="FreeSans.ttf" font-size="10.00" fill="#000000">InverseKinematicsNLP.cpp</text>
</a>
</g>
</g>
<!-- Node26&#45;&gt;Node61 -->
<g id="edge28" class="edge">
<title>Node26&#45;&gt;Node61</title>
<path fill="none" stroke="#191970" d="M2580.3692,-119.6477C2609.9088,-108.0023 2652.0342,-91.3952 2678.2962,-81.0419"/>
<polygon fill="#191970" stroke="#191970" points="2578.8945,-116.4669 2570.875,-123.3906 2581.4618,-122.9791 2578.8945,-116.4669"/>
</g>
<!-- Node62 -->
<g id="node29" class="node">
<title>Node62</title>
<g id="a_node29"><a xlink:href="DenavitHartenberg_8cpp.html" target="_top" xlink:title="DenavitHartenberg.cpp">
<polygon fill="none" stroke="#000000" points="4387.5,-62 4387.5,-81 4517.5,-81 4517.5,-62 4387.5,-62"/>
<text text-anchor="middle" x="4452.5" y="-69" font-family="FreeSans.ttf" font-size="10.00" fill="#000000">DenavitHartenberg.cpp</text>
</a>
</g>
</g>
<!-- Node26&#45;&gt;Node62 -->
<g id="edge29" class="edge">
<title>Node26&#45;&gt;Node62</title>
<path fill="none" stroke="#191970" d="M2602.0137,-131.0654C2664.0416,-128.9372 2767.4551,-125.4893 2856.5,-123 3194.6847,-113.546 4042.4202,-125.8414 4378.5,-87 4389.9745,-85.6739 4402.3045,-83.4279 4413.5458,-81.0512"/>
<polygon fill="#191970" stroke="#191970" points="2601.5486,-127.5792 2591.6749,-131.421 2601.7893,-134.5751 2601.5486,-127.5792"/>
</g>
<!-- Node63 -->
<g id="node30" class="node">
<title>Node63</title>
<g id="a_node30"><a xlink:href="Dynamics_8cpp.html" target="_top" xlink:title="Dynamics.cpp">
<polygon fill="none" stroke="#000000" points="2793.5,-62 2793.5,-81 2879.5,-81 2879.5,-62 2793.5,-62"/>
<text text-anchor="middle" x="2836.5" y="-69" font-family="FreeSans.ttf" font-size="10.00" fill="#000000">Dynamics.cpp</text>
</a>
</g>
</g>
<!-- Node26&#45;&gt;Node63 -->
<g id="edge30" class="edge">
<title>Node26&#45;&gt;Node63</title>
<path fill="none" stroke="#191970" d="M2601.6864,-123.7847C2649.9208,-115.3749 2721.7073,-101.9982 2783.5,-87 2790.7667,-85.2362 2798.5255,-83.1083 2805.8019,-81.0019"/>
<polygon fill="#191970" stroke="#191970" points="2601.0196,-120.348 2591.7633,-125.5027 2602.2138,-127.2454 2601.0196,-120.348"/>
</g>
<!-- Node64 -->
<g id="node31" class="node">
<title>Node64</title>
<g id="a_node31"><a xlink:href="DynamicsLinearization_8cpp.html" target="_top" xlink:title="DynamicsLinearization.cpp">
<polygon fill="none" stroke="#000000" points="2898,-62 2898,-81 3047,-81 3047,-62 2898,-62"/>
<text text-anchor="middle" x="2972.5" y="-69" font-family="FreeSans.ttf" font-size="10.00" fill="#000000">DynamicsLinearization.cpp</text>
</a>
</g>
</g>
<!-- Node26&#45;&gt;Node64 -->
<g id="edge31" class="edge">
<title>Node26&#45;&gt;Node64</title>
<path fill="none" stroke="#191970" d="M2601.711,-126.4149C2669.4206,-118.1455 2787.6292,-103.0804 2888.5,-87 2899.7764,-85.2024 2911.8687,-83.0838 2923.266,-81.0001"/>
<polygon fill="#191970" stroke="#191970" points="2601.1959,-122.9517 2591.6919,-127.634 2602.0414,-129.9005 2601.1959,-122.9517"/>
</g>
<!-- Node65 -->
<g id="node32" class="node">
<title>Node65</title>
<g id="a_node32"><a xlink:href="DynamicsLinearizationHelpers_8cpp.html" target="_top" xlink:title="DynamicsLinearizationHelpers.cpp">
<polygon fill="none" stroke="#000000" points="3064.5,-62 3064.5,-81 3250.5,-81 3250.5,-62 3064.5,-62"/>
<text text-anchor="middle" x="3157.5" y="-69" font-family="FreeSans.ttf" font-size="10.00" fill="#000000">DynamicsLinearizationHelpers.cpp</text>
</a>
</g>
</g>
<!-- Node26&#45;&gt;Node65 -->
<g id="edge32" class="edge">
<title>Node26&#45;&gt;Node65</title>
<path fill="none" stroke="#191970" d="M2601.6145,-129.1208C2695.1319,-122.2921 2890.7894,-106.9389 3055.5,-87 3069.6365,-85.2887 3084.8298,-83.1455 3099.0601,-81.0036"/>
<polygon fill="#191970" stroke="#191970" points="2601.2553,-125.6376 2591.535,-129.8526 2601.7622,-132.6192 2601.2553,-125.6376"/>
</g>
<!-- Node66 -->
<g id="node33" class="node">
<title>Node66</title>
<g id="a_node33"><a xlink:href="Jacobians_8cpp.html" target="_top" xlink:title="Jacobians.cpp">
<polygon fill="none" stroke="#000000" points="3269,-62 3269,-81 3352,-81 3352,-62 3269,-62"/>
<text text-anchor="middle" x="3310.5" y="-69" font-family="FreeSans.ttf" font-size="10.00" fill="#000000">Jacobians.cpp</text>
</a>
</g>
</g>
<!-- Node26&#45;&gt;Node66 -->
<g id="edge33" class="edge">
<title>Node26&#45;&gt;Node66</title>
<path fill="none" stroke="#191970" d="M2601.9395,-131.077C2746.6815,-125.7917 3133.4635,-109.9008 3259.5,-87 3267.3303,-85.5772 3275.6551,-83.3612 3283.2586,-81.0453"/>
<polygon fill="#191970" stroke="#191970" points="2601.81,-127.5793 2591.9433,-131.4391 2602.0635,-134.5747 2601.81,-127.5793"/>
</g>
<!-- Node26&#45;&gt;Node86 -->
<g id="edge34" class="edge">
<title>Node26&#45;&gt;Node86</title>
<path fill="none" stroke="#191970" d="M2491.2624,-132.2299C2254.9736,-128.7946 1328.0979,-113.8474 1037.5,-87 1022.2803,-85.5939 1005.8558,-83.3534 990.8033,-81.0079"/>
<polygon fill="#191970" stroke="#191970" points="2491.2888,-135.7305 2501.3383,-132.3754 2491.3899,-128.7312 2491.2888,-135.7305"/>
</g>
<!-- Node27&#45;&gt;Node29 -->
<g id="edge4" class="edge">
<title>Node27&#45;&gt;Node29</title>
<path fill="none" stroke="#191970" d="M4368.6803,-58.9001C4406.8303,-47.2273 4462.7412,-30.1202 4497.3143,-19.5419"/>
<polygon fill="#191970" stroke="#191970" points="4367.4446,-55.6179 4358.9063,-61.8906 4369.4927,-62.3116 4367.4446,-55.6179"/>
</g>
<!-- Node27&#45;&gt;Node31 -->
<g id="edge5" class="edge">
<title>Node27&#45;&gt;Node31</title>
<path fill="none" stroke="#191970" d="M4327.5,-51.7462C4327.5,-41.0519 4327.5,-28.314 4327.5,-19.7449"/>
<polygon fill="#191970" stroke="#191970" points="4324.0001,-51.8906 4327.5,-61.8906 4331.0001,-51.8907 4324.0001,-51.8906"/>
</g>
<!-- Node99&#45;&gt;Node35 -->
<g id="edge36" class="edge">
<title>Node99&#45;&gt;Node35</title>
<path fill="none" stroke="#191970" d="M645.0337,-119.3428C671.8841,-107.7139 709.7711,-91.3051 733.4683,-81.0419"/>
<polygon fill="#191970" stroke="#191970" points="643.4728,-116.2046 635.6875,-123.3906 646.2549,-122.628 643.4728,-116.2046"/>
</g>
<!-- Node99&#45;&gt;Node39 -->
<g id="edge37" class="edge">
<title>Node99&#45;&gt;Node39</title>
<path fill="none" stroke="#191970" d="M564.3992,-130.2457C490.2689,-125.4002 345.6661,-113.2635 225.5,-87 218.3993,-85.4481 210.8573,-83.2731 203.9065,-81.0423"/>
<polygon fill="#191970" stroke="#191970" points="564.6117,-133.7662 574.8138,-130.9085 565.0564,-126.7804 564.6117,-133.7662"/>
</g>
<!-- Node99&#45;&gt;Node41 -->
<g id="edge38" class="edge">
<title>Node99&#45;&gt;Node41</title>
<path fill="none" stroke="#191970" d="M613.5,-113.2462C613.5,-102.5519 613.5,-89.814 613.5,-81.2449"/>
<polygon fill="#191970" stroke="#191970" points="610.0001,-113.3906 613.5,-123.3906 617.0001,-113.3907 610.0001,-113.3906"/>
</g>
<!-- Node99&#45;&gt;Node57 -->
<g id="edge39" class="edge">
<title>Node99&#45;&gt;Node57</title>
<path fill="none" stroke="#191970" d="M564.9586,-123.3389C506.8599,-111.7755 410.1909,-92.5356 352.3847,-81.0304"/>
<polygon fill="#191970" stroke="#191970" points="564.4988,-126.8159 574.9897,-125.3353 565.8653,-119.9506 564.4988,-126.8159"/>
</g>
<!-- Node99&#45;&gt;Node60 -->
<g id="edge40" class="edge">
<title>Node99&#45;&gt;Node60</title>
<path fill="none" stroke="#191970" d="M581.3001,-119.3428C553.8824,-107.7139 515.195,-91.3051 490.9972,-81.0419"/>
<polygon fill="#191970" stroke="#191970" points="580.2709,-122.708 590.8438,-123.3906 583.0042,-116.2637 580.2709,-122.708"/>
</g>
<!-- Node99&#45;&gt;Node86 -->
<g id="edge41" class="edge">
<title>Node99&#45;&gt;Node86</title>
<path fill="none" stroke="#191970" d="M662.3486,-123.7278C723.0179,-112.2119 825.9824,-92.6677 887.2808,-81.0324"/>
<polygon fill="#191970" stroke="#191970" points="661.432,-120.3392 652.2601,-125.6427 662.7375,-127.2164 661.432,-120.3392"/>
</g>
<!-- Node219&#45;&gt;Node39 -->
<g id="edge43" class="edge">
<title>Node219&#45;&gt;Node39</title>
<path fill="none" stroke="#191970" d="M393.3671,-126.0356C352.7047,-117.7453 283.8487,-102.9973 225.5,-87 218.9971,-85.2171 212.0635,-83.1045 205.5467,-81.0217"/>
<polygon fill="#191970" stroke="#191970" points="392.8238,-129.4965 403.3195,-128.0504 394.2128,-122.6357 392.8238,-129.4965"/>
</g>
<!-- Node219&#45;&gt;Node41 -->
<g id="edge44" class="edge">
<title>Node219&#45;&gt;Node41</title>
<path fill="none" stroke="#191970" d="M463.6718,-121.3077C498.8125,-109.6258 552.1768,-91.8858 584.83,-81.0308"/>
<polygon fill="#191970" stroke="#191970" points="462.2208,-118.1017 453.8356,-124.5776 464.4291,-124.7443 462.2208,-118.1017"/>
</g>
<!-- Node219&#45;&gt;Node57 -->
<g id="edge45" class="edge">
<title>Node219&#45;&gt;Node57</title>
<path fill="none" stroke="#191970" d="M400.0331,-118.8813C376.6482,-107.2832 344.16,-91.1701 323.7389,-81.0419"/>
<polygon fill="#191970" stroke="#191970" points="398.6112,-122.0829 409.125,-123.3906 401.7215,-115.8118 398.6112,-122.0829"/>
</g>
<!-- Node219&#45;&gt;Node60 -->
<g id="edge46" class="edge">
<title>Node219&#45;&gt;Node60</title>
<path fill="none" stroke="#191970" d="M440.2614,-114.9169C447.424,-103.9043 456.2951,-90.265 462.1619,-81.2449"/>
<polygon fill="#191970" stroke="#191970" points="437.2683,-113.0994 434.75,-123.3906 443.1363,-116.916 437.2683,-113.0994"/>
</g>
<!-- Node219&#45;&gt;Node176 -->
<g id="edge47" class="edge">
<title>Node219&#45;&gt;Node176</title>
<path fill="none" stroke="#191970" d="M393.0751,-128.3484C336.9633,-120.8011 224.2824,-104.9151 129.5,-87 120.2107,-85.2442 110.267,-83.1423 100.9032,-81.0614"/>
<polygon fill="#191970" stroke="#191970" points="392.8237,-131.8459 403.1994,-129.7021 393.7514,-124.9076 392.8237,-131.8459"/>
</g>
<!-- Node225&#45;&gt;Node62 -->
<g id="edge56" class="edge">
<title>Node225&#45;&gt;Node62</title>
<path fill="none" stroke="#191970" d="M4006.613,-128.821C4088.1844,-122.2386 4245.726,-108.0041 4378.5,-87 4388.8718,-85.3592 4399.9878,-83.2303 4410.37,-81.0785"/>
<polygon fill="#191970" stroke="#191970" points="4006.2608,-125.3379 3996.5714,-129.6235 4006.8185,-132.3156 4006.2608,-125.3379"/>
</g>
</g>
</svg>
