<?xml version="1.0" encoding="UTF-8" standalone="no"?>
<!DOCTYPE svg PUBLIC "-//W3C//DTD SVG 1.1//EN"
 "http://www.w3.org/Graphics/SVG/1.1/DTD/svg11.dtd">
<!-- Generated by graphviz version 2.40.1 (20161225.0304)
 -->
<!-- Title: LinearForceVector3.h Pages: 1 -->
<svg width="4862pt" height="263pt"
 viewBox="0.00 0.00 4861.91 263.00" xmlns="http://www.w3.org/2000/svg" xmlns:xlink="http://www.w3.org/1999/xlink">
<g id="graph0" class="graph" transform="scale(1 1) rotate(0) translate(4 259)">
<title>LinearForceVector3.h</title>
<!-- Node24 -->
<g id="node1" class="node">
<title>Node24</title>
<polygon fill="#bfbfbf" stroke="#000000" points="2724.4469,-235.5 2724.4469,-254.5 2843.4469,-254.5 2843.4469,-235.5 2724.4469,-235.5"/>
<text text-anchor="middle" x="2783.9469" y="-242.5" font-family="FreeSans.ttf" font-size="10.00" fill="#000000">LinearForceVector3.h</text>
</g>
<!-- Node25 -->
<g id="node2" class="node">
<title>Node25</title>
<g id="a_node2"><a xlink:href="SpatialForceVector_8h.html" target="_top" xlink:title="SpatialForceVector.h">
<polygon fill="none" stroke="#000000" points="2383.9469,-179.5 2383.9469,-198.5 2499.9469,-198.5 2499.9469,-179.5 2383.9469,-179.5"/>
<text text-anchor="middle" x="2441.9469" y="-186.5" font-family="FreeSans.ttf" font-size="10.00" fill="#000000">SpatialForceVector.h</text>
</a>
</g>
</g>
<!-- Node24&#45;&gt;Node25 -->
<g id="edge1" class="edge">
<title>Node24&#45;&gt;Node25</title>
<path fill="none" stroke="#191970" d="M2715.2885,-233.7577C2652.1824,-223.4245 2559.6579,-208.2743 2500.1093,-198.5237"/>
<polygon fill="#191970" stroke="#191970" points="2715.1095,-237.2749 2725.5436,-235.4369 2716.2406,-230.3669 2715.1095,-237.2749"/>
</g>
<!-- Node222 -->
<g id="node46" class="node">
<title>Node222</title>
<g id="a_node46"><a xlink:href="AngularForceVector3_8cpp.html" target="_top" xlink:title="AngularForceVector3.cpp">
<polygon fill="none" stroke="#000000" points="2518.4469,-179.5 2518.4469,-198.5 2655.4469,-198.5 2655.4469,-179.5 2518.4469,-179.5"/>
<text text-anchor="middle" x="2586.9469" y="-186.5" font-family="FreeSans.ttf" font-size="10.00" fill="#000000">AngularForceVector3.cpp</text>
</a>
</g>
</g>
<!-- Node24&#45;&gt;Node222 -->
<g id="edge61" class="edge">
<title>Node24&#45;&gt;Node222</title>
<path fill="none" stroke="#191970" d="M2740.284,-232.5882C2704.09,-222.2996 2653.3975,-207.8895 2620.3705,-198.5011"/>
<polygon fill="#191970" stroke="#191970" points="2739.5055,-236.0055 2750.0814,-235.3733 2741.4195,-229.2723 2739.5055,-236.0055"/>
</g>
<!-- Node223 -->
<g id="node47" class="node">
<title>Node223</title>
<g id="a_node47"><a xlink:href="ForceVector3_8cpp.html" target="_top" xlink:title="ForceVector3.cpp">
<polygon fill="none" stroke="#000000" points="2673.9469,-179.5 2673.9469,-198.5 2773.9469,-198.5 2773.9469,-179.5 2673.9469,-179.5"/>
<text text-anchor="middle" x="2723.9469" y="-186.5" font-family="FreeSans.ttf" font-size="10.00" fill="#000000">ForceVector3.cpp</text>
</a>
</g>
</g>
<!-- Node24&#45;&gt;Node223 -->
<g id="edge62" class="edge">
<title>Node24&#45;&gt;Node223</title>
<path fill="none" stroke="#191970" d="M2766.1191,-228.3607C2755.7391,-218.6727 2743.0179,-206.7995 2734.2784,-198.6427"/>
<polygon fill="#191970" stroke="#191970" points="2763.797,-230.981 2773.4957,-235.2455 2768.5733,-225.8636 2763.797,-230.981"/>
</g>
<!-- Node224 -->
<g id="node48" class="node">
<title>Node224</title>
<g id="a_node48"><a xlink:href="GeomVector3_8cpp.html" target="_top" xlink:title="GeomVector3.cpp">
<polygon fill="none" stroke="#000000" points="2792.4469,-179.5 2792.4469,-198.5 2895.4469,-198.5 2895.4469,-179.5 2792.4469,-179.5"/>
<text text-anchor="middle" x="2843.9469" y="-186.5" font-family="FreeSans.ttf" font-size="10.00" fill="#000000">GeomVector3.cpp</text>
</a>
</g>
</g>
<!-- Node24&#45;&gt;Node224 -->
<g id="edge63" class="edge">
<title>Node24&#45;&gt;Node224</title>
<path fill="none" stroke="#191970" d="M2801.7747,-228.3607C2812.1548,-218.6727 2824.876,-206.7995 2833.6155,-198.6427"/>
<polygon fill="#191970" stroke="#191970" points="2799.3206,-225.8636 2794.3981,-235.2455 2804.0968,-230.981 2799.3206,-225.8636"/>
</g>
<!-- Node225 -->
<g id="node49" class="node">
<title>Node225</title>
<g id="a_node49"><a xlink:href="LinearForceVector3_8cpp.html" target="_top" xlink:title="LinearForceVector3.cpp">
<polygon fill="none" stroke="#000000" points="2913.9469,-179.5 2913.9469,-198.5 3043.9469,-198.5 3043.9469,-179.5 2913.9469,-179.5"/>
<text text-anchor="middle" x="2978.9469" y="-186.5" font-family="FreeSans.ttf" font-size="10.00" fill="#000000">LinearForceVector3.cpp</text>
</a>
</g>
</g>
<!-- Node24&#45;&gt;Node225 -->
<g id="edge64" class="edge">
<title>Node24&#45;&gt;Node225</title>
<path fill="none" stroke="#191970" d="M2827.1665,-232.5882C2862.9931,-222.2996 2913.171,-207.8895 2945.8627,-198.5011"/>
<polygon fill="#191970" stroke="#191970" points="2826.114,-229.2489 2817.4686,-235.3733 2828.0462,-235.977 2826.114,-229.2489"/>
</g>
<!-- Node226 -->
<g id="node50" class="node">
<title>Node226</title>
<g id="a_node50"><a xlink:href="MotionVector3_8cpp.html" target="_top" xlink:title="MotionVector3.cpp">
<polygon fill="none" stroke="#000000" points="3062.4469,-179.5 3062.4469,-198.5 3169.4469,-198.5 3169.4469,-179.5 3062.4469,-179.5"/>
<text text-anchor="middle" x="3115.9469" y="-186.5" font-family="FreeSans.ttf" font-size="10.00" fill="#000000">MotionVector3.cpp</text>
</a>
</g>
</g>
<!-- Node24&#45;&gt;Node226 -->
<g id="edge65" class="edge">
<title>Node24&#45;&gt;Node226</title>
<path fill="none" stroke="#191970" d="M2850.7529,-233.7315C2912.9908,-223.2336 3004.6063,-207.7804 3062.2342,-198.06"/>
<polygon fill="#191970" stroke="#191970" points="2849.9211,-230.3223 2840.6425,-235.4369 2851.0854,-237.2248 2849.9211,-230.3223"/>
</g>
<!-- Node26 -->
<g id="node3" class="node">
<title>Node26</title>
<g id="a_node3"><a xlink:href="EigenHelpers_8h.html" target="_top" xlink:title="EigenHelpers.h">
<polygon fill="none" stroke="#ff0000" points="2396.9469,-123.5 2396.9469,-142.5 2486.9469,-142.5 2486.9469,-123.5 2396.9469,-123.5"/>
<text text-anchor="middle" x="2441.9469" y="-130.5" font-family="FreeSans.ttf" font-size="10.00" fill="#000000">EigenHelpers.h</text>
</a>
</g>
</g>
<!-- Node25&#45;&gt;Node26 -->
<g id="edge2" class="edge">
<title>Node25&#45;&gt;Node26</title>
<path fill="none" stroke="#191970" d="M2441.9469,-169.1575C2441.9469,-160.155 2441.9469,-149.9199 2441.9469,-142.6427"/>
<polygon fill="#191970" stroke="#191970" points="2438.447,-169.2455 2441.9469,-179.2455 2445.447,-169.2456 2438.447,-169.2455"/>
</g>
<!-- Node29 -->
<g id="node5" class="node">
<title>Node29</title>
<g id="a_node5"><a xlink:href="SpatialInertiaRaw_8cpp.html" target="_top" xlink:title="SpatialInertiaRaw.cpp">
<polygon fill="none" stroke="#000000" points="1004.9469,-.5 1004.9469,-19.5 1126.9469,-19.5 1126.9469,-.5 1004.9469,-.5"/>
<text text-anchor="middle" x="1065.9469" y="-7.5" font-family="FreeSans.ttf" font-size="10.00" fill="#000000">SpatialInertiaRaw.cpp</text>
</a>
</g>
</g>
<!-- Node25&#45;&gt;Node29 -->
<g id="edge53" class="edge">
<title>Node25&#45;&gt;Node29</title>
<path fill="none" stroke="#191970" d="M2373.5653,-188.8517C2058.6234,-187.9623 745.775,-181.9446 336.9469,-143 188.8539,-128.8928 102.9365,-200.6511 6.9469,-87 -1.9432,-76.4742 -2.5817,-65.9515 6.9469,-56 41.6087,-19.7999 784.3336,-11.8987 1004.7867,-10.3482"/>
<polygon fill="#191970" stroke="#191970" points="2373.8981,-192.3526 2383.9077,-188.8801 2373.9173,-185.3526 2373.8981,-192.3526"/>
</g>
<!-- Node31 -->
<g id="node6" class="node">
<title>Node31</title>
<g id="a_node6"><a xlink:href="SpatialMotionVector_8cpp.html" target="_top" xlink:title="SpatialMotionVector.cpp">
<polygon fill="none" stroke="#000000" points="4548.9469,-.5 4548.9469,-19.5 4682.9469,-19.5 4682.9469,-.5 4548.9469,-.5"/>
<text text-anchor="middle" x="4615.9469" y="-7.5" font-family="FreeSans.ttf" font-size="10.00" fill="#000000">SpatialMotionVector.cpp</text>
</a>
</g>
</g>
<!-- Node25&#45;&gt;Node31 -->
<g id="edge54" class="edge">
<title>Node25&#45;&gt;Node31</title>
<path fill="none" stroke="#191970" d="M2461.6327,-172.716C2483.656,-154.8986 2518.2924,-128.1692 2533.9469,-123 2594.9642,-102.8518 4801.8648,-132.7893 4846.9469,-87 4856.6132,-77.1821 4855.6863,-66.6513 4846.9469,-56 4826.5208,-31.1052 4743.7918,-19.4311 4683.1532,-14.133"/>
<polygon fill="#191970" stroke="#191970" points="2459.1375,-170.2347 2453.6029,-179.269 2463.5634,-175.6579 2459.1375,-170.2347"/>
</g>
<!-- Node40 -->
<g id="node12" class="node">
<title>Node40</title>
<g id="a_node12"><a xlink:href="SpatialForceVector_8cpp.html" target="_top" xlink:title="SpatialForceVector.cpp">
<polygon fill="none" stroke="#000000" points="1029.4469,-62 1029.4469,-81 1156.4469,-81 1156.4469,-62 1029.4469,-62"/>
<text text-anchor="middle" x="1092.9469" y="-69" font-family="FreeSans.ttf" font-size="10.00" fill="#000000">SpatialForceVector.cpp</text>
</a>
</g>
</g>
<!-- Node25&#45;&gt;Node40 -->
<g id="edge52" class="edge">
<title>Node25&#45;&gt;Node40</title>
<path fill="none" stroke="#191970" d="M2373.5852,-186.6505C2182.0658,-179.3986 1624.2909,-153.693 1165.9469,-87 1155.3054,-85.4516 1143.8906,-83.2779 1133.3226,-81.0471"/>
<polygon fill="#191970" stroke="#191970" points="2373.6576,-190.1556 2383.7816,-187.0322 2373.9195,-183.1605 2373.6576,-190.1556"/>
</g>
<!-- Node99 -->
<g id="node39" class="node">
<title>Node99</title>
<g id="a_node39"><a xlink:href="SpatialMomentum_8h.html" target="_top" xlink:title="SpatialMomentum.h">
<polygon fill="none" stroke="#ff0000" points="621.4469,-123.5 621.4469,-142.5 736.4469,-142.5 736.4469,-123.5 621.4469,-123.5"/>
<text text-anchor="middle" x="678.9469" y="-130.5" font-family="FreeSans.ttf" font-size="10.00" fill="#000000">SpatialMomentum.h</text>
</a>
</g>
</g>
<!-- Node25&#45;&gt;Node99 -->
<g id="edge39" class="edge">
<title>Node25&#45;&gt;Node99</title>
<path fill="none" stroke="#191970" d="M2373.6922,-187.7284C2153.3287,-183.4725 1440.9513,-168.5381 851.9469,-143 813.4745,-141.3319 770.2245,-138.8319 736.5926,-136.7489"/>
<polygon fill="#191970" stroke="#191970" points="2373.7459,-191.23 2383.8114,-187.923 2373.8805,-184.2313 2373.7459,-191.23"/>
</g>
<!-- Node189 -->
<g id="node40" class="node">
<title>Node189</title>
<g id="a_node40"><a xlink:href="Wrench_8h.html" target="_top" xlink:title="Wrench.h">
<polygon fill="none" stroke="#ff0000" points="345.9469,-123.5 345.9469,-142.5 407.9469,-142.5 407.9469,-123.5 345.9469,-123.5"/>
<text text-anchor="middle" x="376.9469" y="-130.5" font-family="FreeSans.ttf" font-size="10.00" fill="#000000">Wrench.h</text>
</a>
</g>
</g>
<!-- Node25&#45;&gt;Node189 -->
<g id="edge45" class="edge">
<title>Node25&#45;&gt;Node189</title>
<path fill="none" stroke="#191970" d="M2373.8533,-187.7156C2133.1124,-183.0838 1299.657,-166.2737 611.9469,-143 538.8932,-140.5277 453.1074,-136.6237 408.111,-134.4988"/>
<polygon fill="#191970" stroke="#191970" points="2373.7925,-191.215 2383.8579,-187.9077 2373.9269,-184.2163 2373.7925,-191.215"/>
</g>
<!-- Node219 -->
<g id="node41" class="node">
<title>Node219</title>
<g id="a_node41"><a xlink:href="PositionRaw_8cpp.html" target="_top" xlink:title="PositionRaw.cpp">
<polygon fill="none" stroke="#000000" points="2542.9469,-123.5 2542.9469,-142.5 2638.9469,-142.5 2638.9469,-123.5 2542.9469,-123.5"/>
<text text-anchor="middle" x="2590.9469" y="-130.5" font-family="FreeSans.ttf" font-size="10.00" fill="#000000">PositionRaw.cpp</text>
</a>
</g>
</g>
<!-- Node25&#45;&gt;Node219 -->
<g id="edge50" class="edge">
<title>Node25&#45;&gt;Node219</title>
<path fill="none" stroke="#191970" d="M2477.0982,-175.7888C2504.3038,-165.5639 2541.3279,-151.6488 2565.6672,-142.5011"/>
<polygon fill="#191970" stroke="#191970" points="2475.6903,-172.5788 2467.5609,-179.3733 2478.153,-179.1313 2475.6903,-172.5788"/>
</g>
<!-- Node220 -->
<g id="node42" class="node">
<title>Node220</title>
<g id="a_node42"><a xlink:href="RotationRaw_8cpp.html" target="_top" xlink:title="RotationRaw.cpp">
<polygon fill="none" stroke="#000000" points="2656.9469,-123.5 2656.9469,-142.5 2754.9469,-142.5 2754.9469,-123.5 2656.9469,-123.5"/>
<text text-anchor="middle" x="2705.9469" y="-130.5" font-family="FreeSans.ttf" font-size="10.00" fill="#000000">RotationRaw.cpp</text>
</a>
</g>
</g>
<!-- Node25&#45;&gt;Node220 -->
<g id="edge51" class="edge">
<title>Node25&#45;&gt;Node220</title>
<path fill="none" stroke="#191970" d="M2497.0697,-177.3073C2545.7163,-166.9883 2615.7458,-152.1336 2661.0496,-142.5237"/>
<polygon fill="#191970" stroke="#191970" points="2496.0862,-173.9379 2487.0302,-179.4369 2497.5388,-180.7856 2496.0862,-173.9379"/>
</g>
<!-- Node101 -->
<g id="node43" class="node">
<title>Node101</title>
<g id="a_node43"><a xlink:href="TestUtils_8cpp.html" target="_top" xlink:title="TestUtils.cpp">
<polygon fill="none" stroke="#000000" points="2773.4469,-123.5 2773.4469,-142.5 2852.4469,-142.5 2852.4469,-123.5 2773.4469,-123.5"/>
<text text-anchor="middle" x="2812.9469" y="-130.5" font-family="FreeSans.ttf" font-size="10.00" fill="#000000">TestUtils.cpp</text>
</a>
</g>
</g>
<!-- Node25&#45;&gt;Node101 -->
<g id="edge55" class="edge">
<title>Node25&#45;&gt;Node101</title>
<path fill="none" stroke="#191970" d="M2510.378,-178.952C2624.492,-162.6734 2654.7757,-161.8587 2763.9469,-143 2767.0269,-142.4679 2770.2097,-141.8878 2773.4054,-141.2836"/>
<polygon fill="#191970" stroke="#191970" points="2509.5837,-175.53 2500.1826,-180.4155 2510.5785,-182.459 2509.5837,-175.53"/>
</g>
<!-- Node102 -->
<g id="node44" class="node">
<title>Node102</title>
<g id="a_node44"><a xlink:href="DynamicsUtils_8h.html" target="_top" xlink:title="DynamicsUtils.h">
<polygon fill="none" stroke="#000000" points="2870.4469,-123.5 2870.4469,-142.5 2967.4469,-142.5 2967.4469,-123.5 2870.4469,-123.5"/>
<text text-anchor="middle" x="2918.9469" y="-130.5" font-family="FreeSans.ttf" font-size="10.00" fill="#000000">DynamicsUtils.h</text>
</a>
</g>
</g>
<!-- Node25&#45;&gt;Node102 -->
<g id="edge56" class="edge">
<title>Node25&#45;&gt;Node102</title>
<path fill="none" stroke="#191970" d="M2510.209,-179.0244C2667.6971,-159.7508 2709.3716,-164.1582 2861.9469,-143 2864.6339,-142.6274 2867.3881,-142.2221 2870.1656,-141.7953"/>
<polygon fill="#191970" stroke="#191970" points="2509.6574,-175.5658 2500.1625,-180.2665 2510.5165,-182.5129 2509.6574,-175.5658"/>
</g>
<!-- Node221 -->
<g id="node45" class="node">
<title>Node221</title>
<g id="a_node45"><a xlink:href="JointState_8h.html" target="_top" xlink:title="JointState.h">
<polygon fill="none" stroke="#ff0000" points="861.4469,-123.5 861.4469,-142.5 934.4469,-142.5 934.4469,-123.5 861.4469,-123.5"/>
<text text-anchor="middle" x="897.9469" y="-130.5" font-family="FreeSans.ttf" font-size="10.00" fill="#000000">JointState.h</text>
</a>
</g>
</g>
<!-- Node25&#45;&gt;Node221 -->
<g id="edge57" class="edge">
<title>Node25&#45;&gt;Node221</title>
<path fill="none" stroke="#191970" d="M2373.426,-186.5148C2105.7957,-176.808 1135.8484,-141.6285 934.6445,-134.331"/>
<polygon fill="#191970" stroke="#191970" points="2373.6525,-190.0252 2383.7728,-186.8901 2373.9063,-183.0298 2373.6525,-190.0252"/>
</g>
<!-- Node27 -->
<g id="node4" class="node">
<title>Node27</title>
<g id="a_node4"><a xlink:href="PrivateUtils_8h.html" target="_top" xlink:title="PrivateUtils.h">
<polygon fill="none" stroke="#ff0000" points="2102.4469,-62 2102.4469,-81 2185.4469,-81 2185.4469,-62 2102.4469,-62"/>
<text text-anchor="middle" x="2143.9469" y="-69" font-family="FreeSans.ttf" font-size="10.00" fill="#000000">PrivateUtils.h</text>
</a>
</g>
</g>
<!-- Node26&#45;&gt;Node27 -->
<g id="edge3" class="edge">
<title>Node26&#45;&gt;Node27</title>
<path fill="none" stroke="#191970" d="M2386.5359,-124.4869C2336.2293,-116.3311 2260.1584,-102.9299 2194.9469,-87 2187.9349,-85.2871 2180.4613,-83.1791 2173.4583,-81.0757"/>
<polygon fill="#191970" stroke="#191970" points="2386.1258,-127.9658 2396.5545,-126.097 2387.2366,-121.0545 2386.1258,-127.9658"/>
</g>
<!-- Node26&#45;&gt;Node31 -->
<g id="edge13" class="edge">
<title>Node26&#45;&gt;Node31</title>
<path fill="none" stroke="#191970" d="M2497.0685,-123.3906C2498.3725,-123.2495 2499.6668,-123.1188 2500.9469,-123 2558.9286,-117.6193 4551.414,-123.2984 4596.9469,-87 4617.2957,-70.7782 4617.9544,-36.5393 4616.9053,-19.7286"/>
<polygon fill="#191970" stroke="#191970" points="2496.4421,-119.9416 2486.9528,-124.6537 2497.3095,-126.8876 2496.4421,-119.9416"/>
</g>
<!-- Node35 -->
<g id="node7" class="node">
<title>Node35</title>
<g id="a_node7"><a xlink:href="ArticulatedBodyInertia_8cpp.html" target="_top" xlink:title="ArticulatedBodyInertia.cpp">
<polygon fill="none" stroke="#000000" points="15.9469,-62 15.9469,-81 161.9469,-81 161.9469,-62 15.9469,-62"/>
<text text-anchor="middle" x="88.9469" y="-69" font-family="FreeSans.ttf" font-size="10.00" fill="#000000">ArticulatedBodyInertia.cpp</text>
</a>
</g>
</g>
<!-- Node26&#45;&gt;Node35 -->
<g id="edge6" class="edge">
<title>Node26&#45;&gt;Node35</title>
<path fill="none" stroke="#191970" d="M2386.6054,-132.4317C2060.605,-129.0104 397.2148,-110.511 170.9469,-87 158.2656,-85.6823 144.6132,-83.439 132.1559,-81.0621"/>
<polygon fill="#191970" stroke="#191970" points="2386.7126,-135.9329 2396.7487,-132.5378 2386.7859,-128.9333 2386.7126,-135.9329"/>
</g>
<!-- Node36 -->
<g id="node8" class="node">
<title>Node36</title>
<g id="a_node8"><a xlink:href="CubicSpline_8cpp.html" target="_top" xlink:title="CubicSpline.cpp">
<polygon fill="none" stroke="#000000" points="4643.9469,-62 4643.9469,-81 4737.9469,-81 4737.9469,-62 4643.9469,-62"/>
<text text-anchor="middle" x="4690.9469" y="-69" font-family="FreeSans.ttf" font-size="10.00" fill="#000000">CubicSpline.cpp</text>
</a>
</g>
</g>
<!-- Node26&#45;&gt;Node36 -->
<g id="edge7" class="edge">
<title>Node26&#45;&gt;Node36</title>
<path fill="none" stroke="#191970" d="M2497.0685,-123.3902C2498.3725,-123.2492 2499.6668,-123.1186 2500.9469,-123 2972.1071,-79.3396 4160.9389,-149.6864 4629.9469,-87 4639.5861,-85.7117 4649.8958,-83.4457 4659.2447,-81.0376"/>
<polygon fill="#191970" stroke="#191970" points="2496.4423,-119.9411 2486.9527,-124.6525 2497.3092,-126.8872 2496.4423,-119.9411"/>
</g>
<!-- Node37 -->
<g id="node9" class="node">
<title>Node37</title>
<g id="a_node9"><a xlink:href="Direction_8cpp.html" target="_top" xlink:title="Direction.cpp">
<polygon fill="none" stroke="#000000" points="4756.4469,-62 4756.4469,-81 4837.4469,-81 4837.4469,-62 4756.4469,-62"/>
<text text-anchor="middle" x="4796.9469" y="-69" font-family="FreeSans.ttf" font-size="10.00" fill="#000000">Direction.cpp</text>
</a>
</g>
</g>
<!-- Node26&#45;&gt;Node37 -->
<g id="edge8" class="edge">
<title>Node26&#45;&gt;Node37</title>
<path fill="none" stroke="#191970" d="M2497.0683,-123.3886C2498.3724,-123.2481 2499.6667,-123.1181 2500.9469,-123 2998.0129,-77.1598 4254.0143,-165.6979 4746.9469,-87 4754.9342,-85.7248 4763.411,-83.4629 4771.0717,-81.0544"/>
<polygon fill="#191970" stroke="#191970" points="2496.4432,-119.9393 2486.9523,-124.6483 2497.3082,-126.8857 2496.4432,-119.9393"/>
</g>
<!-- Node38 -->
<g id="node10" class="node">
<title>Node38</title>
<g id="a_node10"><a xlink:href="InertiaNonLinearParametrization_8cpp.html" target="_top" xlink:title="InertiaNonLinearParametrization.cpp">
<polygon fill="none" stroke="#000000" points="1174.4469,-62 1174.4469,-81 1369.4469,-81 1369.4469,-62 1174.4469,-62"/>
<text text-anchor="middle" x="1271.9469" y="-69" font-family="FreeSans.ttf" font-size="10.00" fill="#000000">InertiaNonLinearParametrization.cpp</text>
</a>
</g>
</g>
<!-- Node26&#45;&gt;Node38 -->
<g id="edge9" class="edge">
<title>Node26&#45;&gt;Node38</title>
<path fill="none" stroke="#191970" d="M2386.3655,-132.5635C2228.3689,-130.8987 1763.2324,-123.0563 1378.9469,-87 1363.062,-85.5096 1345.9294,-83.3001 1330.129,-81.0133"/>
<polygon fill="#191970" stroke="#191970" points="2386.7303,-136.0673 2396.7652,-132.6687 2386.8012,-129.0676 2386.7303,-136.0673"/>
</g>
<!-- Node39 -->
<g id="node11" class="node">
<title>Node39</title>
<g id="a_node11"><a xlink:href="Rotation_8cpp.html" target="_top" xlink:title="Rotation.cpp">
<polygon fill="none" stroke="#000000" points="338.4469,-62 338.4469,-81 415.4469,-81 415.4469,-62 338.4469,-62"/>
<text text-anchor="middle" x="376.9469" y="-69" font-family="FreeSans.ttf" font-size="10.00" fill="#000000">Rotation.cpp</text>
</a>
</g>
</g>
<!-- Node26&#45;&gt;Node39 -->
<g id="edge10" class="edge">
<title>Node26&#45;&gt;Node39</title>
<path fill="none" stroke="#191970" d="M2386.5976,-132.6928C2082.6373,-130.8779 622.8007,-120.4691 424.9469,-87 417.3487,-85.7147 409.3024,-83.4815 402.0138,-81.1039"/>
<polygon fill="#191970" stroke="#191970" points="2386.8983,-136.1945 2396.9188,-132.7537 2386.9397,-129.1946 2386.8983,-136.1945"/>
</g>
<!-- Node26&#45;&gt;Node40 -->
<g id="edge11" class="edge">
<title>Node26&#45;&gt;Node40</title>
<path fill="none" stroke="#191970" d="M2386.696,-132.2824C2173.9453,-129.3213 1407.5727,-116.7795 1165.9469,-87 1154.7597,-85.6212 1142.7453,-83.3894 1131.7579,-81.0436"/>
<polygon fill="#191970" stroke="#191970" points="2386.6513,-135.782 2396.6986,-132.4202 2386.7478,-128.7826 2386.6513,-135.782"/>
</g>
<!-- Node41 -->
<g id="node13" class="node">
<title>Node41</title>
<g id="a_node13"><a xlink:href="SpatialInertia_8cpp.html" target="_top" xlink:title="SpatialInertia.cpp">
<polygon fill="none" stroke="#000000" points="433.9469,-62 433.9469,-81 535.9469,-81 535.9469,-62 433.9469,-62"/>
<text text-anchor="middle" x="484.9469" y="-69" font-family="FreeSans.ttf" font-size="10.00" fill="#000000">SpatialInertia.cpp</text>
</a>
</g>
</g>
<!-- Node26&#45;&gt;Node41 -->
<g id="edge12" class="edge">
<title>Node26&#45;&gt;Node41</title>
<path fill="none" stroke="#191970" d="M2386.2027,-132.4077C2092.5043,-129.1854 731.0743,-112.9495 544.9469,-87 535.57,-85.6927 525.5499,-83.4526 516.4368,-81.0755"/>
<polygon fill="#191970" stroke="#191970" points="2386.5601,-135.9117 2396.5977,-132.5212 2386.6366,-128.9121 2386.5601,-135.9117"/>
</g>
<!-- Node42 -->
<g id="node14" class="node">
<title>Node42</title>
<g id="a_node14"><a xlink:href="TransformDerivative_8cpp.html" target="_top" xlink:title="TransformDerivative.cpp">
<polygon fill="none" stroke="#000000" points="1387.4469,-62 1387.4469,-81 1524.4469,-81 1524.4469,-62 1387.4469,-62"/>
<text text-anchor="middle" x="1455.9469" y="-69" font-family="FreeSans.ttf" font-size="10.00" fill="#000000">TransformDerivative.cpp</text>
</a>
</g>
</g>
<!-- Node26&#45;&gt;Node42 -->
<g id="edge14" class="edge">
<title>Node26&#45;&gt;Node42</title>
<path fill="none" stroke="#191970" d="M2386.7017,-131.2574C2216.3079,-125.7157 1700.404,-107.644 1533.9469,-87 1522.3007,-85.5556 1509.7892,-83.3616 1498.2709,-81.075"/>
<polygon fill="#191970" stroke="#191970" points="2386.5979,-134.7557 2396.7059,-131.5812 2386.8244,-127.7594 2386.5979,-134.7557"/>
</g>
<!-- Node43 -->
<g id="node15" class="node">
<title>Node43</title>
<g id="a_node15"><a xlink:href="AttitudeEstimatorUtils_8h.html" target="_top" xlink:title="AttitudeEstimatorUtils.h">
<polygon fill="none" stroke="#ff0000" points="1542.9469,-62 1542.9469,-81 1676.9469,-81 1676.9469,-62 1542.9469,-62"/>
<text text-anchor="middle" x="1609.9469" y="-69" font-family="FreeSans.ttf" font-size="10.00" fill="#000000">AttitudeEstimatorUtils.h</text>
</a>
</g>
</g>
<!-- Node26&#45;&gt;Node43 -->
<g id="edge15" class="edge">
<title>Node26&#45;&gt;Node43</title>
<path fill="none" stroke="#191970" d="M2386.4519,-132.2863C2261.0683,-130.0927 1946.5245,-121.327 1685.9469,-87 1674.5988,-85.5051 1662.408,-83.2941 1651.1851,-81.0073"/>
<polygon fill="#191970" stroke="#191970" points="2386.5152,-135.7878 2396.5725,-132.4562 2386.6327,-128.7888 2386.5152,-135.7878"/>
</g>
<!-- Node47 -->
<g id="node16" class="node">
<title>Node47</title>
<g id="a_node16"><a xlink:href="GravityCompensationHelpers_8h.html" target="_top" xlink:title="GravityCompensationHelpers.h">
<polygon fill="none" stroke="#ff0000" points="1694.9469,-62 1694.9469,-81 1864.9469,-81 1864.9469,-62 1694.9469,-62"/>
<text text-anchor="middle" x="1779.9469" y="-69" font-family="FreeSans.ttf" font-size="10.00" fill="#000000">GravityCompensationHelpers.h</text>
</a>
</g>
</g>
<!-- Node26&#45;&gt;Node47 -->
<g id="edge16" class="edge">
<title>Node26&#45;&gt;Node47</title>
<path fill="none" stroke="#191970" d="M2386.8704,-130.0559C2285.236,-124.2865 2061.447,-110.0113 1873.9469,-87 1860.6494,-85.368 1846.3562,-83.2171 1833.0285,-81.0389"/>
<polygon fill="#191970" stroke="#191970" points="2386.7223,-133.553 2396.9031,-130.6203 2387.1155,-126.5641 2386.7223,-133.553"/>
</g>
<!-- Node49 -->
<g id="node17" class="node">
<title>Node49</title>
<g id="a_node17"><a xlink:href="KalmanFilter_8h.html" target="_top" xlink:title="KalmanFilter.h">
<polygon fill="none" stroke="#ff0000" points="1882.9469,-62 1882.9469,-81 1968.9469,-81 1968.9469,-62 1882.9469,-62"/>
<text text-anchor="middle" x="1925.9469" y="-69" font-family="FreeSans.ttf" font-size="10.00" fill="#000000">KalmanFilter.h</text>
</a>
</g>
</g>
<!-- Node26&#45;&gt;Node49 -->
<g id="edge17" class="edge">
<title>Node26&#45;&gt;Node49</title>
<path fill="none" stroke="#191970" d="M2386.6439,-130.822C2299.3273,-126.6417 2124.4877,-115.258 1978.9469,-87 1971.0416,-85.4651 1962.6179,-83.2687 1954.8671,-81.0101"/>
<polygon fill="#191970" stroke="#191970" points="2386.6987,-134.3282 2396.8505,-131.2967 2387.024,-127.3358 2386.6987,-134.3282"/>
</g>
<!-- Node51 -->
<g id="node18" class="node">
<title>Node51</title>
<g id="a_node18"><a xlink:href="BerdyHelper_8cpp.html" target="_top" xlink:title="BerdyHelper.cpp">
<polygon fill="none" stroke="#000000" points="1987.4469,-62 1987.4469,-81 2084.4469,-81 2084.4469,-62 1987.4469,-62"/>
<text text-anchor="middle" x="2035.9469" y="-69" font-family="FreeSans.ttf" font-size="10.00" fill="#000000">BerdyHelper.cpp</text>
</a>
</g>
</g>
<!-- Node26&#45;&gt;Node51 -->
<g id="edge18" class="edge">
<title>Node26&#45;&gt;Node51</title>
<path fill="none" stroke="#191970" d="M2386.6751,-127.9294C2317.7271,-121.0923 2196.4253,-107.3769 2093.9469,-87 2085.6666,-85.3535 2076.8196,-83.1972 2068.5935,-81.0185"/>
<polygon fill="#191970" stroke="#191970" points="2386.5763,-131.4364 2396.8699,-128.9279 2387.2587,-124.4697 2386.5763,-131.4364"/>
</g>
<!-- Node52 -->
<g id="node19" class="node">
<title>Node52</title>
<g id="a_node19"><a xlink:href="BerdySparseMAPSolver_8cpp.html" target="_top" xlink:title="BerdySparseMAPSolver.cpp">
<polygon fill="none" stroke="#000000" points="2203.4469,-62 2203.4469,-81 2352.4469,-81 2352.4469,-62 2203.4469,-62"/>
<text text-anchor="middle" x="2277.9469" y="-69" font-family="FreeSans.ttf" font-size="10.00" fill="#000000">BerdySparseMAPSolver.cpp</text>
</a>
</g>
</g>
<!-- Node26&#45;&gt;Node52 -->
<g id="edge19" class="edge">
<title>Node26&#45;&gt;Node52</title>
<path fill="none" stroke="#191970" d="M2406.7452,-119.7993C2375.6718,-108.1468 2331.1207,-91.4402 2303.392,-81.0419"/>
<polygon fill="#191970" stroke="#191970" points="2405.7297,-123.1565 2416.3219,-123.3906 2408.1876,-116.6022 2405.7297,-123.1565"/>
</g>
<!-- Node53 -->
<g id="node20" class="node">
<title>Node53</title>
<g id="a_node20"><a xlink:href="ExtendedKalmanFilter_8cpp.html" target="_top" xlink:title="ExtendedKalmanFilter.cpp">
<polygon fill="none" stroke="#000000" points="2370.4469,-62 2370.4469,-81 2513.4469,-81 2513.4469,-62 2370.4469,-62"/>
<text text-anchor="middle" x="2441.9469" y="-69" font-family="FreeSans.ttf" font-size="10.00" fill="#000000">ExtendedKalmanFilter.cpp</text>
</a>
</g>
</g>
<!-- Node26&#45;&gt;Node53 -->
<g id="edge20" class="edge">
<title>Node26&#45;&gt;Node53</title>
<path fill="none" stroke="#191970" d="M2441.9469,-113.2462C2441.9469,-102.5519 2441.9469,-89.814 2441.9469,-81.2449"/>
<polygon fill="#191970" stroke="#191970" points="2438.447,-113.3906 2441.9469,-123.3906 2445.447,-113.3907 2438.447,-113.3906"/>
</g>
<!-- Node54 -->
<g id="node21" class="node">
<title>Node54</title>
<g id="a_node21"><a xlink:href="ExternalWrenchesEstimation_8cpp.html" target="_top" xlink:title="ExternalWrenchesEstimation.cpp">
<polygon fill="none" stroke="#000000" points="554.4469,-62 554.4469,-81 731.4469,-81 731.4469,-62 554.4469,-62"/>
<text text-anchor="middle" x="642.9469" y="-69" font-family="FreeSans.ttf" font-size="10.00" fill="#000000">ExternalWrenchesEstimation.cpp</text>
</a>
</g>
</g>
<!-- Node26&#45;&gt;Node54 -->
<g id="edge21" class="edge">
<title>Node26&#45;&gt;Node54</title>
<path fill="none" stroke="#191970" d="M2386.4521,-132.4823C2131.4552,-129.9526 1070.5259,-117.7452 739.9469,-87 725.0889,-85.6181 709.0557,-83.3701 694.3864,-81.0095"/>
<polygon fill="#191970" stroke="#191970" points="2386.5534,-135.9833 2396.5873,-132.5819 2386.6223,-128.9837 2386.5534,-135.9833"/>
</g>
<!-- Node55 -->
<g id="node22" class="node">
<title>Node55</title>
<g id="a_node22"><a xlink:href="ExtWrenchesAndJointTorquesEstimator_8cpp.html" target="_top" xlink:title="ExtWrenchesAndJointTorques\lEstimator.cpp">
<polygon fill="none" stroke="#000000" points="748.9469,-56.5 748.9469,-86.5 906.9469,-86.5 906.9469,-56.5 748.9469,-56.5"/>
<text text-anchor="start" x="756.9469" y="-74.5" font-family="FreeSans.ttf" font-size="10.00" fill="#000000">ExtWrenchesAndJointTorques</text>
<text text-anchor="middle" x="827.9469" y="-63.5" font-family="FreeSans.ttf" font-size="10.00" fill="#000000">Estimator.cpp</text>
</a>
</g>
</g>
<!-- Node26&#45;&gt;Node55 -->
<g id="edge22" class="edge">
<title>Node26&#45;&gt;Node55</title>
<path fill="none" stroke="#191970" d="M2386.4681,-132.4007C2148.0974,-129.6603 1209.6884,-117.1377 915.9469,-87 913.0149,-86.6992 910.0333,-86.3576 907.0257,-85.983"/>
<polygon fill="#191970" stroke="#191970" points="2386.5913,-135.9022 2396.6306,-132.5164 2386.6711,-128.9027 2386.5913,-135.9022"/>
</g>
<!-- Node56 -->
<g id="node23" class="node">
<title>Node56</title>
<g id="a_node23"><a xlink:href="SimpleLeggedOdometry_8cpp.html" target="_top" xlink:title="SimpleLeggedOdometry.cpp">
<polygon fill="none" stroke="#000000" points="2531.4469,-62 2531.4469,-81 2684.4469,-81 2684.4469,-62 2531.4469,-62"/>
<text text-anchor="middle" x="2607.9469" y="-69" font-family="FreeSans.ttf" font-size="10.00" fill="#000000">SimpleLeggedOdometry.cpp</text>
</a>
</g>
</g>
<!-- Node26&#45;&gt;Node56 -->
<g id="edge23" class="edge">
<title>Node26&#45;&gt;Node56</title>
<path fill="none" stroke="#191970" d="M2477.578,-119.7993C2509.0303,-108.1468 2554.1247,-91.4402 2582.1916,-81.0419"/>
<polygon fill="#191970" stroke="#191970" points="2476.0456,-116.6345 2467.8844,-123.3906 2478.4775,-123.1985 2476.0456,-116.6345"/>
</g>
<!-- Node57 -->
<g id="node24" class="node">
<title>Node57</title>
<g id="a_node24"><a xlink:href="KinDynComputations_8cpp.html" target="_top" xlink:title="KinDynComputations.cpp">
<polygon fill="none" stroke="#000000" points="179.9469,-62 179.9469,-81 319.9469,-81 319.9469,-62 179.9469,-62"/>
<text text-anchor="middle" x="249.9469" y="-69" font-family="FreeSans.ttf" font-size="10.00" fill="#000000">KinDynComputations.cpp</text>
</a>
</g>
</g>
<!-- Node26&#45;&gt;Node57 -->
<g id="edge24" class="edge">
<title>Node26&#45;&gt;Node57</title>
<path fill="none" stroke="#191970" d="M2386.5249,-132.3639C2074.0086,-128.7008 538.4924,-109.6672 328.9469,-87 316.7187,-85.6772 303.5624,-83.4323 291.5611,-81.0556"/>
<polygon fill="#191970" stroke="#191970" points="2386.6563,-135.8656 2396.6966,-132.4827 2386.7382,-128.866 2386.6563,-135.8656"/>
</g>
<!-- Node58 -->
<g id="node25" class="node">
<title>Node58</title>
<g id="a_node25"><a xlink:href="BoundingBoxHelpers_8cpp.html" target="_top" xlink:title="BoundingBoxHelpers.cpp">
<polygon fill="none" stroke="#000000" points="2702.4469,-62 2702.4469,-81 2841.4469,-81 2841.4469,-62 2702.4469,-62"/>
<text text-anchor="middle" x="2771.9469" y="-69" font-family="FreeSans.ttf" font-size="10.00" fill="#000000">BoundingBoxHelpers.cpp</text>
</a>
</g>
</g>
<!-- Node26&#45;&gt;Node58 -->
<g id="edge25" class="edge">
<title>Node26&#45;&gt;Node58</title>
<path fill="none" stroke="#191970" d="M2497.2163,-123.1671C2548.3035,-114.0175 2626.3061,-99.8935 2693.9469,-87 2703.8474,-85.1128 2714.444,-83.0415 2724.5347,-81.0446"/>
<polygon fill="#191970" stroke="#191970" points="2496.2803,-119.7789 2487.053,-124.9853 2497.5131,-126.6695 2496.2803,-119.7789"/>
</g>
<!-- Node59 -->
<g id="node26" class="node">
<title>Node59</title>
<g id="a_node26"><a xlink:href="ConvexHullHelpers_8cpp.html" target="_top" xlink:title="ConvexHullHelpers.cpp">
<polygon fill="none" stroke="#000000" points="2859.4469,-62 2859.4469,-81 2990.4469,-81 2990.4469,-62 2859.4469,-62"/>
<text text-anchor="middle" x="2924.9469" y="-69" font-family="FreeSans.ttf" font-size="10.00" fill="#000000">ConvexHullHelpers.cpp</text>
</a>
</g>
</g>
<!-- Node26&#45;&gt;Node59 -->
<g id="edge26" class="edge">
<title>Node26&#45;&gt;Node59</title>
<path fill="none" stroke="#191970" d="M2497.0854,-123.5387C2498.3844,-123.3532 2499.673,-123.1733 2500.9469,-123 2655.8962,-101.9229 2696.433,-111.0619 2850.9469,-87 2861.4524,-85.364 2872.7182,-83.2116 2883.2115,-81.0332"/>
<polygon fill="#191970" stroke="#191970" points="2496.3683,-120.107 2486.9984,-125.0523 2497.4071,-127.0295 2496.3683,-120.107"/>
</g>
<!-- Node60 -->
<g id="node27" class="node">
<title>Node60</title>
<g id="a_node27"><a xlink:href="InverseKinematicsData_8cpp.html" target="_top" xlink:title="InverseKinematicsData.cpp">
<polygon fill="none" stroke="#000000" points="3008.4469,-62 3008.4469,-81 3159.4469,-81 3159.4469,-62 3008.4469,-62"/>
<text text-anchor="middle" x="3083.9469" y="-69" font-family="FreeSans.ttf" font-size="10.00" fill="#000000">InverseKinematicsData.cpp</text>
</a>
</g>
</g>
<!-- Node26&#45;&gt;Node60 -->
<g id="edge27" class="edge">
<title>Node26&#45;&gt;Node60</title>
<path fill="none" stroke="#191970" d="M2497.0787,-123.4859C2498.3796,-123.3162 2499.6705,-123.1539 2500.9469,-123 2721.7032,-96.3908 2779.3904,-115.2173 2999.9469,-87 3012.1559,-85.438 3025.2781,-83.2596 3037.4378,-81.0286"/>
<polygon fill="#191970" stroke="#191970" points="2496.3933,-120.0478 2486.9802,-124.9101 2497.371,-126.9792 2496.3933,-120.0478"/>
</g>
<!-- Node61 -->
<g id="node28" class="node">
<title>Node61</title>
<g id="a_node28"><a xlink:href="InverseKinematicsNLP_8cpp.html" target="_top" xlink:title="InverseKinematicsNLP.cpp">
<polygon fill="none" stroke="#000000" points="3177.4469,-62 3177.4469,-81 3322.4469,-81 3322.4469,-62 3177.4469,-62"/>
<text text-anchor="middle" x="3249.9469" y="-69" font-family="FreeSans.ttf" font-size="10.00" fill="#000000">InverseKinematicsNLP.cpp</text>
</a>
</g>
</g>
<!-- Node26&#45;&gt;Node61 -->
<g id="edge28" class="edge">
<title>Node26&#45;&gt;Node61</title>
<path fill="none" stroke="#191970" d="M2497.075,-123.4543C2498.3771,-123.2941 2499.6692,-123.1422 2500.9469,-123 2796.4412,-90.1042 2873.8175,-123.0226 3168.9469,-87 3181.0273,-85.5255 3194.0154,-83.3214 3205.9766,-81.0347"/>
<polygon fill="#191970" stroke="#191970" points="2496.409,-120.0125 2486.9703,-124.8252 2497.3501,-126.949 2496.409,-120.0125"/>
</g>
<!-- Node62 -->
<g id="node29" class="node">
<title>Node62</title>
<g id="a_node29"><a xlink:href="DenavitHartenberg_8cpp.html" target="_top" xlink:title="DenavitHartenberg.cpp">
<polygon fill="none" stroke="#000000" points="3340.9469,-62 3340.9469,-81 3470.9469,-81 3470.9469,-62 3340.9469,-62"/>
<text text-anchor="middle" x="3405.9469" y="-69" font-family="FreeSans.ttf" font-size="10.00" fill="#000000">DenavitHartenberg.cpp</text>
</a>
</g>
</g>
<!-- Node26&#45;&gt;Node62 -->
<g id="edge29" class="edge">
<title>Node26&#45;&gt;Node62</title>
<path fill="none" stroke="#191970" d="M2497.073,-123.436C2498.3757,-123.2813 2499.6684,-123.1355 2500.9469,-123 2868.5676,-84.0361 2965.1462,-133.0473 3331.9469,-87 3343.1474,-85.5939 3355.1737,-83.3833 3366.2071,-81.0674"/>
<polygon fill="#191970" stroke="#191970" points="2496.4183,-119.9921 2486.965,-124.7759 2497.3382,-126.9314 2496.4183,-119.9921"/>
</g>
<!-- Node63 -->
<g id="node30" class="node">
<title>Node63</title>
<g id="a_node30"><a xlink:href="Dynamics_8cpp.html" target="_top" xlink:title="Dynamics.cpp">
<polygon fill="none" stroke="#000000" points="924.9469,-62 924.9469,-81 1010.9469,-81 1010.9469,-62 924.9469,-62"/>
<text text-anchor="middle" x="967.9469" y="-69" font-family="FreeSans.ttf" font-size="10.00" fill="#000000">Dynamics.cpp</text>
</a>
</g>
</g>
<!-- Node26&#45;&gt;Node63 -->
<g id="edge30" class="edge">
<title>Node26&#45;&gt;Node63</title>
<path fill="none" stroke="#191970" d="M2386.5416,-132.0505C2140.912,-127.7271 1156.3494,-109.1546 1019.9469,-87 1011.7643,-85.671 1003.0627,-83.4241 995.1658,-81.0475"/>
<polygon fill="#191970" stroke="#191970" points="2386.604,-135.5521 2396.6638,-132.228 2386.7268,-128.5532 2386.604,-135.5521"/>
</g>
<!-- Node64 -->
<g id="node31" class="node">
<title>Node64</title>
<g id="a_node31"><a xlink:href="DynamicsLinearization_8cpp.html" target="_top" xlink:title="DynamicsLinearization.cpp">
<polygon fill="none" stroke="#000000" points="3489.4469,-62 3489.4469,-81 3638.4469,-81 3638.4469,-62 3489.4469,-62"/>
<text text-anchor="middle" x="3563.9469" y="-69" font-family="FreeSans.ttf" font-size="10.00" fill="#000000">DynamicsLinearization.cpp</text>
</a>
</g>
</g>
<!-- Node26&#45;&gt;Node64 -->
<g id="edge31" class="edge">
<title>Node26&#45;&gt;Node64</title>
<path fill="none" stroke="#191970" d="M2497.0718,-123.4247C2498.3748,-123.2733 2499.668,-123.1313 2500.9469,-123 2934.0746,-78.5245 3047.1548,-134.6308 3479.9469,-87 3492.7712,-85.5886 3506.5804,-83.3464 3519.2241,-81.001"/>
<polygon fill="#191970" stroke="#191970" points="2496.4241,-119.9794 2486.9618,-124.7453 2497.3309,-126.9205 2496.4241,-119.9794"/>
</g>
<!-- Node65 -->
<g id="node32" class="node">
<title>Node65</title>
<g id="a_node32"><a xlink:href="DynamicsLinearizationHelpers_8cpp.html" target="_top" xlink:title="DynamicsLinearizationHelpers.cpp">
<polygon fill="none" stroke="#000000" points="3655.9469,-62 3655.9469,-81 3841.9469,-81 3841.9469,-62 3655.9469,-62"/>
<text text-anchor="middle" x="3748.9469" y="-69" font-family="FreeSans.ttf" font-size="10.00" fill="#000000">DynamicsLinearizationHelpers.cpp</text>
</a>
</g>
</g>
<!-- Node26&#45;&gt;Node65 -->
<g id="edge32" class="edge">
<title>Node26&#45;&gt;Node65</title>
<path fill="none" stroke="#191970" d="M2497.0709,-123.4153C2498.3742,-123.2668 2499.6677,-123.1279 2500.9469,-123 3008.4462,-72.2668 3140.0669,-133.7684 3647.9469,-87 3663.2274,-85.5929 3679.7128,-83.367 3694.8443,-81.0364"/>
<polygon fill="#191970" stroke="#191970" points="2496.429,-119.969 2486.9592,-124.7202 2497.325,-126.9115 2496.429,-119.969"/>
</g>
<!-- Node66 -->
<g id="node33" class="node">
<title>Node66</title>
<g id="a_node33"><a xlink:href="Jacobians_8cpp.html" target="_top" xlink:title="Jacobians.cpp">
<polygon fill="none" stroke="#000000" points="3860.4469,-62 3860.4469,-81 3943.4469,-81 3943.4469,-62 3860.4469,-62"/>
<text text-anchor="middle" x="3901.9469" y="-69" font-family="FreeSans.ttf" font-size="10.00" fill="#000000">Jacobians.cpp</text>
</a>
</g>
</g>
<!-- Node26&#45;&gt;Node66 -->
<g id="edge33" class="edge">
<title>Node26&#45;&gt;Node66</title>
<path fill="none" stroke="#191970" d="M2497.0701,-123.4071C2498.3736,-123.261 2499.6674,-123.1249 2500.9469,-123 2799.6347,-93.8522 3554.7145,-135.0659 3850.9469,-87 3858.9854,-85.6957 3867.5238,-83.4566 3875.2685,-81.0794"/>
<polygon fill="#191970" stroke="#191970" points="2496.4333,-119.9599 2486.9571,-124.6981 2497.3198,-126.9036 2496.4333,-119.9599"/>
</g>
<!-- Node67 -->
<g id="node34" class="node">
<title>Node67</title>
<g id="a_node34"><a xlink:href="Model_8cpp.html" target="_top" xlink:title="Model.cpp">
<polygon fill="none" stroke="#000000" points="3961.9469,-62 3961.9469,-81 4027.9469,-81 4027.9469,-62 3961.9469,-62"/>
<text text-anchor="middle" x="3994.9469" y="-69" font-family="FreeSans.ttf" font-size="10.00" fill="#000000">Model.cpp</text>
</a>
</g>
</g>
<!-- Node26&#45;&gt;Node67 -->
<g id="edge34" class="edge">
<title>Node26&#45;&gt;Node67</title>
<path fill="none" stroke="#191970" d="M2497.0698,-123.4039C2498.3734,-123.2588 2499.6672,-123.1237 2500.9469,-123 2822.216,-91.9521 3635.9387,-147.6926 3952.9469,-87 3959.6646,-85.7139 3966.7268,-83.4804 3973.1028,-81.1029"/>
<polygon fill="#191970" stroke="#191970" points="2496.435,-119.9563 2486.9562,-124.6894 2497.3177,-126.9004 2496.435,-119.9563"/>
</g>
<!-- Node68 -->
<g id="node35" class="node">
<title>Node68</title>
<g id="a_node35"><a xlink:href="URDFModelExport_8cpp.html" target="_top" xlink:title="URDFModelExport.cpp">
<polygon fill="none" stroke="#000000" points="4046.4469,-62 4046.4469,-81 4171.4469,-81 4171.4469,-62 4046.4469,-62"/>
<text text-anchor="middle" x="4108.9469" y="-69" font-family="FreeSans.ttf" font-size="10.00" fill="#000000">URDFModelExport.cpp</text>
</a>
</g>
</g>
<!-- Node26&#45;&gt;Node68 -->
<g id="edge35" class="edge">
<title>Node26&#45;&gt;Node68</title>
<path fill="none" stroke="#191970" d="M2497.0695,-123.4015C2498.3732,-123.2571 2499.6672,-123.1228 2500.9469,-123 3180.6788,-57.7746 3358.8202,-167.2119 4036.9469,-87 4048.121,-85.6783 4060.1208,-83.4337 4071.0581,-81.0569"/>
<polygon fill="#191970" stroke="#191970" points="2496.4363,-119.9537 2486.9556,-124.683 2497.3163,-126.8981 2496.4363,-119.9537"/>
</g>
<!-- Node69 -->
<g id="node36" class="node">
<title>Node69</title>
<g id="a_node36"><a xlink:href="AlglibInterface_8cpp.html" target="_top" xlink:title="AlglibInterface.cpp">
<polygon fill="none" stroke="#000000" points="4189.9469,-62 4189.9469,-81 4297.9469,-81 4297.9469,-62 4189.9469,-62"/>
<text text-anchor="middle" x="4243.9469" y="-69" font-family="FreeSans.ttf" font-size="10.00" fill="#000000">AlglibInterface.cpp</text>
</a>
</g>
</g>
<!-- Node26&#45;&gt;Node69 -->
<g id="edge36" class="edge">
<title>Node26&#45;&gt;Node69</title>
<path fill="none" stroke="#191970" d="M2497.0692,-123.398C2498.373,-123.2547 2499.667,-123.1215 2500.9469,-123 2872.6942,-87.7047 3810.7437,-135.9013 4180.9469,-87 4190.8853,-85.6872 4201.5278,-83.4138 4211.1838,-81.0064"/>
<polygon fill="#191970" stroke="#191970" points="2496.4381,-119.9498 2486.9547,-124.6736 2497.3141,-126.8948 2496.4381,-119.9498"/>
</g>
<!-- Node70 -->
<g id="node37" class="node">
<title>Node70</title>
<g id="a_node37"><a xlink:href="ConstraintsGroup_8cpp.html" target="_top" xlink:title="ConstraintsGroup.cpp">
<polygon fill="none" stroke="#000000" points="4315.9469,-62 4315.9469,-81 4437.9469,-81 4437.9469,-62 4315.9469,-62"/>
<text text-anchor="middle" x="4376.9469" y="-69" font-family="FreeSans.ttf" font-size="10.00" fill="#000000">ConstraintsGroup.cpp</text>
</a>
</g>
</g>
<!-- Node26&#45;&gt;Node70 -->
<g id="edge37" class="edge">
<title>Node26&#45;&gt;Node70</title>
<path fill="none" stroke="#191970" d="M2497.069,-123.3954C2498.3728,-123.2528 2499.6669,-123.1206 2500.9469,-123 3300.2353,-47.7146 3509.7911,-182.2486 4306.9469,-87 4317.9466,-85.6857 4329.7587,-83.4118 4340.4887,-81.0045"/>
<polygon fill="#191970" stroke="#191970" points="2496.4395,-119.9469 2486.954,-124.6666 2497.3124,-126.8923 2496.4395,-119.9469"/>
</g>
<!-- Node71 -->
<g id="node38" class="node">
<title>Node71</title>
<g id="a_node38"><a xlink:href="FixedStepIntegrator_8cpp.html" target="_top" xlink:title="FixedStepIntegrator.cpp">
<polygon fill="none" stroke="#000000" points="4456.4469,-62 4456.4469,-81 4587.4469,-81 4587.4469,-62 4456.4469,-62"/>
<text text-anchor="middle" x="4521.9469" y="-69" font-family="FreeSans.ttf" font-size="10.00" fill="#000000">FixedStepIntegrator.cpp</text>
</a>
</g>
</g>
<!-- Node26&#45;&gt;Node71 -->
<g id="edge38" class="edge">
<title>Node26&#45;&gt;Node71</title>
<path fill="none" stroke="#191970" d="M2497.0687,-123.3929C2498.3727,-123.2511 2499.6669,-123.1196 2500.9469,-123 3362.2298,-42.4981 3587.2478,-182.9488 4446.9469,-87 4458.7073,-85.6875 4471.3555,-83.4141 4482.8526,-81.0067"/>
<polygon fill="#191970" stroke="#191970" points="2496.4409,-119.9441 2486.9534,-124.6599 2497.3109,-126.8899 2496.4409,-119.9441"/>
</g>
<!-- Node27&#45;&gt;Node29 -->
<g id="edge4" class="edge">
<title>Node27&#45;&gt;Node29</title>
<path fill="none" stroke="#191970" d="M2107.701,-59.081C2103.1137,-57.8604 2098.45,-56.7853 2093.9469,-56 1906.4028,-23.2927 1318.6317,-13.1622 1127.0119,-10.6864"/>
<polygon fill="#191970" stroke="#191970" points="2106.9505,-62.5075 2117.5296,-61.9297 2108.8992,-55.7842 2106.9505,-62.5075"/>
</g>
<!-- Node27&#45;&gt;Node31 -->
<g id="edge5" class="edge">
<title>Node27&#45;&gt;Node31</title>
<path fill="none" stroke="#191970" d="M2180.1994,-59.1535C2185.1078,-57.8742 2190.1169,-56.7647 2194.9469,-56 2432.6583,-18.3637 4182.3399,-11.2525 4548.7691,-10.1712"/>
<polygon fill="#191970" stroke="#191970" points="2179.0114,-55.8527 2170.3553,-61.9619 2180.9318,-62.5841 2179.0114,-55.8527"/>
</g>
<!-- Node99&#45;&gt;Node39 -->
<g id="edge40" class="edge">
<title>Node99&#45;&gt;Node39</title>
<path fill="none" stroke="#191970" d="M611.2257,-123.2504C559.7533,-115.2348 487.3983,-102.6643 424.9469,-87 418.2367,-85.3169 411.0969,-83.1966 404.4317,-81.0691"/>
<polygon fill="#191970" stroke="#191970" points="610.8162,-126.7286 621.2326,-124.7924 611.8823,-119.8102 610.8162,-126.7286"/>
</g>
<!-- Node99&#45;&gt;Node41 -->
<g id="edge41" class="edge">
<title>Node99&#45;&gt;Node41</title>
<path fill="none" stroke="#191970" d="M638.7298,-120.2507C601.9205,-108.5818 548.2736,-91.5752 515.0466,-81.0419"/>
<polygon fill="#191970" stroke="#191970" points="638.0443,-123.705 648.6344,-123.3906 640.1596,-117.0323 638.0443,-123.705"/>
</g>
<!-- Node99&#45;&gt;Node54 -->
<g id="edge42" class="edge">
<title>Node99&#45;&gt;Node54</title>
<path fill="none" stroke="#191970" d="M668.1678,-114.5857C661.7559,-103.632 653.8785,-90.1748 648.6512,-81.2449"/>
<polygon fill="#191970" stroke="#191970" points="665.2495,-116.5286 673.3219,-123.3906 671.2906,-112.9923 665.2495,-116.5286"/>
</g>
<!-- Node99&#45;&gt;Node55 -->
<g id="edge43" class="edge">
<title>Node99&#45;&gt;Node55</title>
<path fill="none" stroke="#191970" d="M711.7839,-119.4465C735.3589,-109.7159 767.1377,-96.5991 791.4974,-86.5446"/>
<polygon fill="#191970" stroke="#191970" points="710.1364,-116.34 702.2282,-123.3906 712.8071,-122.8105 710.1364,-116.34"/>
</g>
<!-- Node99&#45;&gt;Node63 -->
<g id="edge44" class="edge">
<title>Node99&#45;&gt;Node63</title>
<path fill="none" stroke="#191970" d="M746.1669,-121.7639C793.8223,-113.358 859.1335,-100.9454 915.9469,-87 923.0829,-85.2484 930.6978,-83.1252 937.8373,-81.0196"/>
<polygon fill="#191970" stroke="#191970" points="745.5216,-118.3236 736.2752,-123.496 746.729,-125.2187 745.5216,-118.3236"/>
</g>
<!-- Node189&#45;&gt;Node35 -->
<g id="edge46" class="edge">
<title>Node189&#45;&gt;Node35</title>
<path fill="none" stroke="#191970" d="M336.0123,-124.2587C282.4334,-112.8174 188.8595,-92.8355 133.5324,-81.0208"/>
<polygon fill="#191970" stroke="#191970" points="335.3418,-127.6944 345.8523,-126.36 336.8037,-120.8487 335.3418,-127.6944"/>
</g>
<!-- Node189&#45;&gt;Node39 -->
<g id="edge47" class="edge">
<title>Node189&#45;&gt;Node39</title>
<path fill="none" stroke="#191970" d="M376.9469,-113.2462C376.9469,-102.5519 376.9469,-89.814 376.9469,-81.2449"/>
<polygon fill="#191970" stroke="#191970" points="373.447,-113.3906 376.9469,-123.3906 380.447,-113.3907 373.447,-113.3906"/>
</g>
<!-- Node189&#45;&gt;Node41 -->
<g id="edge48" class="edge">
<title>Node189&#45;&gt;Node41</title>
<path fill="none" stroke="#191970" d="M402.5596,-118.415C422.8609,-106.8546 450.6415,-91.035 468.1904,-81.0419"/>
<polygon fill="#191970" stroke="#191970" points="400.7798,-115.4007 393.8219,-123.3906 404.2437,-121.4836 400.7798,-115.4007"/>
</g>
<!-- Node189&#45;&gt;Node57 -->
<g id="edge49" class="edge">
<title>Node189&#45;&gt;Node57</title>
<path fill="none" stroke="#191970" d="M347.7913,-118.8813C323.8407,-107.2832 290.5665,-91.1701 269.6513,-81.0419"/>
<polygon fill="#191970" stroke="#191970" points="346.5775,-122.1823 357.1032,-123.3906 349.6284,-115.8821 346.5775,-122.1823"/>
</g>
<!-- Node221&#45;&gt;Node54 -->
<g id="edge58" class="edge">
<title>Node221&#45;&gt;Node54</title>
<path fill="none" stroke="#191970" d="M851.5015,-121.7984C803.0689,-110.1177 727.9794,-92.0078 682.3473,-81.0024"/>
<polygon fill="#191970" stroke="#191970" points="850.8698,-125.2464 861.4116,-124.1885 852.511,-118.4415 850.8698,-125.2464"/>
</g>
<!-- Node221&#45;&gt;Node55 -->
<g id="edge59" class="edge">
<title>Node221&#45;&gt;Node55</title>
<path fill="none" stroke="#191970" d="M879.4666,-116.7637C868.8064,-107.398 855.4932,-95.7014 845.0709,-86.5446"/>
<polygon fill="#191970" stroke="#191970" points="877.1869,-119.4197 887.0094,-123.3906 881.807,-114.161 877.1869,-119.4197"/>
</g>
<!-- Node221&#45;&gt;Node63 -->
<g id="edge60" class="edge">
<title>Node221&#45;&gt;Node63</title>
<path fill="none" stroke="#191970" d="M916.6726,-116.5482C929.4984,-105.2798 946.075,-90.716 956.8552,-81.2449"/>
<polygon fill="#191970" stroke="#191970" points="914.0868,-114.161 908.8844,-123.3906 918.707,-119.4197 914.0868,-114.161"/>
</g>
</g>
</svg>
