<?xml version="1.0" encoding="UTF-8" standalone="no"?>
<!DOCTYPE svg PUBLIC "-//W3C//DTD SVG 1.1//EN"
 "http://www.w3.org/Graphics/SVG/1.1/DTD/svg11.dtd">
<!-- Generated by graphviz version 2.40.1 (20161225.0304)
 -->
<!-- Title: SpatialForceVector.h Pages: 1 -->
<svg width="5604pt" height="207pt"
 viewBox="0.00 0.00 5604.04 207.00" xmlns="http://www.w3.org/2000/svg" xmlns:xlink="http://www.w3.org/1999/xlink">
<g id="graph0" class="graph" transform="scale(1 1) rotate(0) translate(4 203)">
<title>SpatialForceVector.h</title>
<!-- Node32 -->
<g id="node1" class="node">
<title>Node32</title>
<polygon fill="#bfbfbf" stroke="#000000" points="2797.838,-179.5 2797.838,-198.5 2913.838,-198.5 2913.838,-179.5 2797.838,-179.5"/>
<text text-anchor="middle" x="2855.838" y="-186.5" font-family="FreeSans.ttf" font-size="10.00" fill="#000000">SpatialForceVector.h</text>
</g>
<!-- Node33 -->
<g id="node2" class="node">
<title>Node33</title>
<g id="a_node2"><a xlink:href="EigenHelpers_8h.html" target="_top" xlink:title="EigenHelpers.h">
<polygon fill="none" stroke="#ff0000" points="2810.838,-123.5 2810.838,-142.5 2900.838,-142.5 2900.838,-123.5 2810.838,-123.5"/>
<text text-anchor="middle" x="2855.838" y="-130.5" font-family="FreeSans.ttf" font-size="10.00" fill="#000000">EigenHelpers.h</text>
</a>
</g>
</g>
<!-- Node32&#45;&gt;Node33 -->
<g id="edge1" class="edge">
<title>Node32&#45;&gt;Node33</title>
<path fill="none" stroke="#191970" d="M2855.838,-169.1575C2855.838,-160.155 2855.838,-149.9199 2855.838,-142.6427"/>
<polygon fill="#191970" stroke="#191970" points="2852.3381,-169.2455 2855.838,-179.2455 2859.3381,-169.2456 2852.3381,-169.2455"/>
</g>
<!-- Node36 -->
<g id="node4" class="node">
<title>Node36</title>
<g id="a_node4"><a xlink:href="SpatialInertiaRaw_8cpp.html" target="_top" xlink:title="SpatialInertiaRaw.cpp">
<polygon fill="none" stroke="#000000" points="651.838,-.5 651.838,-19.5 773.838,-19.5 773.838,-.5 651.838,-.5"/>
<text text-anchor="middle" x="712.838" y="-7.5" font-family="FreeSans.ttf" font-size="10.00" fill="#000000">SpatialInertiaRaw.cpp</text>
</a>
</g>
</g>
<!-- Node32&#45;&gt;Node36 -->
<g id="edge58" class="edge">
<title>Node32&#45;&gt;Node36</title>
<path fill="none" stroke="#191970" d="M2787.6201,-188.5484C2404.7798,-185.912 531.4481,-171.6289 275.838,-143 154.4781,-129.4074 83.8886,-181.7428 6.838,-87 -1.8551,-76.3109 -2.5823,-66.0541 6.838,-56 28.7522,-32.6115 484.3648,-16.7798 651.8035,-11.7324"/>
<polygon fill="#191970" stroke="#191970" points="2787.6918,-192.0489 2797.7156,-188.6176 2787.7398,-185.049 2787.6918,-192.0489"/>
</g>
<!-- Node38 -->
<g id="node5" class="node">
<title>Node38</title>
<g id="a_node5"><a xlink:href="SpatialMotionVector_8cpp.html" target="_top" xlink:title="SpatialMotionVector.cpp">
<polygon fill="none" stroke="#000000" points="4582.838,-.5 4582.838,-19.5 4716.838,-19.5 4716.838,-.5 4582.838,-.5"/>
<text text-anchor="middle" x="4649.838" y="-7.5" font-family="FreeSans.ttf" font-size="10.00" fill="#000000">SpatialMotionVector.cpp</text>
</a>
</g>
</g>
<!-- Node32&#45;&gt;Node38 -->
<g id="edge59" class="edge">
<title>Node32&#45;&gt;Node38</title>
<path fill="none" stroke="#191970" d="M2875.5219,-172.7106C2897.5436,-154.8882 2932.1784,-128.1541 2947.838,-123 3017.5282,-100.0626 5537.3138,-139.2313 5588.838,-87 5598.5137,-77.1915 5598.339,-65.9779 5588.838,-56 5558.8357,-24.492 4927.2437,-13.5573 4717.1385,-10.784"/>
<polygon fill="#191970" stroke="#191970" points="2873.0257,-170.2302 2867.4929,-179.2656 2877.4526,-175.6526 2873.0257,-170.2302"/>
</g>
<!-- Node47 -->
<g id="node11" class="node">
<title>Node47</title>
<g id="a_node11"><a xlink:href="SpatialForceVector_8cpp.html" target="_top" xlink:title="SpatialForceVector.cpp">
<polygon fill="none" stroke="#000000" points="1029.338,-62 1029.338,-81 1156.338,-81 1156.338,-62 1029.338,-62"/>
<text text-anchor="middle" x="1092.838" y="-69" font-family="FreeSans.ttf" font-size="10.00" fill="#000000">SpatialForceVector.cpp</text>
</a>
</g>
</g>
<!-- Node32&#45;&gt;Node47 -->
<g id="edge57" class="edge">
<title>Node32&#45;&gt;Node47</title>
<path fill="none" stroke="#191970" d="M2787.2995,-188.5163C2557.1897,-186.1157 1791.5582,-171.831 1165.838,-87 1154.9251,-85.5205 1143.2112,-83.3147 1132.4312,-81.028"/>
<polygon fill="#191970" stroke="#191970" points="2787.4929,-192.0184 2797.5275,-188.6188 2787.5631,-185.0187 2787.4929,-192.0184"/>
</g>
<!-- Node106 -->
<g id="node44" class="node">
<title>Node106</title>
<g id="a_node44"><a xlink:href="SpatialMomentum_8h.html" target="_top" xlink:title="SpatialMomentum.h">
<polygon fill="none" stroke="#ff0000" points="440.338,-123.5 440.338,-142.5 555.338,-142.5 555.338,-123.5 440.338,-123.5"/>
<text text-anchor="middle" x="497.838" y="-130.5" font-family="FreeSans.ttf" font-size="10.00" fill="#000000">SpatialMomentum.h</text>
</a>
</g>
</g>
<!-- Node32&#45;&gt;Node106 -->
<g id="edge44" class="edge">
<title>Node32&#45;&gt;Node106</title>
<path fill="none" stroke="#191970" d="M2787.4764,-188.0159C2523.2612,-184.1064 1543.4595,-168.6275 736.838,-143 674.9904,-141.035 604.1736,-137.9698 555.7797,-135.7507"/>
<polygon fill="#191970" stroke="#191970" points="2787.6301,-191.5185 2797.6806,-188.1664 2787.7333,-184.5192 2787.6301,-191.5185"/>
</g>
<!-- Node196 -->
<g id="node45" class="node">
<title>Node196</title>
<g id="a_node45"><a xlink:href="Wrench_8h.html" target="_top" xlink:title="Wrench.h">
<polygon fill="none" stroke="#ff0000" points="745.838,-123.5 745.838,-142.5 807.838,-142.5 807.838,-123.5 745.838,-123.5"/>
<text text-anchor="middle" x="776.838" y="-130.5" font-family="FreeSans.ttf" font-size="10.00" fill="#000000">Wrench.h</text>
</a>
</g>
</g>
<!-- Node32&#45;&gt;Node196 -->
<g id="edge50" class="edge">
<title>Node32&#45;&gt;Node196</title>
<path fill="none" stroke="#191970" d="M2787.4307,-187.1574C2457.4904,-178.2701 1037.0353,-140.0087 808.0548,-133.8409"/>
<polygon fill="#191970" stroke="#191970" points="2787.6997,-190.6658 2797.7903,-187.4364 2787.8882,-183.6683 2787.6997,-190.6658"/>
</g>
<!-- Node226 -->
<g id="node46" class="node">
<title>Node226</title>
<g id="a_node46"><a xlink:href="PositionRaw_8cpp.html" target="_top" xlink:title="PositionRaw.cpp">
<polygon fill="none" stroke="#000000" points="2956.838,-123.5 2956.838,-142.5 3052.838,-142.5 3052.838,-123.5 2956.838,-123.5"/>
<text text-anchor="middle" x="3004.838" y="-130.5" font-family="FreeSans.ttf" font-size="10.00" fill="#000000">PositionRaw.cpp</text>
</a>
</g>
</g>
<!-- Node32&#45;&gt;Node226 -->
<g id="edge55" class="edge">
<title>Node32&#45;&gt;Node226</title>
<path fill="none" stroke="#191970" d="M2890.9892,-175.7888C2918.1948,-165.5639 2955.2189,-151.6488 2979.5582,-142.5011"/>
<polygon fill="#191970" stroke="#191970" points="2889.5813,-172.5788 2881.452,-179.3733 2892.0441,-179.1313 2889.5813,-172.5788"/>
</g>
<!-- Node227 -->
<g id="node47" class="node">
<title>Node227</title>
<g id="a_node47"><a xlink:href="RotationRaw_8cpp.html" target="_top" xlink:title="RotationRaw.cpp">
<polygon fill="none" stroke="#000000" points="3070.838,-123.5 3070.838,-142.5 3168.838,-142.5 3168.838,-123.5 3070.838,-123.5"/>
<text text-anchor="middle" x="3119.838" y="-130.5" font-family="FreeSans.ttf" font-size="10.00" fill="#000000">RotationRaw.cpp</text>
</a>
</g>
</g>
<!-- Node32&#45;&gt;Node227 -->
<g id="edge56" class="edge">
<title>Node32&#45;&gt;Node227</title>
<path fill="none" stroke="#191970" d="M2910.9607,-177.3073C2959.6073,-166.9883 3029.6368,-152.1336 3074.9407,-142.5237"/>
<polygon fill="#191970" stroke="#191970" points="2909.9773,-173.9379 2900.9212,-179.4369 2911.4299,-180.7856 2909.9773,-173.9379"/>
</g>
<!-- Node108 -->
<g id="node48" class="node">
<title>Node108</title>
<g id="a_node48"><a xlink:href="TestUtils_8cpp.html" target="_top" xlink:title="TestUtils.cpp">
<polygon fill="none" stroke="#000000" points="3187.338,-123.5 3187.338,-142.5 3266.338,-142.5 3266.338,-123.5 3187.338,-123.5"/>
<text text-anchor="middle" x="3226.838" y="-130.5" font-family="FreeSans.ttf" font-size="10.00" fill="#000000">TestUtils.cpp</text>
</a>
</g>
</g>
<!-- Node32&#45;&gt;Node108 -->
<g id="edge60" class="edge">
<title>Node32&#45;&gt;Node108</title>
<path fill="none" stroke="#191970" d="M2924.0434,-180.4523C2989.3475,-171.9859 3090.5606,-158.1262 3177.838,-143 3180.9177,-142.4662 3184.1002,-141.8849 3187.2958,-141.2798"/>
<polygon fill="#191970" stroke="#191970" points="2923.3481,-177.0129 2913.8784,-181.7642 2924.2442,-183.9553 2923.3481,-177.0129"/>
</g>
<!-- Node109 -->
<g id="node49" class="node">
<title>Node109</title>
<g id="a_node49"><a xlink:href="DynamicsUtils_8h.html" target="_top" xlink:title="DynamicsUtils.h">
<polygon fill="none" stroke="#000000" points="3284.338,-123.5 3284.338,-142.5 3381.338,-142.5 3381.338,-123.5 3284.338,-123.5"/>
<text text-anchor="middle" x="3332.838" y="-130.5" font-family="FreeSans.ttf" font-size="10.00" fill="#000000">DynamicsUtils.h</text>
</a>
</g>
</g>
<!-- Node32&#45;&gt;Node109 -->
<g id="edge61" class="edge">
<title>Node32&#45;&gt;Node109</title>
<path fill="none" stroke="#191970" d="M2924.1659,-182.884C3007.4196,-175.1169 3152.2714,-160.5872 3275.838,-143 3278.5236,-142.6178 3281.2768,-142.2049 3284.0534,-141.7722"/>
<polygon fill="#191970" stroke="#191970" points="2923.7099,-179.4112 2914.0761,-183.8203 2924.3567,-186.3813 2923.7099,-179.4112"/>
</g>
<!-- Node228 -->
<g id="node50" class="node">
<title>Node228</title>
<g id="a_node50"><a xlink:href="JointState_8h.html" target="_top" xlink:title="JointState.h">
<polygon fill="none" stroke="#ff0000" points="285.338,-123.5 285.338,-142.5 358.338,-142.5 358.338,-123.5 285.338,-123.5"/>
<text text-anchor="middle" x="321.838" y="-130.5" font-family="FreeSans.ttf" font-size="10.00" fill="#000000">JointState.h</text>
</a>
</g>
</g>
<!-- Node32&#45;&gt;Node228 -->
<g id="edge62" class="edge">
<title>Node32&#45;&gt;Node228</title>
<path fill="none" stroke="#191970" d="M2787.6997,-188.3765C2445.0527,-185.1392 907.9441,-169.3759 430.838,-143 406.7409,-141.6678 379.7267,-139.1963 358.6203,-137.0438"/>
<polygon fill="#191970" stroke="#191970" points="2787.6919,-191.8765 2797.7245,-188.4709 2787.7579,-184.8768 2787.6919,-191.8765"/>
</g>
<!-- Node34 -->
<g id="node3" class="node">
<title>Node34</title>
<g id="a_node3"><a xlink:href="PrivateUtils_8h.html" target="_top" xlink:title="PrivateUtils.h">
<polygon fill="none" stroke="#ff0000" points="1394.338,-62 1394.338,-81 1477.338,-81 1477.338,-62 1394.338,-62"/>
<text text-anchor="middle" x="1435.838" y="-69" font-family="FreeSans.ttf" font-size="10.00" fill="#000000">PrivateUtils.h</text>
</a>
</g>
</g>
<!-- Node33&#45;&gt;Node34 -->
<g id="edge2" class="edge">
<title>Node33&#45;&gt;Node34</title>
<path fill="none" stroke="#191970" d="M2800.5657,-131.996C2560.8997,-127.527 1617.7368,-108.7049 1486.838,-87 1478.8041,-85.6679 1470.2671,-83.42 1462.5223,-81.0434"/>
<polygon fill="#191970" stroke="#191970" points="2800.7198,-135.4994 2810.7831,-132.1858 2800.8498,-128.5006 2800.7198,-135.4994"/>
</g>
<!-- Node33&#45;&gt;Node38 -->
<g id="edge12" class="edge">
<title>Node33&#45;&gt;Node38</title>
<path fill="none" stroke="#191970" d="M2910.9602,-123.3972C2912.264,-123.2541 2913.558,-123.1212 2914.838,-123 2962.3027,-118.5043 4593.6139,-116.7906 4630.838,-87 4651.1559,-70.7395 4651.8292,-36.5191 4650.79,-19.7206"/>
<polygon fill="#191970" stroke="#191970" points="2910.3296,-119.9489 2900.8455,-124.6715 2911.2046,-126.894 2910.3296,-119.9489"/>
</g>
<!-- Node42 -->
<g id="node6" class="node">
<title>Node42</title>
<g id="a_node6"><a xlink:href="ArticulatedBodyInertia_8cpp.html" target="_top" xlink:title="ArticulatedBodyInertia.cpp">
<polygon fill="none" stroke="#000000" points="864.838,-62 864.838,-81 1010.838,-81 1010.838,-62 864.838,-62"/>
<text text-anchor="middle" x="937.838" y="-69" font-family="FreeSans.ttf" font-size="10.00" fill="#000000">ArticulatedBodyInertia.cpp</text>
</a>
</g>
</g>
<!-- Node33&#45;&gt;Node42 -->
<g id="edge5" class="edge">
<title>Node33&#45;&gt;Node42</title>
<path fill="none" stroke="#191970" d="M2800.3951,-132.8034C2533.4395,-131.674 1378.7395,-124.6611 1020.838,-87 1008.009,-85.65 994.1924,-83.3966 981.583,-81.0204"/>
<polygon fill="#191970" stroke="#191970" points="2800.6007,-136.3041 2810.6151,-132.8455 2800.6296,-129.3042 2800.6007,-136.3041"/>
</g>
<!-- Node43 -->
<g id="node7" class="node">
<title>Node43</title>
<g id="a_node7"><a xlink:href="CubicSpline_8cpp.html" target="_top" xlink:title="CubicSpline.cpp">
<polygon fill="none" stroke="#000000" points="4677.838,-62 4677.838,-81 4771.838,-81 4771.838,-62 4677.838,-62"/>
<text text-anchor="middle" x="4724.838" y="-69" font-family="FreeSans.ttf" font-size="10.00" fill="#000000">CubicSpline.cpp</text>
</a>
</g>
</g>
<!-- Node33&#45;&gt;Node43 -->
<g id="edge6" class="edge">
<title>Node33&#45;&gt;Node43</title>
<path fill="none" stroke="#191970" d="M2910.9601,-123.3965C2912.2639,-123.2536 2913.558,-123.121 2914.838,-123 3301.862,-86.4192 4278.6107,-139.2087 4663.838,-87 4673.4747,-85.694 4683.7837,-83.4226 4693.1327,-81.015"/>
<polygon fill="#191970" stroke="#191970" points="2910.33,-119.9481 2900.8454,-124.6697 2911.2042,-126.8933 2910.33,-119.9481"/>
</g>
<!-- Node44 -->
<g id="node8" class="node">
<title>Node44</title>
<g id="a_node8"><a xlink:href="Direction_8cpp.html" target="_top" xlink:title="Direction.cpp">
<polygon fill="none" stroke="#000000" points="4790.338,-62 4790.338,-81 4871.338,-81 4871.338,-62 4790.338,-62"/>
<text text-anchor="middle" x="4830.838" y="-69" font-family="FreeSans.ttf" font-size="10.00" fill="#000000">Direction.cpp</text>
</a>
</g>
</g>
<!-- Node33&#45;&gt;Node44 -->
<g id="edge7" class="edge">
<title>Node33&#45;&gt;Node44</title>
<path fill="none" stroke="#191970" d="M2910.9599,-123.3943C2912.2638,-123.2521 2913.5579,-123.1202 2914.838,-123 3327.7666,-84.2395 4371.3881,-153.0549 4780.838,-87 4788.8231,-85.7118 4797.2994,-83.4459 4804.9601,-81.0378"/>
<polygon fill="#191970" stroke="#191970" points="2910.3312,-119.9457 2900.8448,-124.6636 2911.2028,-126.8912 2910.3312,-119.9457"/>
</g>
<!-- Node45 -->
<g id="node9" class="node">
<title>Node45</title>
<g id="a_node9"><a xlink:href="InertiaNonLinearParametrization_8cpp.html" target="_top" xlink:title="InertiaNonLinearParametrization.cpp">
<polygon fill="none" stroke="#000000" points="4889.338,-62 4889.338,-81 5084.338,-81 5084.338,-62 4889.338,-62"/>
<text text-anchor="middle" x="4986.838" y="-69" font-family="FreeSans.ttf" font-size="10.00" fill="#000000">InertiaNonLinearParametrization.cpp</text>
</a>
</g>
</g>
<!-- Node33&#45;&gt;Node45 -->
<g id="edge8" class="edge">
<title>Node33&#45;&gt;Node45</title>
<path fill="none" stroke="#191970" d="M2910.9597,-123.3926C2912.2637,-123.2509 2913.5579,-123.1195 2914.838,-123 3784.9773,-41.7529 4009.8326,-158.3666 4880.838,-87 4897.15,-85.6635 4914.7729,-83.4142 4930.8779,-81.0378"/>
<polygon fill="#191970" stroke="#191970" points="2910.3321,-119.9438 2900.8444,-124.659 2911.2017,-126.8895 2910.3321,-119.9438"/>
</g>
<!-- Node46 -->
<g id="node10" class="node">
<title>Node46</title>
<g id="a_node10"><a xlink:href="Rotation_8cpp.html" target="_top" xlink:title="Rotation.cpp">
<polygon fill="none" stroke="#000000" points="491.338,-62 491.338,-81 568.338,-81 568.338,-62 491.338,-62"/>
<text text-anchor="middle" x="529.838" y="-69" font-family="FreeSans.ttf" font-size="10.00" fill="#000000">Rotation.cpp</text>
</a>
</g>
</g>
<!-- Node33&#45;&gt;Node46 -->
<g id="edge9" class="edge">
<title>Node33&#45;&gt;Node46</title>
<path fill="none" stroke="#191970" d="M2800.2697,-132.8479C2472.9407,-131.823 802.8781,-124.7657 577.838,-87 570.2381,-85.7246 562.1912,-83.4945 554.9027,-81.1167"/>
<polygon fill="#191970" stroke="#191970" points="2800.4436,-136.3484 2810.4544,-132.8792 2800.4652,-129.3484 2800.4436,-136.3484"/>
</g>
<!-- Node33&#45;&gt;Node47 -->
<g id="edge10" class="edge">
<title>Node33&#45;&gt;Node47</title>
<path fill="none" stroke="#191970" d="M2800.6947,-132.8486C2547.3191,-131.9462 1493.2036,-125.8814 1165.838,-87 1154.5161,-85.6553 1142.3521,-83.4035 1131.2627,-81.0272"/>
<polygon fill="#191970" stroke="#191970" points="2800.7535,-136.3488 2810.7655,-132.8833 2800.7776,-129.3488 2800.7535,-136.3488"/>
</g>
<!-- Node48 -->
<g id="node12" class="node">
<title>Node48</title>
<g id="a_node12"><a xlink:href="SpatialInertia_8cpp.html" target="_top" xlink:title="SpatialInertia.cpp">
<polygon fill="none" stroke="#000000" points="586.838,-62 586.838,-81 688.838,-81 688.838,-62 586.838,-62"/>
<text text-anchor="middle" x="637.838" y="-69" font-family="FreeSans.ttf" font-size="10.00" fill="#000000">SpatialInertia.cpp</text>
</a>
</g>
</g>
<!-- Node33&#45;&gt;Node48 -->
<g id="edge11" class="edge">
<title>Node33&#45;&gt;Node48</title>
<path fill="none" stroke="#191970" d="M2800.2376,-132.5844C2483.2826,-130.1123 911.3032,-116.442 697.838,-87 688.3526,-85.6917 678.2106,-83.4197 669.015,-81.0122"/>
<polygon fill="#191970" stroke="#191970" points="2800.5211,-136.0866 2810.548,-132.6643 2800.5754,-129.0868 2800.5211,-136.0866"/>
</g>
<!-- Node49 -->
<g id="node13" class="node">
<title>Node49</title>
<g id="a_node13"><a xlink:href="TransformDerivative_8cpp.html" target="_top" xlink:title="TransformDerivative.cpp">
<polygon fill="none" stroke="#000000" points="5102.338,-62 5102.338,-81 5239.338,-81 5239.338,-62 5102.338,-62"/>
<text text-anchor="middle" x="5170.838" y="-69" font-family="FreeSans.ttf" font-size="10.00" fill="#000000">TransformDerivative.cpp</text>
</a>
</g>
</g>
<!-- Node33&#45;&gt;Node49 -->
<g id="edge13" class="edge">
<title>Node33&#45;&gt;Node49</title>
<path fill="none" stroke="#191970" d="M2910.9594,-123.3895C2912.2635,-123.2487 2913.5578,-123.1184 2914.838,-123 3397.069,-78.4081 4612.3495,-139.0002 5093.838,-87 5105.904,-85.6969 5118.887,-83.4264 5130.691,-81.0187"/>
<polygon fill="#191970" stroke="#191970" points="2910.3337,-119.9403 2900.8436,-124.6506 2911.1998,-126.8865 2910.3337,-119.9403"/>
</g>
<!-- Node50 -->
<g id="node14" class="node">
<title>Node50</title>
<g id="a_node14"><a xlink:href="AttitudeEstimatorUtils_8h.html" target="_top" xlink:title="AttitudeEstimatorUtils.h">
<polygon fill="none" stroke="#ff0000" points="5257.838,-62 5257.838,-81 5391.838,-81 5391.838,-62 5257.838,-62"/>
<text text-anchor="middle" x="5324.838" y="-69" font-family="FreeSans.ttf" font-size="10.00" fill="#000000">AttitudeEstimatorUtils.h</text>
</a>
</g>
</g>
<!-- Node33&#45;&gt;Node50 -->
<g id="edge14" class="edge">
<title>Node33&#45;&gt;Node50</title>
<path fill="none" stroke="#191970" d="M2910.9593,-123.3876C2912.2634,-123.2473 2913.5577,-123.1177 2914.838,-123 3431.3888,-75.5202 4733.149,-143.0714 5248.838,-87 5260.7525,-85.7045 5273.5685,-83.4364 5285.219,-81.0285"/>
<polygon fill="#191970" stroke="#191970" points="2910.3348,-119.9382 2900.8431,-124.6455 2911.1986,-126.8847 2910.3348,-119.9382"/>
</g>
<!-- Node54 -->
<g id="node15" class="node">
<title>Node54</title>
<g id="a_node15"><a xlink:href="GravityCompensationHelpers_8h.html" target="_top" xlink:title="GravityCompensationHelpers.h">
<polygon fill="none" stroke="#ff0000" points="5409.838,-62 5409.838,-81 5579.838,-81 5579.838,-62 5409.838,-62"/>
<text text-anchor="middle" x="5494.838" y="-69" font-family="FreeSans.ttf" font-size="10.00" fill="#000000">GravityCompensationHelpers.h</text>
</a>
</g>
</g>
<!-- Node33&#45;&gt;Node54 -->
<g id="edge15" class="edge">
<title>Node33&#45;&gt;Node54</title>
<path fill="none" stroke="#191970" d="M2910.9591,-123.3859C2912.2633,-123.2462 2913.5577,-123.1171 2914.838,-123 4015.2517,-22.3764 4300.202,-185.1623 5400.838,-87 5415.5002,-85.6923 5431.3289,-83.4205 5445.7409,-81.0129"/>
<polygon fill="#191970" stroke="#191970" points="2910.3356,-119.9364 2900.8427,-124.6411 2911.1976,-126.8831 2910.3356,-119.9364"/>
</g>
<!-- Node56 -->
<g id="node16" class="node">
<title>Node56</title>
<g id="a_node16"><a xlink:href="KalmanFilter_8h.html" target="_top" xlink:title="KalmanFilter.h">
<polygon fill="none" stroke="#ff0000" points="1174.838,-62 1174.838,-81 1260.838,-81 1260.838,-62 1174.838,-62"/>
<text text-anchor="middle" x="1217.838" y="-69" font-family="FreeSans.ttf" font-size="10.00" fill="#000000">KalmanFilter.h</text>
</a>
</g>
</g>
<!-- Node33&#45;&gt;Node56 -->
<g id="edge16" class="edge">
<title>Node33&#45;&gt;Node56</title>
<path fill="none" stroke="#191970" d="M2800.6193,-132.2341C2538.2819,-128.4824 1424.2047,-111.2416 1270.838,-87 1262.505,-85.6829 1253.6383,-83.4397 1245.5894,-81.0628"/>
<polygon fill="#191970" stroke="#191970" points="2800.6243,-135.7344 2810.6731,-132.3772 2800.724,-128.7351 2800.6243,-135.7344"/>
</g>
<!-- Node58 -->
<g id="node17" class="node">
<title>Node58</title>
<g id="a_node17"><a xlink:href="BerdyHelper_8cpp.html" target="_top" xlink:title="BerdyHelper.cpp">
<polygon fill="none" stroke="#000000" points="1279.338,-62 1279.338,-81 1376.338,-81 1376.338,-62 1279.338,-62"/>
<text text-anchor="middle" x="1327.838" y="-69" font-family="FreeSans.ttf" font-size="10.00" fill="#000000">BerdyHelper.cpp</text>
</a>
</g>
</g>
<!-- Node33&#45;&gt;Node58 -->
<g id="edge17" class="edge">
<title>Node33&#45;&gt;Node58</title>
<path fill="none" stroke="#191970" d="M2800.2439,-132.0169C2549.2087,-127.4754 1527.4749,-107.8577 1385.838,-87 1376.7638,-85.6637 1367.0746,-83.4146 1358.2654,-81.0381"/>
<polygon fill="#191970" stroke="#191970" points="2800.5177,-135.5223 2810.5792,-132.2032 2800.644,-128.5235 2800.5177,-135.5223"/>
</g>
<!-- Node59 -->
<g id="node18" class="node">
<title>Node59</title>
<g id="a_node18"><a xlink:href="BerdySparseMAPSolver_8cpp.html" target="_top" xlink:title="BerdySparseMAPSolver.cpp">
<polygon fill="none" stroke="#000000" points="1495.338,-62 1495.338,-81 1644.338,-81 1644.338,-62 1495.338,-62"/>
<text text-anchor="middle" x="1569.838" y="-69" font-family="FreeSans.ttf" font-size="10.00" fill="#000000">BerdySparseMAPSolver.cpp</text>
</a>
</g>
</g>
<!-- Node33&#45;&gt;Node59 -->
<g id="edge18" class="edge">
<title>Node33&#45;&gt;Node59</title>
<path fill="none" stroke="#191970" d="M2800.4797,-131.9429C2595.6003,-127.8652 1880.5503,-112.1223 1653.838,-87 1641.1622,-85.5954 1627.5232,-83.3852 1614.9987,-81.0693"/>
<polygon fill="#191970" stroke="#191970" points="2800.6312,-135.4465 2810.6985,-132.145 2800.7697,-128.4478 2800.6312,-135.4465"/>
</g>
<!-- Node60 -->
<g id="node19" class="node">
<title>Node60</title>
<g id="a_node19"><a xlink:href="ExtendedKalmanFilter_8cpp.html" target="_top" xlink:title="ExtendedKalmanFilter.cpp">
<polygon fill="none" stroke="#000000" points="1662.338,-62 1662.338,-81 1805.338,-81 1805.338,-62 1662.338,-62"/>
<text text-anchor="middle" x="1733.838" y="-69" font-family="FreeSans.ttf" font-size="10.00" fill="#000000">ExtendedKalmanFilter.cpp</text>
</a>
</g>
</g>
<!-- Node33&#45;&gt;Node60 -->
<g id="edge19" class="edge">
<title>Node33&#45;&gt;Node60</title>
<path fill="none" stroke="#191970" d="M2800.5848,-131.6167C2614.0508,-126.7806 2008.4846,-109.6852 1814.838,-87 1802.6084,-85.5673 1789.4544,-83.348 1777.3772,-81.0322"/>
<polygon fill="#191970" stroke="#191970" points="2800.6225,-135.1187 2810.7094,-131.8778 2800.803,-128.121 2800.6225,-135.1187"/>
</g>
<!-- Node61 -->
<g id="node20" class="node">
<title>Node61</title>
<g id="a_node20"><a xlink:href="ExternalWrenchesEstimation_8cpp.html" target="_top" xlink:title="ExternalWrenchesEstimation.cpp">
<polygon fill="none" stroke="#000000" points="16.338,-62 16.338,-81 193.338,-81 193.338,-62 16.338,-62"/>
<text text-anchor="middle" x="104.838" y="-69" font-family="FreeSans.ttf" font-size="10.00" fill="#000000">ExternalWrenchesEstimation.cpp</text>
</a>
</g>
</g>
<!-- Node33&#45;&gt;Node61 -->
<g id="edge20" class="edge">
<title>Node33&#45;&gt;Node61</title>
<path fill="none" stroke="#191970" d="M2800.5441,-132.5112C2443.4109,-129.2921 468.8986,-110.5332 201.838,-87 186.8035,-85.6752 170.5714,-83.4139 155.7666,-81.022"/>
<polygon fill="#191970" stroke="#191970" points="2800.604,-136.0118 2810.6351,-132.6019 2800.667,-129.0121 2800.604,-136.0118"/>
</g>
<!-- Node62 -->
<g id="node21" class="node">
<title>Node62</title>
<g id="a_node21"><a xlink:href="ExtWrenchesAndJointTorquesEstimator_8cpp.html" target="_top" xlink:title="ExtWrenchesAndJointTorques\lEstimator.cpp">
<polygon fill="none" stroke="#000000" points="210.838,-56.5 210.838,-86.5 368.838,-86.5 368.838,-56.5 210.838,-56.5"/>
<text text-anchor="start" x="218.838" y="-74.5" font-family="FreeSans.ttf" font-size="10.00" fill="#000000">ExtWrenchesAndJointTorques</text>
<text text-anchor="middle" x="289.838" y="-63.5" font-family="FreeSans.ttf" font-size="10.00" fill="#000000">Estimator.cpp</text>
</a>
</g>
</g>
<!-- Node33&#45;&gt;Node62 -->
<g id="edge21" class="edge">
<title>Node33&#45;&gt;Node62</title>
<path fill="none" stroke="#191970" d="M2800.4602,-132.4903C2457.1667,-129.2618 626.0791,-111.0185 377.838,-87 374.9042,-86.7161 371.9212,-86.389 368.9124,-86.0267"/>
<polygon fill="#191970" stroke="#191970" points="2800.6151,-135.9918 2810.6475,-132.5858 2800.6807,-128.9921 2800.6151,-135.9918"/>
</g>
<!-- Node63 -->
<g id="node22" class="node">
<title>Node63</title>
<g id="a_node22"><a xlink:href="SimpleLeggedOdometry_8cpp.html" target="_top" xlink:title="SimpleLeggedOdometry.cpp">
<polygon fill="none" stroke="#000000" points="1823.338,-62 1823.338,-81 1976.338,-81 1976.338,-62 1823.338,-62"/>
<text text-anchor="middle" x="1899.838" y="-69" font-family="FreeSans.ttf" font-size="10.00" fill="#000000">SimpleLeggedOdometry.cpp</text>
</a>
</g>
</g>
<!-- Node33&#45;&gt;Node63 -->
<g id="edge22" class="edge">
<title>Node33&#45;&gt;Node63</title>
<path fill="none" stroke="#191970" d="M2800.0475,-132.4731C2661.6973,-130.6408 2291.8743,-122.5273 1985.838,-87 1973.0285,-85.513 1959.2443,-83.3046 1946.5448,-81.0179"/>
<polygon fill="#191970" stroke="#191970" points="2800.3404,-135.977 2810.3839,-132.6039 2800.429,-128.9776 2800.3404,-135.977"/>
</g>
<!-- Node64 -->
<g id="node23" class="node">
<title>Node64</title>
<g id="a_node23"><a xlink:href="KinDynComputations_8cpp.html" target="_top" xlink:title="KinDynComputations.cpp">
<polygon fill="none" stroke="#000000" points="706.838,-62 706.838,-81 846.838,-81 846.838,-62 706.838,-62"/>
<text text-anchor="middle" x="776.838" y="-69" font-family="FreeSans.ttf" font-size="10.00" fill="#000000">KinDynComputations.cpp</text>
</a>
</g>
</g>
<!-- Node33&#45;&gt;Node64 -->
<g id="edge23" class="edge">
<title>Node33&#45;&gt;Node64</title>
<path fill="none" stroke="#191970" d="M2800.5207,-132.2923C2498.3377,-128.3508 1053.5384,-108.5088 855.838,-87 843.6106,-85.6697 830.4545,-83.4225 818.4532,-81.0458"/>
<polygon fill="#191970" stroke="#191970" points="2800.7396,-135.7953 2810.7843,-132.4258 2800.8307,-128.7959 2800.7396,-135.7953"/>
</g>
<!-- Node65 -->
<g id="node24" class="node">
<title>Node65</title>
<g id="a_node24"><a xlink:href="BoundingBoxHelpers_8cpp.html" target="_top" xlink:title="BoundingBoxHelpers.cpp">
<polygon fill="none" stroke="#000000" points="1994.338,-62 1994.338,-81 2133.338,-81 2133.338,-62 1994.338,-62"/>
<text text-anchor="middle" x="2063.838" y="-69" font-family="FreeSans.ttf" font-size="10.00" fill="#000000">BoundingBoxHelpers.cpp</text>
</a>
</g>
</g>
<!-- Node33&#45;&gt;Node65 -->
<g id="edge24" class="edge">
<title>Node33&#45;&gt;Node65</title>
<path fill="none" stroke="#191970" d="M2800.5374,-131.865C2680.3814,-128.8662 2386.6718,-118.6511 2142.838,-87 2131.1952,-85.4887 2118.6873,-83.3004 2107.1357,-81.042"/>
<polygon fill="#191970" stroke="#191970" points="2800.5137,-135.3653 2810.5957,-132.1091 2800.6836,-128.3674 2800.5137,-135.3653"/>
</g>
<!-- Node66 -->
<g id="node25" class="node">
<title>Node66</title>
<g id="a_node25"><a xlink:href="ConvexHullHelpers_8cpp.html" target="_top" xlink:title="ConvexHullHelpers.cpp">
<polygon fill="none" stroke="#000000" points="2151.338,-62 2151.338,-81 2282.338,-81 2282.338,-62 2151.338,-62"/>
<text text-anchor="middle" x="2216.838" y="-69" font-family="FreeSans.ttf" font-size="10.00" fill="#000000">ConvexHullHelpers.cpp</text>
</a>
</g>
</g>
<!-- Node33&#45;&gt;Node66 -->
<g id="edge25" class="edge">
<title>Node33&#45;&gt;Node66</title>
<path fill="none" stroke="#191970" d="M2800.6683,-130.7447C2699.4144,-126.1079 2477.2844,-113.6233 2291.838,-87 2280.9143,-85.4318 2269.1901,-83.2511 2258.3328,-81.02"/>
<polygon fill="#191970" stroke="#191970" points="2800.5191,-134.2414 2810.6665,-131.1949 2800.8341,-127.2485 2800.5191,-134.2414"/>
</g>
<!-- Node67 -->
<g id="node26" class="node">
<title>Node67</title>
<g id="a_node26"><a xlink:href="InverseKinematicsData_8cpp.html" target="_top" xlink:title="InverseKinematicsData.cpp">
<polygon fill="none" stroke="#000000" points="2300.338,-62 2300.338,-81 2451.338,-81 2451.338,-62 2300.338,-62"/>
<text text-anchor="middle" x="2375.838" y="-69" font-family="FreeSans.ttf" font-size="10.00" fill="#000000">InverseKinematicsData.cpp</text>
</a>
</g>
</g>
<!-- Node33&#45;&gt;Node67 -->
<g id="edge26" class="edge">
<title>Node33&#45;&gt;Node67</title>
<path fill="none" stroke="#191970" d="M2800.3323,-127.6752C2723.7591,-120.0699 2581.4878,-105.0065 2460.838,-87 2449.2659,-85.2729 2436.8547,-83.1593 2425.1899,-81.0551"/>
<polygon fill="#191970" stroke="#191970" points="2800.3964,-131.1984 2810.692,-128.6983 2801.0844,-124.2323 2800.3964,-131.1984"/>
</g>
<!-- Node68 -->
<g id="node27" class="node">
<title>Node68</title>
<g id="a_node27"><a xlink:href="InverseKinematicsNLP_8cpp.html" target="_top" xlink:title="InverseKinematicsNLP.cpp">
<polygon fill="none" stroke="#000000" points="2469.338,-62 2469.338,-81 2614.338,-81 2614.338,-62 2469.338,-62"/>
<text text-anchor="middle" x="2541.838" y="-69" font-family="FreeSans.ttf" font-size="10.00" fill="#000000">InverseKinematicsNLP.cpp</text>
</a>
</g>
</g>
<!-- Node33&#45;&gt;Node68 -->
<g id="edge27" class="edge">
<title>Node33&#45;&gt;Node68</title>
<path fill="none" stroke="#191970" d="M2800.5448,-122.1703C2741.0381,-110.5153 2647.3088,-92.1575 2590.5039,-81.0317"/>
<polygon fill="#191970" stroke="#191970" points="2800.0287,-125.6356 2810.515,-124.1231 2801.3742,-118.7662 2800.0287,-125.6356"/>
</g>
<!-- Node69 -->
<g id="node28" class="node">
<title>Node69</title>
<g id="a_node28"><a xlink:href="DenavitHartenberg_8cpp.html" target="_top" xlink:title="DenavitHartenberg.cpp">
<polygon fill="none" stroke="#000000" points="2632.838,-62 2632.838,-81 2762.838,-81 2762.838,-62 2632.838,-62"/>
<text text-anchor="middle" x="2697.838" y="-69" font-family="FreeSans.ttf" font-size="10.00" fill="#000000">DenavitHartenberg.cpp</text>
</a>
</g>
</g>
<!-- Node33&#45;&gt;Node69 -->
<g id="edge28" class="edge">
<title>Node33&#45;&gt;Node69</title>
<path fill="none" stroke="#191970" d="M2821.5346,-119.6477C2791.6162,-108.0023 2748.9507,-91.3952 2722.3521,-81.0419"/>
<polygon fill="#191970" stroke="#191970" points="2820.5619,-123.0249 2831.1505,-123.3906 2823.1011,-116.5016 2820.5619,-123.0249"/>
</g>
<!-- Node70 -->
<g id="node29" class="node">
<title>Node70</title>
<g id="a_node29"><a xlink:href="Dynamics_8cpp.html" target="_top" xlink:title="Dynamics.cpp">
<polygon fill="none" stroke="#000000" points="386.838,-62 386.838,-81 472.838,-81 472.838,-62 386.838,-62"/>
<text text-anchor="middle" x="429.838" y="-69" font-family="FreeSans.ttf" font-size="10.00" fill="#000000">Dynamics.cpp</text>
</a>
</g>
</g>
<!-- Node33&#45;&gt;Node70 -->
<g id="edge29" class="edge">
<title>Node33&#45;&gt;Node70</title>
<path fill="none" stroke="#191970" d="M2800.1147,-132.8217C2464.3589,-131.6275 717.3074,-123.6802 481.838,-87 473.5538,-85.7095 464.7448,-83.4429 456.777,-81.0349"/>
<polygon fill="#191970" stroke="#191970" points="2800.5373,-136.3231 2810.5495,-132.8582 2800.5619,-129.3231 2800.5373,-136.3231"/>
</g>
<!-- Node71 -->
<g id="node30" class="node">
<title>Node71</title>
<g id="a_node30"><a xlink:href="DynamicsLinearization_8cpp.html" target="_top" xlink:title="DynamicsLinearization.cpp">
<polygon fill="none" stroke="#000000" points="2781.338,-62 2781.338,-81 2930.338,-81 2930.338,-62 2781.338,-62"/>
<text text-anchor="middle" x="2855.838" y="-69" font-family="FreeSans.ttf" font-size="10.00" fill="#000000">DynamicsLinearization.cpp</text>
</a>
</g>
</g>
<!-- Node33&#45;&gt;Node71 -->
<g id="edge30" class="edge">
<title>Node33&#45;&gt;Node71</title>
<path fill="none" stroke="#191970" d="M2855.838,-113.2462C2855.838,-102.5519 2855.838,-89.814 2855.838,-81.2449"/>
<polygon fill="#191970" stroke="#191970" points="2852.3381,-113.3906 2855.838,-123.3906 2859.3381,-113.3907 2852.3381,-113.3906"/>
</g>
<!-- Node72 -->
<g id="node31" class="node">
<title>Node72</title>
<g id="a_node31"><a xlink:href="DynamicsLinearizationHelpers_8cpp.html" target="_top" xlink:title="DynamicsLinearizationHelpers.cpp">
<polygon fill="none" stroke="#000000" points="2947.838,-62 2947.838,-81 3133.838,-81 3133.838,-62 2947.838,-62"/>
<text text-anchor="middle" x="3040.838" y="-69" font-family="FreeSans.ttf" font-size="10.00" fill="#000000">DynamicsLinearizationHelpers.cpp</text>
</a>
</g>
</g>
<!-- Node33&#45;&gt;Node72 -->
<g id="edge31" class="edge">
<title>Node33&#45;&gt;Node72</title>
<path fill="none" stroke="#191970" d="M2894.6403,-120.1009C2929.728,-108.4366 2980.5845,-91.5302 3012.1347,-81.0419"/>
<polygon fill="#191970" stroke="#191970" points="2893.1295,-116.9147 2884.7442,-123.3906 2895.3378,-123.5573 2893.1295,-116.9147"/>
</g>
<!-- Node73 -->
<g id="node32" class="node">
<title>Node73</title>
<g id="a_node32"><a xlink:href="Jacobians_8cpp.html" target="_top" xlink:title="Jacobians.cpp">
<polygon fill="none" stroke="#000000" points="3152.338,-62 3152.338,-81 3235.338,-81 3235.338,-62 3152.338,-62"/>
<text text-anchor="middle" x="3193.838" y="-69" font-family="FreeSans.ttf" font-size="10.00" fill="#000000">Jacobians.cpp</text>
</a>
</g>
</g>
<!-- Node33&#45;&gt;Node73 -->
<g id="edge32" class="edge">
<title>Node33&#45;&gt;Node73</title>
<path fill="none" stroke="#191970" d="M2910.9905,-123.6321C2912.2852,-123.4187 2913.5692,-123.2077 2914.838,-123 3016.0793,-106.428 3042.854,-109.9708 3142.838,-87 3150.0532,-85.3423 3157.7394,-83.207 3164.8976,-81.0545"/>
<polygon fill="#191970" stroke="#191970" points="2910.2183,-120.2123 2900.9271,-125.3039 2911.3656,-127.1177 2910.2183,-120.2123"/>
</g>
<!-- Node74 -->
<g id="node33" class="node">
<title>Node74</title>
<g id="a_node33"><a xlink:href="Model_8cpp.html" target="_top" xlink:title="Model.cpp">
<polygon fill="none" stroke="#000000" points="3253.838,-62 3253.838,-81 3319.838,-81 3319.838,-62 3253.838,-62"/>
<text text-anchor="middle" x="3286.838" y="-69" font-family="FreeSans.ttf" font-size="10.00" fill="#000000">Model.cpp</text>
</a>
</g>
</g>
<!-- Node33&#45;&gt;Node74 -->
<g id="edge33" class="edge">
<title>Node33&#45;&gt;Node74</title>
<path fill="none" stroke="#191970" d="M2910.978,-123.5493C2912.2764,-123.3607 2913.5646,-123.1772 2914.838,-123 3060.9665,-102.6638 3101.2235,-120.7933 3244.838,-87 3251.1932,-85.5046 3257.8998,-83.3217 3264.0429,-81.0635"/>
<polygon fill="#191970" stroke="#191970" points="2910.2544,-120.119 2900.8934,-125.081 2911.3056,-127.0396 2910.2544,-120.119"/>
</g>
<!-- Node75 -->
<g id="node34" class="node">
<title>Node75</title>
<g id="a_node34"><a xlink:href="URDFModelExport_8cpp.html" target="_top" xlink:title="URDFModelExport.cpp">
<polygon fill="none" stroke="#000000" points="3338.338,-62 3338.338,-81 3463.338,-81 3463.338,-62 3338.338,-62"/>
<text text-anchor="middle" x="3400.838" y="-69" font-family="FreeSans.ttf" font-size="10.00" fill="#000000">URDFModelExport.cpp</text>
</a>
</g>
</g>
<!-- Node33&#45;&gt;Node75 -->
<g id="edge34" class="edge">
<title>Node33&#45;&gt;Node75</title>
<path fill="none" stroke="#191970" d="M2910.9729,-123.5114C2912.2729,-123.3341 2913.5627,-123.1632 2914.838,-123 3098.0374,-99.5487 3146.2007,-114.489 3328.838,-87 3339.3325,-85.4205 3350.5904,-83.2358 3361.0136,-81.0045"/>
<polygon fill="#191970" stroke="#191970" points="2910.2721,-120.0764 2900.8798,-124.9788 2911.2793,-127.0035 2910.2721,-120.0764"/>
</g>
<!-- Node76 -->
<g id="node35" class="node">
<title>Node76</title>
<g id="a_node35"><a xlink:href="AlglibInterface_8cpp.html" target="_top" xlink:title="AlglibInterface.cpp">
<polygon fill="none" stroke="#000000" points="3481.838,-62 3481.838,-81 3589.838,-81 3589.838,-62 3481.838,-62"/>
<text text-anchor="middle" x="3535.838" y="-69" font-family="FreeSans.ttf" font-size="10.00" fill="#000000">AlglibInterface.cpp</text>
</a>
</g>
</g>
<!-- Node33&#45;&gt;Node76 -->
<g id="edge35" class="edge">
<title>Node33&#45;&gt;Node76</title>
<path fill="none" stroke="#191970" d="M2910.9681,-123.4727C2912.2696,-123.307 2913.561,-123.149 2914.838,-123 3161.6788,-94.197 3227.2192,-124.8338 3472.838,-87 3482.3005,-85.5424 3492.4247,-83.344 3501.7281,-81.0574"/>
<polygon fill="#191970" stroke="#191970" points="2910.2909,-120.0331 2900.867,-124.8747 2911.2533,-126.9666 2910.2909,-120.0331"/>
</g>
<!-- Node77 -->
<g id="node36" class="node">
<title>Node77</title>
<g id="a_node36"><a xlink:href="ConstraintsGroup_8cpp.html" target="_top" xlink:title="ConstraintsGroup.cpp">
<polygon fill="none" stroke="#000000" points="3607.838,-62 3607.838,-81 3729.838,-81 3729.838,-62 3607.838,-62"/>
<text text-anchor="middle" x="3668.838" y="-69" font-family="FreeSans.ttf" font-size="10.00" fill="#000000">ConstraintsGroup.cpp</text>
</a>
</g>
</g>
<!-- Node33&#45;&gt;Node77 -->
<g id="edge36" class="edge">
<title>Node33&#45;&gt;Node77</title>
<path fill="none" stroke="#191970" d="M2910.9658,-123.4521C2912.2679,-123.2926 2913.5601,-123.1414 2914.838,-123 3217.4108,-89.5087 3297.1972,-128.0468 3598.838,-87 3609.4448,-85.5566 3620.8249,-83.3338 3631.2618,-81.0181"/>
<polygon fill="#191970" stroke="#191970" points="2910.3011,-120.0101 2900.8607,-124.8194 2911.2397,-126.9469 2910.3011,-120.0101"/>
</g>
<!-- Node78 -->
<g id="node37" class="node">
<title>Node78</title>
<g id="a_node37"><a xlink:href="FixedStepIntegrator_8cpp.html" target="_top" xlink:title="FixedStepIntegrator.cpp">
<polygon fill="none" stroke="#000000" points="3748.338,-62 3748.338,-81 3879.338,-81 3879.338,-62 3748.338,-62"/>
<text text-anchor="middle" x="3813.838" y="-69" font-family="FreeSans.ttf" font-size="10.00" fill="#000000">FixedStepIntegrator.cpp</text>
</a>
</g>
</g>
<!-- Node33&#45;&gt;Node78 -->
<g id="edge37" class="edge">
<title>Node33&#45;&gt;Node78</title>
<path fill="none" stroke="#191970" d="M2910.9641,-123.4366C2912.2668,-123.2817 2913.5595,-123.1357 2914.838,-123 3279.3606,-84.2968 3375.0687,-132.2401 3738.838,-87 3750.1851,-85.5888 3762.3724,-83.3765 3773.5549,-81.0606"/>
<polygon fill="#191970" stroke="#191970" points="2910.309,-119.9928 2900.8562,-124.7776 2911.2297,-126.932 2910.309,-119.9928"/>
</g>
<!-- Node79 -->
<g id="node38" class="node">
<title>Node79</title>
<g id="a_node38"><a xlink:href="ForwardEuler_8cpp.html" target="_top" xlink:title="ForwardEuler.cpp">
<polygon fill="none" stroke="#000000" points="3897.838,-62 3897.838,-81 3997.838,-81 3997.838,-62 3897.838,-62"/>
<text text-anchor="middle" x="3947.838" y="-69" font-family="FreeSans.ttf" font-size="10.00" fill="#000000">ForwardEuler.cpp</text>
</a>
</g>
</g>
<!-- Node33&#45;&gt;Node79 -->
<g id="edge38" class="edge">
<title>Node33&#45;&gt;Node79</title>
<path fill="none" stroke="#191970" d="M2910.9629,-123.425C2912.2659,-123.2736 2913.5591,-123.1314 2914.838,-123 3345.7524,-78.7108 3460.3207,-150.417 3888.838,-87 3898.0573,-85.6356 3907.91,-83.3777 3916.8713,-81.0018"/>
<polygon fill="#191970" stroke="#191970" points="2910.315,-119.9798 2900.8529,-124.7462 2911.2222,-126.9208 2910.315,-119.9798"/>
</g>
<!-- Node80 -->
<g id="node39" class="node">
<title>Node80</title>
<g id="a_node39"><a xlink:href="ImplicitTrapezoidal_8cpp.html" target="_top" xlink:title="ImplicitTrapezoidal.cpp">
<polygon fill="none" stroke="#000000" points="4016.338,-62 4016.338,-81 4145.338,-81 4145.338,-62 4016.338,-62"/>
<text text-anchor="middle" x="4080.838" y="-69" font-family="FreeSans.ttf" font-size="10.00" fill="#000000">ImplicitTrapezoidal.cpp</text>
</a>
</g>
</g>
<!-- Node33&#45;&gt;Node80 -->
<g id="edge39" class="edge">
<title>Node33&#45;&gt;Node80</title>
<path fill="none" stroke="#191970" d="M2910.9622,-123.418C2912.2654,-123.2687 2913.5588,-123.1289 2914.838,-123 3397.9883,-74.3156 3524.7165,-144.9944 4006.838,-87 4018.1759,-85.6362 4030.3541,-83.4092 4041.492,-81.0632"/>
<polygon fill="#191970" stroke="#191970" points="2910.3186,-119.9721 2900.851,-124.7276 2911.2178,-126.9141 2910.3186,-119.9721"/>
</g>
<!-- Node81 -->
<g id="node40" class="node">
<title>Node81</title>
<g id="a_node40"><a xlink:href="Integrator_8cpp.html" target="_top" xlink:title="Integrator.cpp">
<polygon fill="none" stroke="#000000" points="4163.838,-62 4163.838,-81 4247.838,-81 4247.838,-62 4163.838,-62"/>
<text text-anchor="middle" x="4205.838" y="-69" font-family="FreeSans.ttf" font-size="10.00" fill="#000000">Integrator.cpp</text>
</a>
</g>
</g>
<!-- Node33&#45;&gt;Node81 -->
<g id="edge40" class="edge">
<title>Node33&#45;&gt;Node81</title>
<path fill="none" stroke="#191970" d="M2910.9615,-123.4112C2912.2649,-123.2639 2913.5585,-123.1264 2914.838,-123 3189.1745,-95.9012 3882.7774,-131.4739 4154.838,-87 4162.8749,-85.6862 4171.4128,-83.4441 4179.1576,-81.0671"/>
<polygon fill="#191970" stroke="#191970" points="2910.3222,-119.9645 2900.8492,-124.7092 2911.2134,-126.9075 2910.3222,-119.9645"/>
</g>
<!-- Node82 -->
<g id="node41" class="node">
<title>Node82</title>
<g id="a_node41"><a xlink:href="IpoptInterface_8cpp.html" target="_top" xlink:title="IpoptInterface.cpp">
<polygon fill="none" stroke="#000000" points="4266.338,-62 4266.338,-81 4371.338,-81 4371.338,-62 4266.338,-62"/>
<text text-anchor="middle" x="4318.838" y="-69" font-family="FreeSans.ttf" font-size="10.00" fill="#000000">IpoptInterface.cpp</text>
</a>
</g>
</g>
<!-- Node33&#45;&gt;Node82 -->
<g id="edge41" class="edge">
<title>Node33&#45;&gt;Node82</title>
<path fill="none" stroke="#191970" d="M2910.9612,-123.4074C2912.2647,-123.2612 2913.5584,-123.125 2914.838,-123 3508.6715,-65.0025 3665.6802,-167.836 4256.838,-87 4266.5117,-85.6772 4276.8609,-83.4323 4286.2781,-81.0555"/>
<polygon fill="#191970" stroke="#191970" points="2910.3242,-119.9602 2900.8482,-124.6989 2911.211,-126.9038 2910.3242,-119.9602"/>
</g>
<!-- Node83 -->
<g id="node42" class="node">
<title>Node83</title>
<g id="a_node42"><a xlink:href="L2NormCost_8cpp.html" target="_top" xlink:title="L2NormCost.cpp">
<polygon fill="none" stroke="#000000" points="4389.338,-62 4389.338,-81 4486.338,-81 4486.338,-62 4389.338,-62"/>
<text text-anchor="middle" x="4437.838" y="-69" font-family="FreeSans.ttf" font-size="10.00" fill="#000000">L2NormCost.cpp</text>
</a>
</g>
</g>
<!-- Node33&#45;&gt;Node83 -->
<g id="edge42" class="edge">
<title>Node33&#45;&gt;Node83</title>
<path fill="none" stroke="#191970" d="M2910.9608,-123.4034C2912.2644,-123.2585 2913.5583,-123.1235 2914.838,-123 3239.2065,-91.6913 4058.3832,-134.0965 4380.838,-87 4389.7678,-85.6957 4399.2937,-83.4566 4407.9507,-81.0795"/>
<polygon fill="#191970" stroke="#191970" points="2910.3263,-119.9558 2900.8471,-124.6882 2911.2085,-126.9 2910.3263,-119.9558"/>
</g>
<!-- Node84 -->
<g id="node43" class="node">
<title>Node84</title>
<g id="a_node43"><a xlink:href="LinearConstraint_8cpp.html" target="_top" xlink:title="LinearConstraint.cpp">
<polygon fill="none" stroke="#000000" points="4504.338,-62 4504.338,-81 4621.338,-81 4621.338,-62 4504.338,-62"/>
<text text-anchor="middle" x="4562.838" y="-69" font-family="FreeSans.ttf" font-size="10.00" fill="#000000">LinearConstraint.cpp</text>
</a>
</g>
</g>
<!-- Node33&#45;&gt;Node84 -->
<g id="edge43" class="edge">
<title>Node33&#45;&gt;Node84</title>
<path fill="none" stroke="#191970" d="M2910.9605,-123.4003C2912.2642,-123.2563 2913.5582,-123.1224 2914.838,-123 3614.4954,-56.098 3798.4779,-174.6659 4495.838,-87 4506.2624,-85.6895 4517.437,-83.4485 4527.6143,-81.0714"/>
<polygon fill="#191970" stroke="#191970" points="2910.3279,-119.9524 2900.8463,-124.6799 2911.2066,-126.897 2910.3279,-119.9524"/>
</g>
<!-- Node34&#45;&gt;Node36 -->
<g id="edge3" class="edge">
<title>Node34&#45;&gt;Node36</title>
<path fill="none" stroke="#191970" d="M1399.4155,-59.1409C1394.8823,-57.92 1390.2798,-56.8286 1385.838,-56 1269.4159,-34.2821 916.889,-18.1687 773.9875,-12.3598"/>
<polygon fill="#191970" stroke="#191970" points="1398.5597,-62.5369 1409.1393,-61.9686 1400.5144,-55.8154 1398.5597,-62.5369"/>
</g>
<!-- Node34&#45;&gt;Node38 -->
<g id="edge4" class="edge">
<title>Node34&#45;&gt;Node38</title>
<path fill="none" stroke="#191970" d="M1472.0873,-59.1332C1476.9962,-57.8571 1482.0063,-56.754 1486.838,-56 1645.0042,-31.319 4139.4254,-13.4342 4582.7318,-10.4428"/>
<polygon fill="#191970" stroke="#191970" points="1470.9005,-55.8319 1462.2427,-61.9388 1472.819,-62.5639 1470.9005,-55.8319"/>
</g>
<!-- Node106&#45;&gt;Node46 -->
<g id="edge45" class="edge">
<title>Node106&#45;&gt;Node46</title>
<path fill="none" stroke="#191970" d="M507.5925,-114.253C513.2601,-103.3606 520.1679,-90.0846 524.7675,-81.2449"/>
<polygon fill="#191970" stroke="#191970" points="504.349,-112.9041 502.838,-123.3906 510.5587,-116.1352 504.349,-112.9041"/>
</g>
<!-- Node106&#45;&gt;Node48 -->
<g id="edge46" class="edge">
<title>Node106&#45;&gt;Node48</title>
<path fill="none" stroke="#191970" d="M528.9275,-119.3428C555.3997,-107.7139 592.7531,-91.3051 616.1166,-81.0419"/>
<polygon fill="#191970" stroke="#191970" points="527.4609,-116.1642 519.713,-123.3906 530.2762,-122.5731 527.4609,-116.1642"/>
</g>
<!-- Node106&#45;&gt;Node61 -->
<g id="edge47" class="edge">
<title>Node106&#45;&gt;Node61</title>
<path fill="none" stroke="#191970" d="M430.1468,-122.5648C370.1432,-113.2945 280.1447,-99.341 201.838,-87 189.6246,-85.0752 176.5492,-82.9974 164.0796,-81.0078"/>
<polygon fill="#191970" stroke="#191970" points="429.8344,-126.0579 440.2515,-124.1254 430.9029,-119.14 429.8344,-126.0579"/>
</g>
<!-- Node106&#45;&gt;Node62 -->
<g id="edge48" class="edge">
<title>Node106&#45;&gt;Node62</title>
<path fill="none" stroke="#191970" d="M455.4797,-120.4758C422.2703,-110.6567 375.9405,-96.9582 340.7205,-86.5446"/>
<polygon fill="#191970" stroke="#191970" points="454.756,-123.9115 465.338,-123.3906 456.7408,-117.1988 454.756,-123.9115"/>
</g>
<!-- Node106&#45;&gt;Node70 -->
<g id="edge49" class="edge">
<title>Node106&#45;&gt;Node70</title>
<path fill="none" stroke="#191970" d="M479.6473,-116.5482C467.188,-105.2798 451.085,-90.716 440.6128,-81.2449"/>
<polygon fill="#191970" stroke="#191970" points="477.4486,-119.2787 487.213,-123.3906 482.144,-114.0871 477.4486,-119.2787"/>
</g>
<!-- Node196&#45;&gt;Node42 -->
<g id="edge51" class="edge">
<title>Node196&#45;&gt;Node42</title>
<path fill="none" stroke="#191970" d="M811.3958,-119.7993C841.9008,-108.1468 885.6369,-91.4402 912.8584,-81.0419"/>
<polygon fill="#191970" stroke="#191970" points="810.0869,-116.5526 801.9942,-123.3906 812.5848,-123.0917 810.0869,-116.5526"/>
</g>
<!-- Node196&#45;&gt;Node46 -->
<g id="edge52" class="edge">
<title>Node196&#45;&gt;Node46</title>
<path fill="none" stroke="#191970" d="M735.5921,-124.5387C695.166,-115.9939 631.9155,-101.9522 577.838,-87 571.3389,-85.203 564.4069,-83.0848 557.8904,-81.0011"/>
<polygon fill="#191970" stroke="#191970" points="735.1034,-128.0124 745.6093,-126.6422 736.542,-121.1618 735.1034,-128.0124"/>
</g>
<!-- Node196&#45;&gt;Node48 -->
<g id="edge53" class="edge">
<title>Node196&#45;&gt;Node48</title>
<path fill="none" stroke="#191970" d="M745.9705,-119.3428C719.6874,-107.7139 682.6008,-91.3051 659.4042,-81.0419"/>
<polygon fill="#191970" stroke="#191970" points="744.5582,-122.5452 755.1192,-123.3906 747.3905,-116.1437 744.5582,-122.5452"/>
</g>
<!-- Node196&#45;&gt;Node64 -->
<g id="edge54" class="edge">
<title>Node196&#45;&gt;Node64</title>
<path fill="none" stroke="#191970" d="M776.838,-113.2462C776.838,-102.5519 776.838,-89.814 776.838,-81.2449"/>
<polygon fill="#191970" stroke="#191970" points="773.3381,-113.3906 776.838,-123.3906 780.3381,-113.3907 773.3381,-113.3906"/>
</g>
<!-- Node228&#45;&gt;Node61 -->
<g id="edge63" class="edge">
<title>Node228&#45;&gt;Node61</title>
<path fill="none" stroke="#191970" d="M278.166,-120.6229C236.9643,-108.9459 176.0695,-91.6877 138.5061,-81.0419"/>
<polygon fill="#191970" stroke="#191970" points="277.3563,-124.0312 287.9317,-123.3906 279.265,-117.2965 277.3563,-124.0312"/>
</g>
<!-- Node228&#45;&gt;Node62 -->
<g id="edge64" class="edge">
<title>Node228&#45;&gt;Node62</title>
<path fill="none" stroke="#191970" d="M312.222,-114.5193C307.5701,-105.5789 302.0569,-94.9832 297.6661,-86.5446"/>
<polygon fill="#191970" stroke="#191970" points="309.1173,-116.1352 316.838,-123.3906 315.327,-112.9041 309.1173,-116.1352"/>
</g>
<!-- Node228&#45;&gt;Node70 -->
<g id="edge65" class="edge">
<title>Node228&#45;&gt;Node70</title>
<path fill="none" stroke="#191970" d="M347.4506,-118.415C367.7519,-106.8546 395.5325,-91.035 413.0815,-81.0419"/>
<polygon fill="#191970" stroke="#191970" points="345.6709,-115.4007 338.713,-123.3906 349.1348,-121.4836 345.6709,-115.4007"/>
</g>
</g>
</svg>
